/* XPM */
static char * door6_xpm[] = {
"86 82 155 2",
"  	c #000000",
". 	c #8C8C8C",
"+ 	c #898989",
"@ 	c #7F7F7F",
"# 	c #7D7D7D",
"$ 	c #7B7B7B",
"% 	c #7E7E7E",
"& 	c #818181",
"* 	c #808080",
"= 	c #8B8B8B",
"- 	c #828282",
"; 	c #787878",
"> 	c #727272",
", 	c #797979",
"' 	c #848484",
") 	c #8A8A8A",
"! 	c #666666",
"~ 	c #585858",
"{ 	c #616161",
"] 	c #6C6C6C",
"^ 	c #717171",
"/ 	c #6E6E6E",
"( 	c #868686",
"_ 	c #7C7C7C",
": 	c #535353",
"< 	c #646464",
"[ 	c #6F6F6F",
"} 	c #6A6A6A",
"| 	c #5F5F5F",
"1 	c #545454",
"2 	c #5D5D5D",
"3 	c #707070",
"4 	c #737373",
"5 	c #747474",
"6 	c #696969",
"7 	c #636363",
"8 	c #606060",
"9 	c #565656",
"0 	c #686868",
"a 	c #777777",
"b 	c #767676",
"c 	c #555555",
"d 	c #626262",
"e 	c #6B6B6B",
"f 	c #676767",
"g 	c #5E5E5E",
"h 	c #6D6D6D",
"i 	c #5A5A5A",
"j 	c #656565",
"k 	c #5C5C5C",
"l 	c #5B5B5B",
"m 	c #575757",
"n 	c #595959",
"o 	c #757575",
"p 	c #525252",
"q 	c #888888",
"r 	c #878787",
"s 	c #838383",
"t 	c #606666",
"u 	c #606566",
"v 	c #656969",
"w 	c #D9403C",
"x 	c #D9733D",
"y 	c #656869",
"z 	c #676969",
"A 	c #BE6F4D",
"B 	c #BE6E4D",
"C 	c #4F4F4F",
"D 	c #4E4E4E",
"E 	c #494949",
"F 	c #4B4B4B",
"G 	c #4A4A4A",
"H 	c #4D4D4D",
"I 	c #515151",
"J 	c #4C4C4C",
"K 	c #505050",
"L 	c #7A7A7A",
"M 	c #595B5C",
"N 	c #AB7461",
"O 	c #83726D",
"P 	c #79645F",
"Q 	c #585C5C",
"R 	c #D2754A",
"S 	c #A77362",
"T 	c #82726D",
"U 	c #A87362",
"V 	c #A67362",
"W 	c #D6774A",
"X 	c #696666",
"Y 	c #5A5B5B",
"Z 	c #C07558",
"` 	c #916C60",
" .	c #606262",
"..	c #D97748",
"+.	c #77645F",
"@.	c #585C5D",
"#.	c #D2754B",
"$.	c #946B5E",
"%.	c #6C6D6D",
"&.	c #6D5E5A",
"*.	c #D5774B",
"=.	c #5D5B5B",
"-.	c #BF7558",
";.	c #96756C",
">.	c #636465",
",.	c #DA7746",
"'.	c #78645F",
").	c #736D6B",
"!.	c #DE7743",
"~.	c #6B6D6E",
"{.	c #545353",
"].	c #9B7266",
"^.	c #B6755D",
"/.	c #DE7844",
"(.	c #595B5B",
"_.	c #9C7365",
":.	c #B5745C",
"<.	c #6F6D6C",
"[.	c #9E7366",
"}.	c #545555",
"|.	c #80716D",
"1.	c #8B726B",
"2.	c #DC7744",
"3.	c #737475",
"4.	c #9C7366",
"5.	c #B4745D",
"6.	c #555758",
"7.	c #9C7265",
"8.	c #B5745D",
"9.	c #585A5B",
"0.	c #575A5B",
"a.	c #B6755C",
"b.	c #565655",
"c.	c #AC725D",
"d.	c #AB735F",
"e.	c #5C5C5D",
"f.	c #826961",
"g.	c #DA7645",
"h.	c #5A5E5F",
"i.	c #AF715B",
"j.	c #BD7253",
"k.	c #505354",
"l.	c #86685F",
"m.	c #C87654",
"n.	c #616464",
"o.	c #AB725D",
"p.	c #987266",
"q.	c #676869",
"r.	c #D97646",
"s.	c #636262",
"t.	c #5C5E5F",
"u.	c #5C5D5D",
"v.	c #606465",
"w.	c #484848",
"x.	c #858585",
"                                                                                                                                                                            ",
". + @ @ @ @ @ @ @ @ @ @ @ @ @ @ @ @ @ @ @ # $ % & * @ @ @ @ @ @ @ @ @ @ @ @ @ @ @ @ @ @ @ @ @ @ @ @ @ @ @ @ @ @ @ @ @ @ @ @ @ @ @ @ @ @ @ @ @ @ @ @ @ @ @ @ @ @ @ @ @ @ @ @ ",
"= - @ @ @ @ @ @ @ @ @ @ @ @ * @ @ ; > > > , * - ' - @ @ @ @ @ @ @ @ @ @ @ @ @ @ @ @ @ @ @ @ @ @ @ @ @ @ @ @ @ @ @ @ @ @ @ @ @ @ @ @ @ @ @ @ @ @ @ @ @ @ @ @ @ @ @ @ @ @ @ @ ",
") - @ @ @ @ @ @ @ @ @ # , ! ~ { ! ] ^ / ( @ @ @ @ @ @ @ @ @ @ @ @ @ @ @ @ @ @ @ @ @ @ @ @ @ @ @ @ @ @ @ @ @ @ @ @ @ @ @ @ @ @ @ @ @ @ @ @ @ @ @ @ @ @ @ @ @ @ @ @ @ @ @ @ @ ",
"> _ @ @ @ @ @ @ @ @ @ ] : : < [ ^ ^ & - @ @ @ @ @ @ @ @ @ @ @ @ @ @ @ @ @ @ @ @ @ @ @ @ @ @ @ @ @ @ @ @ @ @ @ @ @ @ @ @ @ @ @ @ @ @ @ @ @ @ @ @ @ @ @ @ @ @ @ @ @ @ @ @ $ / ",
"} [ > > > > > > > > ^ | 1 2 3 ^ 4 , 4 > > > 4 # _ ^ > > > > > > > > > ^ $ # # # # > > > > 5 # @ @ @ # $ ^ > > > > > > > > > > > ^ $ ^ > > > > > > > > > > > > > > > > > 6 7 ",
"} [ ^ ^ ^ ^ ^ ^ ^ ^ 8 : 9 0 3 4 a 5 ^ ^ ^ ^ ^ ^ ^ ^ ^ ^ ^ ^ ^ ^ ^ ^ ^ ^ ^ ^ ^ ^ ^ ^ ^ ^ ^ ^ ^ a a b ^ ^ ^ ^ ^ ^ ^ ^ ^ ^ ^ ^ ^ ^ ^ ^ ^ ^ ^ ^ ^ ^ ^ ^ ^ ^ ^ ^ ^ ^ ^ ^ ^ ^ 0 7 ",
"} [ ^ ^ ^ ^ ^ ^ ^ [ c c d e 0 ^ ^ ^ ^ ^ ^ ^ ^ ^ ^ ^ ^ ^ ^ ^ ^ ^ ^ ^ ^ ^ ^ ^ ^ ^ ^ ^ ^ ^ ^ ^ ^ ^ ^ ^ ^ ^ ^ ^ ^ ^ ^ ^ ^ ^ ^ ^ ^ ^ ^ ^ ^ ^ ^ ^ ^ ^ ^ ^ ^ ^ ^ ^ ^ ^ ^ ^ ^ ^ 0 7 ",
"} [ ^ ^ ^ ^ ^ ^ ^ | 1 2 e } ^ ^ ^ ^ ^ ^ ^ ^ ^ ^ ^ ^ ^ ^ ^ ^ ^ ^ ^ ^ ^ ^ ^ ^ ^ ^ ^ ^ ^ ^ ^ ^ ^ ^ ^ ^ ^ ^ ^ ^ ^ ^ ^ ^ ^ ^ ^ ^ ^ ^ ^ ^ ^ ^ ^ ^ ^ ^ ^ ^ ^ ^ ^ ^ ^ ^ ^ ^ ^ ^ 0 7 ",
"} [ ^ ^ ^ ^ ^ ^ ^ 8 ~ < 3 ^ ^ ^ ^ ^ ^ ^ ^ ^ ^ ^ ^ ^ ^ ^ ^ ^ ^ ^ ^ ^ ^ ^ ^ ^ ^ ^ ^ ^ ^ ^ ^ ^ ^ ^ ^ ^ ^ ^ ^ ^ ^ ^ ^ ^ ^ ^ ^ ^ ^ ^ ^ ^ ^ ^ ^ ^ ^ ^ ^ ^ ^ ^ ^ ^ ^ ^ ^ ^ ^ ^ f { ",
"} [ ^ ^ ^ ^ 3 3 [ g < [ ^ ^ ^ ^ ^ ^ ^ ^ ^ ^ ^ ^ ^ ^ ^ ^ ^ ^ ^ ^ ^ ^ ^ ^ ^ ^ ^ ^ ^ ^ ^ ^ ^ ^ ^ ^ ^ ^ ^ ^ ^ e ^ ^ ^ ^ ^ ^ ^ ^ ^ ^ ^ ^ ^ ^ ^ ^ ^ ^ ^ ^ ^ ^ ^ ^ ^ ^ ^ ^ ^ ^ | : ",
"} [ ^ ^ ^ ^ } [ h | 3 ^ ^ ^ ^ ^ ^ ^ ^ ^ ^ ^ ^ ^ ^ ^ ^ ^ ^ ^ ^ ^ ^ ^ ^ ^ ^ ^ ^ ^ ^ ^ ^ ^ ^ ^ ^ ^ ^ ^ ^ ^ ^ 3 ^ ^ ^ ^ ^ ^ ^ ^ ^ ^ ^ ^ ^ 3 ^ ^ ^ ^ ^ ^ ^ ^ ^ ^ ^ ^ ^ ^ ^ ] | : ",
"} [ ^ ^ 3 e } [ } [ ^ ^ ^ ^ ^ ^ ^ [ / ^ ^ ^ ^ ^ ^ ^ / 3 ^ ^ ^ ^ ^ ^ ^ ^ ^ ^ ^ ] ^ ^ ^ ^ ^ ^ ^ ^ ^ ^ ^ ^ [ h / ^ ^ ^ ^ ^ ^ e ^ ^ ^ ^ / e ^ ^ ^ ^ ^ ^ ^ ^ ^ ^ ^ ^ ^ ^ 3 e | : ",
"} [ 3 3 e } } ! 3 ^ 3 h 3 ^ e e e } 3 ^ ^ ^ ^ ^ ] / } } e ^ 3 ^ ] ^ ] h 3 e e 3 3 ^ ^ ^ ^ 3 ] 3 3 ^ ^ 3 h i / 3 } e / 3 h 3 ^ 3 ^ e h 3 e 3 ^ 3 ^ ] 3 3 3 ] h ] ^ ] [ } | : ",
"} h } } } } } } 3 / } } } } } } e 3 ^ ^ / / h } } } } } } } } } } } } } } } } e / 3 / / / } } } } / / } < ~ } } } } } } } h / } } } } } ] / / } } } } } } } } } } } } } | : ",
"} } 6 6 6 6 6 / } 6 6 6 6 6 6 } j } } } } 6 6 6 6 6 6 6 6 6 6 6 6 6 6 6 6 6 6 } } } 6 6 6 6 6 6 6 6 6 ! 1 1 7 6 6 6 6 6 6 6 6 6 < < < < < 6 6 6 6 6 6 6 6 6 6 6 6 6 } j | : ",
"e g k k k k k k k k k k k k k k k k k k k k k k k k k k k k k k k k k k k k k k k k k k k k k k k k k l k k k k k k k k k k k k k k k k k k k k k k k k k k k k k k k k l : ",
"  1 m ~ ~ ~ ~ ~ ~ ~ ~ ~ ~ ~ ~ ~ ~ ~ ~ ~ ~ ~ ~ ~ ~ m { d d d d d d d d d d 2 | ~ ~ g 1 1 g ~ ~ | 2 d d 7 7 7 d d d d d { m ~ ~ ~ ~ ~ ~ ~ ~ ~ ~ ~ ~ ~ ~ ~ 9 9 c m ~ ~ m 1 1   ",
"    4 & * @ * * * * * * * * * * * * * * * * * * * , < 7 7 7 7 7 7 7 7 7 7 g | n ~ 7 ~ ~ 7 ~ n | g 7 7 ! ! ! < 7 7 7 7 j @ * @ @ * * * * * * * * * * * @ [ e ^ # * * o p     ",
"    d [ q q % % % % % % % 5 % % @ % % % @ @ % % _ g { 7 < 6 6 6 6 6 6 6 6 7 } n n 6 7 7 6 < l } g 6 6 } } } } 6 6 6 6 6 ] r q q s % % % % % % @ % % % % # > % % % % { :     ",
"    d h [ 6 } 3 h ^ 3 3 3 a ^ ^ ; [ / ^ , o ^ h 7 k { < } } } } } } } } } 7 e l j } t u } j l e 7 } } } } } } } } } } 6 e 3 3 3 ^ ^ ^ ^ [ 3 ^ ; [ ^ [ ^ ^ / f 3 ^ ! | :     ",
"    d h 3 } } / ^ ^ e } 3 a ^ ^ ^ h } / ^ ^ ^ / < k { ! } } } } } } } 6 6 g e l j v w x y j l e g 6 6 } } } } } } } } 6 e 3 / ^ ^ ^ ^ ^ 3 3 h ^ } e h ^ ^ ] f / e j | :     ",
"    d h 3 } } } e ^ } } > o e 3 ^ h } ] ^ / / } < k { ! } } } } } j { l | < e l j z A B z j l e < | l { j } } } } } } 6 e 3 ] ^ ^ ^ ^ e } } } h } } } / ^ e f / } j | :     ",
"    d h 3 } } } e ^ } } ] / } / ^ h } } 3 } } } < k { ! } } } 0 i l e h 3 { 9 l j } 6 6 } j l 9 { 3 h e l i 0 } } } } 6 e 3 } ] ^ ^ / } } } h e } } } } h e 0 ] } j | :     ",
"    d h 3 } } } } } } } } } } } / ] } } } } } } < k { ! } 6 7 g 0 e f n C D E 9 7 ! f f ! 7 9 E D C n f e 0 g 7 6 } } 6 e 3 } } / / } } } } f [ } } } } } } 0 ] } j | :     ",
"    d h [ } } } } } } } } } } } } } } } } } } } < k { ! } | 8 } l p F G E E E G F ~ < < ~ F G E E E G F p l } 8 | } } 6 e 3 } } } } } } } } f [ } } } } } ! / } } j | :     ",
"    7 e } } } } } } } } } } } } } } } } } } } } < k { j | j 0 n G E E E E H H E E E D D E E E H H H G E E G n 0 j | 6 6 e / } } } } } } } } 0 / } } } } 6 0 h } } j | :     ",
"    7 < < < < < < < < < < < < < < < < < < < < j i k { g 6 8 H G E E G p p 1 1 p F E E E E F p 1 1 1 : I E E G H 8 6 g 6 < < < < < < < < < < | f < < < < | 0 < < < i | :     ",
"    g g g g g g g g g g g g g g g g g g g g g g g : 2 ! 8 H E E J K 1 1 1 1 1 1 1 p H H p 1 1 1 1 1 1 1 1 : G E H 8 ! 2 n g g g g g g g g g g 9 { g g g n | g g g g 1 1     ",
"    : 1 { ! ! ! ! ! 8 8 j ! ! ! ! ! 8 8 | 1 1 1 1 1 8 f H E E H 1 1 1 1 1 1 1 1 1 1 1 1 1 1 1 1 1 1 1 1 1 1 : G E H f 8 : | 7 ! ! ! ! ! ! ! 8 { ! ! ! ! ! ! 8 8 k 1 1 1     ",
"      1 | 7 j ! ! ! k n k k l | g n n 9 1 1 1 1 1 9 } n G E E 1 1 1 1 1 1 1 1 1 1 1 1 1 1 1 1 1 1 1 1 1 1 K c : G G n } 9 g 7 j ! 7 7 j ! ! ! ! j 7 n n n n 1 1 1 1 1       ",
"        9 ~ i i i i n ~ i i i ~ c ~ ~ 9 1 1 1 1 c d ~ G E E I 1 1 1 1 1 1 1 1 1 1 1 1 1 1 1 1 1 1 1 1 1 1 1 l 1 : G G ~ d c ~ n i ~ ~ n i i i i n ~ ~ ~ ~ ~ 1 1 1 1         ",
"        * h 7 ! 7 < j 0 } } } } } f j 6 h 8 1 1 n 2 G E E K 1 : H m 1 1 1 1 1 1 1 1 1 1 1 1 1 1 1 1 1 1 1 1 1 1 1 : G G 2 n 9 d j < } j f } } } } } 0 j 0 j 7 l 1 1         ",
"        * h j 6 0 6 } $ ' @ h * s > } 6 0 e 8 : { p E E G 1 1 D 2 9 1 1 1 1 1 1 1 1 1 1 1 1 1 1 1 1 1 1 1 1 1 1 1 1 D E p 7 < < e 0 6 } > s * h @ ' 5 } 6 0 f j k 1         ",
"        * 3 ] 0 } } a _ ^ 4 L 4 ^ a ^ } } f e 9 2 H E E : 1 1 n 9 1 1 1 1 1 M N N N N O N N P 1 1 1 1 1 1 1 1 1 1 1 1 G H | 6 ] f } } o % > 4 L 4 ^ o > } } 0 ] ! ~         ",
"        @ b j } } $ , ; f [ L , 6 ^ o > } } < k : E E H 1 1 1 1 1 1 1 1 1 Q R S S S S T U V W X 1 1 1 1 1 1 1 1 1 1 1 I E 9 ^ j } } a L , 6 h L ; e ^ 5 o } } j h m         ",
"        * h } } 3 # , 0 ^ 3 [ ; , 0 ^ o e } 6 k G E E K 1 1 1 1 1 1 1 1 Y Z ` i p e / ~ g I  ...+.1 1 1 1 1 1 1 1 1 1 : E D e 6 } h * L 6 [ 4 h , L f ^ 5 h } } 7 ~         ",
"        * h } } * o f 4 o e 0 [ 3 j 0 [ a } 6 k G E K 1 1 1 1 1 1 1 1 @.#.$.%.n F I 1 J J 1 h &.*.X 1 1 1 1 1 1 1 1 1 1 H D e 6 } ; o 6 ^ b h 0 h ^ j 0 3 a } } 7 ~         ",
"        * ^ } } # ^ < ; > 6 6 e 3 f j > ; } } 8 G E : 1 1 1 1 1 1 1 =.-.;.} l H K F 2 G C C l J >.,.'.1 1 1 1 1 1 1 1 1 D D / } } # > j o 4 e 6 6 ^ ! j ^ ; } } 0 m         ",
"        * ^ } } _ [ < e > 4 a o ] f j 3 < } } 8 G H 1 1 1 1 1 1 1 : ).!.~.K F D p F 2 G I I J F {.].^.c 1 1 1 1 1 1 1 1 D K 4 } } _ 3 j e ^ o a 4 / ! j 3 ! } } 0 m         ",
"        @ o } } f a [ 4 j 5 4 ^ j _ [ o ! } } { G D 1 1 1 1 1 1 1 : )./.(.~ C I p i 1 K ~ J J 2 1 _.:.{ 1 1 1 1 1 1 1 1 D I ; } } ! o [ _ ! ^ 4 5 j a ^ a ! } } ] m         ",
"        @ @ } } 6 } , _ e ! f ! h , , 0 } } e j F p 1 1 1 1 1 1 1 : <.[.}.J E F J F c G H G G J J |.1.> : 1 1 1 1 1 1 1 D I * ] } } 0 , , h ! f ! e _ , } 6 } } ; m         ",
"        @ # / } } ! h , ^ } } } > ; ] f } } / 7 F 1 1 1 1 1 1 1 1 : ).2.3.| < g c C I F p g g [ ] 4.5.5 : 1 1 1 1 1 1 1 D I @ [ } } f ] ; > } } } ^ , h ! } } / o m         ",
"        @ b $ } } 6 } [ * 6 } 6 * 3 6 6 } 6 _ k F 1 1 1 1 1 1 1 1 : )./.6.K G D C m I D 1 G F K C 7.8.8 1 1 1 1 1 1 1 1 D I ; # 6 } 6 6 3 * 6 } 6 * [ } 6 } } $ h m         ",
"        @ b 5 > } } ! a ^ ; } # 3 o ! } } o > k F 1 1 1 1 1 1 1 1 : )./.9.G G i K K K F p C I F K 7.:.; : 1 1 1 1 1 1 : E I , 4 o } } ! o 3 # } ; ^ a ! } } > 5 h m         ",
"        @ b > ; } } 6 } , $ / , , 0 } } e a 3 k F 1 1 1 1 1 1 1 1 : )./.0.I D ~ D : : ~ K C C i K ].a.} : 1 1 1 1 1 1 : E I , ^ ; e } } 0 , , / $ , } 6 } } ; > h m         ",
"        @ b ^ 0 } } 3 f h , 4 ; e ! h } ] b 3 k F 1 1 1 1 1 1 1 1 1 b.c.d.}.> n F H F F J m ; e.f.g.7 8 1 1 1 1 1 1 1 : E I , ^ } } } [ 6 e ; 4 , h j h } } ; ^ h m         ",
"        @ b 0 6 } ; _ h } [ & 3 6 6 b ^ } 0 0 k F 1 1 1 1 1 1 1 1 1 1 h.i.j.k.K : 9 I D 9 K D l.m.n.^ i 1 1 1 1 1 1 1 : E I , 6 6 } o _ 3 6 3 & 3 } 6 o 4 } 6 0 h m         ",
"        @ o j } 5 _ L ; f @ 3 o 0 b $ ; / } j k F 1 1 1 1 1 1 1 1 1 1 n i o.p.p p K I J : p q.r.s.o n 1 1 1 1 1 1 1 1 : G I ; ! } ^ @ $ b 0 $ ^ a f ; L a 3 } j ] m         ",
"        * h } } & o 6 0 ^ , ; f h 0 } 5 # 6 } k F 1 1 1 1 1 1 1 1 1 1 1 n t.u.C ~ m : F m m ~ v.^ n 1 1 1 1 1 1 1 1 1 1 D I > } 6 & 5 } 0 [ L , 6 h 0 0 o # } } 7 ~         ",
"        * 4 } } L ^ j } ] ; 3 < < 6 $ ^ ! } } { F 1 1 1 1 1 1 1 1 1 1 1 1 1 D I J F F J H H J m i 1 1 1 1 1 1 1 1 1 1 1 D I a } } L ^ j } } L ^ < < 6 $ ^ f } } } m         ",
"        @ * } } j a h a ; , } e h a a b j } } j F 1 1 1 1 1 1 1 1 1 1 1 1 K m D 9 p I 2 2 m 9 F 1 1 1 1 1 1 1 D I 1 1 1 D I & e } < b h a ; , e } ] a a a ! } } ; m         ",
"        @ b L } 6 ] $ ^ $ 6 6 } $ ^ $ } 6 } $ k F 1 1 1 1 1 1 1 1 1 1 1 1 p K 2 1 H H 2 : 1 H k I 1 1 1 1 1 D : 2 c 1 1 D I , $ } 6 } $ ^ $ e 6 6 $ ^ $ ] 6 } L h m         ",
"        @ b a / } 0 6 } 0 < } } 6 } 6 0 } 3 b k F 1 1 1 1 1 1 1 1 1 1 1 K c 9 1 1 C D 9 2 1 I K p 1 1 1 1 1 I k k 1 1 1 D I , a 3 } 0 6 } 6 j 6 e 6 } 6 0 } / a h m         ",
"        @ b ^ ; } } } e L h ! > ! e } } ] ; 3 k F 1 1 1 1 1 1 1 1 1 1 1 J I : 1 1 I I l p 1 1 J H 1 1 1 1 1 1 c 1 1 1 1 D I , ^ a ] } } } L [ j > f e } } } , ^ h m         ",
"        @ b 3 f } } } ; [ 3 f 4 3 o } } } [ 3 k F 1 1 p : 1 1 1 1 1 1 p 9 p c 1 1 C D I ~ 1 1 C c K 1 1 1 1 1 1 1 1 1 1 D I , 3 0 } } } o 3 4 f 3 3 ; } } } [ ^ h m         ",
"        @ b / 0 } } / a , ! 6 f L ; e } } f / k F 1 1 C | 1 1 1 1 1 1 I : H : : 1 H H I p : : I I H 1 1 1 1 1 1 1 1 1 1 D I , [ f } } e ; L f 6 ! , a / } } 0 / h m         ",
"        @ b < } } } o a ] f } ! / a 5 } } } 7 k F 1 1 ~ c 1 1 1 1 1 1 K H D m H I C C I I H ~ H w.n K 1 1 1 1 1 1 1 1 1 D I , < } } } 5 a / ! } f ] a o } } } < h m         ",
"        * / 6 } } e $ 3 j } } } ! [ $ } } } 6 k F 1 1 1 1 1 1 1 1 1 H n I p I K I H H I K J C : K C : 1 1 1 1 1 1 1 1 1 D K ^ 6 } } } $ [ ! } } } j 3 $ e } } 6 < ~         ",
"        4 0 } } } ; 3 / f } 6 } f ^ 3 o } } 6 k F 1 1 1 1 1 1 1 1 p c I 1 H K I m n C : D c 1 | K C 1 K 1 1 1 1 1 1 1 1 D G k 6 } } o 3 ^ f } 6 } f / 3 ; } } } 7 ~         ",
"        7 f } } / b , ! } # x.4 6 f L ; ] } } 8 F 1 1 1 1 1 1 1 1 K : : m G J H D H F J J H H J I p p F 1 1 1 1 1 1 1 1 D G 8 } } ] ; L f 6 , % b } ! , b / } } 0 m         ",
"        7 0 } } o b ] f $ $ > , 5 j / a 5 } } 8 F 1 1 1 1 1 1 1 1 p I c 1 : k n ~ p ~ n n p p p I : C D p 1 1 1 1 1 1 1 D G 8 } } 5 a / j , # > ; o f ] b o } } 0 m         ",
"        7 0 } } $ 3 j b b a 0 , o 4 ! [ _ } } 8 F 1 1 1 1 1 1 1 : C H c 1 H H K l m 8 9 m J H k K 1 H p K 1 1 1 1 1 1 1 D G 8 } } _ [ ! 4 b , 0 a o b j 3 $ } } 0 m         ",
"        7 0 } } # ^ < 3 ^ 6 6 e ^ [ j > # 6 } 8 F 1 1 1 1 1 1 1 F m 9 C C F C H H C C C C G 9 9 H C C F H c m 1 1 1 1 1 D G 8 } } # > j [ ^ e 6 0 ^ 3 < ^ % } } 0 m         ",
"        7 6 } } $ h j ! 3 6 / b 3 f j / 0 } } { F 1 1 1 1 1 1 I k : p | c 9 | | c | | 9 | p l p p | | : : H c 1 1 1 1 1 D G { } } $ / j 0 [ e ] ; ^ j j / 6 } } 6 m         ",
"        d a } } 0 3 ; b f b * a e j a h } } e j F 1 1 1 1 1 c | C c c p : c c c C C 1 c c c C : : : p C c ~ l 1 1 1 1 1 D G / ] } 6 h ; a f 4 & a h j o 3 6 } } 5 1         ",
"        d a e } } ! 3 a # _ L 0 j a h f } } e < F 1 1 1 1 1 1 9 1 9 9 9 9 9 9 9 c c 8 9 9 9 c 9 9 9 9 c 9 9 c 1 1 1 1 1 D G h h } } f h , $ , $ 6 < o 3 ! } } e 4 1         ",
"        7 ] $ 6 } } ! > ^ o 0 } > [ ! } } 6 _ k F 1 1 1 1 1 1 1 1 1 1 1 1 1 1 1 1 1 1 1 1 1 1 1 1 1 1 1 1 1 1 1 1 1 1 1 D G < # 6 } } ! [ > 5 6 6 ^ > ! } } 6 $ 0 1         ",
"        d h o ^ } } } ! ! j 0 j j f } } } 5 > c F 1 1 1 1 1 1 1 1 1 1 1 1 1 1 1 1 1 1 1 1 1 1 1 1 1 1 1 1 1 1 1 1 1 1 : G G j 5 5 } } } f j j 0 j ! ! } } } ^ o 6 1         ",
"        8 h ^ a 4 h } } } } } } } } } / 4 b 7 1 F p 1 1 1 1 1 1 1 1 1 1 1 1 1 1 1 1 1 1 1 1 1 1 1 : p 1 1 1 1 1 1 1 1 : F G j ^ b 4 / } } } } } } } } } h 4 a h g 1         ",
"      @ , ] ^ ^ 4 ; $ ^ } } } } } 5 $ a 4 e d 1 p G : 1 1 1 1 1 1 1 1 1 1 1 1 1 1 1 1 1 1 1 1 1 1 H k 1 1 1 1 1 1 1 1 : G g j ^ ^ 4 a $ 5 } } } } } ^ $ ; 4 ^ j 9 1 1       ",
"    3 , @ 4 h h f / e d d d 7 j j j 6 } 7 g c 7 } l G 1 1 1 1 1 1 1 1 1 1 1 1 1 1 1 1 1 1 1 1 1 1 F | 1 1 1 1 1 1 1 1 H 4 @ b h h h h h } j j j } [ , h j j { 9 9 f g :     ",
"    ^ ^ @ @ @ @ , , % L L L L $ $ $ $ 4 f ! f } L / G C 1 1 1 1 1 1 1 1 1 1 1 1 1 1 1 1 1 1 1 1 1 c l p I 1 1 1 1 1 C p 5 % @ @ @ @ @ @ # $ $ $ _ 6 [ $ / } ! f 0 e 6 :     ",
"    ^ ^ > L $ $ $ [ % $ $ $ $ $ $ $ $ $ $ $ $ $ b 8 K D 1 1 1 1 1 1 1 1 1 1 1 1 1 1 1 1 1 1 1 1 1 1 1 C 2 1 1 1 1 1 F [ ^ > , $ $ $ $ $ $ $ $ $ $ L < ] # _ $ $ $ ; 8 k 1   ",
"  ^ ^ ^ / ] ^ ^ ^ 0 _ ^ ^ ^ ^ ^ ^ ^ ^ ^ ^ ^ ^ ^ < l 9 G : 1 1 1 1 1 1 1 1 1 1 1 1 1 1 1 1 1 1 1 1 1 1 c c 1 1 1 1 : 2 ^ ^ 3 } ^ ^ ^ ^ ^ ^ ^ ^ ^ ^ 3 7 7 ] > ^ ^ ^ ! n 7 1   ",
"^ ^ ^ ^ ! ^ ^ ^ 3 6 b ^ ^ ^ ^ ^ ^ ^ ^ ^ ^ ^ ^ ^ 3 k { C : 1 1 1 p 1 1 1 1 1 1 1 1 1 1 1 1 I I 1 1 1 1 1 1 1 1 1 1 F f ^ ^ j ^ ^ ^ ^ ^ ^ ^ ^ ^ ^ ^ ^ ] 7 / ^ ^ ^ ^ ^ g 8 | : ",
"^ ^ ^ } [ ^ ^ ^ 0 3 ! ^ ^ ^ ^ ^ ^ ^ ^ ^ ^ ^ ^ ^ ^ 0 n C : 1 1 1 F 1 1 1 1 1 1 1 1 p p 1 1 I I 1 1 1 C 1 1 1 1 1 C K > ^ e / ^ ^ ^ ^ ^ ^ ^ ^ ^ ^ ^ ^ ] < 5 ^ ^ ^ ^ ^ } i | : ",
"^ ^ ^ f ^ ^ ^ [ 6 ^ 0 3 ^ ^ ^ ^ ^ ^ ^ ^ ^ ^ ^ ^ ^ e 9 C E : 1 1 D 1 F : 1 1 1 C 1 I C 1 1 p I : : 1 H 1 1 1 1 1 J K > ^ 6 3 ^ ^ ^ ^ ^ ^ ^ ^ ^ ^ ^ ^ h < ^ ^ ^ ^ ^ ^ h ~ | : ",
"^ ^ [ ] ^ ^ ^ 0 ^ ^ [ ] ^ ^ ^ ^ ^ ^ ^ ^ ^ ^ ^ ^ ^ 3 m C E G : J J I K F F C D C D F E J p F F F I J G J I : J J E K > 3 } ^ ^ ^ ^ ^ ^ ^ ^ ^ ^ ^ ^ ^ ^ ! ^ ^ ^ ^ ^ ^ 3 7 m 1 ",
"7 e e } / / e 6 / / e 6 / / / / / / / / / / / / / / m C E E E E E E E E E E E E E E E E E E E E E E E E E E E E E H } ] 6 / / / / / / / / / / / / / / / / / / / / / / 7 1 1 ",
"7 7 7 7 7 7 i d 7 7 { d 7 7 7 7 7 7 7 7 7 g ~ ~ ~ ~ c C G I I I I I I w.E 9 2 2 2 2 1 E E w.K 2 2 2 2 I I E i l I p | 7 7 7 7 7 7 7 7 7 7 7 7 7 7 7 7 7 7 i ~ ~ ~ ~ ~ c 1 1 ",
"    7 7 7 n 7 i 1 1 1 1 1 1 1 1 1 1 1 1 1 1 1 1 1 1 1     1 1 { } } ! j j < 7 ~ c 1 1 j } < 7 7 7 7 7   } } f 7 k ~ K 7 7 7 7 7 7 7 7 d 1 1 1 1 1 1 1 1 1 1 1 1 1 1 1 1     "};
