/* XPM */
static char * door10_xpm[] = {
"86 82 265 2",
"  	c #000000",
". 	c #8C8C8C",
"+ 	c #7F7F7F",
"@ 	c #808080",
"# 	c #7E7E7E",
"$ 	c #8B8B8B",
"% 	c #848484",
"& 	c #777777",
"* 	c #6F6F6F",
"= 	c #7C7C7C",
"- 	c #898989",
"; 	c #858585",
"> 	c #838383",
", 	c #717171",
"' 	c #737373",
") 	c #757575",
"! 	c #707070",
"~ 	c #6C6C6C",
"{ 	c #696969",
"] 	c #767676",
"^ 	c #7D7D7D",
"/ 	c #878787",
"( 	c #818181",
"_ 	c #5D5D5D",
": 	c #575757",
"< 	c #606060",
"[ 	c #747474",
"} 	c #7A7A7A",
"| 	c #656565",
"1 	c #545454",
"2 	c #7B7B7B",
"3 	c #727272",
"4 	c #626262",
"5 	c #6A6A6A",
"6 	c #6D6D6D",
"7 	c #565656",
"8 	c #787878",
"9 	c #686868",
"0 	c #636363",
"a 	c #555555",
"b 	c #5B5B5B",
"c 	c #646464",
"d 	c #5C5C5C",
"e 	c #6E6E6E",
"f 	c #5F5F5F",
"g 	c #616161",
"h 	c #535353",
"i 	c #6B6B6B",
"j 	c #666666",
"k 	c #595959",
"l 	c #5A5A5A",
"m 	c #585858",
"n 	c #5E5E5E",
"o 	c #525252",
"p 	c #828282",
"q 	c #676767",
"r 	c #797979",
"s 	c #4D4D4D",
"t 	c #505050",
"u 	c #494949",
"v 	c #4C4C4C",
"w 	c #4F4F4F",
"x 	c #4B4B4B",
"y 	c #7E4E43",
"z 	c #594848",
"A 	c #5C4747",
"B 	c #535454",
"C 	c #4E4E4E",
"D 	c #4A4A4A",
"E 	c #4B5253",
"F 	c #BD6537",
"G 	c #B65737",
"H 	c #6F4545",
"I 	c #CB2F2F",
"J 	c #4C4E4F",
"K 	c #AB3A3A",
"L 	c #8E4541",
"M 	c #5B5C5C",
"N 	c #584A4B",
"O 	c #D86B2C",
"P 	c #5D4E4F",
"Q 	c #515151",
"R 	c #BC3536",
"S 	c #9F3C3C",
"T 	c #535656",
"U 	c #694446",
"V 	c #C9302F",
"W 	c #4D4E4F",
"X 	c #545353",
"Y 	c #AC5F3B",
"Z 	c #8E5545",
"` 	c #5B4C4C",
" .	c #D96D2C",
"..	c #5C524F",
"+.	c #564B4A",
"@.	c #DA5029",
"#.	c #5B5F5F",
"$.	c #884B42",
"%.	c #AB4D3A",
"&.	c #D93429",
"*.	c #505353",
"=.	c #8B4441",
"-.	c #A93F3A",
";.	c #504C4B",
">.	c #A05E3D",
",.	c #4C4D4D",
"'.	c #6D4F45",
").	c #805443",
"!.	c #554B4A",
"~.	c #D5413A",
"{.	c #5D5F5F",
"].	c #906356",
"^.	c #A4593C",
"/.	c #564C4A",
"(.	c #D9542A",
"_.	c #4A4D4D",
":.	c #8A4041",
"<.	c #A9393A",
"[.	c #564A4A",
"}.	c #D93229",
"|.	c #4F5252",
"1.	c #8B4341",
"2.	c #A93E3A",
"3.	c #564D4A",
"4.	c #DA6E2B",
"5.	c #4D5152",
"6.	c #884E42",
"7.	c #AB4F3A",
"8.	c #AB5F3C",
"9.	c #8F5342",
"0.	c #5A4848",
"a.	c #D92929",
"b.	c #5B5050",
"c.	c #B93637",
"d.	c #A23C3C",
"e.	c #494D4D",
"f.	c #6B5146",
"g.	c #C84531",
"h.	c #4E5151",
"i.	c #A93B3B",
"j.	c #914742",
"k.	c #535354",
"l.	c #5C504C",
"m.	c #D82E29",
"n.	c #5C5350",
"o.	c #BA6439",
"p.	c #A05C3F",
"q.	c #525454",
"r.	c #775950",
"s.	c #C96832",
"t.	c #4D5251",
"u.	c #5F4B4A",
"v.	c #DA6E2D",
"w.	c #5B4F4C",
"x.	c #674E46",
"y.	c #465151",
"z.	c #E84F20",
"A.	c #464F50",
"B.	c #56595A",
"C.	c #E16F27",
"D.	c #4A4B4B",
"E.	c #9C403F",
"F.	c #A04B3E",
"G.	c #705249",
"H.	c #D86B2D",
"I.	c #4B5152",
"J.	c #545050",
"K.	c #BC4E35",
"L.	c #7E5A4E",
"M.	c #4E5050",
"N.	c #CA2D30",
"O.	c #784A4A",
"P.	c #534B4B",
"Q.	c #DC2B27",
"R.	c #505454",
"S.	c #8F4141",
"T.	c #A53D3B",
"U.	c #9F5C40",
"V.	c #B8663D",
"W.	c #7D5648",
"X.	c #BB4E36",
"Y.	c #545151",
"Z.	c #4D5050",
"`.	c #E67125",
" +	c #474D4E",
".+	c #4E5152",
"++	c #DA642A",
"@+	c #5B4B4A",
"#+	c #A9543B",
"$+	c #8A4F41",
"%+	c #3E4849",
"&+	c #E9491F",
"*+	c #465051",
"=+	c #554C4C",
"-+	c #D12C2C",
";+	c #5F4F4F",
">+	c #4E4F4F",
",+	c #A35C3D",
"'+	c #9C5B40",
")+	c #515353",
"!+	c #9A3F40",
"~+	c #BB3A3A",
"{+	c #7C4747",
"]+	c #BA3535",
"^+	c #484F51",
"/+	c #E96722",
"(+	c #4B5354",
"_+	c #D92A28",
":+	c #73544B",
"<+	c #D16B2F",
"[+	c #4F5253",
"}+	c #515253",
"|+	c #BD6538",
"1+	c #964241",
"2+	c #AE5F3A",
"3+	c #855543",
"4+	c #434C4E",
"5+	c #E96522",
"6+	c #495051",
"7+	c #554A4A",
"8+	c #D6452A",
"9+	c #525A5A",
"0+	c #4C5151",
"a+	c #4C5051",
"b+	c #464C4C",
"c+	c #4C5152",
"d+	c #494F4F",
"e+	c #4A4E50",
"f+	c #454B4B",
"g+	c #55595A",
"h+	c #545959",
"i+	c #494E4F",
"j+	c #4C5252",
"k+	c #835043",
"l+	c #AC563A",
"m+	c #545555",
"n+	c #4B5051",
"o+	c #D46A2F",
"p+	c #F53613",
"q+	c #E22323",
"r+	c #E24924",
"s+	c #E26F27",
"t+	c #E24724",
"u+	c #E23F24",
"v+	c #E24524",
"w+	c #E27027",
"x+	c #E24224",
"y+	c #E26125",
"z+	c #E27127",
"A+	c #E26626",
"B+	c #E22023",
"C+	c #E83820",
"D+	c #EF6F1E",
"E+	c #58504D",
"F+	c #504F4F",
"G+	c #4E4D4D",
"H+	c #38363C",
"I+	c #38373C",
"J+	c #505051",
"K+	c #464647",
"L+	c #454546",
"M+	c #484849",
"N+	c #39373D",
"O+	c #3B3A3F",
"P+	c #4F504F",
"  . + + + + + + + + + + + + + + + + + + + + @ + # + + + + + + + + + + + + + + + + + + + + + + + + + + + + + + + + + + + + + + + + + + + + + + + + + + + + + + + + + + + +   ",
"$ % + + + + + + + + + + + + + + + + # # # & * = - ; + + + + + + + + + + + + + + + + + + + + + + + + + + + + + + + + + + + + + + + + + + + + + + + + + + + + + + + + + + + + ",
". > + + + + + + + + + + @ & , ' ) ! ~ { ] ^ / > + + + + + + + + + + + + + + + + + + + + + + + + + + + + + + + + + + + + + + + + + + + + + + + + + + + + + + + + + + + + + + ",
"( + + + + + + + + + + ) _ : < { * ! [ ( ( + + + + + + + + + + + + + + + + + + + + + + + + + + + + + + + + + + + + + + + + + + + + + + + + + + + + + + + + + + + + + + + + # ",
"{ ] } } } } } } } } } | 1 : { , , [ ( } } } 2 + + } } } } } } } } } } } # + + + + } } } } 2 + + + + + # } } } } } } } } } } } } } # } } } } } } } } } } } } } } } } } } 3 4 ",
"5 * , , , , , , , , 6 7 7 4 ! , = 8 , , , , , [ ' , , , , , , , , , , , ' [ [ [ [ , , , , 3 [ + + ^ ' ' , , , , , , , , , , , , , ' , , , , , , , , , , , , , , , , , , 9 0 ",
"5 * , , , , , , , 3 a 1 b ~ ~ ' , , , , , , , , , , , , , , , , , , , , , , , , , , , , , , , , , , , , , , , , , , , , , , , , , , , , , , , , , , , , , , , , , , , , 9 0 ",
"5 * , , , , , , , c 1 d | 5 e , , , , , , , , , , , , , , , , , , , , , , , , , , , , , , , , , , , , , , , , , , , , , , , , , , , , , , , , , , , , , , , , , , , , , 9 0 ",
"5 * , , , , , , , < a f * 6 , , , , , , , , , , , , , , , , , , , , , , , , , , , , , , , , , , , , , , , , , , , , , , , , , , , , , , , , , , , , , , , , , , , , , , 9 0 ",
"5 * , , , , , , , < < 5 , , , , , , , , , , , , , , , , , , , , , , , , , , , , , , , , , , , , , , , , , , , , , , , , , , , , , , , , , , , , , , , , , , , , , , , , g : ",
"5 * , , , , e * ~ _ { , , , , , , , , , , , , , , , , , , , , , , , , , , , , , , , , , , , , , , , , , , { , , , , , , , , , , , , , , , , , , , , , , , , , , , , , * f h ",
"5 * , , , 6 5 * e { , , , , , , , , , , , , , , , , , , , , , , , , , , , , , , , , , , , , , , , , , , , ! * , , , , , , , , , , , , 9 , , , , , , , , , , , , , , , ~ f h ",
"5 * , , e 5 5 ~ { , , ! , , * * * ~ ~ , , , , , * ! i 6 * , , , ! , * ! , * * 5 , , , , , , ! , , , , , 6 j * , * * ! , ! { , , , * i ! * , , , , * , , , * ! ! , ! * 5 f h ",
"5 * ~ ~ 5 5 5 | , , ~ i ~ ~ 5 5 5 6 , , , , , ~ 5 i 5 5 5 ~ ~ ~ 5 ~ 5 i ~ 5 5 ~ ~ , , , , ~ 5 ~ ~ , , ~ i k i ~ 5 5 i ~ i , , ~ ~ 5 i ~ 6 , , 6 ~ 5 ~ ~ ~ 5 i 5 ~ 5 i 5 f h ",
"5 5 5 5 5 5 5 * e 5 5 5 5 5 5 5 { * * * 5 5 5 5 5 5 5 5 5 5 5 5 5 5 5 5 5 5 5 ~ * e 5 5 5 5 5 5 5 5 5 { l : 9 5 5 5 5 5 5 5 5 5 9 9 9 9 9 5 5 5 5 5 5 5 5 5 5 5 5 5 5 { f h ",
"5 j | | | | | j | | | | | | | | 0 | | | | | | | | | | | | | | | | | | | | | | | | | | | | | | | | | | l 1 1 f | | | | | | | | | 0 0 0 0 0 | | | | | | | | | | | | | | 0 f h ",
"  1 1 1 1 1 1 1 1 1 1 1 1 1 1 1 1 1 1 1 1 1 1 1 1 1 : m m m m m m m m m m : : a a : 1 1 : a a : : m m 0 0 0 d m m m m : 1 1 1 1 1 1 1 1 1 1 1 1 1 1 1 1 1 1 1 1 1 1 1 1 1   ",
"    ] [ [ [ [ [ [ [ [ [ [ [ [ [ [ [ [ [ [ [ [ [ [ ) | 0 0 0 0 0 0 0 0 0 0 n < k m 4 : : 4 m k < n 0 0 0 0 0 0 0 0 0 0 | ) [ [ [ [ [ [ [ [ [ [ [ [ [ [ [ 4 { n ! [ [ ~ o     ",
"    4 ^ p p + + + + + + + = + + + + + + + + + + + 5 g 0 0 | | | | | | | | f 4 k m | b b | b k 4 n | c 5 5 5 q | | | | c 8 p p p ( + + + + + + + + + + + 8 9 + + + + ! o     ",
"    4 6 r ] 3 ] 3 ] ] ] ) ] ] ) # ] ] ) # 2 ] [ 6 d g 0 q 5 5 5 5 5 5 5 5 0 i l g 5 | | 5 | b i 4 5 5 5 5 5 5 5 5 5 5 { 5 } } } 8 ] ] ] ] ] ) # ] ] ] ] ] e ! ] ] * n h     ",
"    4 6 ! 5 5 * , , * 6 ! & 3 , , 6 i ! , , , e c d g j 5 5 5 5 5 5 5 5 5 4 i b | 5 { q 5 | b i 4 5 5 5 5 5 5 5 5 5 5 { i , ! , , , , , * ! ! , ~ * 6 , , ! q e ! j f h     ",
"    4 6 ! 5 5 ~ 6 , 5 5 3 & e , , 6 5 e , , , i c d g j 5 5 5 5 5 5 5 4 d l 6 b | 9 3 5 9 | b 6 l d 4 5 5 5 5 5 5 5 5 { i ! e , , , , 6 ~ ~ i ! 5 5 i ! , i q e 5 | f h     ",
"    4 6 ! 5 5 5 i , 5 5 ! , 5 e , 6 5 5 ! 5 5 5 c d g j 5 5 5 5 q _ l n e e 0 b | 5 j j 5 | b 0 e e n l _ q 5 5 5 5 5 { i ! 5 * , , , i 5 5 i 5 5 5 5 5 ! i 9 e 5 | f h     ",
"    4 6 ! 5 5 5 5 6 5 5 5 i 5 i , 6 5 5 ~ 5 5 5 c d g j 5 5 5 g _ 5 , j < 7 s b { | { { | { b s 7 < j , 5 _ g 5 5 5 5 { i ! 5 i , , i 5 5 5 { e 5 5 5 5 i 5 9 i 5 | f h     ",
"    4 6 ! 5 5 5 5 5 5 5 5 5 5 5 5 5 5 5 5 5 5 5 c d g j 5 j k 4 6 d h t u u u v h q | | q h v u u u t h d 6 4 k j 5 5 { i ! 5 5 5 5 5 5 5 5 q * 5 5 5 5 5 { { i 5 | f h     ",
"    4 6 ~ 5 5 5 5 5 5 5 5 5 5 5 5 5 5 5 5 5 5 5 c d g j j f ~ c w v u u u u u u u s l l s u u u u u u u v w c ~ f j 5 { i ! 5 5 5 5 5 5 5 5 q * 5 5 5 5 5 c * 5 5 | f h     ",
"    0 q { { { { { { { { { { { { { { { { { { { { 4 d g 4 d 5 7 t u u u x x 1 o y z u u u u z A B 1 1 C D u u t 7 5 d j { 5 5 { { { { { { { { q i { { { { j 6 { { { 0 f h     ",
"    0 0 0 0 0 0 0 0 0 0 0 0 0 0 0 0 0 0 0 0 0 0 n : g f { a u u u x t 1 1 E F G H u u u u H I J 1 1 1 h t w u u a { f c f 0 0 0 0 0 0 0 0 0 g n j 0 0 0 _ | 0 0 0 f k 1     ",
"    a a : m m m m m : : m m m m m m : : : a a a a 1 m i a u u u o 1 1 1 h K L M o l o t : o N O P 1 1 1 1 1 C u u a i m 1 : : m m m m m m m : 7 m m m m m m : : 7 a 1 1     ",
"      1 c q j j j q b b n n n 0 j n b b b 1 1 1 1 h { g D u u Q 1 1 1 E R S T 7 D Q : v v o k U V W 1 1 1 1 1 w u D g { h 0 | j j j j j j j 0 0 j j n n n n b b k 1 1       ",
"      1 m g q q q q j < j q j g : g g l 1 1 1 1 1 d 4 w u u x 1 1 1 X Y Z k d v s D _ D v s d v `  ...1 1 1 1 1 C u w 4 d 7 4 q q 4 g q q q q q | g g g g < 1 1 1 1 1       ",
"        ! 4 d d d d d f < < < < g n d g | m 1 1 a < w u u x 1 1 1 1 +.@.#.t s Q 7 v _ D 1 a C x 1 $.%.1 1 1 1 1 1 w u w < a h b d _ g d n < < < < < f d < n _ 7 1 1         ",
"        @ 6 0 ~ c q 5 ~ e 6 5 6 e i 5 q j 5 : 1 g b D u D 1 1 1 1 1 +.&.*.m w t Q l h t : v v _ 1 =.-.1 1 1 1 1 1 1 C D b g _ 0 5 | q 5 i e 6 5 6 e i 5 9 c c 4 a 1         ",
"        @ 6 i 9 5 5 6 # + 2 ] = # & 5 5 5 9 { h g w u u C 1 1 1 1 1 ;.>.,.C D v s v : D C D D C C '.).l 1 1 1 1 1 1 Q u w 0 j 5 9 5 5 i 2 # = ] 2 + & ~ 5 5 9 i g 7         ",
"        + ) | 5 5 ~ > } ! 8 ) & ! , } i 5 5 c d 1 u u u h 1 1 1 1 1 !.~.{.: f f 7 t Q v o f f _ b ].^.f 1 1 1 1 1 1 1 x u : e j 5 5 i > 8 , ] ) r ! , } i 5 5 | ~ :         ",
"        @ 3 q 5 e + 8 ! 9 6 8 8 3 e 3 & i 5 q d w u u C 1 1 1 1 1 1 /.(._.w D v s 1 Q s Q D D C C :.<.l 1 1 1 1 1 1 1 1 v h e q 5 ~ # r 3 q * & 8 ' 6 , 8 ~ 5 q 9 :         ",
"        @ 6 5 5 ! # ! 9 } ! q 8 , 0 * ~ i 5 { d D u D 1 1 1 1 1 1 1 [.}.|.D D l Q o Q v 1 t Q x Q 1.2.< 1 1 1 1 1 1 1 h u C i { 5 6 + 3 q } , q & ' 0 e 6 i 5 5 0 m         ",
"        @ * 5 5 p ! c 8 , { { i * q | , ^ { 5 n D u h 1 1 1 1 1 1 1 3.4.5.s x 7 s Q Q a C C w o Q 6.7.< 1 1 1 1 1 1 1 h u C ~ 5 { ^ , | ) ' i { { ! j c , ^ 5 5 | m         ",
"        @ , 5 5 # 3 c & 3 5 5 ~ * q c ) { 5 5 < D u h 1 1 1 1 1 1 1 X 8.9.v _ b D v x v x t < Q 0.a.b.a 1 1 1 1 1 1 1 h u C * 5 5 ^ ) c [ ' ~ 5 5 ! j c 3 i 5 5 9 :         ",
"        @ , 5 5 3 [ { ~ ~ 8 r 8 9 3 5 ' c 5 5 < D C 1 1 1 1 1 1 1 1 1 E c.d.e.C h m Q w : C C f.g.h._ 1 1 1 1 1 1 1 1 h u Q ) 5 5 3 ' 5 3 i & r 8 { * 5 ) | 5 5 9 :         ",
"        + # 5 5 9 5 ' [ { { ! 9 { 8 3 { { 5 5 c D w 1 1 1 1 1 1 1 1 1 1 X i.j.h h Q Q v 1 k.l.m.n.n 1 1 1 1 1 1 1 1 1 h u Q + ~ 5 { { 3 8 { 9 ! { { [ [ 5 9 5 5 ] :         ",
"        + + 5 5 { { ) # i 9 j 9 6 } ) 9 5 5 5 | x 1 1 1 1 1 1 1 1 1 1 1 1 E o.p.q.1 h D 1 r.s.t._ 1 1 1 1 1 1 1 1 1 1 1 C Q @ i 5 5 9 ) } 6 9 j 9 i # ) { { 5 5 8 :         ",
"        + & r 5 5 j , ' p { 5 { > ] * q 5 5 r _ x 1 1 1 1 1 1 1 1 1 1 1 1 1 u.v.e.s x D s w.x.: k 1 1 1 1 1 1 1 1 1 1 1 C Q } } 5 5 q * ] > { 5 { p ' , j 5 5 r e :         ",
"        + ] 8 6 5 5 | [ & , 5 ' & 3 c 5 5 * & d x 1 1 1 1 1 1 1 1 1 1 1 1 y.z.A.: o Q _ _ B.C.D.1 1 1 1 1 1 1 t o 1 1 1 C Q r 8 * 5 5 c 3 & ' 5 , & [ | 5 5 6 8 6 :         ",
"        + ] [ 3 5 5 9 5 ' ) 5 8 , { { 5 5 ] , d x 1 1 1 1 1 1 1 1 1 1 1 1 E.F.d 1 s s _ h B G.H.I.1 1 1 1 1 C o d a 1 1 C Q r 3 ] 5 5 { { , 8 5 ) ' 5 9 5 5 3 [ 6 :         ",
"        + ] , [ 5 5 { { ] ^ * r ] 9 { 5 ~ r ! d x 1 1 1 1 1 1 1 1 1 1 1 J.K.L.1 1 t w m _ 1 M.N.O.1 1 1 1 1 t l d 1 1 1 C Q r , ' i 5 { 9 ] r * ^ ] { { 5 i 2 , 6 :         ",
"        + ] * 9 5 5 > 6 , [ p ] * 0 r 5 5 5 * d x 1 1 1 1 1 1 1 1 1 1 1 P.Q.R.1 1 Q t b h 1 1 S.T.1 1 1 1 1 1 : a 1 1 1 C Q r ! q 5 5 > , * ] p [ , 0 8 5 5 i * 6 :         ",
"        + ] c 5 ~ + ] 3 | ] 8 , | 3 ] ] 5 5 0 d x 1 1 o h 1 1 1 1 1 1 *.U.V.q.1 1 t w Q 7 1 1 W.X.Y.1 1 1 1 1 1 1 1 1 1 C Q r | 5 i # & 3 | [ 8 ' | 3 ] 8 i 5 c 6 :         ",
"        @ * { 5 p } 3 e { 8 , { 5 ~ [ 8 } 5 9 d x 1 1 C n 1 1 1 1 1 1 Z.`. +a 1 1 v v Q h 1 1 .+++@+1 1 1 1 1 1 1 1 1 1 C Q [ { { p r [ ~ 5 ' 3 i { e 3 r } 5 { | m         ",
"        @ e 5 5 = , | q ! 2 8 q i 9 e , ) 5 5 n x 1 1 k a 1 1 1 1 1 1 #+$+v h x Q t w Q Q x h v %+&+*+1 1 1 1 1 1 1 1 1 C Q ' 5 { = , | 9 6 + r 9 i q 6 , ) 5 5 | m         ",
"        + ^ 5 5 i , | 5 8 r ! j c 5 = , | 5 5 c x 1 1 1 1 1 1 1 1 1 =+-+;+h 1 Q Q v v Q Q s o o >+,+'+1 1 1 1 1 1 1 1 1 C Q # i 5 5 3 | 5 8 8 3 | c 5 2 , j 5 5 ) :         ",
"        + = ! 5 q ] & 2 & ' j 6 ] 2 & [ j 5 ! 4 x 1 1 1 1 1 1 1 1 )+!+~+q.s w w h : w o s Q Q n t {+]+Y.1 1 1 1 1 1 1 1 C Q # , 5 j [ & 2 & ) j ~ ] 2 & ] q 5 ! [ :         ",
"        + ] 2 5 5 q ' , 3 c 5 q ' , ' q 5 5 2 d x 1 1 1 1 1 1 1 1 ^+/+(+: D v s t w D v v w w C Q |._+[.1 1 1 1 1 1 1 1 C Q 8 = 5 5 q ' , ' c { q 3 , ' q 5 5 2 6 :         ",
"        + ] ' ) 5 5 | | ~ 9 { * 0 | j 5 i & , d x 1 1 1 1 1 1 1 1 :+<+[+1 h n d d 1 d d d 1 a o Q }+|+1+)+1 1 1 1 1 1 1 C Q r 3 & i 5 j | i { 9 * c | | 5 5 ) ' 6 :         ",
"        + ] , 6 5 5 5 ) ] ) j 8 ! 3 5 5 i ' ! d x 1 1 1 1 1 1 1 1 2+3+: 1 C s w k a _ a a x v b t 1 4+5+6+1 1 1 1 1 1 1 C Q r , e 5 5 5 3 ] & | ] , ) 5 5 5 ' , 6 :         ",
"        + ] e q 5 5 i 8 , 9 { 5 3 ] 5 5 5 ~ ! d x 1 1 1 1 1 1 1 7+8+9+0+a+b+c+d+e+a+0+a+a+f+g+h+i+0+j+k+l+m+7 1 1 1 1 1 C Q r ! j 5 5 5 ] 3 5 { 9 , 8 i 5 5 i ! 6 :         ",
"        + ] q { 5 5 e [ 3 j 5 j ' & ~ 5 5 { q d x 1 1 1 1 1 1 n+o+p+q+r+s+t+u+v+w+w+x+w+w+q+y+u+z+A+B+C+D+E+7 1 1 1 1 1 C Q r 9 { 5 5 ~ & ' j 5 j 3 [ e 5 5 { q 6 :         ",
"        @ [ j 5 5 { = & { 9 5 q i ) = { 5 5 | d x 1 1 1 1 1 a _ s Q Q F+t Q Q Q G+G+Q Q Q Q G+t F+t F+G+Q 1 b 1 1 1 1 1 C Q 8 j 5 5 { = ) i q 5 9 { & = { 5 5 j i :         ",
"        @ 6 5 5 5 [ ] 3 c 5 5 5 c [ ] 3 5 5 5 d x 1 1 1 1 1 1 k a k k : m k k k a a g k k k a m : m : a k k 7 1 1 1 1 1 C v 0 5 5 5 3 ] [ c 5 5 5 c 3 ] [ 5 5 5 0 m         ",
"        0 c 5 5 i 8 ! 9 5 * ' ~ { 5 , ] 5 5 5 _ x 1 1 1 1 1 1 1 1 1 1 1 1 1 1 1 1 1 1 1 1 1 1 1 1 1 1 1 1 1 1 1 1 1 1 1 C D _ 5 5 5 ] , 5 { e ! 6 5 9 ! 8 i 5 5 c m         ",
"        0 9 5 5 e [ ' q e # r 8 i j [ & ~ 5 5 g x 1 1 1 1 1 1 1 1 1 1 1 1 1 1 1 1 1 1 1 1 1 1 1 1 1 1 1 1 1 1 1 1 1 1 h D D g 5 5 ~ & [ j i + ] & ~ q ' [ e 5 5 9 :         ",
"        0 9 5 5 = 8 { i p r , 8 } { i ] = 5 5 < x h 1 1 1 1 1 1 1 1 1 1 1 1 1 1 1 1 1 1 1 1 1 1 1 1 h 1 1 1 1 1 1 1 1 h D D < 5 5 = ] i { p 8 , r } i { 8 = 5 5 9 :         ",
"        0 9 5 5 # , c 8 3 e 9 ! ' ) c ' ^ 5 5 < D C 1 1 1 1 1 1 1 1 1 1 1 1 1 1 1 1 1 1 1 1 1 1 1 C l 1 1 1 1 1 1 1 1 h x D < 5 5 ^ ' c ) ' ! 9 e 3 8 c , # 5 5 9 :         ",
"        0 9 5 5 2 e | j , { { e ! q | e 8 5 5 < D C 1 1 1 1 1 1 1 1 1 1 1 1 1 1 1 1 1 1 1 1 1 1 1 x f 1 1 1 1 1 1 1 1 h u D < 5 5 = 6 | q ! i { 6 , j | e & 5 5 9 m         ",
"        4 3 5 5 ! ' * * { e + r ! c 6 , 9 5 5 0 D C 1 1 1 1 1 1 1 1 1 1 1 1 1 1 1 1 1 1 1 1 1 1 1 1 b h Q 1 1 1 1 1 1 h u D { i 5 ! ! e , 9 * # 8 3 0 ~ ' q 5 5 ! a         ",
"        4 & 5 5 { q } r e ^ ] 3 c 6 r j 5 5 5 | D C 1 1 1 1 1 1 1 1 1 1 1 1 1 1 1 1 1 1 1 1 1 1 1 1 1 C _ 1 1 1 1 1 1 h u D e ~ 5 5 j r 8 ! & & ) c i } q { 5 5 [ 1         ",
"        4 ! ) 5 5 9 q 8 8 2 , j e & j { 5 5 ] f D C 1 1 1 1 1 1 1 1 1 1 1 1 1 1 1 1 1 1 1 1 1 1 1 1 1 a 7 1 1 1 1 1 1 s u D 9 & 5 5 { j ] & 8 ' j ~ 8 q 9 5 5 ) 6 1         ",
"        4 6 } i 5 5 { q * ~ | ~ e q { 5 5 ~ } l D s 1 1 1 1 1 1 h 1 1 1 1 1 1 1 1 1 1 1 1 o Q 1 1 1 1 1 1 1 1 1 1 1 1 D u D c 2 ~ 5 5 { q e 6 | i * q { 5 5 i } { 1         ",
"        4 6 3 8 5 5 5 9 q q 5 q q { 5 5 i 8 9 1 D u h 1 1 1 1 1 x 1 1 1 1 1 1 1 1 o o 1 1 Q Q 1 1 1 t 1 1 1 1 1 t 1 1 D u D | , 8 i 5 5 { q q 5 q q 9 5 5 5 8 3 0 1         ",
"        6 6 , , = ' 6 i 5 5 5 5 5 ~ 6 ] 2 ! 0 1 v u D 1 1 h 1 1 s 1 v 1 1 1 1 C 1 Q t 1 1 Q Q 1 1 1 s 1 1 1 1 1 s 1 C u u C | , , 2 ] 6 ~ 5 5 5 5 5 i 6 ' = , j _ 1         ",
"      @ ^ ~ 9 9 9 6 * 5 j j j j j i ' ! 6 j b b g v u Q 1 D h C C o w v s t w t w v u C o s v s Q C x C o h C s u C x u n [ ~ 9 9 9 ~ * i j j j 5 e & [ 6 { ~ _ h f h       ",
"    , , + # # # ! ^ 2 q q q 9 6 6 6 6 ~ l m k 5 e 6 D u D u u u u u u u u u u u u u u u u u u u u u u u u u u u u u u Q ^ + # # # # # # ] 6 6 6 6 5 ] [ 5 { m : _ 5 { h     ",
"    , , r + + + # [ + @ @ @ @ @ @ @ @ 2 & & & & # 9 x u u u u u u u u u u u u u u u u u u u u u u u u u u u u u u u u c , & @ + + + + + + @ @ @ @ ) 9 ] r & & & & & j :     ",
"  , , , e e 3 3 3 9 = 3 3 3 3 3 3 3 3 3 3 3 3 3 | d 1 H+I+H+J+h h o o 1 v D D D v D D D D K+L+v C D D v 1 o D M+N+I+O+* , ! ~ 3 3 3 3 3 3 3 3 3 3 , 0 c ] [ 3 3 3 9 k 4 1   ",
"  , , , 5 * , , , 9 = , , , , , , , , , , , , , i d d s u v C C C w w 1 1 1 1 1 < 1 1 1 1 h w b 1 1 1 1 1 C C C P+u 0 , , 5 e , , , , , , , , , , , 9 0 9 , , , , ~ d g b h ",
", , , ! 9 , , , e ~ 9 , , , , , , , , , , , , , ! n < t x t o h h 1 1 1 1 1 1 k m 1 1 1 1 1 s 1 a 1 1 1 1 h C D D 7 , , ! q , , , , , , , , , , , , ~ c r , , , , , < f f h ",
", , , q , , , , j 3 j , , , , , , , , , , , , , , i 7 o w w w C w 1 1 1 1 _ _ d d _ _ b 1 1 1 s _ _ _ b 1 w w w x w 3 , { ! , , , , , , , , , , , , ~ 0 , , , , , , e m f h ",
", , , 9 , , , { ! , e ~ , , , , , , , , , , , , , ~ 7 w u u u u v v x x x v s a t v v v x x Q Q o s C C s v D D D t 3 , { ! , , , , , , , , , , , , , j , , , , , , e k n h ",
"5 * e 6 , , ! 5 , , * ~ , , , , , , , , , , , , , 3 m o w w C 1 4 g d 1 1 1 1 d d 1 1 1 1 1 1 1 1 7 d d d b 1 1 1 : * ! i , , , , , , , , , , , , , , ~ , , , , , , 3 q 1 1 ",
"0 c c c c c g < c c 4 0 | c c c c c c c c c 0 0 0 c 7 1 1 k g g 4 4 m 1 1 1 a 7 a a 1 4 m 1 _ a a a a 1 1 1 _ 4 k 7 c c c c c c c c c c c c c c c c c c c 0 0 0 0 0 0 k 1 1 ",
"  0 0 0 0 n _ f d d b d d d d d d d d d d m 1 1 1 1 1   1 1 h h n f d 0 0 0 0 d d d :     c m 0 c c c 1 _ 5 | 4 : 1 _ 0 0 0 0 0 0 0 0 0 d d d d d d d d d a 1 1 1 1 1 1 1   ",
"    0 0 0 k 0 k 1 1 1 1 1 1 1 1 1 1 1 1 1 1 1 1 1 1 1         0 { 5 { { { q 0 g n 1 a | 5 9 0 c c 0 0 0 5 5 5 c 0 < h 0 0 0 0 0 0 0 0 4 1 1 1 1 1 1 1 1 1 1 1 1 1 1 1 1     "};
