/* XPM */
static char * door7_xpm[] = {
"86 82 222 2",
"  	c #000000",
". 	c #8A8A8A",
"+ 	c #848484",
"@ 	c #7F7F7F",
"# 	c #7B7B7B",
"$ 	c #818181",
"% 	c #808080",
"& 	c #727272",
"* 	c #888888",
"= 	c #797979",
"- 	c #565656",
"; 	c #595959",
"> 	c #676767",
", 	c #717171",
"' 	c #707070",
") 	c #767676",
"! 	c #747474",
"~ 	c #7E7E7E",
"{ 	c #535353",
"] 	c #6B6B6B",
"^ 	c #6E6E6E",
"/ 	c #686868",
"( 	c #737373",
"_ 	c #7A7A7A",
": 	c #7D7D7D",
"< 	c #757575",
"[ 	c #777777",
"} 	c #7C7C7C",
"| 	c #646464",
"1 	c #545454",
"2 	c #616161",
"3 	c #656565",
"4 	c #5B5B5B",
"5 	c #6C6C6C",
"6 	c #666666",
"7 	c #6A6A6A",
"8 	c #6D6D6D",
"9 	c #606060",
"0 	c #696969",
"a 	c #626262",
"b 	c #5F5F5F",
"c 	c #555555",
"d 	c #6F6F6F",
"e 	c #575757",
"f 	c #636363",
"g 	c #5C5C5C",
"h 	c #585858",
"i 	c #5A5A5A",
"j 	c #838383",
"k 	c #898989",
"l 	c #787878",
"m 	c #696A6A",
"n 	c #5C6364",
"o 	c #69696A",
"p 	c #7A6161",
"q 	c #F65B1F",
"r 	c #7A6661",
"s 	c #5E5E5E",
"t 	c #756764",
"u 	c #D5723F",
"v 	c #686969",
"w 	c #505050",
"x 	c #494949",
"y 	c #4C4C4C",
"z 	c #4B4B4B",
"A 	c #525252",
"B 	c #4F4F4F",
"C 	c #4D4D4D",
"D 	c #515151",
"E 	c #4A4A4A",
"F 	c #4E4E4E",
"G 	c #5D5D5D",
"H 	c #828282",
"I 	c #545555",
"J 	c #8D6A60",
"K 	c #AB7461",
"L 	c #90726A",
"M 	c #A67462",
"N 	c #A77261",
"O 	c #545859",
"P 	c #535454",
"Q 	c #806B65",
"R 	c #C97653",
"S 	c #A77362",
"T 	c #8E726A",
"U 	c #A37364",
"V 	c #AC7460",
"W 	c #BC7355",
"X 	c #8A6A61",
"Y 	c #D87646",
"Z 	c #5D6263",
"` 	c #B17057",
" .	c #AD735E",
"..	c #484848",
"+.	c #826B65",
"@.	c #5E5C5B",
"#.	c #646768",
"$.	c #A7715E",
"%.	c #BD7355",
"&.	c #897061",
"*.	c #D98E48",
"=.	c #737677",
"-.	c #555554",
";.	c #B1715A",
">.	c #AB725F",
",.	c #575859",
"'.	c #585959",
").	c #D68E4C",
"!.	c #7A726F",
"~.	c #596163",
"{.	c #ED8E3A",
"].	c #616668",
"^.	c #7A706B",
"/.	c #5B6163",
"(.	c #ED903B",
"_.	c #666B6D",
":.	c #9A7B67",
"<.	c #716E6C",
"[.	c #5C5E5E",
"}.	c #A57363",
"|.	c #737474",
"1.	c #D48D4B",
"2.	c #7D746F",
"3.	c #6F7475",
"4.	c #EC7835",
"5.	c #717576",
"6.	c #D58E4D",
"7.	c #79706B",
"8.	c #595F61",
"9.	c #EE7833",
"0.	c #666B6C",
"a.	c #D58E4E",
"b.	c #5B6263",
"c.	c #737778",
"d.	c #D68E4B",
"e.	c #77706C",
"f.	c #4D4D4C",
"g.	c #EF7932",
"h.	c #6B7071",
"i.	c #656464",
"j.	c #DE8F40",
"k.	c #70635C",
"l.	c #575555",
"m.	c #C47555",
"n.	c #8C6E65",
"o.	c #6D6560",
"p.	c #CF8B4F",
"q.	c #696461",
"r.	c #50585A",
"s.	c #CE754D",
"t.	c #9A6C5D",
"u.	c #6E6F6F",
"v.	c #676564",
"w.	c #DF903F",
"x.	c #736761",
"y.	c #5D5B5A",
"z.	c #C57554",
"A.	c #8B6E66",
"B.	c #6D6561",
"C.	c #CD8A51",
"D.	c #7B736F",
"E.	c #6D7071",
"F.	c #CE7650",
"G.	c #9B6C5D",
"H.	c #6E6E6F",
"I.	c #625D5C",
"J.	c #CF8950",
"K.	c #7B706A",
"L.	c #7D726F",
"M.	c #7A6762",
"N.	c #89716B",
"O.	c #C77554",
"P.	c #5B5C5C",
"Q.	c #82716D",
"R.	c #D3774D",
"S.	c #565757",
"T.	c #5F6566",
"U.	c #EA7837",
"V.	c #6C6A69",
"W.	c #595858",
"X.	c #C67654",
"Y.	c #896F68",
"Z.	c #AC6F59",
"`.	c #BC7458",
" +	c #5B5E5F",
".+	c #986C5D",
"++	c #C97551",
"@+	c #5A5E5F",
"#+	c #585859",
"$+	c #D4774C",
"%+	c #7D6F6B",
"&+	c #5C6264",
"*+	c #EE7932",
"=+	c #606667",
"-+	c #786661",
";+	c #CB7651",
">+	c #706967",
",+	c #575B5C",
"'+	c #BE7356",
")+	c #AA6F5A",
"!+	c #9A7265",
"~+	c #BD7559",
"{+	c #796C69",
"]+	c #5E5B5A",
"^+	c #616768",
"/+	c #F1792F",
"(+	c #5E6769",
"_+	c #C47657",
":+	c #8C716A",
"<+	c #616262",
"[+	c #816F6B",
"}+	c #5A5B5B",
"|+	c #6A6462",
"1+	c #E7783A",
"2+	c #606566",
"3+	c #585B5C",
"4+	c #BF7456",
"5+	c #626566",
"6+	c #878787",
"7+	c #4F4F50",
"8+	c #474747",
"9+	c #2F2F2F",
"                                                                                                                                                                            ",
"  . + @ @ @ @ @ @ @ @ @ @ @ @ @ @ @ @ @ @ @ # # $ $ @ @ @ @ @ @ @ @ @ @ @ @ @ @ @ @ @ @ @ @ @ @ @ @ @ @ @ @ @ @ @ @ @ @ @ @ @ @ @ @ @ @ @ @ @ @ @ @ @ @ @ @ @ @ @ @ @ @ @ @ ",
"  . @ @ @ @ @ @ @ @ @ @ @ @ % % @ @ & & & & % % + + @ @ @ @ @ @ @ @ @ @ @ @ @ @ @ @ @ @ @ @ @ @ @ @ @ @ @ @ @ @ @ @ @ @ @ @ @ @ @ @ @ @ @ @ @ @ @ @ @ @ @ @ @ @ @ @ @ @ @ @ ",
"  * @ @ @ @ @ @ @ @ @ @ # = - ; > > , ' ) $ @ @ @ @ @ @ @ @ @ @ @ @ @ @ @ @ @ @ @ @ @ @ @ @ @ @ @ @ @ @ @ @ @ @ @ @ @ @ @ @ @ @ @ @ @ @ @ @ @ @ @ @ @ @ @ @ @ @ @ @ @ @ @ @ ",
"  ! @ @ @ @ @ @ @ @ @ ~ ; { ; ] , , ) + @ @ @ @ @ @ @ @ @ @ @ @ @ @ @ @ @ @ @ @ @ @ @ @ @ @ @ @ @ @ @ @ @ @ @ @ @ @ @ @ @ @ @ @ @ @ @ @ @ @ @ @ @ @ @ @ @ @ @ @ @ @ @ @ % ' ",
"  ] & & & & & & & & & ^ { - / , & ( _ & & & , _ : < & & & & & & & & & & ( : : : : [ & & & , } ~ @ @ : : ( & & & & & & & & & & & & < < & & & & & & & & & & & & & & & & & ^ | ",
"  ] , , , , , , , , ] - 1 2 ^ ] = [ , , , , , , , , , , , , , , , , , , , , , , , , , , , , , ! [ [ & , , , , , , , , , , , , , , , , , , , , , , , , , , , , , , , , , ^ | ",
"  ] , , , , , , , , 3 1 4 3 5 ^ , , , , , , , , , , , , , , , , , , , , , , , , , , , , , , , , , , , , , , , , , , , , , , , , , , , , , , , , , , , , , , , , , , , , ^ | ",
"  ] , , , , , , , ' { 1 6 7 8 , , , , , , , , , , , , , , , , , , , , , , , , , , , , , , , , , , , , , , , , , , , , , , , , , , , , , , , , , , , , , , , , , , , , , ^ | ",
"  ] , , , , , , , ' 1 9 0 ' , , , , , , , , , , , , , , , , , , , , , , , , , , , , , , , , , , , , , , , , , , , , , , , , , , , , , , , , , , , , , , , , , , , , , , 8 a ",
"  ] , , , , , ^ , 3 b 7 , , , , , , , , , , , , , , , , , , , , , , , , , , , , , , , , , , , , , , , , , ^ ' , , , , , , , , , , , , , , , , , , , , , , , , , , , , , 7 c ",
"  ] , , , , ^ 7 & 4 0 , , , , , , , , , , , , , , , , , , , , , , , , , , , , , , , , , , , , , , , , , , , ' , , , , , , , , , , , , , , , , , , , , , , , , , , , , ' > c ",
"  ] , , , ^ 7 7 ^ ] , , , , , , , , 8 ' , , , , , , ' ' ^ , , , , , , , , , , 8 , , , , , , , , , , , , , ^ ] , , , , , , d d , , , , 7 d , , , , , , , , , , , , , , 8 > c ",
"  ] , ' ^ 7 7 7 0 , , ' 8 ' ^ ] ] ] 5 , , , , , d d ] 7 7 ^ ' ' d ^ ' 7 ' 8 ] 8 ' , , , , , ' 8 ' , , , ' a > , 5 ] ] ' ' 5 , , ' d 7 ' ' / , , ' d ^ ' ' ' 7 d ^ ' ^ 7 > c ",
"  7 5 7 7 7 7 7 8 ^ 5 7 7 7 7 7 7 8 , , ' ^ ^ ] 7 7 7 7 7 7 7 7 7 7 7 7 7 7 7 7 8 ' ^ ^ ^ 5 7 7 7 ] ^ 5 7 4 > 7 7 7 7 7 7 ] ^ 8 7 7 7 7 7 ^ ^ 8 7 7 7 7 7 7 7 7 7 7 7 7 > c ",
"  7 0 0 0 0 0 7 ^ 7 0 0 0 0 0 0 / 0 7 7 7 0 0 0 0 0 0 0 0 0 0 0 0 0 0 0 0 0 0 0 7 7 7 0 0 0 0 0 0 0 0 0 ; 1 e 7 0 0 0 0 0 0 0 7 3 | | | | 3 7 0 0 0 0 0 0 0 0 0 0 0 0 0 f c ",
"  / g g g g g g g g g g g g g g g g g g g g g g g g g g g g g g g g g g g g g g g g g g g g g g g g g 4 4 g g g g g g g g g g g g g g g g g g g g g g g g g g g g g g g g c ",
"  { { h h h h h h h h h h h h h h h h h h h h h h h i a a a a a a a a a a a e i b 4 - 1 - 4 b i e a a a f f f a a a a a i h h h h h h h h h h h h h h h - - - c h h h 1 1 1 ",
"      ) j @ % % % % % % % % % % % % % % % % % % % % 8 f f f f f f f f f f f e 4 2 g a { a g 2 4 e f f | 6 6 6 f f f f f , + @ @ @ % % % % % % % % % % % [ ] d ( % % $ h     ",
"      | ~ * + ~ ~ ~ ~ ~ ~ ~ ! ~ @ ~ ~ ~ ~ @ ~ ~ ~ ^ h f f > 0 0 0 0 0 0 0 7 ; a 2 9 0 2 0 3 > a ; 6 0 7 7 7 7 0 0 0 0 0 3 # k * * ~ ~ ~ ~ ~ ~ ~ @ ~ ~ ~ ~ _ l ~ ~ ~ & -     ",
"      | , 7 0 8 d ' , ^ , ] # , ! ( ^ ' ( = , , / f h f > 7 7 7 7 7 7 7 7 7 ; f / > m n o > / f ; ] 7 7 7 7 7 7 7 7 7 7 3 , , ' ' , , , , ^ , ( & , d , , ' / ] , d f c     ",
"      | , ] 7 7 , , d 7 8 8 _ , , , 7 ] , , , , / f h f 7 7 7 7 7 7 7 7 0 6 i f / > p q r > / f i 6 0 7 7 7 7 7 7 7 7 7 3 , 5 , , , , , , ' 8 , 5 ] 7 , , ' 7 3 ^ 7 f c     ",
"      | , ] 7 7 7 ' ^ 7 5 l ^ 8 , , 7 7 d d ^ ] / f h f 7 7 7 7 7 0 a s 4 2 7 b / > t u t > / b 7 2 4 s a 0 7 7 7 7 7 7 3 , 5 d , , , d 7 7 7 ] 5 7 7 ] ' ' 7 3 8 0 f c     ",
"      | , ] 7 7 7 ' ^ 7 7 ' ] 7 , , 7 7 5 5 7 7 / f h f 7 7 7 7 a e f 8 ^ 7 ; 1 / > 7 v 7 > / 1 ; 7 ^ 8 f e a 7 7 7 7 7 3 , 5 7 ' , , ] 7 7 7 ^ 7 7 7 7 ] ' 6 ^ 7 0 f c     ",
"      | , ] 7 7 7 7 7 7 7 7 7 7 ] ^ 7 7 7 7 7 7 / f h f 7 7 > b a 5 / a w w x y 2 | 6 > 6 | 2 y x w w a / 5 a b > 7 7 7 3 , 5 7 8 ^ ] 7 7 7 7 6 8 7 7 7 7 7 6 ' 7 0 f c     ",
"      | , ] 7 7 7 7 7 7 7 7 7 7 7 7 7 7 7 7 7 7 / f h f 7 6 i 0 | e z z x x x x z A ; 0 ; A z x x x x z z e | 0 i 6 7 7 3 , 5 7 7 7 7 7 7 7 7 6 8 7 7 7 7 0 ] ] 7 0 f c     ",
"      | 8 7 7 7 7 7 7 7 7 7 7 7 7 7 7 7 7 7 7 7 0 f h f 6 b 5 a B x x x x z C z x x x w x x x z C C C x x x B a 5 b 6 7 3 , ] 7 7 7 7 7 7 7 / 7 5 7 7 7 7 / 5 7 7 0 f c     ",
"      f | | | | | | | | | | | | | | | | | | | | 2 b h f g / c z x x x B A { 1 { D x x x x x D { 1 1 1 A z x x z c / g 6 | 3 | | | | | | | | f s 6 | | | | 4 / | | f s c     ",
"      s s s s s s s s s s s s s s s s s s s s s s e - b 7 c x x E C 1 1 1 1 1 1 1 1 F C F 1 1 1 1 1 1 1 1 1 F x x c 7 b - s s s s s s s s s s g s s s s e a s s s s ; 1     ",
"      1 i 3 6 6 6 6 | 9 a 6 6 6 6 6 | 9 9 e 1 1 1 1 e 5 c E x x A 1 1 1 1 1 1 1 1 1 1 1 1 1 1 1 1 1 1 1 1 1 1 B x E c 5 e h 9 6 6 6 6 6 6 6 a 9 | 6 6 6 6 6 a 9 9 c 1 1     ",
"      1 i f | 6 6 6 a i i g g i a i ; ; 1 1 1 1 1 1 s | w x x w 1 1 1 1 1 1 1 1 1 1 1 1 1 1 1 1 1 1 1 1 1 { C h F x w | s e a | 6 3 f | 6 6 6 6 6 f G ; ; ; - 1 1 1 1 1     ",
"        A h h i i i i h ; i i h e e h h 1 1 1 1 1 G 2 B x x z { 1 1 1 1 1 1 1 1 1 1 1 1 1 1 1 1 1 1 1 1 1 { s - 1 B x B 2 G e h i ; h h i i i i i h h h h h - 1 1 1 1       ",
"          ~ a f 6 f 3 3 7 7 7 7 7 7 3 3 8 0 e 1 c 9 A x x z 1 1 w 1 1 1 1 1 1 1 1 1 1 1 1 1 1 1 1 1 1 1 1 1 1 1 1 1 F x A 9 c g f 6 7 3 3 7 7 7 7 7 7 3 3 ] f a - 1 1       ",
"          : a 5 > / 7 ] + + < [ + } 7 7 / > ] e h g z x x D 1 B 1 4 1 1 1 1 1 1 1 1 1 1 1 1 1 1 1 1 1 1 1 1 1 1 1 1 1 x z 4 3 f ] > / 7 7 } + [ < + ~ ] 7 / 3 5 2 c 1       ",
"          ~ 7 6 7 7 ^ H ( , [ ) , , l ] 7 7 > b e - x x z 1 1 1 G 1 1 1 1 1 I J K K K L M K N O 1 1 1 1 1 1 1 1 1 1 1 D x c / 0 > 7 7 5 % < , ) [ , , = 5 7 7 6 7 a {       ",
"          ~ ] 0 7 ] % # ' > [ ) < d & = 7 7 / f 1 y x x A 1 1 1 1 1 1 1 1 P Q R S S S T U S V W e 1 1 1 1 1 1 1 1 1 1 { z y 7 8 / 7 7 $ _ & 6 ) [ l 8 & l ] 7 0 ] a {       ",
"          : 3 7 0 + l ' 0 = 0 = [ 0 d , < 7 7 3 A x x z 1 1 1 1 1 1 1 1 I X Y Z A > { | ' w { `  .O 1 1 1 1 1 1 1 1 1 1 z ..0 3 7 7 $ [ & > l 0 [ ) 8 ^ , ) 7 7 6 2 {       ",
"          : 3 7 < [ ' / l , > > ! 6 / d , ^ 7 3 A x z { 1 1 1 1 1 1 1 { +.R @./ D B z D A y G #.$.%.e 1 1 1 1 1 1 1 1 1 A ..0 3 7 ^ ) & > = & / > ! / / 8 d , 7 6 2 {       ",
"          ~ 7 7 ( ) ] 7 # , 3 3 , 6 / 8 ) ^ 7 7 A x z 1 1 1 1 1 1 1 c &.*.=.B - w F y h y w F e -.;.>.,.1 1 1 1 1 1 1 1 1 ..0 7 7 ' l 8 / } , 3 3 , / 0 ] < , 7 7 a {       ",
"          ~ 7 7 ( ( 7 0 ^ = , ' [ 3 / 5 8 / 7 7 A x A 1 1 1 1 1 1 1 '.).!.b E y A B y h C A C E { ~.{.].1 1 1 1 1 1 1 1 1 ..& 7 7 ' < 5 / 8 l ' , l 6 / 7 d > 7 7 a {       ",
"          ~ 8 7 / 8 < # > 0 l = > 0 $ [ ] 0 7 ] A x 1 1 1 1 1 1 1 1 '.).^.{ G B z 4 y D G F A 1 - /.(._.- 1 1 1 1 1 1 1 1 ..< ^ 7 0 5 [ $ 0 > = l / > j < 8 / 7 8 a {       ",
"          @ [ 7 7 | ! ( _ / 6 3 / : ! & 3 7 7 d A F 1 1 1 1 1 1 1 1 ; :.<.z z z x C z A y z y E y [.}.|.i 1 1 1 1 1 1 1 1 ..< _ 7 7 3 & ! : / 3 6 / _ ( ! | 7 7 [ f {       ",
"          @ [ ] 7 7 6 ( l ] 7 7 5 = & 3 7 7 ] d A D 1 1 1 1 1 1 1 1 '.1.2.f & s G A z B D h s 7 ; 3.4.5.4 1 1 1 1 1 1 1 1 ..< = ] 7 7 3 & = 5 7 7 ] l ( 6 7 7 ] [ f {       ",
"          ~ l 8 7 7 / ' [ d 7 7 ( ! d / 7 7 ' 5 A D 1 1 1 1 1 1 1 1 '.6.7.B B C E e y B ; y B y w 8.9.0.- 1 1 1 1 1 1 1 1 ..< < ' 7 7 / d ! ( 7 7 d [ ' / 7 7 8 l a {       ",
"          ~ , } 7 7 / 8 ) j 0 7 % l ] 0 7 7 # > A D 1 1 1 1 1 1 1 1 '.a.^.C z e y { z F A C G E E b.9.c.g 1 1 1 1 1 1 1 y ..< , # 7 7 0 ] l % 7 0 j ) 8 / 7 7 } , a {       ",
"          ~ , ) ( 7 7 | ( ! = } < , 3 7 7 < < > A D 1 1 1 1 1 1 1 1 '.d.e.f.4 c z w ; - D y i { y ~.g.h.h 1 1 1 1 1 1 1 y ..< , < < 7 7 3 , < } = ! ( | 7 7 ( ) , a {       ",
"          ~ , d > 7 5 ^ 6 & l _ , 3 7 ] 7 l ' > A D 1 1 1 1 1 1 1 1 1 i.j.k.a 5 z C E z F x ! 8 l.m.n.9 - 1 1 1 1 1 1 1 y ..< , d 6 7 ] d 3 , _ l & 6 0 5 7 < ' , a {       ",
"          ~ 8 > 7 7 @ [ > , ) ( ' > d [ 7 7 / 3 A D 1 1 1 1 1 1 1 1 1 i o.p.q.F w h y B ; A B r.s.t.u./ c 1 1 1 1 1 1 1 y ..< d > 7 0 @ = > ' ( ) , > 8 l 7 7 > ^ a {       ",
"          ~ 7 0 5 j l & ! 8 % l ] [ ( ) l ] 0 f A D 1 1 1 1 1 1 1 1 1 1 b v.w.x.h A z B A - y.z.A.] 3 1 1 1 1 1 1 1 1 1 C ..< 5 / ] $ [ ( [ ] j ) 8 ! & [ _ ] 0 ] a {       ",
"          : 3 7 ) ! & > ] _ l ' > 7 > ! < ' 7 3 A D 1 1 1 1 1 1 1 1 1 1 c g B.C.D.| D B A E.F.G.H./ 1 1 1 1 1 1 1 1 1 1 1 ..< 3 7 & [ ! > 7 = l & 3 ] > & ( ! 7 6 2 {       ",
"          ~ ] 7 & ( 5 0 0 _ ( > | / , ! ^ 0 7 ] A D 1 1 1 1 1 1 1 1 1 1 1 3 I.J.K.z A z E f L.M.2 1 1 1 1 1 1 1 1 1 1 1 1 ..< 5 7 d ! ^ / 0 l ( 0 | / ^ ) d / 7 5 a {       ",
"          @ [ 7 > ' ! < [ = ( / 8 ! [ = 8 / 7 d A D 1 1 1 1 1 1 1 1 1 1 1 e N.O.P.C ] a w > Q.R.S.1 1 1 1 1 1 A F 1 1 1 1 ..< _ 7 / 8 ) ( [ = < / 8 ( [ = ' > 7 [ f {       ",
"          ~ [ 8 7 6 ) ! ) & 6 6 ! ! < ( 6 7 ' 5 A D 1 1 1 1 1 1 1 1 1 1 1 T.U.V.c C [ > w - W.X.Y.{ 1 1 1 1 1 C 1 s 1 1 1 ..< ) ' 7 6 ( < ! < 3 6 & ) ! ) 6 7 8 l a {       ",
"          ~ ! ) 0 7 / 0 0 > 3 8 > 0 0 > 7 7 [ 0 A D 1 1 1 1 1 1 1 1 1 1 - Z.`. +1 C l D C G c .+++@+1 1 1 1 1 1 G ; 1 1 1 ..< ( [ 7 7 > 0 0 > | 8 > 0 0 / 7 0 ) ! a {       ",
"          ~ , & < 7 7 7 & ! / ^ ^ 7 7 7 7 l & > A D 1 1 1 1 1 1 1 1 1 1 #+$+%+1 1 F 2 - y c 1 &+*+=+1 1 1 1 1 1 c 1 1 1 1 ..< , & [ 7 7 7 ' ) 0 8 ' 0 7 7 7 ) & , a {       ",
"          ~ , ] / 7 7 7 = ) 0 7 < } 0 7 7 5 , > A D 1 1 B 1 1 1 1 1 1 1 -+;+>+{ 1 F ; F y ; 1 ,+'+)+- 1 1 1 1 1 1 1 1 1 1 ..< , 5 > 7 7 0 } < 7 0 ) _ 7 7 7 5 , , a {       ",
"          ~ ' 6 7 7 7 _ ) 8 6 3 ' ! l 7 7 7 / > A D 1 F e ; 1 1 1 1 1 c !+~+- { { F 1 B z 1 { A {+R.]+1 1 1 1 1 1 1 1 1 1 ..< , > 7 7 7 l ! ' 3 6 8 ) _ 7 7 7 > , a {       ",
"          ~ ] 0 7 7 ^ l ( 3 7 7 6 ! l 8 7 7 / f A D 1 1 i 1 1 1 1 1 1 ^+/+(+/ 9 z F ; B z B e 7 B _+:+{ 1 1 1 1 1 1 1 1 1 ..< 8 / 7 7 8 l ! 6 7 7 3 ( l ^ 7 7 0 ] a {       ",
"          : 6 7 7 7 ! ' 8 / 7 7 > d & , 7 7 7 3 A D 1 1 1 1 1 1 1 1 { <+[+}+[ D z F { B z B { / A |+1+2+1 1 1 1 1 1 1 1 1 ..( 6 7 7 7 , & d > 7 7 / 8 ' ! 7 7 7 > 2 {       ",
"          & 6 7 7 ] = [ 6 0 0 0 0 > ) # 7 7 7 3 A D 1 1 1 1 1 1 1 1 w A c C ; F e e 4 B B { w G C 3+4+5+{ 1 1 1 1 1 1 1 1 x D 3 7 7 7 # ) > 0 0 7 0 6 [ = ] 7 7 6 2 {       ",
"          f 7 7 7 _ ) 8 6 8 6+~ ] 3 ' < l 7 7 7 A D 1 1 1 1 1 1 1 1 z F b F y y F F y y y C y C E 1 7+A A 1 1 1 1 1 1 1 1 x A 7 7 7 l < ' 3 5 + } 5 6 8 ) _ 7 7 7 a {       ",
"          f 7 7 ^ l & 3 ' @ < ) l 5 6 ( l 8 7 7 A D 1 1 1 1 1 1 1 D c { 1 C 2 ; ; 1 h ; h 1 e A z 1 B B B 1 1 1 1 1 1 1 1 x A 7 7 8 l ( 6 ^ @ ) < l ^ 3 & l ^ 7 7 a {       ",
"          f 7 7 ! d 8 0 _ # 8 ' _ _ > d & ' 7 7 A D 1 1 1 1 1 1 1 F { D 1 F 1 B y ; b ; s F D - C 1 1 F y 1 1 1 1 1 1 1 1 x A 7 7 ' & d > # _ ' 8 # = 0 8 d ! 7 7 a {       ",
"          f 7 7 ( l 0 0 ( ' 3 | , ( / ] _ ' 7 7 A D 1 1 1 1 1 1 A - y 1 B y B B E B B B B y B ; z B B y A C i 1 1 1 1 1 1 x A 7 7 ' = ] / ( , 3 3 ' ( 0 0 l ! 7 7 a {       ",
"          | ] 7 ( & 0 7 / , 6 l & 6 / 7 8 0 7 7 A D 1 1 1 1 1 c B ; A i G A s b s ; b ; s ; { i A h b i { B c 1 1 1 1 1 1 x A ] 7 ' ! 7 0 6 , 6 ) & / 0 0 ^ 0 7 ] 2 {       ",
"          3 [ 7 7 3 l = ^ 7 @ = ! 3 8 l 3 7 7 d A D 1 1 1 1 1 s 1 A c c B c c c 1 C 1 c c c 1 D B c B A 1 c 2 1 1 1 1 1 1 x A _ 7 7 | [ = , 0 ~ # < 6 ] l 3 7 7 [ e 1       ",
"          3 [ 7 7 0 > _ ) j l ' | 8 l 6 0 7 7 d A D 1 1 1 1 1 - - c - - 1 - - - - 1 e G - - - c 1 e 1 c - - - 1 1 1 1 1 1 x A _ 7 7 0 6 l ) # [ ( | ] _ > 0 7 7 [ e 1       ",
"          | l 8 7 7 / > ) , & 6 ^ ) 6 0 7 7 ' 5 A D 1 1 1 1 1 1 1 1 1 1 1 1 1 1 1 1 1 1 1 1 1 1 1 1 1 1 1 1 1 1 1 1 1 1 1 x A < ' 7 7 0 6 ) , < 6 ^ ) > / 7 7 8 l - 1       ",
"          | & _ 7 7 7 0 3 6 6 3 6 3 0 7 7 ] _ b D D 1 1 1 1 1 1 1 1 1 1 1 1 1 1 1 1 1 1 1 1 1 1 1 1 1 1 1 1 1 1 1 1 1 1 C x A & = ] 7 7 0 3 6 3 6 6 3 0 7 7 7 _ & - 1       ",
"          | , , [ & 0 7 7 7 7 7 7 7 7 7 & l ^ h D F 1 1 1 1 1 1 1 1 1 1 1 1 1 1 1 1 1 1 1 1 1 1 1 1 D 1 1 1 1 1 1 1 1 1 B x A , , l & 7 7 7 7 7 7 7 7 7 0 & [ , > c 1       ",
"        % / , , & ! # _ 7 7 7 7 7 7 # # ! , 3 h 1 y C 1 1 1 1 1 1 1 1 1 1 1 1 1 1 1 1 1 1 1 1 1 1 w A g 1 1 1 1 1 1 1 1 C A h , , , ( # # 7 7 7 7 7 7 # # ! & d g 1 c       ",
"      ( : ~ 8 8 7 5 8 | a a a | 3 3 6 0 / b 4 i 7 > y D 1 1 1 1 1 1 1 1 1 1 1 1 1 1 1 1 1 1 1 1 1 B { s 1 1 1 1 1 1 1 w g % @ 8 8 8 8 8 8 3 3 3 / ] [ < > 3 | G { s 3 -     ",
"      , [ @ @ @ ~ & @ # _ _ _ # # # # # 0 6 6 0 d ~ { E 1 1 1 1 1 1 1 1 1 1 1 1 1 1 1 1 1 1 1 1 1 { s - C 1 1 1 1 1 1 E ) ' @ @ @ @ @ @ @ # # # # l / < < ] / 6 6 7 d e     ",
"    , , , [ # # # _ , } # # # # # # # # # # # # _ 6 b E 1 1 1 1 1 1 1 1 1 1 1 1 1 1 1 1 1 1 1 1 1 1 1 D h 4 1 1 1 1 D h , , ) # # # # # # # # # # # 5 / ) @ # # # # 7 a e 1 ",
"  , , , , 6 , , , ' d ( , , , , , , , , , , , , ^ h 9 C C 1 1 1 1 1 1 1 1 1 1 1 1 1 1 1 1 1 1 1 1 1 1 1 e 1 1 1 1 1 y 5 , , > , , , , , , , , , , , / f 3 ( , , , d 4 a g 1 ",
"  , , , ] ' , , , 8 ^ & , , , , , , , , , , , , , > h i y 1 1 1 { { 1 1 1 1 1 1 1 1 1 1 1 1 z 1 1 1 1 1 1 1 1 1 1 w c , , 8 ^ , , , , , , , , , , , , f 0 , , , , , 7 - | c ",
"  , , ' 7 , , , 8 8 5 d , , , , , , , , , , , , , d s c y 1 1 1 A w 1 1 1 1 1 1 1 1 C 1 1 1 z 1 1 1 1 B 1 1 1 1 1 E ] , , 0 ' , , , , , , , , , , , , f ^ , , , , , ' 9 s c ",
"  , , ' 0 , , , ] ' 8 5 , , , , , , , , , , , , , , 9 1 x F 1 1 { D { w A 1 1 w 1 1 z { 1 1 z 1 A 1 1 F 1 1 1 1 A ..] , , > , , , , , , , , , , , , , > 5 , , , , , , a g c ",
"  , , / d , , ' 0 , , 6 , , , , , , , , , , , , , , 0 1 x x C B y D C F x y { y { y x E C D E y E D y E y 1 C y x ..] , 0 d , , , , , , , , , , , , , d 5 , , , , , , 8 4 1 ",
"  | ^ 3 ^ ^ ^ a ^ ^ ^ a d ^ ^ ^ ^ ^ ^ ^ ^ ^ ^ ^ ^ ^ 0 1 x x x x x x x x x x x x x x x x x x x x x x x x x x x x x ..b ^ 6 ^ ^ ^ ^ ^ ^ ^ ^ ^ ^ ^ ^ ^ ^ ^ ^ ^ ^ ^ ^ ^ ^ 5 ; 1 ",
"  f f f f f s s f f f e / f f f f f f f f f h h h h e 1 x w D D D D D B x 8+g G G G g B x x z e G G G h D w z G { D e f f f f f f f f f f f f f f f f f f 2 h h h h h h 1 1 ",
"    f f f a 4 a 1 1 1 1 1 1 1 1 1 1 1 1 1 1 1 1 1 1 1     1 1 9+6 7 0 3 3 3 f G h 1 1 | 0 6 f f f f f f / 7 7 | f h - f f f f f f f f f ; 1 1 1 1 1 1 1 1 1 1 1 1 1 1 1 1   "};
