/* XPM */
static char * door4_xpm[] = {
"86 82 95 2",
"  	c #000000",
". 	c #8C8C8C",
"+ 	c #7F7F7F",
"@ 	c #808080",
"# 	c #7E7E7E",
"$ 	c #8B8B8B",
"% 	c #848484",
"& 	c #777777",
"* 	c #6F6F6F",
"= 	c #7C7C7C",
"- 	c #898989",
"; 	c #858585",
"> 	c #838383",
", 	c #717171",
"' 	c #737373",
") 	c #757575",
"! 	c #707070",
"~ 	c #6C6C6C",
"{ 	c #696969",
"] 	c #767676",
"^ 	c #7D7D7D",
"/ 	c #878787",
"( 	c #818181",
"_ 	c #5D5D5D",
": 	c #575757",
"< 	c #606060",
"[ 	c #747474",
"} 	c #7A7A7A",
"| 	c #656565",
"1 	c #545454",
"2 	c #7B7B7B",
"3 	c #727272",
"4 	c #626262",
"5 	c #6A6A6A",
"6 	c #6D6D6D",
"7 	c #565656",
"8 	c #787878",
"9 	c #686868",
"0 	c #636363",
"a 	c #555555",
"b 	c #5B5B5B",
"c 	c #646464",
"d 	c #5C5C5C",
"e 	c #6E6E6E",
"f 	c #5F5F5F",
"g 	c #616161",
"h 	c #535353",
"i 	c #6B6B6B",
"j 	c #666666",
"k 	c #595959",
"l 	c #5A5A5A",
"m 	c #585858",
"n 	c #5E5E5E",
"o 	c #525252",
"p 	c #828282",
"q 	c #676767",
"r 	c #797979",
"s 	c #696A6A",
"t 	c #8A6F5D",
"u 	c #8A5E5E",
"v 	c #646869",
"w 	c #E66030",
"x 	c #E53233",
"y 	c #646969",
"z 	c #6B6565",
"A 	c #4D4D4D",
"B 	c #666A6A",
"C 	c #505050",
"D 	c #494949",
"E 	c #4C4C4C",
"F 	c #E14F37",
"G 	c #636767",
"H 	c #4F4F4F",
"I 	c #E36129",
"J 	c #494F4F",
"K 	c #4B4B4B",
"L 	c #5C4F4F",
"M 	c #4E4E4E",
"N 	c #4A4A4A",
"O 	c #515151",
"P 	c #484848",
"Q 	c #414949",
"R 	c #6A6969",
"S 	c #DF3C3C",
"T 	c #595D5D",
"U 	c #6B6B6A",
"V 	c #E4773C",
"W 	c #595D5E",
"X 	c #E48C3C",
"Y 	c #E4743B",
"Z 	c #E48D3B",
"` 	c #595C5E",
" .	c #5B5A5A",
"..	c #AD4548",
"+.	c #515353",
"  . + + + + + + + + + + + + + + + + + + + + @ + # + + + + + + + + + + + + + + + + + + + + + + + + + + + + + + + + + + + + + + + + + + + + + + + + + + + + + + + + + + + +   ",
"$ % + + + + + + + + + + + + + + + + # # # & * = - ; + + + + + + + + + + + + + + + + + + + + + + + + + + + + + + + + + + + + + + + + + + + + + + + + + + + + + + + + + + + + ",
". > + + + + + + + + + + @ & , ' ) ! ~ { ] ^ / > + + + + + + + + + + + + + + + + + + + + + + + + + + + + + + + + + + + + + + + + + + + + + + + + + + + + + + + + + + + + + + ",
"( + + + + + + + + + + ) _ : < { * ! [ ( ( + + + + + + + + + + + + + + + + + + + + + + + + + + + + + + + + + + + + + + + + + + + + + + + + + + + + + + + + + + + + + + + + # ",
"{ ] } } } } } } } } } | 1 : { , , [ ( } } } 2 + + } } } } } } } } } } } # + + + + } } } } 2 + + + + + # } } } } } } } } } } } } } # } } } } } } } } } } } } } } } } } } 3 4 ",
"5 * , , , , , , , , 6 7 7 4 ! , = 8 , , , , , [ ' , , , , , , , , , , , ' [ [ [ [ , , , , 3 [ + + ^ ' ' , , , , , , , , , , , , , ' , , , , , , , , , , , , , , , , , , 9 0 ",
"5 * , , , , , , , 3 a 1 b ~ ~ ' , , , , , , , , , , , , , , , , , , , , , , , , , , , , , , , , , , , , , , , , , , , , , , , , , , , , , , , , , , , , , , , , , , , , 9 0 ",
"5 * , , , , , , , c 1 d | 5 e , , , , , , , , , , , , , , , , , , , , , , , , , , , , , , , , , , , , , , , , , , , , , , , , , , , , , , , , , , , , , , , , , , , , , 9 0 ",
"5 * , , , , , , , < a f * 6 , , , , , , , , , , , , , , , , , , , , , , , , , , , , , , , , , , , , , , , , , , , , , , , , , , , , , , , , , , , , , , , , , , , , , , 9 0 ",
"5 * , , , , , , , < < 5 , , , , , , , , , , , , , , , , , , , , , , , , , , , , , , , , , , , , , , , , , , , , , , , , , , , , , , , , , , , , , , , , , , , , , , , , g : ",
"5 * , , , , e * ~ _ { , , , , , , , , , , , , , , , , , , , , , , , , , , , , , , , , , , , , , , , , , , { , , , , , , , , , , , , , , , , , , , , , , , , , , , , , * f h ",
"5 * , , , 6 5 * e { , , , , , , , , , , , , , , , , , , , , , , , , , , , , , , , , , , , , , , , , , , , ! * , , , , , , , , , , , , 9 , , , , , , , , , , , , , , , ~ f h ",
"5 * , , e 5 5 ~ { , , ! , , * * * ~ ~ , , , , , * ! i 6 * , , , ! , * ! , * * 5 , , , , , , ! , , , , , 6 j * , * * ! , ! { , , , * i ! * , , , , * , , , * ! ! , ! * 5 f h ",
"5 * ~ ~ 5 5 5 | , , ~ i ~ ~ 5 5 5 6 , , , , , ~ 5 i 5 5 5 ~ ~ ~ 5 ~ 5 i ~ 5 5 ~ ~ , , , , ~ 5 ~ ~ , , ~ i k i ~ 5 5 i ~ i , , ~ ~ 5 i ~ 6 , , 6 ~ 5 ~ ~ ~ 5 i 5 ~ 5 i 5 f h ",
"5 5 5 5 5 5 5 * e 5 5 5 5 5 5 5 { * * * 5 5 5 5 5 5 5 5 5 5 5 5 5 5 5 5 5 5 5 ~ * e 5 5 5 5 5 5 5 5 5 { l : 9 5 5 5 5 5 5 5 5 5 9 9 9 9 9 5 5 5 5 5 5 5 5 5 5 5 5 5 5 { f h ",
"5 j | | | | | j | | | | | | | | 0 | | | | | | | | | | | | | | | | | | | | | | | | | | | | | | | | | | l 1 1 f | | | | | | | | | 0 0 0 0 0 | | | | | | | | | | | | | | 0 f h ",
"  1 1 1 1 1 1 1 1 1 1 1 1 1 1 1 1 1 1 1 1 1 1 1 1 1 : m m m m m m m m m m : : a a : 1 1 : a a : : m m 0 0 0 d m m m m : 1 1 1 1 1 1 1 1 1 1 1 1 1 1 1 1 1 1 1 1 1 1 1 1 1   ",
"    ] [ [ [ [ [ [ [ [ [ [ [ [ [ [ [ [ [ [ [ [ [ [ ) | 0 0 0 0 0 0 0 0 0 0 n < k m 4 : : 4 m k < n 0 0 0 0 0 0 0 0 0 0 | ) [ [ [ [ [ [ [ [ [ [ [ [ [ [ [ 4 { n ! [ [ ~ o     ",
"    4 ^ p p + + + + + + + = + + + + + + + + + + + 5 g 0 0 | | | | | | | | f 4 k m | b b | b k 4 n | c 5 5 5 q | | | | c 8 p p p ( + + + + + + + + + + + 8 9 + + + + ! o     ",
"    4 6 r ] 3 ] 3 ] ] ] ) ] ] ) # ] ] ) # 2 ] [ 6 d g 0 q 5 5 5 5 5 5 5 5 0 i l g 5 | | 5 | b i 4 5 5 5 5 5 5 5 5 5 5 { 5 } } } 8 ] ] ] ] ] ) # ] ] ] ] ] e ! ] ] * n h     ",
"    4 6 ! 5 5 * , , * 6 ! & 3 , , 6 i ! , , , e c d g j 5 5 5 5 5 5 5 5 5 4 i b | s t u s | b i 4 5 5 5 5 5 5 5 5 5 5 { i , ! , , , , , * ! ! , ~ * 6 , , ! q e ! j f h     ",
"    4 6 ! 5 5 ~ 6 , 5 5 3 & e , , 6 5 e , , , i c d g j 5 5 5 5 5 5 5 4 d l 6 b | v w x y | b 6 l d 4 5 5 5 5 5 5 5 5 { i ! e , , , , 6 ~ ~ i ! 5 5 i ! , i q e 5 | f h     ",
"    4 6 ! 5 5 5 i , 5 5 ! , 5 e , 6 5 5 ! 5 5 5 c d g j 5 5 5 5 q _ l n e e 0 b | 5 z z 5 | b 0 e e n l _ q 5 5 5 5 5 { i ! 5 * , , , i 5 5 i 5 5 5 5 5 ! i 9 e 5 | f h     ",
"    4 6 ! 5 5 5 5 6 5 5 5 i 5 i , 6 5 5 ~ 5 5 5 c d g j 5 5 5 g _ 5 , j < 7 A b { | { B | { b A 7 < j , 5 _ g 5 5 5 5 { i ! 5 i , , i 5 5 5 { e 5 5 5 5 i 5 9 i 5 | f h     ",
"    4 6 ! 5 5 5 5 5 5 5 5 5 5 5 5 5 5 5 5 5 5 5 c d g j 5 j k 4 6 d h C D D D E h q | F G h E D D D C h d 6 4 k j 5 5 { i ! 5 5 5 5 5 5 5 5 q * 5 5 5 5 5 { { i 5 | f h     ",
"    4 6 ~ 5 5 5 5 5 5 5 5 5 5 5 5 5 5 5 5 5 5 5 c d g j j f ~ c H E D D D D D D D A l I J D D D D D D D E H c ~ f j 5 { i ! 5 5 5 5 5 5 5 5 q * 5 5 5 5 5 c * 5 5 | f h     ",
"    0 q { { { { { { { { { { { { { { { { { { { { 4 d g 4 d 5 7 C D D D K K 1 1 K D D D L D D K 1 1 1 M N D D C 7 5 d j { 5 5 { { { { { { { { q i { { { { j 6 { { { 0 f h     ",
"    0 0 0 0 0 0 0 0 0 0 0 0 0 0 0 0 0 0 0 0 0 0 n : g f { a D D D K C 1 1 1 1 1 O M P Q M O 1 1 1 1 1 h C H D D a { f c f 0 0 0 0 0 0 0 0 0 g n j 0 0 0 _ | 0 0 0 f k 1     ",
"    a a : m m m m m : : m m m m m m : : : a a a a 1 m i a D D D o 1 1 1 1 1 1 1 1 h R S T 1 1 1 1 1 1 1 1 1 M D D a i m 1 : : m m m m m m m : 7 m m m m m m : : 7 a 1 1     ",
"      1 c q j j j q b b n n n 0 j n b b b 1 1 1 1 h { g N D D O 1 1 1 1 1 1 1 1 1 1 U V W 1 1 1 1 1 1 1 1 h o H D N g { h 0 | j j j j j j j 0 0 j j n n n n b b k 1 1       ",
"      1 m g q q q q j < j q j g : g g l 1 1 1 1 1 d 4 H D D K 1 1 1 1 1 1 1 1 1 1 1 U X W 1 1 1 1 1 1 1 1 A _ 1 M D H 4 d 7 4 q q 4 g q q q q q | g g g g < 1 1 1 1 1       ",
"        ! 4 d d d d d f < < < < g n d g | m 1 1 a < H D D K 1 1 H 1 1 1 1 1 1 1 1 1 U Y W 1 1 1 1 1 1 1 1 a : 1 1 H D H < a h b d _ g d n < < < < < f d < n _ 7 1 1         ",
"        @ 6 0 ~ c q 5 ~ e 6 5 6 e i 5 q j 5 : 1 g b N D N 1 1 C 1 d 1 1 1 1 1 1 1 1 U Z ` 1 1 1 1 1 1 1 1 1 1 1 1 1 M N b g _ 0 5 | q 5 i e 6 5 6 e i 5 9 c c 4 a 1         ",
"        @ 6 i 9 5 5 6 # + 2 ] = # & 5 5 5 9 { h g H D D M 1 1 1 d 1 1 1 1 1 1 M M M  ...+.M h 1 1 1 1 1 1 1 1 1 1 1 O D H 0 j 5 9 5 5 i 2 # = ] 2 + & ~ 5 5 9 i g 7         ",
"        + ) | 5 5 ~ > } ! 8 ) & ! , } i 5 5 c d 1 D D D h 1 1 a 1 1 1 1 1 1 M < 7 d n C 7 d A h 1 1 1 1 1 1 1 1 1 1 1 K D : e j 5 5 i > 8 , ] ) r ! , } i 5 5 | ~ :         ",
"        @ 3 q 5 e + 8 ! 9 6 8 8 3 e 3 & i 5 q d H D D M 1 1 1 1 1 1 1 1 1 O m a H h : A O M H H o 1 1 1 1 1 1 1 1 1 1 h D h e q 5 ~ # r 3 q * & 8 ' 6 , 8 ~ 5 q 9 :         ",
"        @ 6 5 5 ! # ! 9 } ! q 8 , 0 * ~ i 5 { d N D N 1 1 1 1 1 1 1 1 1 M l K A N o b A M K E E A h 1 1 1 1 1 1 1 1 1 h D M i { 5 6 + 3 q } , q & ' 0 e 6 i 5 5 0 m         ",
"        @ * 5 5 p ! c 8 , { { i * q | , ^ { 5 n N D h 1 1 1 1 1 1 1 1 o m o f a N A : K N O g K H a o 1 1 1 1 1 1 1 1 1 M M ~ 5 { ^ , | ) ' i { { ! j c , ^ 5 5 | m         ",
"        @ , 5 5 # 3 c & 3 5 5 ~ * q c ) { 5 5 < N D h 1 1 1 1 1 1 1 E C _ o o 7 f H _ K d d 1 E h M A 1 1 1 1 1 1 1 1 1 M M * 5 5 ^ ) c [ ' ~ 5 5 ! j c 3 i 5 5 9 :         ",
"        @ , 5 5 3 [ { ~ ~ 8 r 8 9 3 5 ' c 5 5 < N M 1 1 1 1 1 1 1 1 K C k a E E E h m A C N N 7 1 E A 1 1 1 1 1 1 1 1 1 M O ) 5 5 3 ' 5 3 i & r 8 { * 5 ) | 5 5 9 :         ",
"        + # 5 5 9 5 ' [ { { ! 9 { 8 3 { { 5 5 c N H 1 1 1 1 1 1 1 1 K C O 1 E C O o b E 1 E E a h K A a 1 1 1 1 1 1 1 1 M O + ~ 5 { { 3 8 { 9 ! { { [ [ 5 9 5 5 ] :         ",
"        + + 5 5 { { ) # i 9 j 9 6 } ) 9 5 5 5 | K 1 1 1 1 1 1 1 1 1 K 7 7 C 7 7 C A O N M 7 7 1 h 7 A < 1 1 1 1 1 1 1 1 M O @ i 5 5 9 ) } 6 9 j 9 i # ) { { 5 5 8 :         ",
"        + & r 5 5 j , ' p { 5 { > ] * q 5 5 r _ K 1 1 1 1 1 1 1 1 1 E d A E A A E K O N K A A A A o h 7 1 1 1 1 1 1 1 1 M O } } 5 5 q * ] > { 5 { p ' , j 5 5 r e :         ",
"        + ] 8 6 5 5 | [ & , 5 ' & 3 c 5 5 * & d K 1 1 1 1 1 1 1 1 1 E a o C K 7 o k O H : M H C h A H < 1 1 1 1 1 1 1 1 E O r 8 * 5 5 c 3 & ' 5 , & [ | 5 5 6 8 6 :         ",
"        + ] [ 3 5 5 9 5 ' ) 5 8 , { { 5 5 ] , d K 1 1 1 1 1 1 1 1 1 K o o E K h K K K N K A M C O E M < 1 1 1 1 1 1 1 h D O r 3 ] 5 5 { { , 8 5 ) ' 5 9 5 5 3 [ 6 :         ",
"        + ] , [ 5 5 { { ] ^ * r ] 9 { 5 ~ r ! d K 1 1 1 1 1 1 1 1 1 H H H A a _ M h h m C C l o M M M d 1 1 1 1 1 1 1 h D O r , ' i 5 { 9 ] r * ^ ] { { 5 i 2 , 6 :         ",
"        + ] * 9 5 5 > 6 , [ p ] * 0 r 5 5 5 * d K 1 1 1 1 1 1 1 1 1 1 C O N M A C k C H 7 K M K H A d 1 1 1 1 1 1 1 1 h D O r ! q 5 5 > , * ] p [ , 0 8 5 5 i * 6 :         ",
"        + ] c 5 ~ + ] 3 | ] 8 , | 3 ] ] 5 5 0 d K 1 1 1 1 1 1 1 1 1 1 1 H H C 1 1 O O E 1 1 O M M b m 1 1 1 1 1 1 1 1 h D O r | 5 i # & 3 | [ 8 ' | 3 ] 8 i 5 c 6 :         ",
"        @ * { 5 p } 3 e { 8 , { 5 ~ [ 8 } 5 9 d K 1 1 1 1 1 1 1 1 1 1 1 1 C C K E K O N E E C A d : 1 1 1 1 1 1 1 1 1 1 A O [ { { p r [ ~ 5 ' 3 i { e 3 r } 5 { | m         ",
"        @ e 5 5 = , | q ! 2 8 q i 9 e , ) 5 5 n K 1 1 1 1 1 1 1 1 1 1 1 1 1 K h k k C K m k K m k 1 1 1 1 1 1 1 1 1 1 1 M O ' 5 { = , | 9 6 + r 9 i q 6 , ) 5 5 | m         ",
"        + ^ 5 5 i , | 5 8 r ! j c 5 = , | 5 5 c K 1 1 1 1 1 1 1 1 1 1 1 1 O l o a C H k k l m M a 1 1 1 1 1 1 1 1 1 1 1 M O # i 5 5 3 | 5 8 8 3 | c 5 2 , j 5 5 ) :         ",
"        + = ! 5 q ] & 2 & ' j 6 ] 2 & [ j 5 ! 4 K 1 1 1 1 1 1 1 1 1 1 1 1 O O h 1 C H _ k o H o h 1 1 1 1 1 o A 1 1 1 1 M O # , 5 j [ & 2 & ) j ~ ] 2 & ] q 5 ! [ :         ",
"        + ] 2 5 5 q ' , 3 c 5 q ' , ' q 5 5 2 d K 1 1 1 1 1 1 1 1 1 1 1 1 M A : 1 C C _ l 1 E a C 1 1 1 1 1 A 1 n a 1 1 M O 8 = 5 5 q ' , ' c { q 3 , ' q 5 5 2 6 :         ",
"        + ] ' ) 5 5 | | ~ 9 { * 0 | j 5 i & , d K 1 1 1 1 1 1 1 1 1 1 1 E k b 1 1 M M a k 1 1 H O 1 1 1 1 1 1 f k 1 1 1 M O r 3 & i 5 j | i { 9 * c | | 5 5 ) ' 6 :         ",
"        + ] , 6 5 5 5 ) ] ) j 8 ! 3 5 5 i ' ! d K 1 1 1 1 1 1 1 1 1 1 1 E O o 1 1 O O 1 O 1 1 E A 1 1 1 1 1 1 1 1 1 1 1 M O r , e 5 5 5 3 ] & | ] , ) 5 5 5 ' , 6 :         ",
"        + ] e q 5 5 i 8 , 9 { 5 3 ] 5 5 5 ~ ! d K 1 1 H : 1 1 1 1 1 1 C b O : 1 1 E E O l 1 1 o k K 1 1 1 1 1 1 1 1 1 1 M O r ! j 5 5 5 ] 3 5 { 9 , 8 i 5 5 i ! 6 :         ",
"        + ] q { 5 5 e [ 3 j 5 j ' & ~ 5 5 { q d K 1 1 m k 1 1 1 1 1 1 h C N E E o C C O O E E K K l O 1 1 1 1 1 1 1 1 1 M O r 9 { 5 5 ~ & ' j 5 j 3 [ e 5 5 { q 6 :         ",
"        @ [ j 5 5 { = & { 9 5 q i ) = { 5 5 | d K 1 1 1 1 1 1 1 1 1 o O A o f O O E E O O H n o K O O 1 1 1 1 1 1 1 1 1 M O 8 j 5 5 { = ) i q 5 9 { & = { 5 5 j i :         ",
"        @ 6 5 5 5 [ ] 3 c 5 5 5 c [ ] 3 5 5 5 d K 1 1 1 1 1 1 1 1 1 K 1 o M A K K C C O K N D b O A H 1 1 1 1 1 1 1 1 1 M E 0 5 5 5 3 ] [ c 5 5 5 c 3 ] [ 5 5 5 0 m         ",
"        0 c 5 5 i 8 ! 9 5 * ' ~ { 5 , ] 5 5 5 _ K 1 1 1 1 1 1 1 1 C d h : E O a _ l K O O b l l C o k E 1 1 1 1 1 1 1 1 M N _ 5 5 5 ] , 5 { e ! 6 5 9 ! 8 i 5 5 c m         ",
"        0 9 5 5 e [ ' q e # r 8 i j [ & ~ 5 5 g K 1 1 1 1 1 1 1 1 C o H a C d d d 1 d d d 1 1 H O o C K 1 1 1 1 1 1 1 1 M N g 5 5 ~ & [ j i + ] & ~ q ' [ e 5 5 9 :         ",
"        0 9 5 5 = 8 { i p r , 8 } { i ] = 5 5 < K 1 1 1 1 1 1 1 1 o M d 1 O H K M A C A A N N 1 C 1 A o C 1 1 1 1 1 1 1 M N < 5 5 = ] i { p 8 , r } i { 8 = 5 5 9 :         ",
"        0 9 5 5 # , c 8 3 e 9 ! ' ) c ' ^ 5 5 < K 1 1 1 1 1 1 1 M : k 1 1 A o O 7 7 l 7 7 E l n C 1 o M M 1 1 1 1 1 1 1 M N < 5 5 ^ ' c ) ' ! 9 e 3 8 c , # 5 5 9 :         ",
"        0 9 5 5 2 e | j , { { e ! q | e 8 5 5 < K 1 1 1 1 1 1 h C O E H E A H H E H H A H K M E K H H A H 1 k 1 1 1 1 1 M N < 5 5 = 6 | q ! i { 6 , j | e & 5 5 9 m         ",
"        4 3 5 5 ! ' * * { e + r ! c 6 , 9 5 5 0 K 1 1 1 1 1 1 : O A A h M H h h M h h M h A O A A h h A A A m 1 1 1 1 1 M N { i 5 ! ! e , 9 * # 8 3 0 ~ ' q 5 5 ! a         ",
"        4 & 5 5 { q } r e ^ ] 3 c 6 r j 5 5 5 | K 1 1 1 1 1 a g 7 < < d n < < < : : 4 < < < m _ d n d 7 < < k 1 1 1 1 1 M N e ~ 5 5 j r 8 ! & & ) c i } q { 5 5 [ 1         ",
"        4 ! ) 5 5 9 q 8 8 2 , j e & j { 5 5 ] f K 1 1 1 1 1 1 1 1 1 1 1 1 1 1 1 1 1 m 1 1 1 1 1 1 1 1 1 1 1 1 1 1 1 1 1 M N 9 & 5 5 { j ] & 8 ' j ~ 8 q 9 5 5 ) 6 1         ",
"        4 6 } i 5 5 { q * ~ | ~ e q { 5 5 ~ } l K 1 1 1 1 1 1 1 1 1 1 1 1 1 1 1 1 1 1 1 1 1 1 1 1 1 1 1 1 1 1 1 1 1 1 1 A N c 2 ~ 5 5 { q e 6 | i * q { 5 5 i } { 1         ",
"        4 6 3 8 5 5 5 9 q q 5 q q { 5 5 i 8 9 1 K 1 1 1 1 1 1 1 1 1 1 1 1 1 1 1 1 1 1 1 1 1 1 1 1 1 1 1 1 1 1 1 1 1 1 h D N | , 8 i 5 5 { q q 5 q q 9 5 5 5 8 3 0 1         ",
"        6 6 , , = ' 6 i 5 5 5 5 5 ~ 6 ] 2 ! 0 1 E M 1 1 1 1 1 1 1 1 1 1 1 1 1 1 1 1 1 1 1 1 1 1 1 O h 1 1 1 1 1 1 1 1 1 A M | , , 2 ] 6 ~ 5 5 5 5 5 i 6 ' = , j _ 1         ",
"      @ ^ ~ 9 9 9 6 * 5 j j j j j i ' ! 6 j b b g K M 1 1 1 1 1 1 1 1 1 1 1 1 1 1 1 1 1 1 1 1 1 1 K f 1 1 1 1 1 1 1 1 A n [ ~ 9 9 9 ~ * i j j j 5 e & [ 6 { ~ _ h f h       ",
"    , , + # # # ! ^ 2 q q q 9 6 6 6 6 ~ l m k 5 e 6 K h 1 1 1 1 1 1 1 1 1 1 1 1 1 1 1 1 1 1 1 1 1 A n 1 h 1 1 1 1 1 h o ^ + # # # # # # ] 6 6 6 6 5 ] [ 5 { m : _ 5 { h     ",
"    , , r + + + # [ + @ @ @ @ @ @ @ @ 2 & & & & # 9 K M 1 1 1 1 1 1 1 1 1 1 1 1 1 1 1 1 1 1 1 1 1 7 7 M k 1 1 1 1 1 A c , & @ + + + + + + @ @ @ @ ) 9 ] r & & & & & j :     ",
"  , , , e e 3 3 3 9 = 3 3 3 3 3 3 3 3 3 3 3 3 3 | d a A 1 1 1 1 1 1 1 1 1 1 1 1 1 1 1 1 1 1 1 1 1 1 1 7 l 1 1 1 1 h E * , ! ~ 3 3 3 3 3 3 3 3 3 3 , 0 c ] [ 3 3 3 9 k 4 1   ",
"  , , , 5 * , , , 9 = , , , , , , , , , , , , , i d d E h 1 1 1 1 1 1 1 1 1 1 1 1 1 1 1 1 h o 1 1 1 1 1 1 1 1 1 1 M 4 , , 5 e , , , , , , , , , , , 9 0 9 , , , , ~ d g b h ",
", , , ! 9 , , , e ~ 9 , , , , , , , , , , , , , ! n < H h 1 1 1 E 1 1 1 1 1 1 1 1 1 1 1 1 O O 1 1 1 h 1 1 1 1 1 1 C , , ! q , , , , , , , , , , , , ~ c r , , , , , < f f h ",
", , , q , , , , j 3 j , , , , , , , , , , , , , , i 7 H M 1 1 1 K 1 C 1 1 1 1 C 1 O O 1 1 O O 1 1 1 A 1 1 1 1 1 M C 3 , { ! , , , , , , , , , , , , ~ 0 , , , , , , e m f h ",
", , , 9 , , , { ! , e ~ , , , , , , , , , , , , , ~ 7 H D M 1 h o 1 E C O h h h h C N h 1 O C O O h E h 1 1 h o D C 3 , { ! , , , , , , , , , , , , , j , , , , , , e k n h ",
"5 * e 6 , , ! 5 , , * ~ , , , , , , , , , , , , , 3 m H D D M D D A M D D K N K N D D D A D D D A D D D A M D D D M * ! i , , , , , , , , , , , , , , ~ , , , , , , 3 q 1 1 ",
"0 c c c c c g < c c 4 0 | c c c c c c c c c 0 0 0 c 7 H D N N N N N N D D N K K K K N D D D N K K K K N N D K K N M c c c c c c c c c c c c c c c c c c c 0 0 0 0 0 0 k 1 1 ",
"  0 0 0 0 n _ f d d b d d d d d d d d d d m 1 1 1 1 1   ) 1 1 1 n < d c c c 0 d _ _ m     c m c c c c a _ i | 4 : 1 _ 0 0 0 0 0 0 0 0 0 d d d d d d d d d a 1 1 1 1 1 1 1   ",
"    0 0 0 k 0 k 1 1 1 1 1 1 1 1 1 1 1 1 1 1 1 1 1 1 1         0 { 5 { { { q 0 g n 1 a | 5 9 0 c c 0 0 0 5 5 5 c 0 < h 0 0 0 0 0 0 0 0 4 1 1 1 1 1 1 1 1 1 1 1 1 1 1 1 1     "};
