/* XPM */
static char * door1_xpm[] = {
"86 82 68 1",
" 	c #000000",
".	c #8A8A8A",
"+	c #848484",
"@	c #7F7F7F",
"#	c #7B7B7B",
"$	c #818181",
"%	c #808080",
"&	c #727272",
"*	c #888888",
"=	c #797979",
"-	c #565656",
";	c #595959",
">	c #676767",
",	c #717171",
"'	c #707070",
")	c #767676",
"!	c #747474",
"~	c #7E7E7E",
"{	c #535353",
"]	c #6B6B6B",
"^	c #6E6E6E",
"/	c #686868",
"(	c #737373",
"_	c #7A7A7A",
":	c #7D7D7D",
"<	c #757575",
"[	c #777777",
"}	c #7C7C7C",
"|	c #646464",
"1	c #545454",
"2	c #616161",
"3	c #656565",
"4	c #5B5B5B",
"5	c #6C6C6C",
"6	c #666666",
"7	c #6A6A6A",
"8	c #6D6D6D",
"9	c #606060",
"0	c #696969",
"a	c #626262",
"b	c #5F5F5F",
"c	c #555555",
"d	c #6F6F6F",
"e	c #575757",
"f	c #636363",
"g	c #5C5C5C",
"h	c #585858",
"i	c #5A5A5A",
"j	c #838383",
"k	c #898989",
"l	c #787878",
"m	c #5E5E5E",
"n	c #505050",
"o	c #494949",
"p	c #4C4C4C",
"q	c #4B4B4B",
"r	c #525252",
"s	c #4F4F4F",
"t	c #4D4D4D",
"u	c #515151",
"v	c #4A4A4A",
"w	c #4E4E4E",
"x	c #5D5D5D",
"y	c #828282",
"z	c #484848",
"A	c #878787",
"B	c #474747",
"C	c #2F2F2F",
"                                                                                      ",
" .+@@@@@@@@@@@@@@@@@@@##$$@@@@@@@@@@@@@@@@@@@@@@@@@@@@@@@@@@@@@@@@@@@@@@@@@@@@@@@@@@@@",
" .@@@@@@@@@@@@%%@@&&&&%%++@@@@@@@@@@@@@@@@@@@@@@@@@@@@@@@@@@@@@@@@@@@@@@@@@@@@@@@@@@@@",
" *@@@@@@@@@@#=-;>>,')$@@@@@@@@@@@@@@@@@@@@@@@@@@@@@@@@@@@@@@@@@@@@@@@@@@@@@@@@@@@@@@@@",
" !@@@@@@@@@~;{;],,)+@@@@@@@@@@@@@@@@@@@@@@@@@@@@@@@@@@@@@@@@@@@@@@@@@@@@@@@@@@@@@@@@%'",
" ]&&&&&&&&&^{-/,&(_&&&,_:<&&&&&&&&&&(::::[&&&,}~@@::(&&&&&&&&&&&&<<&&&&&&&&&&&&&&&&&^|",
" ],,,,,,,,]-12^]=[,,,,,,,,,,,,,,,,,,,,,,,,,,,,,![[&,,,,,,,,,,,,,,,,,,,,,,,,,,,,,,,,,^|",
" ],,,,,,,,31435^,,,,,,,,,,,,,,,,,,,,,,,,,,,,,,,,,,,,,,,,,,,,,,,,,,,,,,,,,,,,,,,,,,,,^|",
" ],,,,,,,'{1678,,,,,,,,,,,,,,,,,,,,,,,,,,,,,,,,,,,,,,,,,,,,,,,,,,,,,,,,,,,,,,,,,,,,,^|",
" ],,,,,,,'190',,,,,,,,,,,,,,,,,,,,,,,,,,,,,,,,,,,,,,,,,,,,,,,,,,,,,,,,,,,,,,,,,,,,,,8a",
" ],,,,,^,3b7,,,,,,,,,,,,,,,,,,,,,,,,,,,,,,,,,,,,,,,,,^',,,,,,,,,,,,,,,,,,,,,,,,,,,,,7c",
" ],,,,^7&40,,,,,,,,,,,,,,,,,,,,,,,,,,,,,,,,,,,,,,,,,,,',,,,,,,,,,,,,,,,,,,,,,,,,,,,'>c",
" ],,,^77^],,,,,,,,8',,,,,,''^,,,,,,,,,,8,,,,,,,,,,,,,^],,,,,,dd,,,,7d,,,,,,,,,,,,,,8>c",
" ],'^7770,,'8'^]]]5,,,,,dd]77^''d^'7'8]8',,,,,'8',,,'a>,5]]''5,,'d7''/,,'d^'''7d^'^7>c",
" 75777778^57777778,,'^^]77777777777777778'^^^5777]^574>777777]^877777^^8777777777777>c",
" 7000007^7000000/07770000000000000000000777000000000;1e7000000073||||370000000000000fc",
" /ggggggggggggggggggggggggggggggggggggggggggggggggg44ggggggggggggggggggggggggggggggggc",
" {{hhhhhhhhhhhhhhhhhhhhhhhiaaaaaaaaaaaeib4-1-4bieaaafffaaaaaihhhhhhhhhhhhhhh---chhh111",
"   )j@%%%%%%%%%%%%%%%%%%%%8fffffffffffe42ga{ag24eff|666fffff,+@@@%%%%%%%%%%%[]d(%%$h  ",
"   |~*+~~~~~~~!~@~~~~@~~~^hff>00000007;a290203>a;607777000003#k**~~~~~~~@~~~~_l~~~&-  ",
"   |,708d',^,]#,!(^'(=,,/fhf>777777777;f/>0a0>/f;]77777777773,,'',,,,^,(&,d,,'/],dfc  ",
"   |,]77,,d788_,,,7],,,,/fhf7777777706if/>>)3>/fi607777777773,5,,,,,,'8,5]7,,'73^7fc  ",
"   |,]777'^75l^8,,77dd^]/fhf777770am427b/>>06>/b724ma07777773,5d,,,d777]577]''7380fc  ",
"   |,]777'^77']7,,775577/fhf7777aef8^7;1/>707>/1;7^8fea777773,57',,]777^7777]'6^70fc  ",
"   |,]7777777777]^777777/fhf77>ba5/annop2|6>6|2ponna/5ab>7773,578^]777768777776'70fc  ",
"   |,]777777777777777777/fhf76i0|eqqooooqr;0;rqooooqqe|0i6773,5777777776877770]]70fc  ",
"   |877777777777777777770fhf6b5asooooqtqooonoooqtttooosa5b673,]7777777/757777/5770fc  ",
"   f||||||||||||||||||||2bhfg/cqooosr{1{uooooou{111rqooqc/g6|3||||||||fm6||||4/||fmc  ",
"   mmmmmmmmmmmmmmmmmmmmmme-b7coovt11111111wtw111111111wooc7b-mmmmmmmmmmgmmmmeammmm;1  ",
"   1i36666|9a66666|99e1111e5cvoor1111111111111111111111sovc5eh96666666a9|66666a99c11  ",
"   1if|666aiiggiai;;111111m|noon111111111111111111111{thwon|mea|63f|66666fx;;;-11111  ",
"    rhhiiiih;iiheehh11111x2sooq{111111111111111111111{m-1sos2xehi;hhiiiiihhhhh-1111   ",
"     ~af6f337777773380e1c9rooq11n1111111111111111111111111wor9cgf673377777733]fa-11   ",
"     :a5>/7]++<[+}77/>]ehgqoou1s141111111111111111111111111oq43f]>/77}+[<+~]7/352c1   ",
"     ~7677^y(,[),,l]77>be-ooq111x111111uusttnst{11111111111uoc/0>775%<,)[,,=57767a{   ",
"     ~]07]%#'>[)<d&=77/f1poor111111111sensshnwts{1111111111{qp78/77$_&6)[l8&l]70]a{   ",
"     :370+l'0=0=[0d,<773rooq111111111ui1r;tuxuutt{1111111111qz0377$[&>l0[)8^,)7762{   ",
"     :37<['/l,>>!6/d,^73roq{11111111sepxusqurpg1ps{111111111rz037^)&>=&/>!//8d,762{   ",
"     ~77()]7#,33,6/8)^77roq11111111w4iw-nwphpnwer1s{111111111z077'l8/},33,/0]<,77a{   ",
"     ~77((70^=,'[3/58/77ror1111111rntgvprsphtrtv{srt111111111z&77'<5/8l',l6/7d>77a{   ",
"     ~87/8<#>0l=>0$[]07]ro11111111rnq1xsq4puxwr1-srt111111111z<^705[$0>=l/>j<8/78a{   ",
"     @[77|!(_/63/:!&377drw11111111rqotpqotqrpqpvtqp{-11111111z<_773&!:/36/_(!|77[f{   ",
"     @[]776(l]775=&377]dru11111111r;mexmxrqsuhmm1m2{-11111111z<=]773&=577]l(677][f{   ",
"     ~l877/'[d77(!d/77'5ru11111111r{vnstveps;pspnter-11111111z<<'77/d!(77d['/778la{   ",
"     ~,}77/8)j07%l]077#>ru11111111rhpwqep{qwrtxvvsxc-1111111pz<,#770]l%70j)8/77},a{   ",
"     ~,)(77|(!=}<,377<<>ru11111111rnqwrcqn;-up4wqnrc-1111111pz<,<<773,<}=!(|77(),a{   ",
"     ~,d>75^6&l_,37]7l'>ru111111111suv{9qtvqwvx;vwt-11111111pz<,d67]d3,_l&6057<',a{   ",
"     ~8>77@[>,)('>d[77/3ru1111111111nsvnnhps;rnpswgh11111111pz<d>70@=>'(),>8l77>^a{   ",
"     ~705jl&!8%l][()l]0fru11111111111susr{qsrrrwt4-111111111tz<5/]$[([]j)8!&[_]0]a{   ",
"     :37)!&>]_l'>7>!<'73ru111111111111nsuiusniuwgh11111111111z<37&[!>7=l&3]>&(!762{   ",
"     ~]7&(500_(>|/,!^07]ru111111111111rnwqtqvsvsb111111111111z<57d!^/0l(0|/^)d/75a{   ",
"     @[7>'!<[=(/8![=8/7dru111111111111qr;w9ew2p1{111111rw1111z<_7/8)([=</8([='>7[f{   ",
"     ~[876)!)&66!!<(67'5ru11111111111wxecwcet-{ct111111t1m111z<)'76(<!<36&)!)678la{   ",
"     ~!)07/00>38>00>77[0ru1111111111{1n-1wh{tx1weu111111x;111z<([77>00>|8>00/70)!a{   ",
"     ~,&<777&!/^^7777l&>ru1111111111{nqc1wm-pc1s{w111111c1111z<,&[777')08'0777)&,a{   ",
"     ~,]/777=)07<}0775,>ru11s1111111n{e11w;wp;1rs1{1111111111z<,5>770}<70)_7775,,a{   ",
"     ~'6777_)863'!l777/>ru1we;111111tw1{{w1sq1{{qur1111111111z<,>777l!'368)_777>,a{   ",
"     ~]077^l(3776!l877/fru11i111111t;z-{vw;sqs-1vrp1111111111z<8/778l!6773(l^770]a{   ",
"     :6777!'8/77>d&,7773ru11111111{httmnqw{sqs{nqsgw111111111z(6777,&d>77/8'!777>2{   ",
"     &677]=[60000>)#7773ru11111111nr-w{wee4ss{nmtrs1{11111111ou3777#)>00706[=]7762{   ",
"     f777_)868A~]3'<l777ru11111111qwbwppwwppptptv1qur11111111or777l<'35+}568)_777a{   ",
"     f77^l&3'@<)l56(l877ru1111111uc{1t2;;1h;h1erq1sss11111111or778l(6^@)<l^3&l^77a{   ",
"     f77!d80_#8'__>d&'77ru1111111w{u1w1sp;b;mwu-t11wp11111111or77'&d>#_'8#=08d!77a{   ",
"     f77(l00('3|,(/]_'77ru111111r-p1spssvssssps;qssprti111111or77'=]/(,33'(00l!77a{   ",
"     |]7(&07/,6l&6/78077ru11111cs;rixrmbm;b;m;{irhbi{sc111111or]7'!706,6)&/00^07]2{   ",
"     3[773l=^7@=!38l377dru11111m1rccsccc1t1ccc1uscsr1c2111111or_77|[=,0~#<6]l377[e1   ",
"     3[770>_)jl'|8l6077dru11111--c--1----1ex---c1e1c---111111or_7706l)#[(|]_>077[e1   ",
"     |l877/>),&6^)6077'5ru11111111111111111111111111111111111or<'7706),<6^)>/778l-1   ",
"     |&_7770366363077]_buu1111111111111111111111111111111111tor&=]7703636630777_&-1   ",
"     |,,[&0777777777&l^huw111111111111111111111111u111111111sor,,l&7777777770&[,>c1   ",
"    %/,,&!#_777777##!,3h1pt1111111111111111111111nrg11111111trh,,,(##777777##!&dg1c   ",
"   (:~88758|aaa|3360/b4i7>pu111111111111111111111s{m1111111ng%@888888333/][<>3|x{m3-  ",
"   ,[@@@~&@#___#####0660d~{v111111111111111111111{m-t111111v)'@@@@@@@####l/<<]/667de  ",
"  ,,,[###_,}############_6bv11111111111111111111111uh41111uh,,)###########5/)@####7ae1",
" ,,,,6,,,'d(,,,,,,,,,,,,^h9tt11111111111111111111111e11111p5,,>,,,,,,,,,,,/f3(,,,d4ag1",
" ,,,]',,,8^&,,,,,,,,,,,,,>hip111{{111111111111q1111111111nc,,8^,,,,,,,,,,,,f0,,,,,7-|c",
" ,,'7,,,885d,,,,,,,,,,,,,dmcp111rn11111111t111q1111s11111v],,0',,,,,,,,,,,,f^,,,,,'9mc",
" ,,'0,,,]'85,,,,,,,,,,,,,,91ow11{u{nr11n11q{11q1r11w1111rz],,>,,,,,,,,,,,,,>5,,,,,,agc",
" ,,/d,,'0,,6,,,,,,,,,,,,,,01ootsputwop{p{povtuvpvupvp1tpoz],0d,,,,,,,,,,,,,d5,,,,,,841",
" |^3^^^a^^^ad^^^^^^^^^^^^^01ooooooooooooooooooooooooooooozb^6^^^^^^^^^^^^^^^^^^^^^^5;1",
" fffffmmfffe/fffffffffhhhhe1onuuuuusoBgxxxgsooqexxxhunqx{ueffffffffffffffffff2hhhhhh11",
"  fffa4a1111111111111111111  11C670333fxh11|06ffffff/77|fh-fffffffff;1111111111111111 "};
