/* XPM */
static char * door11_xpm[] = {
"86 82 252 2",
"  	c #000000",
". 	c #8C8C8C",
"+ 	c #868686",
"@ 	c #7F7F7F",
"# 	c #808080",
"$ 	c #7E7E7E",
"% 	c #8A8A8A",
"& 	c #6F6F6F",
"* 	c #898989",
"= 	c #717171",
"- 	c #757575",
"; 	c #6C6C6C",
"> 	c #6A6A6A",
", 	c #6E6E6E",
"' 	c #747474",
") 	c #878787",
"! 	c #676767",
"~ 	c #5C5C5C",
"{ 	c #585858",
"] 	c #616161",
"^ 	c #828282",
"/ 	c #7D7D7D",
"( 	c #6B6B6B",
"_ 	c #7A7A7A",
": 	c #797979",
"< 	c #535353",
"[ 	c #545454",
"} 	c #5F5F5F",
"| 	c #707070",
"1 	c #7C7C7C",
"2 	c #7B7B7B",
"3 	c #656565",
"4 	c #5E5E5E",
"5 	c #686868",
"6 	c #737373",
"7 	c #727272",
"8 	c #6D6D6D",
"9 	c #646464",
"0 	c #565656",
"a 	c #626262",
"b 	c #696969",
"c 	c #787878",
"d 	c #595959",
"e 	c #636363",
"f 	c #555555",
"g 	c #666666",
"h 	c #575757",
"i 	c #5D5D5D",
"j 	c #5B5B5B",
"k 	c #858585",
"l 	c #818181",
"m 	c #767676",
"n 	c #777777",
"o 	c #5A5A5A",
"p 	c #606060",
"q 	c #4D4D4D",
"r 	c #505050",
"s 	c #4A4A4A",
"t 	c #494949",
"u 	c #484949",
"v 	c #454849",
"w 	c #4B4B4B",
"x 	c #4F4F4F",
"y 	c #6F5148",
"z 	c #BC6436",
"A 	c #4F4B4A",
"B 	c #474949",
"C 	c #765145",
"D 	c #48494A",
"E 	c #525252",
"F 	c #515353",
"G 	c #CB6931",
"H 	c #68514A",
"I 	c #444849",
"J 	c #A95E3C",
"K 	c #444D4F",
"L 	c #4C4C4C",
"M 	c #734846",
"N 	c #BE4034",
"O 	c #5F5E5E",
"P 	c #4E4E4E",
"Q 	c #65504A",
"R 	c #C76733",
"S 	c #535354",
"T 	c #4C5151",
"U 	c #C43833",
"V 	c #8D5F4D",
"W 	c #5C514F",
"X 	c #C36634",
"Y 	c #68524C",
"Z 	c #515151",
"` 	c #624A4C",
" .	c #E16D28",
"..	c #495052",
"+.	c #B43C38",
"@.	c #8A4342",
"#.	c #535454",
"$.	c #525353",
"%.	c #CF2B2D",
"&.	c #5D484A",
"*.	c #405050",
"=.	c #EE141A",
"-.	c #444F4E",
";.	c #575351",
">.	c #CC6631",
",.	c #62504B",
"'.	c #474F50",
").	c #E36C27",
"!.	c #5F4A4C",
"~.	c #BA6336",
"{.	c #5D4A49",
"].	c #D0542E",
"^.	c #464D4F",
"/.	c #E56C25",
"(.	c #514A48",
"_.	c #4B4A49",
":.	c #BB4136",
"<.	c #764746",
"[.	c #9F4040",
"}.	c #B73538",
"|.	c #464B4B",
"1.	c #8F5A45",
"2.	c #BE6636",
"3.	c #4D5051",
"4.	c #565252",
"5.	c #CF2D2D",
"6.	c #5F4B4B",
"7.	c #475051",
"8.	c #E43122",
"9.	c #5A4C4C",
"0.	c #484848",
"a.	c #7E4B44",
"b.	c #B54E37",
"c.	c #606161",
"d.	c #555454",
"e.	c #594949",
"f.	c #D3292B",
"g.	c #885643",
"h.	c #B1613B",
"i.	c #5E4E4A",
"j.	c #CF632F",
"k.	c #555252",
"l.	c #3D4D4E",
"m.	c #EE741F",
"n.	c #485456",
"o.	c #B64D37",
"p.	c #7A4A44",
"q.	c #C93631",
"r.	c #7A5248",
"s.	c #585959",
"t.	c #5C514E",
"u.	c #E16D27",
"v.	c #474D4F",
"w.	c #6A534C",
"x.	c #EB6120",
"y.	c #BD3835",
"z.	c #B93435",
"A.	c #B96137",
"B.	c #B94C36",
"C.	c #B95D37",
"D.	c #B93335",
"E.	c #B96337",
"F.	c #B96037",
"G.	c #B94F36",
"H.	c #B95136",
"I.	c #B93A36",
"J.	c #B95236",
"K.	c #B95F37",
"L.	c #B93E36",
"M.	c #B83536",
"N.	c #F64F15",
"O.	c #995C42",
"P.	c #5A5B5B",
"Q.	c #554D4A",
"R.	c #7A4B45",
"S.	c #794646",
"T.	c #794546",
"U.	c #795245",
"V.	c #794B46",
"W.	c #795146",
"X.	c #795246",
"Y.	c #794C46",
"Z.	c #795346",
"`.	c #794D46",
" +	c #794746",
".+	c #794D45",
"++	c #795145",
"@+	c #794745",
"#+	c #794545",
"$+	c #6A4F47",
"%+	c #5D5E5E",
"&+	c #838383",
"*+	c #444445",
"=+	c #434344",
"-+	c #4E4E4F",
";+	c #333138",
">+	c #3B393E",
",+	c #333139",
"'+	c #343239",
")+	c #444345",
"!+	c #454546",
"~+	c #3E3D40",
"{+	c #3D3C3F",
"]+	c #434244",
"^+	c #35343A",
"/+	c #3F3E41",
"(+	c #3E3D41",
"_+	c #39373C",
":+	c #39373D",
"<+	c #39383D",
"[+	c #37353B",
"}+	c #38373C",
"|+	c #424244",
"1+	c #474747",
"2+	c #3D3C40",
"3+	c #4A4A49",
"4+	c #3C3B3F",
"5+	c #353339",
"6+	c #35333A",
"7+	c #38363C",
"8+	c #484748",
"9+	c #3A393D",
"0+	c #424143",
"a+	c #4F4E4F",
"b+	c #464647",
"c+	c #3B3A3E",
"d+	c #3B3A3F",
"e+	c #37363B",
"f+	c #36353B",
"g+	c #504F50",
"h+	c #888888",
"i+	c #515052",
"j+	c #49494B",
"k+	c #444446",
"l+	c #4D4D4E",
"m+	c #3F3F41",
"n+	c #424144",
"o+	c #494A49",
"p+	c #49484A",
"q+	c #515150",
"r+	c #36343A",
"s+	c #403F42",
"t+	c #3A383D",
"u+	c #323037",
"v+	c #727172",
"w+	c #4B4B4C",
"x+	c #414043",
"y+	c #49494A",
"z+	c #4B4A4C",
"A+	c #434245",
"B+	c #3D3B40",
"C+	c #545355",
"  . + @ @ @ @ @ @ @ @ @ @ @ @ @ @ @ @ @ @ @ # # $ $ @ @ @ @ @ @ @ @ @ @ @ @ @ @ @ @ @ @ @ @ @ @ @ @ @ @ @ @ @ @ @ @ @ @ @ @ @ @ @ @ @ @ @ @ @ @ @ @ @ @ @ @ @ @ @ @ @ @ @ @ ",
"  % # @ @ @ @ @ @ @ @ @ @ @ @ @ @ @ $ $ $ $ & & * * @ @ @ @ @ @ @ @ @ @ @ @ @ @ @ @ @ @ @ @ @ @ @ @ @ @ @ @ @ @ @ @ @ @ @ @ @ @ @ @ @ @ @ @ @ @ @ @ @ @ @ @ @ @ @ @ @ @ @ @ ",
"  % @ @ @ @ @ @ @ @ @ @ @ @ = = - - ; > , ' ) ) @ @ @ @ @ @ @ @ @ @ @ @ @ @ @ @ @ @ @ @ @ @ @ @ @ @ @ @ @ @ @ @ @ @ @ @ @ @ @ @ @ @ @ @ @ @ @ @ @ @ @ @ @ @ @ @ @ @ @ @ @ @ ",
"  # @ @ @ @ @ @ @ @ @ $ ! ~ { ] & & = ^ / # @ @ @ @ @ @ @ @ @ @ @ @ @ @ @ @ @ @ @ @ @ @ @ @ @ @ @ @ @ @ @ @ @ @ @ @ @ @ @ @ @ @ @ @ @ @ @ @ @ @ @ @ @ @ @ @ @ @ @ @ @ @ @ $ ",
"  ( _ _ _ _ _ _ _ _ _ : < [ } | = = _ 1 _ _ _ $ @ 1 _ _ _ _ _ _ _ _ _ _ 2 @ @ @ @ / _ _ _ _ @ @ @ @ @ @ 2 _ _ _ _ _ _ _ _ _ _ _ _ 1 1 _ _ _ _ _ _ _ _ _ _ _ _ _ _ _ _ _ : 3 ",
"  ( = = = = = = = = = 4 [ 4 5 = - 1 6 = = = = 6 ' 7 = = = = = = = = = = = ' ' ' ' 7 = = = = 6 : @ @ - ' = = = = = = = = = = = = = 7 7 = = = = = = = = = = = = = = = = = 8 9 ",
"  ( = = = = = = = = ! [ 0 a | b c = = = = = = = = = = = = = = = = = = = = = = = = = = = = = = = = = = = = = = = = = = = = = = = = = = = = = = = = = = = = = = = = = = = , 9 ",
"  ( = = = = = = = | { [ ] ; b = = = = = = = = = = = = = = = = = = = = = = = = = = = = = = = = = = = = = = = = = = = = = = = = = = = = = = = = = = = = = = = = = = = = = , 9 ",
"  ( = = = = = = = | < d b > = = = = = = = = = = = = = = = = = = = = = = = = = = = = = = = = = = = = = = = = = = = = = = = = = = = = = = = = = = = = = = = = = = = = = = , 9 ",
"  ( = = = = = = = | { e & = = = = = = = = = = = = = = = = = = = = = = = = = = = = = = = = = = = = = = = = = = = = = = = = = = = = = = = = = = = = = = = = = = = = = = = ( d ",
"  ( = = = = | ( 7 d 3 | = = = = = = = = = = = = = = = = = = = = = = = = = = = = = = = = = = = = = = = = = 8 | = = = = = = = = = = = = = = = = = = = = = = = = = = = = = b f ",
"  ( = = = = ( > = e & = = = = = = = = = = = = = = = = = = = = = = = = = = = = = = = = = = = = = = = = = = = 8 = = = = = = = = = = = = & , = = = = = = = = = = = = = = | g f ",
"  ( = = | ( > > ( | = = | = | & & & > | = = = = = | , 8 ( | = = = | = & = | & ( | = = = = = = | = = = = = 5 b = & & & = = 8 & = = = & > = , = = = = | = = = & = | = | > ! f ",
"  ( & ; ( > > > b = & ; ( ; ( > > > | = = = = 8 ( ( > > > ( ; ; ; ( ; > ; ( > ( ; & = = = & ; ( ; , = & ; a ! ; > > > ; ; ; = | ; ( > ; ; , = | ; ( ( ; ; ; > ( ( ; ( > ! f ",
"  > > > > > > > = ( > > > > > > b , & & , > > > > > > > > > > > > > > > > > > > & & > > > > > > > > > > 3 < e > > > > > > > > > b 5 5 5 5 b > > > > > > > > > > > > > > g f ",
"  > 3 3 3 3 3 3 g 3 3 3 3 3 3 3 9 3 3 3 3 3 3 3 3 3 3 3 3 3 3 3 3 3 3 3 3 3 3 3 3 3 3 3 3 3 3 3 3 3 3 ] f [ [ 3 3 3 3 3 3 3 3 3 e e e e e e 3 3 3 3 3 3 3 3 3 3 3 3 3 3 e f ",
"  0 [ [ [ [ [ [ [ [ [ [ [ [ [ [ [ [ [ [ [ [ [ [ [ [ f { { { { { { { { { { { f 0 h 0 [ [ [ 0 h 0 f { { i e e e { { { { { f [ [ [ [ [ [ [ [ [ [ [ [ [ [ [ [ [ [ [ [ [ [ [ [ [ ",
"      ' ' ' ' ' ' ' ' ' ' ' ' ' ' ' ' ' ' ' ' ' ' ' = e e e e e e e e e e e h j ] ~ 4 [ 4 ~ ] j h e e e e e e e e e e e = ' ' ' ' ' ' ' ' ' ' ' ' ' ' ' ! b e a - ' - h     ",
"      g k ^ l @ @ @ @ @ @ @ 1 @ @ @ @ @ @ @ @ @ @ 1 { e e 9 3 3 3 3 3 3 3 3 h i ] i e h e 4 a i h 9 3 ! > > > 9 3 3 3 3 9 k ^ ^ ^ @ @ @ @ @ @ @ @ @ @ @ @ > m @ @ @ / h     ",
"      9 - m ' - ' - m m m 7 c m : c m m c @ m m | g { e 9 b > > > > > > > > d e g 3 > e > ! 5 e d b > > > > > > > > > > 3 ' _ _ _ m m m m m m c : m m m m - ; - m - ! f     ",
"      9 = ( > > = = = ( | ; 2 = = = > , = = = = 5 e { e > > > > > > > > > > d e 5 ! b 5 b ! 5 e d > > > > > > > > > > > 3 = | = = = = = = 8 | = 8 | ; = = = ; g | , e f     ",
"      9 = ( > > ; | , > ; n 6 | = = > > = = = , 5 e { e > > > > > > > 5 ~ o p e 5 ! 3 7 9 ! 5 e p o ~ 5 > > > > > > > > 3 = ; = = = = | ; 8 ( 8 8 > > 8 = | > 3 8 b e f     ",
"      9 = ( > > > | , > ; = , > = = > > ; ; > > 5 e { e > > > > b e { o ! & ( d 5 ! b 9 b ! 5 d ( & ! o { e b > > > > > 3 = ; ; = = = , > > > ( > > > > , | b ! 8 b e f     ",
"      9 = ( > > > ; ; > > ; > > , = > > ( ( > > 5 e { e > > > 5 o 9 8 8 ] i q r b ! g > g ! b r q d ] 8 8 9 o 5 > > > > 3 = ; > & = , > > > > > ; > > > > ; g | > b e f     ",
"      9 = ( > > > > > > > > > > > > > > > > > > 5 e { e > b } d 8 g [ < s t t t < 4 g 9 g 4 < t t t s < [ g 8 d } b > > 3 = ; > > > > > > > > g 8 > > > > > ! & > b e f     ",
"      9 & > > > > > > > > > > > > > > > > > > > 5 e { e b 4 5 ( d q t t t t u v t w x 4 x w t t t t t t t q d ( 5 4 b > 3 = ; > > > > > > > > g 8 > > > > b ; > > b e f     ",
"      e b b b b b b b b b b b b b b b b b b b b ! a { e p 5 p < s t t s w r y z A t t t t B C D f j < w t t s < p 5 p > 3 8 b b b b b b b b 3 ; b b b b b 9 ; b b 5 a f     ",
"      e e e e e e e e e e e e e e e e e e e e e a j { i ! p q t t t x E [ [ F G H t t t t I J K ] < [ [ r r s t q p ! 4 i e e e e e e e e e e i 9 e e e 4 a 9 e e a ~ f     ",
"      f 0 { { { { { { h h { { { { { { h h f f f f [ [ b p q t t L [ [ [ [ [ M N O q 4 h P a Q R S [ [ [ [ [ < s t q p b [ f h { { { { { { { h h { { { { { { h h h f [ [     ",
"      [ j g g g g g a j ~ 4 4 } ! p i j j 0 [ [ [ [ o ( E t t q [ [ [ [ [ T U V [ P { h q { W X Y [ [ [ [ [ [ x s t E ( o d e g g g g g g g 9 e 3 ! ] 4 4 4 ~ j j [ [ [     ",
"      [ [ p 9 ! ! ! ! a e ! ! a i 4 ] ] [ [ [ [ [ f a d s t t Z [ [ [ [ [ `  ...[ P i 0 P ~ < +.@.#.[ [ [ [ [ x f s s d a f } e ! g ] e ! ! ! ! ! a ] ] ] ] d [ [ [ [ [     ",
"          8 ~ ~ ~ ~ ~ ~ ] p p p ] ] ~ ~ g } [ [ [ } d s t t r [ [ [ [ [ $.%.&.{ [ P d < q { [ *.=.-.[ [ [ [ [ h j < s s d } [ 0 ~ ~ e ~ ~ p p p p p ] ~ ~ 9 ~ j [ [ [       ",
"          / a 3 ( 9 > > , , ; ; , 8 > > 3 ; p [ { a Z t t r [ [ [ [ [ [ ;.>.,.[ [ P 4 x w f [ '.).!.[ [ [ [ [ [ [ [ < t Z a o a 9 ; 9 > > 8 , ; ; , 8 > > 3 e 9 j [ [       ",
"          / g > 5 > b _ @ @ n c @ _ 7 > > ! ( j { d t t L 0 [ [ [ [ [ [ C ~.o [ [ P E x L d [ f {.].F [ [ [ [ [ [ [ [ q t d b 3 > ! > > c _ @ c n @ 2 ' > > 5 > ! ~ [       ",
"          $ ( b > > c c c | _ 2 = = m | > > 5 e [ P t t L f [ [ [ [ [ ^./.(.L L w P i P w r L L _.:.<.[ [ [ [ [ [ [ [ Z t q g 8 5 > > ' 2 _ & 2 _ 7 = ' 6 > > b ( a <       ",
"          $ 5 > > _ / c 5 | & c m ; = n 6 > b 9 < w t t [ [ [ [ [ [ < [.}.|.] 0 w x E x w x o 0 w 1.2.3.[ [ [ [ [ [ [ [ r s > b b > n $ : b , 8 : n 8 = m ' > > b a <       ",
"          / 3 > ( / : ! 7 ' ( & _ g 5 = 5 ( > 3 E t t r [ [ [ [ [ [ 4.5.6.P [ s w w i P w w w h q 7.8.9.[ [ [ [ [ [ [ [ [ 0.b 3 > > _ _ b & m 8 8 2 b ! = 5 ( > g ] <       ",
"          $ ! > n ' ; > 2 = 3 3 = g 5 , m | > ! E t L [ [ [ [ [ [ [ a.b.c.q P P h { P w x < r { L d.e.f.F [ [ [ [ [ [ [ [ 0.b ! > | - , 5 1 = 3 3 | 5 b ; 6 ' > 5 a <       ",
"          $ > > 6 1 5 > : = ! g 7 g 5 b n b > > E t L [ [ [ [ [ [ #.g.h.f q } } } { 4 } } d i E w [ i.j.k.[ [ [ [ [ [ [ [ 0.> > > | / b 5 2 7 g ! = 5 b 5 : 5 > > a <       ",
"          $ b > , , 7 = ! - : c 7 g - ' > 5 > > E t [ [ [ [ [ [ [ l.m.n.[ P d w s E f E [ w q E L [ #.o.p.[ [ [ [ [ [ [ [ 0.- > > 8 & ' - ! 6 c : ' g n = ; ! > > a <       ",
"          @ - > > g & 2 ( 3 , 8 g ; 1 , g > > & E t [ [ [ [ [ [ F q.r.s.< q < < w f f [ f P < ] q [ < t.u.v.f [ [ [ [ [ [ 0.- c > > g , 1 ; g 8 , 3 ( / & g > > m e <       ",
"          @ n > > ! | & $ > g g b l & , ! > > & E Z [ [ [ [ [ [ w.x.y.z.A.B.C.D.A.E.F.G.E.H.I.J.K.E.L.M.N.O.P.[ [ [ [ [ [ 0.- _ > > ! , & l b g g > $ & | ! > > n e <       ",
"          $ n 8 > > 5 _ c | > > ' ' : g > > & ; E Z [ [ [ [ [ i Q.R.S.T.U.V.W.T.X.U.X.Y.Z.`. +.+++Z.@+#+W.$+%+[ [ [ [ [ [ 0.- m & > > g : ' ' > > | c _ 5 > > 8 c a <       ",
"          $ - ' > > ! ; n c > > c n > 5 > > - > E Z [ [ [ [ [ o ~ o 4 4 0 4 4 4 i [ 4 ] 4 4 i d 0 4 0 o ~ 4 i [ [ [ [ [ [ 0.- 6 - > > 5 > n c > > c n ; ! > > ' - a <       ",
"          $ | 1 > > > g & / ( ; 1 , g > > ( 2 ! E Z [ [ [ [ [ [ [ [ [ [ [ [ [ [ [ [ [ f [ [ [ [ [ [ [ [ [ [ [ [ [ [ [ [ [ 0.- = 2 ( > > g , 1 ; ( / & g > > > 1 = a <       ",
"          $ = = = > > g = & $ ^ | & ! > > 2 = ! E Z [ [ [ [ [ [ [ [ [ [ [ [ [ [ [ [ [ [ [ [ [ [ [ [ [ [ [ [ [ [ [ [ [ [ Z 0.- = = 6 > > g & | ^ $ & = ! > > c 7 = a <       ",
"          $ = ! b > m / ! _ n ' : g ; & > 8 b ! E Z [ [ [ [ [ [ [ [ [ [ [ [ [ [ [ [ [ [ [ [ [ [ [ [ [ [ [ [ [ [ [ [ [ [ L 0.- = b b > 7 @ g : ' n _ 5 b 7 > ; 5 = a <       ",
"          $ ( b b m $ 7 8 ( _ n b & 6 : | > 5 e E t [ [ [ [ [ [ [ [ [ [ [ [ [ [ [ [ [ [ [ [ [ [ [ E P { [ [ [ [ [ [ [ [ Z 0.- 8 5 > ' # 7 & b 2 n ( 8 7 : 7 > b ( a <       ",
"          $ g > n : : b | 5 1 , ! = > _ m & > 3 E t [ [ [ [ [ [ [ [ [ [ [ [ [ [ [ [ [ [ [ [ [ [ [ x < 4 [ [ [ [ [ [ [ [ w 0.- g > 7 2 _ > = ! $ & g | b : - 7 > ! a <       ",
"          $ ! > ' 6 ; b ! &+' & g ! ( | 6 8 > ! E t [ [ [ [ [ [ [ [ [ [ [ [ [ [ [ [ [ [ [ [ [ [ [ Z { o Z [ [ [ [ [ [ [ L 0.- g > | - , 5 ! # 6 7 3 5 > | 7 & > ! a <       ",
"          @ ' > > | ; b | - : g ! b = - 8 5 > , E t [ [ [ [ [ [ [ [ [ [ [ [ [ [ [ [ [ [ [ [ [ [ [ [ h r E ~ [ [ [ [ [ [ L 0.- n > > & , 5 , m _ 5 5 5 , n & ! > - e <       ",
"          @ n ( 5 ; : _ : _ > ! 6 _ : _ ( b ; , E t [ [ [ [ [ [ [ [ [ [ [ [ [ [ [ [ [ [ [ [ [ [ [ [ [ [ i [ [ [ [ [ [ < w 0.- c ; b ( _ : _ : ( ! 7 : _ : ; 5 ( n e <       ",
"          $ n 8 > b ; = 7 b 3 b ( 7 7 > b > | ; E t [ [ [ [ [ [ [ [ [ [ [ [ [ [ [ [ [ [ [ [ q [ [ [ [ [ [ [ [ [ [ [ [ Z t 0.- - | > b > 7 7 ( 9 b b 7 = ; b > 8 c a <       ",
"          $ | : , > 5 3 5 ; g & b 9 3 b > & : ! E t L [ [ [ [ [ E r [ [ [ [ [ [ [ [ Z [ [ [ w [ [ [ [ E [ [ [ [ [ E [ Z t 0.- = : & > b 3 g ; g , > 9 3 5 > , : = a <       ",
"          $ = = > > > ( : _ ( , c c > > > 7 = ! E t s E [ [ [ [ E r < Z [ [ [ x < [ w [ [ [ w [ [ [ [ q [ [ [ [ [ q [ w t 0.- = = ( > > > : _ 8 ; : m ( > > = = = a <       ",
"          $ = 3 > > > | c & 3 3 | : , > > > , ! E t t x [ q E E Z < Z x s Z [ Z [ Z s q Z < s Z w < Z L Z [ E Z w L Z t t 0.- = ! > > > , : | 3 3 & c | > > > , = a <       ",
"          $ ; 5 > > > 2 & 5 b b > , _ > > > 5 9 E t t t L s t s t w t s t t w t w t t t t w t t t w t t t L t t t t t t t 0.- , 5 > > > _ , > b b 5 & 2 > > > 5 8 a <       ",
"          $ b b > > 6 7 - 3 > > g c ' & > > b e Z *+t t t t t t t t t t t t t t t t t t t t t t t t t t t t t t t t t t t =+- ( b > > & ' c g > > 3 - 7 6 > > b > a <       ",
"          / 3 > > ( c c 5 b > > 5 > c c > > > 3 -+;+>+>+>+>+>+>+>+>+>+>+>+>+>+>+>+>+>+>+>+>+>+>+>+>+>+>+>+>+>+>+>+>+>+>+>+;+o 3 > > > c c > 5 > > b 5 c c ( > > g ] <       ",
"          e ! > > & c & 3 > 6 | > 3 & : , > > g -+,+'+'+'+'+'+'+'+'+'+'+'+'+'+'+'+'+'+'+'+'+'+'+'+'+'+'+'+'+'+'+'+'+'+'+'+,+-+g > > , : & 3 > 7 | > 3 & c & > > ! ] <       ",
"          e > > b 1 | 5 5 $ _ m - 5 > , _ > > > -+,+'+'+'+'+'+'+'+'+'+'+'+'+'+'+'+'+'+'+'+'+'+'+'+'+'+'+'+'+'+'+'+'+'+'+'+,+-+> > > _ , > 5 2 : - n 5 5 | 1 b > > a <       ",
"          e > > 6 7 - 3 c c n : n 7 3 c ' | > > -+,+'+'+'+'+'+'+'+'+'+'+'+'+'+'+'+'+'+'+'+'+'+'+'+'+'+'+'+'+'+'+'+'+'+'+'+,+-+> > | ' c 3 ' 2 : n m ' 3 - 7 6 > > a <       ",
"          e > > 6 : 5 > 2 - ! 5 ' 1 5 > 2 | > > -+,+'+'+'+'+'+'+'+'+'+'+'+'+'+'+'+'+'+'+'+'+'+'+'+'+'+'+'+'+'+'+'+'+'+'+'+,+-+> > | 2 > 5 1 ' 5 ! - 2 > 5 : 6 > > a <       ",
"          e > > ' & ( b b = 3 > = ! 5 8 | & > > -+,+'+'+'+'+'+'+'+'+'+'+'+'+'+'+'+,+)+!+!+!+!+~+'+'+'+'+'+'+'+'+'+'+'+'+'+,+-+> > | 7 8 5 ! = 3 > = b b ( , = > > a <       ",
"          3 6 > 8 > ' m ! & ' : c g ! m 5 b > 8 -+,+'+'+'+'+'+'+'+'+'+'+'+'+'+{+]+]+]+]+]+]+^+'+'+'+'+'+'+'+'+'+'+'+'+'+'+,+-+- > ; ( m - 5 , = _ : 5 g ' b b > 6 j [       ",
"          3 n > > 3 = m n 8 l _ ! 3 m , g > > & -+,+'+'+'+'+'+'+'+/+!+!+!+(+_+:+<+<+_+[+<+<+_+_+}+'+'+'+'+'+'+'+'+'+'+'+'+,+-+_ > > g , m : > ^ : b 9 ' = 3 > > n h [       ",
"          9 c ; > > g = : 2 c 5 b c & ! > > , 8 -+,+'+'+'+'+'+~+]+|+|+|+|+1+~+2+~+3+0./+t )+2+2+4+'+'+'+'+'+'+'+'+'+'+'+'+,+-+n , > > ! & : n : > 5 m = g > > ; c 0 [       ",
"          9 n | > > > 3 ; & 5 5 & ( g > > > 7 > -+,+'+'+'+'+'+5+6+6+6+6+6+:+}+7+8+t _+t t t 9+7+7+}+}+}+5+'+'+'+'+'+'+'+'+,+-+- 7 > > > g ( & b ! & ; 3 > > > | n 0 [       ",
"          9 = m 7 > > > ! ! 5 5 ! ! > > b ' ' o -+,+'+'+'+'+'+'+'+'+0+|+]+s 3+3+t ]+|+t r Z s 3+t 2+2+~+6+9+[+'+'+'+'+'+'+,+-+= - ' b > > ! ! 5 5 ! ! > > > 7 m 8 f [       ",
"        * 9 = = m 1 8 8 > > > > > > 8 , / ' ; { a+6+'+'+'+'+'+'+7+^+}+}+b+}+_+}+t Z c+d+d+<+>+}+}+7+7+e+*+*+7+7+7+'+'+'+'+f+g+= = ' / , 8 > > > > > > 8 8 1 m & a f [       ",
"      h+@ - 5 5 5 5 & | g g g g g g = ' 8 > ] f a i+'+'+'+2+j+k+l+m+t t t t t q r n+0.P P t P r r t t o+|+p+w q+r ;+'+'+;+8 = 5 5 5 5 & & g g g b ( ' n = b ( 5 0 f ~ E     ",
"      = c @ $ $ n : $ ( ! ! ! ; 8 8 8 8 3 { { 3 ( : -+r+e+7+d+]+4+t t t t t s w 0.s+< [ [ [ < w w t t t t ]+r+<+t+t c+u+v+/ @ $ $ $ $ $ $ 8 8 8 8 ; , 2 , > p { h 5 , h     ",
"    = = ' @ @ @ # c c # # # # # # # # # n n n n : - { w+r r E x+t t s r r r [ Z /+y+[ [ [ [ [ [ [ r r q t t |+~+l+r r z+7 , $ @ @ @ @ @ @ # # # # $ ( & : n n n n n | i <   ",
"  = = = = ! 7 7 7 = & ' 7 7 7 7 7 7 7 7 7 7 7 7 & o p A+<+<+/+< < < E [ < w w w s L w w w w B+w < w w w E [ L s (+<+<+C+= = 5 7 7 7 7 7 7 7 7 7 7 7 b e ; 2 7 7 7 | ~ a j [ ",
"  = = = , ( = = = = & ' = = = = = = = = = = = = | ] ~ [ t t x P P x x E [ [ [ [ 0 ~ [ [ [ [ r 0 f [ [ [ [ E P P x P t 7 = & ( = = = = = = = = = = = 8 e a | = = = | e ~ p f ",
"  = = = ( | = = = 5 ; & = = = = = = = = = = = = = b d d s r q < < [ [ [ [ [ [ [ p [ [ [ [ [ < x f [ [ [ [ [ < s s L > = = ; , = = = = = = = = = = = = e 6 = = = = = ( { e f ",
"  = = | b = = = ( & ; & = = = = = = = = = = = = = = p [ x x x P P E [ [ [ d i i ~ i i i f [ [ x o i i i 0 E P x x 0.( = = ! = = = = = = = = = = = = = e ; = = = = = = e ~ f ",
"  = = & > = = | b = = ! = = = = = = = = = = = = = = ] [ t t t t s L w w w L L Z f q L L w w L [ q E P P q L s s s t ( = | 5 = = = = = = = = = = = = = , ; = = = = = = 9 ~ f ",
"  ( 7 3 7 = = ( 8 = 7 g = = = = = = = = = = = = = = ; [ x x P P i 9 ~ { [ [ [ d ~ { [ [ [ [ [ [ [ [ j ~ ~ i 0 [ [ [ ! 7 g 7 = = = = = = = = = = = = = | & = = = = = = | j [ ",
"  e 9 e 9 9 9 d 3 9 3 d b 9 9 9 9 9 9 9 9 9 e e e e p [ [ [ p ] a a p [ [ [ f 0 f f f j ] [ f ~ f f f f [ [ f a ] [ } 9 e 9 9 9 9 9 9 9 9 9 9 9 9 9 9 9 9 9 e e e e e a [ [ ",
"  e e e e e j a ~ ~ ~ 0 } ~ ~ ~ ~ ~ ~ ~ ~ ~ [ [ [ [ [ [   [ < < 0 } 4 } e e e p ~ ~ ~ E   9 a o 9 9 9 i f a > e i [ [ e e e e e e e e e 4 ~ ~ ~ ~ ~ ~ ~ ~ j < [ [ [ [ [ [ [ ",
"    e e e a j a [ [ [ [ [ [ [ [ [ [ [ [ [ [ [ [ [ [ [           9 > > b b b e a ] r [ e b > 9 9 9 e e e b > > ! e a h 5 e e e e e e e e d [ [ [ [ [ [ [ [ [ [ [ [ [ [ [ [   "};
