/* XPM */
static char * door2_xpm[] = {
"86 82 73 1",
" 	c #000000",
".	c #8C8C8C",
"+	c #7F7F7F",
"@	c #808080",
"#	c #7E7E7E",
"$	c #8B8B8B",
"%	c #848484",
"&	c #777777",
"*	c #6F6F6F",
"=	c #7C7C7C",
"-	c #898989",
";	c #858585",
">	c #838383",
",	c #717171",
"'	c #737373",
")	c #757575",
"!	c #707070",
"~	c #6C6C6C",
"{	c #696969",
"]	c #767676",
"^	c #7D7D7D",
"/	c #878787",
"(	c #818181",
"_	c #5D5D5D",
":	c #575757",
"<	c #606060",
"[	c #747474",
"}	c #7A7A7A",
"|	c #656565",
"1	c #545454",
"2	c #7B7B7B",
"3	c #727272",
"4	c #626262",
"5	c #6A6A6A",
"6	c #6D6D6D",
"7	c #565656",
"8	c #787878",
"9	c #686868",
"0	c #636363",
"a	c #555555",
"b	c #5B5B5B",
"c	c #646464",
"d	c #5C5C5C",
"e	c #6E6E6E",
"f	c #5F5F5F",
"g	c #616161",
"h	c #535353",
"i	c #6B6B6B",
"j	c #666666",
"k	c #595959",
"l	c #5A5A5A",
"m	c #585858",
"n	c #5E5E5E",
"o	c #525252",
"p	c #828282",
"q	c #676767",
"r	c #797979",
"s	c #917067",
"t	c #906767",
"u	c #696C6D",
"v	c #E75238",
"w	c #E6393A",
"x	c #696D6D",
"y	c #736D6D",
"z	c #4D4D4D",
"A	c #505050",
"B	c #494949",
"C	c #4C4C4C",
"D	c #4F4F4F",
"E	c #4B4B4B",
"F	c #4E4E4E",
"G	c #4A4A4A",
"H	c #515151",
" .++++++++++++++++++++@+#++++++++++++++++++++++++++++++++++++++++++++++++++++++++++++ ",
"$%++++++++++++++++###&*=-;++++++++++++++++++++++++++++++++++++++++++++++++++++++++++++",
".>++++++++++@&,')!~{]^/>++++++++++++++++++++++++++++++++++++++++++++++++++++++++++++++",
"(++++++++++)_:<{*![((++++++++++++++++++++++++++++++++++++++++++++++++++++++++++++++++#",
"{]}}}}}}}}}|1:{,,[(}}}2++}}}}}}}}}}}#++++}}}}2+++++#}}}}}}}}}}}}}#}}}}}}}}}}}}}}}}}}34",
"5*,,,,,,,,6774!,=8,,,,,[',,,,,,,,,,,'[[[[,,,,3[++^'',,,,,,,,,,,,,',,,,,,,,,,,,,,,,,,90",
"5*,,,,,,,3a1b~~',,,,,,,,,,,,,,,,,,,,,,,,,,,,,,,,,,,,,,,,,,,,,,,,,,,,,,,,,,,,,,,,,,,,90",
"5*,,,,,,,c1d|5e,,,,,,,,,,,,,,,,,,,,,,,,,,,,,,,,,,,,,,,,,,,,,,,,,,,,,,,,,,,,,,,,,,,,,90",
"5*,,,,,,,<af*6,,,,,,,,,,,,,,,,,,,,,,,,,,,,,,,,,,,,,,,,,,,,,,,,,,,,,,,,,,,,,,,,,,,,,,90",
"5*,,,,,,,<<5,,,,,,,,,,,,,,,,,,,,,,,,,,,,,,,,,,,,,,,,,,,,,,,,,,,,,,,,,,,,,,,,,,,,,,,,g:",
"5*,,,,e*~_{,,,,,,,,,,,,,,,,,,,,,,,,,,,,,,,,,,,,,,,,,,{,,,,,,,,,,,,,,,,,,,,,,,,,,,,,*fh",
"5*,,,65*e{,,,,,,,,,,,,,,,,,,,,,,,,,,,,,,,,,,,,,,,,,,,!*,,,,,,,,,,,,9,,,,,,,,,,,,,,,~fh",
"5*,,e55~{,,!,,***~~,,,,,*!i6*,,,!,*!,**5,,,,,,!,,,,,6j*,**!,!{,,,*i!*,,,,*,,,*!!,!*5fh",
"5*~~555|,,~i~~5556,,,,,~5i555~~~5~5i~55~~,,,,~5~~,,~iki~55i~i,,~~5i~6,,6~5~~~5i5~5i5fh",
"5555555*e5555555{***5555555555555555555~*e555555555{l:95555555559999955555555555555{fh",
"5j|||||j||||||||0||||||||||||||||||||||||||||||||||l11f|||||||||00000||||||||||||||0fh",
" 1111111111111111111111111:mmmmmmmmmm::aa:11:aa::mm000dmmmm:1111111111111111111111111 ",
"  ][[[[[[[[[[[[[[[[[[[[[[)|0000000000n<km4::4mk<n0000000000|)[[[[[[[[[[[[[[[4{n![[~o  ",
"  4^pp+++++++=+++++++++++5g00||||||||f4km|bb|bk4n|c555q||||c8ppp(+++++++++++89++++!o  ",
"  46r]3]3]]])]])#]])#2][6dg0q555555550ilg5||5|bi45555555555{5}}}8]]]]])#]]]]]e!]]*nh  ",
"  46!55*,,*6!&3,,6i!,,,ecdgj5555555554ib|5st5|bi45555555555{i,!,,,,,*!!,~*6,,!qe!jfh  ",
"  46!55~6,553&e,,65e,,,icdgj55555554dl6b|uvwx|b6ld455555555{i!e,,,,6~~i!55i!,iqe5|fh  ",
"  46!555i,55!,5e,655!555cdgj5555q_lnee0b|5yy5|b0eenl_q55555{i!5*,,,i55i55555!i9e5|fh  ",
"  46!55556555i5i,655~555cdgj555g_5,j<7zb{|{{|{bz7<j,5_g5555{i!5i,,i555{e5555i59i5|fh  ",
"  46!5555555555555555555cdgj5jk46dhABBBChq||qhCBBBAhd64kj55{i!55555555q*55555{{i5|fh  ",
"  46~5555555555555555555cdgjjf~cDCBBBBBBBzllzBBBBBBBCDc~fj5{i!55555555q*55555c*55|fh  ",
"  0q{{{{{{{{{{{{{{{{{{{{4dg4d57ABBBEE11EBBBBBBE111FGBBA75dj{55{{{{{{{{qi{{{{j6{{{0fh  ",
"  0000000000000000000000n:gf{aBBBEA11111HFBBFH11111hADBBa{fcf000000000gnj000_|000fk1  ",
"  aa:mmmmm::mmmmmm:::aaaa1miaBBBo111111111111111111111FBBaim1::mmmmmmm:7mmmmmm::7a11  ",
"   1cqjjjqbbnnn0jnbbb1111h{gGBBH111111111111111111111hoDBGg{h0|jjjjjjj00jjnnnnbbk11   ",
"   1mgqqqqj<jqjg:ggl11111d4DBBE1111111111111111111111z_1FBD4d74qq4gqqqqq|gggg<11111   ",
"    !4dddddf<<<<gndg|m11a<DBBE11D11111111111111111111a:11DBD<ahbd_gdn<<<<<fd<n_711    ",
"    @60~cq5~e656ei5qj5:1gbGBG11A1d111111111111111111111111FGbg_05|q5ie656ei59cc4a1    ",
"    @6i9556#+2]=#&5559{hgDBBF111d111111FFFFFFFh11111111111HBD0j5955i2#=]2+&~559ig7    ",
"    +)|55~>}!8)&!,}i55cd1BBBh11a111111F<7dnA7dzh11111111111EB:ej55i>8,])r!,}i55|~:    ",
"    @3q5e+8!96883e3&i5qdDBBF111111111HmaDh:zHFDDo1111111111hBheq5~#r3q*&8'6,8~5q9:    ",
"    @655!#!9}!q8,0*~i5{dGBG111111111FlEzGobzFECCzh111111111hBFi{56+3q},q&'0e6i550m    ",
"    @*55p!c8,{{i*q|,^{5nGBh11111111omofaGz:EGHgEDao111111111FF~5{^,|)'i{{!jc,^55|m    ",
"    @,55#3c&355~*qc){55<GBh1111111CA_oo7fD_Edd1ChFz111111111FF*55^)c['~55!jc3i559:    ",
"    @,553[{~~8r8935'c55<GF11111111EAkaCCChmzAGG71Cz111111111FH)553'53i&r8{*5)|559:    ",
"    +#5595'[{{!9{83{{55cGD11111111EAH1CAHobC1CCahEza11111111FH+~5{{38{9!{{[[5955]:    ",
"    ++55{{)#i9j96})9555|E111111111E77A77AzHGF771h7z<11111111FH@i559)}69j9i#){{558:    ",
"    +&r55j,'p{5{>]*q55r_E111111111CdzCzzCEHGEzzzzoh711111111FH}}55q*]>{5{p',j55re:    ",
"    +]8655|[&,5'&3c55*&dE111111111CaoAE7okHD:FDAhzD<11111111CHr8*55c3&'5,&[|55686:    ",
"    +][35595')58,{{55],dE111111111EooCEhEEEGEzFAHCF<1111111hBHr3]55{{,85)'59553[6:    ",
"    +],[55{{]^*r]9{5~r!dE111111111DDDza_FhhmAAloFFFd1111111hBHr,'i5{9]r*^]{{5i2,6:    ",
"    +]*955>6,[p]*0r555*dE1111111111AHGFzAkAD7EFEDzd11111111hBHr!q55>,*]p[,0855i*6:    ",
"    +]c5~+]3|]8,|3]]550dE11111111111DDA11HHC11HFFbm11111111hBHr|5i#&3|[8'|3]8i5c6:    ",
"    @*{5p}3e{8,{5~[8}59dE111111111111AAECEHGCCAzd:1111111111zH[{{pr[~5'3i{e3r}5{|m    ",
"    @e55=,|q!28qi9e,)55nE1111111111111EhkkAEmkEmk11111111111FH'5{=,|96+r9iq6,)55|m    ",
"    +^55i,|58r!jc5=,|55cE111111111111HloaADkklmFa11111111111FH#i553|5883|c52,j55):    ",
"    +=!5q]&2&'j6]2&[j5!4E111111111111HHh1AD_koDoh11111oz1111FH#,5j[&2&)j~]2&]q5![:    ",
"    +]255q',3c5q','q552dE111111111111Fz:1AA_l1CaA11111z1na11FH8=55q','c{q3,'q5526:    ",
"    +]')55||~9{*0|j5i&,dE11111111111Ckb11FFak11DH111111fk111FHr3&i5j|i{9*c||55)'6:    ",
"    +],6555)])j8!355i'!dE11111111111CHo11HH1H11Cz11111111111FHr,e5553]&|],)555',6:    ",
"    +]eq55i8,9{53]555~!dE11D:111111AbH:11CCHl11okE1111111111FHr!j555]35{9,8i55i!6:    ",
"    +]q{55e[3j5j'&~55{qdE11mk111111hAGCCoAAHHCCEElH111111111FHr9{55~&'j5j3[e55{q6:    ",
"    @[j55{=&{95qi)={55|dE111111111oHzofHHCCHHDnoEHH111111111FH8j55{=)iq59{&={55ji:    ",
"    @6555[]3c555c[]3555dE111111111E1oFzEEAAHEGBbHzD111111111FC05553][c555c3][5550m    ",
"    0c55i8!95*'~{5,]555_E11111111Adh:CHa_lEHHbllAokC11111111FG_555],5{e!659!8i55cm    ",
"    0955e['qe#r8ij[&~55gE11111111AoDaAddd1ddd11DHoAE11111111FGg55~&[ji+]&~q'[e559:    ",
"    0955=8{ipr,8}{i]=55<E11111111oFd1HDEFzAzzGG1A1zoA1111111FG<55=]i{p8,r}i{8=559:    ",
"    0955#,c83e9!')c'^55<E1111111F:k11zoH77l77ClnA1oFF1111111FG<55^'c)'!9e38c,#559:    ",
"    09552e|j,{{e!q|e855<E111111hAHCDCzDDCDDzDEFCEDDzD1k11111FG<55=6|q!i{6,j|e&559m    ",
"    4355!'**{e+r!c6,9550E111111:HzzhFDhhFhhFhzHzzhhzzzm11111FG{i5!!e,9*#830~'q55!a    ",
"    4&55{q}re^]3c6rj555|E11111ag7<<dn<<<::4<<<m_dnd7<<k11111FGe~55jr8!&&)ci}q{55[1    ",
"    4!)559q882,je&j{55]fE11111111111111111m11111111111111111FG9&55{j]&8'j~8q955)61    ",
"    46}i55{q*~|~eq{55~}lE11111111111111111111111111111111111zGc2~55{qe6|i*q{55i}{1    ",
"    46385559qq5qq{55i891E1111111111111111111111111111111111hBG|,8i55{qq5qq95558301    ",
"    66,,='6i55555~6]2!01CF11111111111111111111111Hh111111111zF|,,2]6~55555i6'=,j_1    ",
"   @^~9996*5jjjjji'!6jbbgEF1111111111111111111111Ef11111111zn[~999~*ijjj5e&[6{~_hfh   ",
"  ,,+###!^2qqq96666~lmk5e6Eh111111111111111111111zn1h11111ho^+######]66665][5{m:_5{h  ",
"  ,,r+++#[+@@@@@@@@2&&&&#9EF11111111111111111111177Fk11111zc,&@++++++@@@@)9]r&&&&&j:  ",
" ,,,ee3339=3333333333333|daz111111111111111111111117l1111hC*,!~3333333333,0c][3339k41 ",
" ,,,5*,,,9=,,,,,,,,,,,,,iddCh1111111111111111ho1111111111F4,,5e,,,,,,,,,,,909,,,,~dgbh",
",,,!9,,,e~9,,,,,,,,,,,,,!n<Dh111C111111111111HH111h111111A,,!q,,,,,,,,,,,,~cr,,,,,<ffh",
",,,q,,,,j3j,,,,,,,,,,,,,,i7DF111E1A1111A1HH11HH111z11111FA3,{!,,,,,,,,,,,,~0,,,,,,emfh",
",,,9,,,{!,e~,,,,,,,,,,,,,~7DBF1ho1CAHhhhhAGh1HAHHhCh11hoBA3,{!,,,,,,,,,,,,,j,,,,,,eknh",
"5*e6,,!5,,*~,,,,,,,,,,,,,3mDBBFBBzFBBEGEGBBBzBBBzBBBzFBBBF*!i,,,,,,,,,,,,,,~,,,,,,3q11",
"0cccccg<cc40|ccccccccc000c7DBGGGGGGBBGEEEEGBBBGEEEEGGBEEGFccccccccccccccccccc000000k11",
" 0000n_fddbddddddddddm11111 )111n<dccc0d__m  cmcccca_i|4:1_000000000ddddddddda1111111 ",
"  000k0k1111111111111111111    0{5{{{q0gn1a|590cc000555c0<h0000000041111111111111111  "};
