/* XPM */
static char * door12_xpm[] = {
"86 82 136 2",
"  	c #000000",
". 	c #8C8C8C",
"+ 	c #7F7F7F",
"@ 	c #808080",
"# 	c #7E7E7E",
"$ 	c #8B8B8B",
"% 	c #848484",
"& 	c #777777",
"* 	c #6F6F6F",
"= 	c #7C7C7C",
"- 	c #898989",
"; 	c #858585",
"> 	c #838383",
", 	c #717171",
"' 	c #737373",
") 	c #757575",
"! 	c #707070",
"~ 	c #6C6C6C",
"{ 	c #696969",
"] 	c #767676",
"^ 	c #7D7D7D",
"/ 	c #878787",
"( 	c #818181",
"_ 	c #5D5D5D",
": 	c #575757",
"< 	c #606060",
"[ 	c #747474",
"} 	c #7A7A7A",
"| 	c #656565",
"1 	c #545454",
"2 	c #7B7B7B",
"3 	c #727272",
"4 	c #626262",
"5 	c #6A6A6A",
"6 	c #6D6D6D",
"7 	c #565656",
"8 	c #787878",
"9 	c #686868",
"0 	c #636363",
"a 	c #555555",
"b 	c #5B5B5B",
"c 	c #646464",
"d 	c #5C5C5C",
"e 	c #6E6E6E",
"f 	c #5F5F5F",
"g 	c #616161",
"h 	c #535353",
"i 	c #6B6B6B",
"j 	c #666666",
"k 	c #595959",
"l 	c #5A5A5A",
"m 	c #585858",
"n 	c #5E5E5E",
"o 	c #525252",
"p 	c #828282",
"q 	c #676767",
"r 	c #797979",
"s 	c #4D4D4D",
"t 	c #505050",
"u 	c #494949",
"v 	c #4C4C4C",
"w 	c #4F4F4F",
"x 	c #4B4B4B",
"y 	c #4E4E4E",
"z 	c #4A4A4A",
"A 	c #515151",
"B 	c #484848",
"C 	c #4D4D4E",
"D 	c #38363C",
"E 	c #3A383D",
"F 	c #404042",
"G 	c #403F44",
"H 	c #656564",
"I 	c #38373C",
"J 	c #343239",
"K 	c #413F44",
"L 	c #5D5D5C",
"M 	c #3B393F",
"N 	c #5E5E5D",
"O 	c #39383D",
"P 	c #454546",
"Q 	c #434344",
"R 	c #434244",
"S 	c #3F3F42",
"T 	c #333139",
"U 	c #353339",
"V 	c #39373C",
"W 	c #36343A",
"X 	c #35343A",
"Y 	c #424244",
"Z 	c #464647",
"` 	c #3D3C40",
" .	c #3D3C3F",
"..	c #474647",
"+.	c #4A4A49",
"@.	c #3A393E",
"#.	c #37353B",
"$.	c #35333A",
"%.	c #444445",
"&.	c #444345",
"*.	c #37363B",
"=.	c #424143",
"-.	c #3E3D40",
";.	c #515150",
">.	c #3C3B3F",
",.	c #333138",
"'.	c #403F42",
").	c #3D3B40",
"!.	c #3F3E41",
"~.	c #4A494B",
"{.	c #3B3A3F",
"].	c #3A383E",
"^.	c #403E43",
"/.	c #3F3D41",
"(.	c #454547",
"_.	c #49494B",
":.	c #484849",
"<.	c #414143",
"[.	c #4B4B4A",
"}.	c #424144",
"|.	c #414044",
"1.	c #545456",
"2.	c #39373D",
"3.	c #3C3A3F",
"4.	c #4C4B4C",
"5.	c #424045",
"6.	c #464547",
"7.	c #535352",
"8.	c #474648",
"9.	c #4A494A",
"0.	c #414043",
"a.	c #484748",
"b.	c #5F5F60",
"c.	c #4F4F50",
"d.	c #474748",
"e.	c #4F504F",
"  . + + + + + + + + + + + + + + + + + + + + @ + # + + + + + + + + + + + + + + + + + + + + + + + + + + + + + + + + + + + + + + + + + + + + + + + + + + + + + + + + + + + +   ",
"$ % + + + + + + + + + + + + + + + + # # # & * = - ; + + + + + + + + + + + + + + + + + + + + + + + + + + + + + + + + + + + + + + + + + + + + + + + + + + + + + + + + + + + + ",
". > + + + + + + + + + + @ & , ' ) ! ~ { ] ^ / > + + + + + + + + + + + + + + + + + + + + + + + + + + + + + + + + + + + + + + + + + + + + + + + + + + + + + + + + + + + + + + ",
"( + + + + + + + + + + ) _ : < { * ! [ ( ( + + + + + + + + + + + + + + + + + + + + + + + + + + + + + + + + + + + + + + + + + + + + + + + + + + + + + + + + + + + + + + + + # ",
"{ ] } } } } } } } } } | 1 : { , , [ ( } } } 2 + + } } } } } } } } } } } # + + + + } } } } 2 + + + + + # } } } } } } } } } } } } } # } } } } } } } } } } } } } } } } } } 3 4 ",
"5 * , , , , , , , , 6 7 7 4 ! , = 8 , , , , , [ ' , , , , , , , , , , , ' [ [ [ [ , , , , 3 [ + + ^ ' ' , , , , , , , , , , , , , ' , , , , , , , , , , , , , , , , , , 9 0 ",
"5 * , , , , , , , 3 a 1 b ~ ~ ' , , , , , , , , , , , , , , , , , , , , , , , , , , , , , , , , , , , , , , , , , , , , , , , , , , , , , , , , , , , , , , , , , , , , 9 0 ",
"5 * , , , , , , , c 1 d | 5 e , , , , , , , , , , , , , , , , , , , , , , , , , , , , , , , , , , , , , , , , , , , , , , , , , , , , , , , , , , , , , , , , , , , , , 9 0 ",
"5 * , , , , , , , < a f * 6 , , , , , , , , , , , , , , , , , , , , , , , , , , , , , , , , , , , , , , , , , , , , , , , , , , , , , , , , , , , , , , , , , , , , , , 9 0 ",
"5 * , , , , , , , < < 5 , , , , , , , , , , , , , , , , , , , , , , , , , , , , , , , , , , , , , , , , , , , , , , , , , , , , , , , , , , , , , , , , , , , , , , , , g : ",
"5 * , , , , e * ~ _ { , , , , , , , , , , , , , , , , , , , , , , , , , , , , , , , , , , , , , , , , , , { , , , , , , , , , , , , , , , , , , , , , , , , , , , , , * f h ",
"5 * , , , 6 5 * e { , , , , , , , , , , , , , , , , , , , , , , , , , , , , , , , , , , , , , , , , , , , ! * , , , , , , , , , , , , 9 , , , , , , , , , , , , , , , ~ f h ",
"5 * , , e 5 5 ~ { , , ! , , * * * ~ ~ , , , , , * ! i 6 * , , , ! , * ! , * * 5 , , , , , , ! , , , , , 6 j * , * * ! , ! { , , , * i ! * , , , , * , , , * ! ! , ! * 5 f h ",
"5 * ~ ~ 5 5 5 | , , ~ i ~ ~ 5 5 5 6 , , , , , ~ 5 i 5 5 5 ~ ~ ~ 5 ~ 5 i ~ 5 5 ~ ~ , , , , ~ 5 ~ ~ , , ~ i k i ~ 5 5 i ~ i , , ~ ~ 5 i ~ 6 , , 6 ~ 5 ~ ~ ~ 5 i 5 ~ 5 i 5 f h ",
"5 5 5 5 5 5 5 * e 5 5 5 5 5 5 5 { * * * 5 5 5 5 5 5 5 5 5 5 5 5 5 5 5 5 5 5 5 ~ * e 5 5 5 5 5 5 5 5 5 { l : 9 5 5 5 5 5 5 5 5 5 9 9 9 9 9 5 5 5 5 5 5 5 5 5 5 5 5 5 5 { f h ",
"5 j | | | | | j | | | | | | | | 0 | | | | | | | | | | | | | | | | | | | | | | | | | | | | | | | | | | l 1 1 f | | | | | | | | | 0 0 0 0 0 | | | | | | | | | | | | | | 0 f h ",
"  1 1 1 1 1 1 1 1 1 1 1 1 1 1 1 1 1 1 1 1 1 1 1 1 1 : m m m m m m m m m m : : a a : 1 1 : a a : : m m 0 0 0 d m m m m : 1 1 1 1 1 1 1 1 1 1 1 1 1 1 1 1 1 1 1 1 1 1 1 1 1   ",
"    ] [ [ [ [ [ [ [ [ [ [ [ [ [ [ [ [ [ [ [ [ [ [ ) | 0 0 0 0 0 0 0 0 0 0 n < k m 4 : : 4 m k < n 0 0 0 0 0 0 0 0 0 0 | ) [ [ [ [ [ [ [ [ [ [ [ [ [ [ [ 4 { n ! [ [ ~ o     ",
"    4 ^ p p + + + + + + + = + + + + + + + + + + + 5 g 0 0 | | | | | | | | f 4 k m | b b | b k 4 n | c 5 5 5 q | | | | c 8 p p p ( + + + + + + + + + + + 8 9 + + + + ! o     ",
"    4 6 r ] 3 ] 3 ] ] ] ) ] ] ) # ] ] ) # 2 ] [ 6 d g 0 q 5 5 5 5 5 5 5 5 0 i l g 5 | | 5 | b i 4 5 5 5 5 5 5 5 5 5 5 { 5 } } } 8 ] ] ] ] ] ) # ] ] ] ] ] e ! ] ] * n h     ",
"    4 6 ! 5 5 * , , * 6 ! & 3 , , 6 i ! , , , e c d g j 5 5 5 5 5 5 5 5 5 4 i b | 5 { q 5 | b i 4 5 5 5 5 5 5 5 5 5 5 { i , ! , , , , , * ! ! , ~ * 6 , , ! q e ! j f h     ",
"    4 6 ! 5 5 ~ 6 , 5 5 3 & e , , 6 5 e , , , i c d g j 5 5 5 5 5 5 5 4 d l 6 b | 9 3 5 9 | b 6 l d 4 5 5 5 5 5 5 5 5 { i ! e , , , , 6 ~ ~ i ! 5 5 i ! , i q e 5 | f h     ",
"    4 6 ! 5 5 5 i , 5 5 ! , 5 e , 6 5 5 ! 5 5 5 c d g j 5 5 5 5 q _ l n e e 0 b | 5 j j 5 | b 0 e e n l _ q 5 5 5 5 5 { i ! 5 * , , , i 5 5 i 5 5 5 5 5 ! i 9 e 5 | f h     ",
"    4 6 ! 5 5 5 5 6 5 5 5 i 5 i , 6 5 5 ~ 5 5 5 c d g j 5 5 5 g _ 5 , j < 7 s b { | { { | { b s 7 < j , 5 _ g 5 5 5 5 { i ! 5 i , , i 5 5 5 { e 5 5 5 5 i 5 9 i 5 | f h     ",
"    4 6 ! 5 5 5 5 5 5 5 5 5 5 5 5 5 5 5 5 5 5 5 c d g j 5 j k 4 6 d h t u u u v h q | | q h v u u u t h d 6 4 k j 5 5 { i ! 5 5 5 5 5 5 5 5 q * 5 5 5 5 5 { { i 5 | f h     ",
"    4 6 ~ 5 5 5 5 5 5 5 5 5 5 5 5 5 5 5 5 5 5 5 c d g j j f ~ c w v u u u u u u u s l l s u u u u u u u v w c ~ f j 5 { i ! 5 5 5 5 5 5 5 5 q * 5 5 5 5 5 c * 5 5 | f h     ",
"    0 q { { { { { { { { { { { { { { { { { { { { 4 d g 4 d 5 7 t u u u x x 1 1 x u u u u u u x 1 1 1 y z u u t 7 5 d j { 5 5 { { { { { { { { q i { { { { j 6 { { { 0 f h     ",
"    0 0 0 0 0 0 0 0 0 0 0 0 0 0 0 0 0 0 0 0 0 0 n : g f { a u u u x t 1 1 1 1 1 A y u u y A 1 1 1 1 1 h t w u u a { f c f 0 0 0 0 0 0 0 0 0 g n j 0 0 0 _ | 0 0 0 f k 1     ",
"    a a : m m m m m : : m m m m m m : : : a a a a 1 m i a u u u o 1 1 1 1 1 1 1 1 1 1 1 1 1 1 1 1 A o 1 1 1 y u u a i m 1 : : m m m m m m m : 7 m m m m m m : : 7 a 1 1     ",
"      1 c q j j j q b b n n n 0 j n b b b 1 1 1 1 h { g z u u A 1 1 1 1 1 1 1 1 1 1 1 1 1 1 1 1 1 x f 1 1 1 1 w u z g { h 0 | j j j j j j j 0 0 j j n n n n b b k 1 1       ",
"      1 m g q q q q j < j q j g : g g l 1 1 1 1 1 d 4 w u u x 1 1 1 1 1 1 1 1 1 1 1 1 1 1 1 1 1 1 s n 1 1 1 1 1 y u w 4 d 7 4 q q 4 g q q q q q | g g g g < 1 1 1 1 1       ",
"        ! 4 d d d d d f < < < < g n d g | m 1 1 a < w u u x 1 1 1 1 1 1 1 1 1 1 1 1 1 1 1 1 1 1 1 7 : y m 1 1 1 1 w u w < a h b d _ g d n < < < < < f d < n _ 7 1 1         ",
"        @ 6 0 ~ c q 5 ~ e 6 5 6 e i 5 q j 5 : 1 g b z u z 1 1 1 1 1 1 1 1 1 1 1 1 1 1 1 1 1 1 1 1 1 1 7 l 1 1 1 1 h u z b g _ 0 5 | q 5 i e 6 5 6 e i 5 9 c c 4 a 1         ",
"        @ 6 i 9 5 5 6 # + 2 ] = # & 5 5 5 9 { h g w u u y 1 1 1 1 1 1 1 1 1 1 1 1 1 1 1 1 h o 1 1 1 1 1 1 1 1 1 1 1 A u w 0 j 5 9 5 5 i 2 # = ] 2 + & ~ 5 5 9 i g 7         ",
"        + ) | 5 5 ~ > } ! 8 ) & ! , } i 5 5 c d 1 u u u h 1 1 1 v 1 1 1 1 1 1 1 1 1 1 1 1 A A 1 1 1 h 1 1 1 1 1 h 1 1 z u : e j 5 5 i > 8 , ] ) r ! , } i 5 5 | ~ :         ",
"        @ 3 q 5 e + 8 ! 9 6 8 8 3 e 3 & i 5 q d w u u y 1 1 1 1 x 1 t 1 1 1 1 t 1 A A 1 1 A A 1 1 1 s 1 1 1 1 1 s 1 A u u h e q 5 ~ # r 3 q * & 8 ' 6 , 8 ~ 5 q 9 :         ",
"        @ 6 5 5 ! # ! 9 } ! q 8 , 0 * ~ i 5 { d z u z h 1 y 1 h o 1 v t A h h h h A z h 1 A t A A h s h 1 1 h o u h y u u y i { 5 6 + 3 q } , q & ' 0 e 6 i 5 5 0 m         ",
"        @ * 5 5 p ! c 8 , { { i * q | , ^ { 5 n z u u v w u y u u s y u u x z x z u u u s u u u s u u u s y u u u u u u u y ~ 5 { ^ , | ) ' i { { ! j c , ^ 5 5 | m         ",
"        @ , 5 5 # 3 c & 3 5 5 ~ * q c ) { 5 5 < u B u u u u u u u u u u u u u u u u u u u u u u u u u u u u u u u u u u B C * 5 5 ^ ) c [ ' ~ 5 5 ! j c 3 i 5 5 9 :         ",
"        @ , 5 5 3 [ { ~ ~ 8 r 8 9 3 5 ' c 5 5 g D E F F F F F F F F F F F F F F F F F F F F F F F F F F F F F F F F F F E G ] 5 5 3 ' 5 3 i & r 8 { * 5 ) | 5 5 9 :         ",
"        + # 5 5 9 5 ' [ { { ! 9 { 8 3 { { 5 5 H I J J J J J J J J J J J J J J J J J J J J J J J J J J J J J J J J J J J J K + ~ 5 { { 3 8 { 9 ! { { [ [ 5 9 5 5 ] :         ",
"        + + 5 5 { { ) # i 9 j 9 6 } ) 9 5 5 5 | I J J J J J J J J J J J J J J J J J J J J J J J J J J J J J J J J J J J J K ( i 5 5 9 ) } 6 9 j 9 i # ) { { 5 5 8 :         ",
"        + & r 5 5 j , ' p { 5 { > ] * q 5 5 r _ I J J J J J J J J J J J J J J J J J J J J J J J J J J J J J J J J J J J J K } } 5 5 q * ] > { 5 { p ' , j 5 5 r e :         ",
"        + ] 8 6 5 5 | [ & , 5 ' & 3 c 5 5 * & d I J J J J J J J J J J J J J J J J J J J J J J J J J J J J J J J J J J J J K r 8 * 5 5 c 3 & ' 5 , & [ | 5 5 6 8 6 :         ",
"        + ] [ 3 5 5 9 5 ' ) 5 8 , { { 5 5 ] , d I J J J J J J J J J J J J J J J J J J J J J J J J J J J J J J J J J J J J K r 3 ] 5 5 { { , 8 5 ) ' 5 9 5 5 3 [ 6 :         ",
"        + ] , [ 5 5 { { ] ^ * r ] 9 { 5 ~ r ! d I J J J J J J J J J J J J J J J J J J J J J J J J J J J J J J J J J J J J K r , ' i 5 { 9 ] r * ^ ] { { 5 i 2 , 6 :         ",
"        + ] * 9 5 5 > 6 , [ p ] * 0 r 5 5 5 * d I J J J J J J J J J J J J J J J J J J J J J J J J J J J J J J J J J J J J K r ! q 5 5 > , * ] p [ , 0 8 5 5 i * 6 :         ",
"        + ] c 5 ~ + ] 3 | ] 8 , | 3 ] ] 5 5 0 _ I J J J J J J J J J J J J J J J J J J J J J J J J J J J J J J J J J J J J K r | 5 i # & 3 | [ 8 ' | 3 ] 8 i 5 c 6 :         ",
"        @ * { 5 p } 3 e { 8 , { 5 ~ [ 8 } 5 9 L I J J J J J J J J J J J J J J J J J J J J J J J J J J J J J J J J J J J J K [ { { p r [ ~ 5 ' 3 i { e 3 r } 5 { | m         ",
"        @ e 5 5 = , | q ! 2 8 q i 9 e , ) 5 5 n I J J J J J J J J J J J J J J J J J J J J J J J J J J J J J J J J J J J J K ' 5 { = , | 9 6 + r 9 i q 6 , ) 5 5 | m         ",
"        + ^ 5 5 i , | 5 8 r ! j c 5 = , | 5 5 c I J J J J J J J J J J J J J J J J J J J J J J J J J J J J J J J J J J J J K # i 5 5 3 | 5 8 8 3 | c 5 2 , j 5 5 ) :         ",
"        + = ! 5 q ] & 2 & ' j 6 ] 2 & [ j 5 ! 4 I J J J J J J J J J J J J J J J J J J J J J J J J J J J J J J J J J J J J K # , 5 j [ & 2 & ) j ~ ] 2 & ] q 5 ! [ :         ",
"        + ] 2 5 5 q ' , 3 c 5 q ' , ' q 5 5 2 d I J J J J J J J J J J J J J J J J J J J J J J J J J J J J J J J J J J J J K r = 5 5 q ' , ' c { q 3 , ' q 5 5 2 6 :         ",
"        + ] ' ) 5 5 | | ~ 9 { * 0 | j 5 i & , d I J J J J J J J J J J J J J J J J J J J J J J J J J J J J J J J J J J J J K r 3 & i 5 j | i { 9 * c | | 5 5 ) ' 6 :         ",
"        + ] , 6 5 5 5 ) ] ) j 8 ! 3 5 5 i ' ! d I J J J J J J J J J J J J J J J J J J J J J J J J J J J J J J J J J J J J K r , e 5 5 5 3 ] & | ] , ) 5 5 5 ' , 6 :         ",
"        + ] e q 5 5 i 8 , 9 { 5 3 ] 5 5 5 ~ ! d I J J J J J J J J J J J J J J J J J J J J J J J J J J J J J J J J J J J J K r ! j 5 5 5 ] 3 5 { 9 , 8 i 5 5 i ! 6 :         ",
"        + ] q { 5 5 e [ 3 j 5 j ' & ~ 5 5 { q _ I J J J J J J J J J J J J J J J J J J J J J J J J J J J J J J J J J J J J K r 9 { 5 5 ~ & ' j 5 j 3 [ e 5 5 { q 6 :         ",
"        @ [ j 5 5 { = & { 9 5 q i ) = { 5 5 | _ I J J J J J J J J J J J J J J J J J J J J J J J J J J J J J J J J J J J J K 8 j 5 5 { = ) i q 5 9 { & = { 5 5 j i :         ",
"        @ 6 5 5 5 [ ] 3 c 5 5 5 c [ ] 3 5 5 5 L I J J J J J J J J J J J J J J J J J J J J J J J J J J J J J J J J J J J J M 0 5 5 5 3 ] [ c 5 5 5 c 3 ] [ 5 5 5 0 m         ",
"        0 c 5 5 i 8 ! 9 5 * ' ~ { 5 , ] 5 5 5 N I J J J J J J J J J J J J J J J J J J J J J J J J J J J J J J J J J J J J I N 5 5 5 ] , 5 { e ! 6 5 9 ! 8 i 5 5 c m         ",
"        0 9 5 5 e [ ' q e # r 8 i j [ & ~ 5 5 g I J J J J J J J J J J J J J J J J J J J J J J J J J J J J J J J J J J J J I g 5 5 ~ & [ j i + ] & ~ q ' [ e 5 5 9 :         ",
"        0 9 5 5 = 8 { i p r , 8 } { i ] = 5 5 g I J J J J J J J J J J J J J J J J J J J J J J J J J J J J J J J J J J J J I g 5 5 = ] i { p 8 , r } i { 8 = 5 5 9 :         ",
"        0 9 5 5 # , c 8 3 e 9 ! ' ) c ' ^ 5 5 g I J J J J J J J J J J J J J J J J J J J J J J J J J J J J J J J J J J J J I g 5 5 ^ ' c ) ' ! 9 e 3 8 c , # 5 5 9 :         ",
"        0 9 5 5 2 e | j , { { e ! q | e 8 5 5 g I J J J J J J J J J J J J J J J J O P P P P P J J J J J J J J J J J J J J I g 5 5 = 6 | q ! i { 6 , j | e & 5 5 9 m         ",
"        4 3 5 5 ! ' * * { e + r ! c 6 , 9 5 5 c I J J J J J J J J J J J J J J Q R R R R R S T J J J J J J J J J J J J J J I 5 i 5 ! ! e , 9 * # 8 3 0 ~ ' q 5 5 ! a         ",
"        4 & 5 5 { q } r e ^ ] 3 c 6 r j 5 5 5 | I J J J J J J J U P P P P I V O O O W O O O V V X J J J J J J J J J J J J I e ~ 5 5 j r 8 ! & & ) c i } q { 5 5 [ 1         ",
"        4 ! ) 5 5 9 q 8 8 2 , j e & j { 5 5 ] f I J J J J J U R R Y Y Y Y Z `  ...+.@.u u  .` ` #.J J J J J J J J J J J J I 9 & 5 5 { j ] & 8 ' j ~ 8 q 9 5 5 ) 6 1         ",
"        4 6 } i 5 5 { q * ~ | ~ e q { 5 5 ~ } b I J J J J J J $.$.$.$.U D V D ` u %.&.u u P D D I I I *.J J J J J J J J J I | 2 ~ 5 5 { q e 6 | i * q { 5 5 i } { 1         ",
"        4 6 3 8 5 5 5 9 q q 5 q q { 5 5 i 8 9 1 I J J J J J J J J E Y =.B +.+.u u -.B x ;.w +.z =.` ` >.,.'.J J J J J J J I | , 8 i 5 5 { q q 5 q q 9 5 5 5 8 3 0 1         ",
"        6 6 , , = ' 6 i 5 5 5 5 5 ~ 6 ] 2 ! 0 1 ).J J J J J J X D W V !.>.V V -.t ~.@.{.].E O V D D D @.u O D D X J J J J ^.| , , 2 ] 6 ~ 5 5 5 5 5 i 6 ' = , j _ 1         ",
"      @ ^ ~ 9 9 9 6 * 5 j j j j j i ' ! 6 j b b g /.J J $.(._.:.<.%.u u u u u t t E s y [.z t t v u u B }.w y ;.|.J J J 1.[ ~ 9 9 9 ~ * i j j j 5 e & [ 6 { ~ _ h f h       ",
"    , , + # # # ! ^ 2 q q q 9 6 6 6 6 ~ l m k 5 e 6 2.*.*.E 3.=.Z u u u u u x x {.4.1 1 1 1 y x z u u u u O D O Y Z $.5.^ + # # # # # # ] 6 6 6 6 5 ] [ 5 { m : _ 5 { h     ",
"    , , r + + + # [ + @ @ @ @ @ @ @ @ 2 & & & & # 9 6.;.t 7.8.&.u u y w t A 1 9.'.A 1 1 1 1 1 1 A t t u u B !.0.t t a.b., & @ + + + + + + @ @ @ @ ) 9 ] r & & & & & j :     ",
"  , , , e e 3 3 3 9 = 3 3 3 3 3 3 3 3 3 3 3 3 3 | d 1 V O V c.h h o h 1 s x x z v x x x x d.Z s y x x v 1 o z a.E O 3.* , ! ~ 3 3 3 3 3 3 3 3 3 3 , 0 c ] [ 3 3 3 9 k 4 1   ",
"  , , , 5 * , , , 9 = , , , , , , , , , , , , , i d d s u v y y y w w 1 1 1 1 1 < 1 1 1 1 h w b 1 1 1 1 1 y y y e.u 0 , , 5 e , , , , , , , , , , , 9 0 9 , , , , ~ d g b h ",
", , , ! 9 , , , e ~ 9 , , , , , , , , , , , , , ! n < t x t o h h 1 1 1 1 1 1 k m 1 1 1 1 1 s 1 a 1 1 1 1 h y z z 7 , , ! q , , , , , , , , , , , , ~ c r , , , , , < f f h ",
", , , q , , , , j 3 j , , , , , , , , , , , , , , i 7 o w w w y w 1 1 1 1 _ _ d d _ _ b 1 1 1 s _ _ _ b 1 w w w x w 3 , { ! , , , , , , , , , , , , ~ 0 , , , , , , e m f h ",
", , , 9 , , , { ! , e ~ , , , , , , , , , , , , , ~ 7 w u u u u v v x x x v s a t v v v x x A A o s y y s v z z z t 3 , { ! , , , , , , , , , , , , , j , , , , , , e k n h ",
"5 * e 6 , , ! 5 , , * ~ , , , , , , , , , , , , , 3 m o w w y 1 4 g d 1 1 1 1 d d 1 1 1 1 1 1 1 1 7 d d d b 1 1 1 : * ! i , , , , , , , , , , , , , , ~ , , , , , , 3 q 1 1 ",
"0 c c c c c g < c c 4 0 | c c c c c c c c c 0 0 0 c 7 1 1 k g g 4 4 m 1 1 1 a 7 a a 1 4 m 1 _ a a a a 1 1 1 _ 4 k 7 c c c c c c c c c c c c c c c c c c c 0 0 0 0 0 0 k 1 1 ",
"  0 0 0 0 n _ f d d b d d d d d d d d d d m 1 1 1 1 1   1 1 h h n f d 0 0 0 0 d d d :     c m 0 c c c 1 _ 5 | 4 : 1 _ 0 0 0 0 0 0 0 0 0 d d d d d d d d d a 1 1 1 1 1 1 1   ",
"    0 0 0 k 0 k 1 1 1 1 1 1 1 1 1 1 1 1 1 1 1 1 1 1 1         0 { 5 { { { q 0 g n 1 a | 5 9 0 c c 0 0 0 5 5 5 c 0 < h 0 0 0 0 0 0 0 0 4 1 1 1 1 1 1 1 1 1 1 1 1 1 1 1 1     "};
