/* XPM */
static char * door8_xpm[] = {
"86 82 279 2",
"  	c #000000",
". 	c #8C8C8C",
"+ 	c #898989",
"@ 	c #7F7F7F",
"# 	c #7D7D7D",
"$ 	c #7B7B7B",
"% 	c #7E7E7E",
"& 	c #818181",
"* 	c #808080",
"= 	c #8B8B8B",
"- 	c #828282",
"; 	c #787878",
"> 	c #727272",
", 	c #797979",
"' 	c #848484",
") 	c #8A8A8A",
"! 	c #666666",
"~ 	c #585858",
"{ 	c #616161",
"] 	c #6C6C6C",
"^ 	c #717171",
"/ 	c #6E6E6E",
"( 	c #868686",
"_ 	c #7C7C7C",
": 	c #535353",
"< 	c #646464",
"[ 	c #6F6F6F",
"} 	c #6A6A6A",
"| 	c #5F5F5F",
"1 	c #545454",
"2 	c #5D5D5D",
"3 	c #707070",
"4 	c #737373",
"5 	c #747474",
"6 	c #696969",
"7 	c #636363",
"8 	c #606060",
"9 	c #565656",
"0 	c #686868",
"a 	c #777777",
"b 	c #767676",
"c 	c #555555",
"d 	c #626262",
"e 	c #6B6B6B",
"f 	c #676767",
"g 	c #5E5E5E",
"h 	c #6D6D6D",
"i 	c #5A5A5A",
"j 	c #656565",
"k 	c #5C5C5C",
"l 	c #5B5B5B",
"m 	c #575757",
"n 	c #595959",
"o 	c #757575",
"p 	c #525252",
"q 	c #888888",
"r 	c #878787",
"s 	c #838383",
"t 	c #4F4F4F",
"u 	c #4E4E4E",
"v 	c #494949",
"w 	c #4B4B4B",
"x 	c #4A4A4A",
"y 	c #4D4D4D",
"z 	c #515151",
"A 	c #4C4C4C",
"B 	c #505050",
"C 	c #7A7A7A",
"D 	c #595B5C",
"E 	c #AB6F61",
"F 	c #AB6060",
"G 	c #83726D",
"H 	c #AB6660",
"I 	c #795F5F",
"J 	c #585C5C",
"K 	c #D2754A",
"L 	c #A76F62",
"M 	c #A76262",
"N 	c #82726D",
"O 	c #A86762",
"P 	c #A66262",
"Q 	c #D64848",
"R 	c #696666",
"S 	c #5A5B5B",
"T 	c #C05757",
"U 	c #916060",
"V 	c #606262",
"W 	c #D97447",
"X 	c #775E5F",
"Y 	c #585D5D",
"Z 	c #D24949",
"` 	c #945D5D",
" .	c #6C6D6D",
"..	c #6D595A",
"+.	c #D54A4A",
"@.	c #696566",
"#.	c #5D5B5B",
"$.	c #BF7558",
"%.	c #96756C",
"&.	c #636465",
"*.	c #DA7746",
"=.	c #78655F",
"-.	c #736C6B",
";.	c #DE5642",
">.	c #6B6D6E",
",.	c #545353",
"'.	c #9B6966",
").	c #B6645C",
"!.	c #736B6B",
"~.	c #DE5242",
"{.	c #595B5B",
"].	c #9C6865",
"^.	c #B5625C",
"/.	c #6F6D6C",
"(.	c #9E7466",
"_.	c #545555",
":.	c #80716D",
"<.	c #8B726B",
"[.	c #DC5143",
"}.	c #737575",
"|.	c #9C7066",
"1.	c #B4705D",
"2.	c #DE5A43",
"3.	c #555858",
"4.	c #9C6565",
"5.	c #B55C5C",
"6.	c #DE4F43",
"7.	c #585B5B",
"8.	c #B5615C",
"9.	c #736D6B",
"0.	c #DE7844",
"a.	c #575A5B",
"b.	c #9B6B66",
"c.	c #B6665C",
"d.	c #565655",
"e.	c #AC725D",
"f.	c #AB6A5F",
"g.	c #5C5D5D",
"h.	c #826161",
"i.	c #DA4343",
"j.	c #5A5E5F",
"k.	c #AF5A5A",
"l.	c #BD5252",
"m.	c #505454",
"n.	c #86695F",
"o.	c #C86454",
"p.	c #616464",
"q.	c #AB5D5D",
"r.	c #AB675F",
"s.	c #585959",
"t.	c #836B64",
"u.	c #DA4544",
"v.	c #636362",
"w.	c #595E5E",
"x.	c #B0715A",
"y.	c #BE7559",
"z.	c #6D6E6F",
"A.	c #92736A",
"B.	c #C87653",
"C.	c #626665",
"D.	c #876666",
"E.	c #D77748",
"F.	c #545758",
"G.	c #757272",
"H.	c #8A726B",
"I.	c #5C5B5B",
"J.	c #5B6364",
"K.	c #EB6235",
"L.	c #656B6C",
"M.	c #696B6C",
"N.	c #E5783D",
"O.	c #6B6C6C",
"P.	c #AE615E",
"Q.	c #A56762",
"R.	c #736A68",
"S.	c #E4723D",
"T.	c #595E5F",
"U.	c #656262",
"V.	c #CD5D4F",
"W.	c #846D66",
"X.	c #5D5F5F",
"Y.	c #C55253",
"Z.	c #925E5E",
"`.	c #716B6B",
" +	c #E04841",
".+	c #595C5C",
"++	c #A06664",
"@+	c #B2605E",
"#+	c #575A5A",
"$+	c #BD7355",
"%+	c #AF735C",
"&+	c #58595A",
"*+	c #816860",
"=+	c #CC5D50",
"-+	c #656161",
";+	c #666160",
">+	c #E4783E",
",+	c #646767",
"'+	c #D87346",
")+	c #826968",
"!+	c #B66A5D",
"~+	c #9B6C66",
"{+	c #5E6668",
"]+	c #ED5D33",
"^+	c #575F60",
"/+	c #716969",
"(+	c #DA4545",
"_+	c #615C5C",
":+	c #515252",
"<+	c #A57262",
"[+	c #AF715D",
"}+	c #B95556",
"|+	c #B35A5A",
"1+	c #826060",
"2+	c #CA5051",
"3+	c #656060",
"4+	c #858585",
"5+	c #5A6061",
"6+	c #EB7436",
"7+	c #696C6D",
"8+	c #DE4843",
"9+	c #8F6A5E",
"0+	c #CB7651",
"a+	c #626464",
"b+	c #565858",
"c+	c #B47257",
"d+	c #B65757",
"e+	c #565A5A",
"f+	c #BB735A",
"g+	c #967266",
"h+	c #636768",
"i+	c #E7723A",
"j+	c #636161",
"k+	c #726C6C",
"l+	c #DB5F45",
"m+	c #626C6C",
"n+	c #5B6263",
"o+	c #5B6163",
"p+	c #616868",
"q+	c #757B7B",
"r+	c #5F6667",
"s+	c #606668",
"t+	c #757A7B",
"u+	c #686F6F",
"v+	c #717677",
"w+	c #63696A",
"x+	c #596161",
"y+	c #707677",
"z+	c #6F7575",
"A+	c #596061",
"B+	c #5B6262",
"C+	c #946E68",
"D+	c #B86A5C",
"E+	c #5A5F60",
"F+	c #E07541",
"G+	c #F63022",
"H+	c #EE3030",
"I+	c #EE5231",
"J+	c #EE7833",
"K+	c #EE5031",
"L+	c #EE4830",
"M+	c #EE4E31",
"N+	c #EE7933",
"O+	c #EE4B31",
"P+	c #EE6A32",
"Q+	c #EE4831",
"R+	c #EE6F32",
"S+	c #EE2E30",
"T+	c #F0422D",
"U+	c #F4772A",
"V+	c #726B69",
"W+	c #666D6D",
"X+	c #646B6B",
"Y+	c #666C6D",
"Z+	c #626769",
"`+	c #626869",
" @	c #656A6B",
".@	c #6A6B6B",
"+@	c #484848",
"                                                                                                                                                                            ",
". + @ @ @ @ @ @ @ @ @ @ @ @ @ @ @ @ @ @ @ # $ % & * @ @ @ @ @ @ @ @ @ @ @ @ @ @ @ @ @ @ @ @ @ @ @ @ @ @ @ @ @ @ @ @ @ @ @ @ @ @ @ @ @ @ @ @ @ @ @ @ @ @ @ @ @ @ @ @ @ @ @ @ ",
"= - @ @ @ @ @ @ @ @ @ @ @ @ * @ @ ; > > > , * - ' - @ @ @ @ @ @ @ @ @ @ @ @ @ @ @ @ @ @ @ @ @ @ @ @ @ @ @ @ @ @ @ @ @ @ @ @ @ @ @ @ @ @ @ @ @ @ @ @ @ @ @ @ @ @ @ @ @ @ @ @ ",
") - @ @ @ @ @ @ @ @ @ # , ! ~ { ! ] ^ / ( @ @ @ @ @ @ @ @ @ @ @ @ @ @ @ @ @ @ @ @ @ @ @ @ @ @ @ @ @ @ @ @ @ @ @ @ @ @ @ @ @ @ @ @ @ @ @ @ @ @ @ @ @ @ @ @ @ @ @ @ @ @ @ @ @ ",
"> _ @ @ @ @ @ @ @ @ @ ] : : < [ ^ ^ & - @ @ @ @ @ @ @ @ @ @ @ @ @ @ @ @ @ @ @ @ @ @ @ @ @ @ @ @ @ @ @ @ @ @ @ @ @ @ @ @ @ @ @ @ @ @ @ @ @ @ @ @ @ @ @ @ @ @ @ @ @ @ @ @ $ / ",
"} [ > > > > > > > > ^ | 1 2 3 ^ 4 , 4 > > > 4 # _ ^ > > > > > > > > > ^ $ # # # # > > > > 5 # @ @ @ # $ ^ > > > > > > > > > > > ^ $ ^ > > > > > > > > > > > > > > > > > 6 7 ",
"} [ ^ ^ ^ ^ ^ ^ ^ ^ 8 : 9 0 3 4 a 5 ^ ^ ^ ^ ^ ^ ^ ^ ^ ^ ^ ^ ^ ^ ^ ^ ^ ^ ^ ^ ^ ^ ^ ^ ^ ^ ^ ^ ^ a a b ^ ^ ^ ^ ^ ^ ^ ^ ^ ^ ^ ^ ^ ^ ^ ^ ^ ^ ^ ^ ^ ^ ^ ^ ^ ^ ^ ^ ^ ^ ^ ^ ^ ^ 0 7 ",
"} [ ^ ^ ^ ^ ^ ^ ^ [ c c d e 0 ^ ^ ^ ^ ^ ^ ^ ^ ^ ^ ^ ^ ^ ^ ^ ^ ^ ^ ^ ^ ^ ^ ^ ^ ^ ^ ^ ^ ^ ^ ^ ^ ^ ^ ^ ^ ^ ^ ^ ^ ^ ^ ^ ^ ^ ^ ^ ^ ^ ^ ^ ^ ^ ^ ^ ^ ^ ^ ^ ^ ^ ^ ^ ^ ^ ^ ^ ^ ^ 0 7 ",
"} [ ^ ^ ^ ^ ^ ^ ^ | 1 2 e } ^ ^ ^ ^ ^ ^ ^ ^ ^ ^ ^ ^ ^ ^ ^ ^ ^ ^ ^ ^ ^ ^ ^ ^ ^ ^ ^ ^ ^ ^ ^ ^ ^ ^ ^ ^ ^ ^ ^ ^ ^ ^ ^ ^ ^ ^ ^ ^ ^ ^ ^ ^ ^ ^ ^ ^ ^ ^ ^ ^ ^ ^ ^ ^ ^ ^ ^ ^ ^ ^ 0 7 ",
"} [ ^ ^ ^ ^ ^ ^ ^ 8 ~ < 3 ^ ^ ^ ^ ^ ^ ^ ^ ^ ^ ^ ^ ^ ^ ^ ^ ^ ^ ^ ^ ^ ^ ^ ^ ^ ^ ^ ^ ^ ^ ^ ^ ^ ^ ^ ^ ^ ^ ^ ^ ^ ^ ^ ^ ^ ^ ^ ^ ^ ^ ^ ^ ^ ^ ^ ^ ^ ^ ^ ^ ^ ^ ^ ^ ^ ^ ^ ^ ^ ^ ^ f { ",
"} [ ^ ^ ^ ^ 3 3 [ g < [ ^ ^ ^ ^ ^ ^ ^ ^ ^ ^ ^ ^ ^ ^ ^ ^ ^ ^ ^ ^ ^ ^ ^ ^ ^ ^ ^ ^ ^ ^ ^ ^ ^ ^ ^ ^ ^ ^ ^ ^ ^ e ^ ^ ^ ^ ^ ^ ^ ^ ^ ^ ^ ^ ^ ^ ^ ^ ^ ^ ^ ^ ^ ^ ^ ^ ^ ^ ^ ^ ^ ^ | : ",
"} [ ^ ^ ^ ^ } [ h | 3 ^ ^ ^ ^ ^ ^ ^ ^ ^ ^ ^ ^ ^ ^ ^ ^ ^ ^ ^ ^ ^ ^ ^ ^ ^ ^ ^ ^ ^ ^ ^ ^ ^ ^ ^ ^ ^ ^ ^ ^ ^ ^ 3 ^ ^ ^ ^ ^ ^ ^ ^ ^ ^ ^ ^ ^ 3 ^ ^ ^ ^ ^ ^ ^ ^ ^ ^ ^ ^ ^ ^ ^ ] | : ",
"} [ ^ ^ 3 e } [ } [ ^ ^ ^ ^ ^ ^ ^ [ / ^ ^ ^ ^ ^ ^ ^ / 3 ^ ^ ^ ^ ^ ^ ^ ^ ^ ^ ^ ] ^ ^ ^ ^ ^ ^ ^ ^ ^ ^ ^ ^ [ h / ^ ^ ^ ^ ^ ^ e ^ ^ ^ ^ / e ^ ^ ^ ^ ^ ^ ^ ^ ^ ^ ^ ^ ^ ^ 3 e | : ",
"} [ 3 3 e } } ! 3 ^ 3 h 3 ^ e e e } 3 ^ ^ ^ ^ ^ ] / } } e ^ 3 ^ ] ^ ] h 3 e e 3 3 ^ ^ ^ ^ 3 ] 3 3 ^ ^ 3 h i / 3 } e / 3 h 3 ^ 3 ^ e h 3 e 3 ^ 3 ^ ] 3 3 3 ] h ] ^ ] [ } | : ",
"} h } } } } } } 3 / } } } } } } e 3 ^ ^ / / h } } } } } } } } } } } } } } } } e / 3 / / / } } } } / / } < ~ } } } } } } } h / } } } } } ] / / } } } } } } } } } } } } } | : ",
"} } 6 6 6 6 6 / } 6 6 6 6 6 6 } j } } } } 6 6 6 6 6 6 6 6 6 6 6 6 6 6 6 6 6 6 } } } 6 6 6 6 6 6 6 6 6 ! 1 1 7 6 6 6 6 6 6 6 6 6 < < < < < 6 6 6 6 6 6 6 6 6 6 6 6 6 } j | : ",
"e g k k k k k k k k k k k k k k k k k k k k k k k k k k k k k k k k k k k k k k k k k k k k k k k k k l k k k k k k k k k k k k k k k k k k k k k k k k k k k k k k k k l : ",
"  1 m ~ ~ ~ ~ ~ ~ ~ ~ ~ ~ ~ ~ ~ ~ ~ ~ ~ ~ ~ ~ ~ ~ m { d d d d d d d d d d 2 | ~ ~ g 1 1 g ~ ~ | 2 d d 7 7 7 d d d d d { m ~ ~ ~ ~ ~ ~ ~ ~ ~ ~ ~ ~ ~ ~ ~ 9 9 c m ~ ~ m 1 1   ",
"    4 & * @ * * * * * * * * * * * * * * * * * * * , < 7 7 7 7 7 7 7 7 7 7 g | n ~ 7 ~ ~ 7 ~ n | g 7 7 ! ! ! < 7 7 7 7 j @ * @ @ * * * * * * * * * * * @ [ e ^ # * * o p     ",
"    d [ q q % % % % % % % 5 % % @ % % % @ @ % % _ g { 7 < 6 6 6 6 6 6 6 6 7 } n n 6 7 7 6 < l } g 6 6 } } } } 6 6 6 6 6 ] r q q s % % % % % % @ % % % % # > % % % % { :     ",
"    d h [ 6 } 3 h ^ 3 3 3 a ^ ^ ; [ / ^ , o ^ h 7 k { < } } } } } } } } } 7 e l j } < j } j l e 7 } } } } } } } } } } 6 e 3 3 3 ^ ^ ^ ^ [ 3 ^ ; [ ^ [ ^ ^ / f 3 ^ ! | :     ",
"    d h 3 } } / ^ ^ e } 3 a ^ ^ ^ h } / ^ ^ ^ / < k { ! } } } } } } } 6 6 g e l j 0 b ] 0 j l e g 6 6 } } } } } } } } 6 e 3 / ^ ^ ^ ^ ^ 3 3 h ^ } e h ^ ^ ] f / e j | :     ",
"    d h 3 } } } e ^ } } > o e 3 ^ h } ] ^ / / } < k { ! } } } } } j { l | < e l j 6 } f 6 j l e < | l { j } } } } } } 6 e 3 ] ^ ^ ^ ^ e } } } h } } } / ^ e f / } j | :     ",
"    d h 3 } } } e ^ } } ] / } / ^ h } } 3 } } } < k { ! } } } 0 i l e h 3 { 9 l j } 6 6 } j l 9 { 3 h e l i 0 } } } } 6 e 3 } ] ^ ^ / } } } h e } } } } h e 0 ] } j | :     ",
"    d h 3 } } } } } } } } } } } / ] } } } } } } < k { ! } 6 7 g 0 e f n t u v 9 7 ! f f ! 7 9 v u t n f e 0 g 7 6 } } 6 e 3 } } / / } } } } f [ } } } } } } 0 ] } j | :     ",
"    d h [ } } } } } } } } } } } } } } } } } } } < k { ! } | 8 } l p w x v v v x w ~ < < ~ w x v v v x w p l } 8 | } } 6 e 3 } } } } } } } } f [ } } } } } ! / } } j | :     ",
"    7 e } } } } } } } } } } } } } } } } } } } } < k { j | j 0 n x v v v v y y v v v u u v v v y y y x v v x n 0 j | 6 6 e / } } } } } } } } 0 / } } } } 6 0 h } } j | :     ",
"    7 < < < < < < < < < < < < < < < < < < < < j i k { g 6 8 y x v v x p p 1 1 p w v v v v w p 1 1 1 : z v v x y 8 6 g 6 < < < < < < < < < < | f < < < < | 0 < < < i | :     ",
"    g g g g g g g g g g g g g g g g g g g g g g g : 2 ! 8 y v v A B 1 1 1 1 1 1 1 p y y p 1 1 1 1 1 1 1 1 : x v y 8 ! 2 n g g g g g g g g g g 9 { g g g n | g g g g 1 1     ",
"    : 1 { ! ! ! ! ! 8 8 j ! ! ! ! ! 8 8 | 1 1 1 1 1 8 f y v v y 1 1 1 1 1 1 1 1 1 1 1 1 1 1 1 1 1 1 1 1 1 1 : x v y f 8 : | 7 ! ! ! ! ! ! ! 8 { ! ! ! ! ! ! 8 8 k 1 1 1     ",
"      1 | 7 j ! ! ! k n k k l | g n n 9 1 1 1 1 1 9 } n x v v 1 1 1 1 1 1 1 1 1 1 1 1 1 1 1 1 1 1 1 1 1 1 B c : x x n } 9 g 7 j ! 7 7 j ! ! ! ! j 7 n n n n 1 1 1 1 1       ",
"        9 ~ i i i i n ~ i i i ~ c ~ ~ 9 1 1 1 1 c d ~ x v v z 1 1 1 1 1 1 1 1 1 1 1 1 1 1 1 1 1 1 1 1 1 1 1 l 1 : x x ~ d c ~ n i ~ ~ n i i i i n ~ ~ ~ ~ ~ 1 1 1 1         ",
"        * h 7 ! 7 < j 0 } } } } } f j 6 h 8 1 1 n 2 x v v B 1 : y m 1 1 1 1 1 1 1 1 1 1 1 1 1 1 1 1 1 1 1 1 1 1 1 : x x 2 n 9 d j < } j f } } } } } 0 j 0 j 7 l 1 1         ",
"        * h j 6 0 6 } $ ' @ h * s > } 6 0 e 8 : { p v v x 1 1 u 2 9 1 1 1 1 1 1 1 1 1 1 1 1 1 1 1 1 1 1 1 1 1 1 1 1 u v p 7 < < e 0 6 } > s * h @ ' 5 } 6 0 f j k 1         ",
"        * 3 ] 0 } } a _ ^ 4 C 4 ^ a ^ } } f e 9 2 y v v : 1 1 n 9 1 1 1 1 1 D E F E E G H F I 1 1 1 1 1 1 1 1 1 1 1 1 x y | 6 ] f } } o % > 4 C 4 ^ o > } } 0 ] ! ~         ",
"        @ b j } } $ , ; f [ C , 6 ^ o > } } < k : v v y 1 1 1 1 1 1 1 1 1 J K L M L L N O P Q R 1 1 1 1 1 1 1 1 1 1 1 z v 9 ^ j } } a C , 6 h C ; e ^ 5 o } } j h m         ",
"        * h } } 3 # , 0 ^ 3 [ ; , 0 ^ o e } 6 k x v v B 1 1 1 1 1 1 1 1 S T U i p e / ~ g z V W X 1 1 1 1 1 1 1 1 1 1 : v u e 6 } h * C 6 [ 4 h , C f ^ 5 h } } 7 ~         ",
"        * h } } * o f 4 o e 0 [ 3 j 0 [ a } 6 k x v B 1 1 1 1 1 1 1 1 Y Z `  .n w z 1 A A 1 h ..+.@.1 1 1 1 1 1 1 1 1 1 y u e 6 } ; o 6 ^ b h 0 h ^ j 0 3 a } } 7 ~         ",
"        * ^ } } # ^ < ; > 6 6 e 3 f j > ; } } 8 x v : 1 1 1 1 1 1 1 #.$.%.} l y B w 2 x t t l A &.*.=.1 1 1 1 1 1 1 1 1 u u / } } # > j o 4 e 6 6 ^ ! j ^ ; } } 0 m         ",
"        * ^ } } _ [ < e > 4 a o ] f j 3 < } } 8 x y 1 1 1 1 1 1 1 : -.;.>.B w u p w 2 x z z A w ,.'.).c 1 1 1 1 1 1 1 1 u B 4 } } _ 3 j e ^ o a 4 / ! j 3 ! } } 0 m         ",
"        @ o } } f a [ 4 j 5 4 ^ j _ [ o ! } } { x u 1 1 1 1 1 1 1 : !.~.{.~ t z p i 1 B ~ A A 2 1 ].^.{ 1 1 1 1 1 1 1 1 u z ; } } ! o [ _ ! ^ 4 5 j a ^ a ! } } ] m         ",
"        @ @ } } 6 } , _ e ! f ! h , , 0 } } e j w p 1 1 1 1 1 1 1 : /.(._.A v w A w c x y x x A A :.<.> : 1 1 1 1 1 1 1 u z * ] } } 0 , , h ! f ! e _ , } 6 } } ; m         ",
"        @ # / } } ! h , ^ } } } > ; ] f } } / 7 w 1 1 1 1 1 1 1 1 : -.[.}.| < g c t z w p g g [ ] |.1.5 : 1 1 1 1 1 1 1 u z @ [ } } f ] ; > } } } ^ , h ! } } / o m         ",
"        @ b $ } } 6 } [ * 6 } 6 * 3 6 6 } 6 _ k w 1 1 1 1 1 1 1 1 : -.2.3.B x u t m z u 1 x w B t 4.5.8 1 1 1 1 1 1 1 1 u z ; # 6 } 6 6 3 * 6 } 6 * [ } 6 } } $ h m         ",
"        @ b 5 > } } ! a ^ ; } # 3 o ! } } o > k w 1 1 1 1 1 1 1 1 : !.6.7.x x i B B B w p t z w B ].8.; : 1 1 1 1 1 1 : v z , 4 o } } ! o 3 # } ; ^ a ! } } > 5 h m         ",
"        @ b > ; } } 6 } , $ / , , 0 } } e a 3 k w 1 1 1 1 1 1 1 1 : 9.0.a.z u ~ u : : ~ B t t i B b.c.} : 1 1 1 1 1 1 : v z , ^ ; e } } 0 , , / $ , } 6 } } ; > h m         ",
"        @ b ^ 0 } } 3 f h , 4 ; e ! h } ] b 3 k w 1 1 1 1 1 1 1 1 1 d.e.f._.> n w y w w A m ; g.h.i.7 8 1 1 1 1 1 1 1 : v z , ^ } } } [ 6 e ; 4 , h j h } } ; ^ h m         ",
"        @ b 0 6 } ; _ h } [ & 3 6 6 b ^ } 0 0 k w 1 1 1 1 1 1 1 1 1 1 j.k.l.m.B : 9 z u 9 B u n.o.p.^ i 1 1 1 1 1 1 1 : v z , 6 6 } o _ 3 6 3 & 3 } 6 o 4 } 6 0 h m         ",
"        @ o j } 5 _ C ; f @ 3 o 0 b $ ; / } j k w 1 1 1 1 1 1 1 1 1 1 n i q.r.s.1 B z A p s.t.u.v.o n 1 1 1 1 1 1 1 1 : x z ; ! } ^ @ $ b 0 $ ^ a f ; C a 3 } j ] m         ",
"        * h } } & o 6 0 ^ , ; f h 0 } 5 # 6 } k w 1 1 1 1 1 1 1 1 1 1 1 n w.x.y.z.m : x f A.B.C.^ n 1 1 1 1 1 1 1 1 1 1 u z > } 6 & 5 } 0 [ C , 6 h 0 0 o # } } 7 ~         ",
"        * 4 } } C ^ j } ] ; 3 < < 6 $ ^ ! } } { w 1 1 1 1 1 1 1 1 1 1 1 c 0 D.E.F.y A A u G.H.I.i 1 1 1 1 1 1 1 1 1 1 1 u z a } } C ^ j } } C ^ < < 6 $ ^ f } } } m         ",
"        @ * } } j a h a ; , } e h a a b j } } j w 1 1 1 1 1 1 1 1 1 1 1 1 J.K.L.c m 9 e 2 M.N.O.: 1 1 1 1 1 1 u z 1 1 1 u z & e } < b h a ; , e } ] a a a ! } } ; m         ",
"        @ b C } 6 ] $ ^ $ 6 6 } $ ^ $ } 6 } $ k w 1 1 1 1 1 1 1 1 1 1 1 c P.Q.g 1 k l > : 1 R.S.T.1 1 1 1 1 u : 2 c 1 1 u z , $ } 6 } $ ^ $ e 6 6 $ ^ $ ] 6 } C h m         ",
"        @ b a / } 0 6 } 0 < } } 6 } 6 0 } 3 b k w 1 1 1 1 1 1 1 1 1 1 1 U.V.W.1 1 2 l 9 2 1 X.Y.Z.1 1 1 1 1 z k k 1 1 1 u z , a 3 } 0 6 } 6 j 6 e 6 } 6 0 } / a h m         ",
"        @ b ^ ; } } } e C h ! > ! e } } ] ; 3 k w 1 1 1 1 1 1 1 1 1 1 : `. +.+1 1 p p l p 1 1 ++@+c 1 1 1 1 1 c 1 1 1 1 u z , ^ a ] } } } C [ j > f e } } } , ^ h m         ",
"        @ b 3 f } } } ; [ 3 f 4 3 o } } } [ 3 k w 1 1 p : 1 1 1 1 1 1 #+$+%+&+1 1 t u z ~ 1 1 *+=+-+1 1 1 1 1 1 1 1 1 1 u z , 3 0 } } } o 3 4 f 3 3 ; } } } [ ^ h m         ",
"        @ b / 0 } } / a , ! 6 f C ; e } } f / k w 1 1 t | 1 1 1 1 1 1 ;+>+,+: : 1 y y z p : : #+'+)+_.1 1 1 1 1 1 1 1 1 u z , [ f } } e ; C f 6 ! , a / } } 0 / h m         ",
"        @ b < } } } o a ] f } ! / a 5 } } } 7 k w 1 1 ~ c 1 1 1 1 1 1 !+~+: 6 : z t t z z A < d {+]+^+1 1 1 1 1 1 1 1 1 u z , < } } } 5 a / ! } f ] a o } } } < h m         ",
"        * / 6 } } e $ 3 j } } } ! [ $ } } } 6 k w 1 1 1 1 1 1 1 1 : /+(+_+g k z z y y z B A z 5 :+<+[+c 1 1 1 1 1 1 1 1 u B ^ 6 } } } $ [ ! } } } j 3 $ e } } 6 < ~         ",
"        4 0 } } } ; 3 / f } 6 } f ^ 3 o } } 6 k w 1 1 1 1 1 1 1 1 #+}+|+s.B p z m n t : u c 1 g B 1+2+3+1 1 1 1 1 1 1 1 u x k 6 } } o 3 ^ f } 6 } f / 3 ; } } } 7 ~         ",
"        7 f } } / b , ! } # 4+4 6 f C ; ] } } 8 w 1 1 1 1 1 1 1 1 5+6+7+m w y y u y w A A y y A z {.8+!.: 1 1 1 1 1 1 1 u x 8 } } ] ; C f 6 , % b } ! , b / } } 0 m         ",
"        7 0 } } o b ] f $ $ > , 5 j / a 5 } } 8 w 1 1 1 1 1 1 1 1 9+0+a+1 i 8 n ~ p ~ n n p p m B b+c+d+e+1 1 1 1 1 1 1 u x 8 } } 5 a / j , # > ; o f ] b o } } 0 m         ",
"        7 0 } } $ 3 j b b a 0 , o 4 ! [ _ } } 8 w 1 1 1 1 1 1 1 m f+g+c 1 t B B l i { n ~ A t 4 B 1 h+i+j+1 1 1 1 1 1 1 u x 8 } } _ [ ! 4 b , 0 a o b j 3 $ } } 0 m         ",
"        7 0 } } # ^ < 3 ^ 6 6 e ^ [ j > # 6 } 8 w 1 1 1 1 1 1 : k+l+m+n+o+p+q+r+s+t+u+v+w+x+y+z+A+n+B+C+D+9 m 1 1 1 1 1 u x 8 } } # > j [ ^ e 6 0 ^ 3 < ^ % } } 0 m         ",
"        7 6 } } $ h j ! 3 6 / b 3 f j / 0 } } { w 1 1 1 1 1 1 E+F+G+H+I+J+K+L+M+N+N+O+J+N+H+P+Q+N+R+S+T+U+V+c 1 1 1 1 1 u x { } } $ / j 0 [ e ] ; ^ j j / 6 } } 6 m         ",
"        d a } } 0 3 ; b f b * a e j a h } } e j w 1 1 1 1 1 c f h+W+W+X+L.Y+W+W+Z+`+Y+Y+Y+W+`+L. @L.X+`+Y+.@i 1 1 1 1 1 u x / ] } 6 h ; a f 4 & a h j o 3 6 } } 5 1         ",
"        d a e } } ! 3 a # _ C 0 j a h f } } e < w 1 1 1 1 1 1 9 1 9 9 c 9 9 9 9 1 1 8 9 9 9 c 9 9 9 9 1 9 9 c 1 1 1 1 1 u x h h } } f h , $ , $ 6 < o 3 ! } } e 4 1         ",
"        7 ] $ 6 } } ! > ^ o 0 } > [ ! } } 6 _ k w 1 1 1 1 1 1 1 1 1 1 1 1 1 1 1 1 1 1 1 1 1 1 1 1 1 1 1 1 1 1 1 1 1 1 1 u x < # 6 } } ! [ > 5 6 6 ^ > ! } } 6 $ 0 1         ",
"        d h o ^ } } } ! ! j 0 j j f } } } 5 > c w 1 1 1 1 1 1 1 1 1 1 1 1 1 1 1 1 1 1 1 1 1 1 1 1 1 1 1 1 1 1 1 1 1 1 : x x j 5 5 } } } f j j 0 j ! ! } } } ^ o 6 1         ",
"        8 h ^ a 4 h } } } } } } } } } / 4 b 7 1 w p 1 1 1 1 1 1 1 1 1 1 1 1 1 1 1 1 1 1 1 1 1 1 1 : p 1 1 1 1 1 1 1 1 : w x j ^ b 4 / } } } } } } } } } h 4 a h g 1         ",
"      @ , ] ^ ^ 4 ; $ ^ } } } } } 5 $ a 4 e d 1 p x : 1 1 1 1 1 1 1 1 1 1 1 1 1 1 1 1 1 1 1 1 1 1 y k 1 1 1 1 1 1 1 1 : x g j ^ ^ 4 a $ 5 } } } } } ^ $ ; 4 ^ j 9 1 1       ",
"    3 , @ 4 h h f / e d d d 7 j j j 6 } 7 g c 7 } l x 1 1 1 1 1 1 1 1 1 1 1 1 1 1 1 1 1 1 1 1 1 1 w | 1 1 1 1 1 1 1 1 y 4 @ b h h h h h } j j j } [ , h j j { 9 9 f g :     ",
"    ^ ^ @ @ @ @ , , % C C C C $ $ $ $ 4 f ! f } C / x t 1 1 1 1 1 1 1 1 1 1 1 1 1 1 1 1 1 1 1 1 1 c l p z 1 1 1 1 1 t p 5 % @ @ @ @ @ @ # $ $ $ _ 6 [ $ / } ! f 0 e 6 :     ",
"    ^ ^ > C $ $ $ [ % $ $ $ $ $ $ $ $ $ $ $ $ $ b 8 B u 1 1 1 1 1 1 1 1 1 1 1 1 1 1 1 1 1 1 1 1 1 1 1 t 2 1 1 1 1 1 w [ ^ > , $ $ $ $ $ $ $ $ $ $ C < ] # _ $ $ $ ; 8 k 1   ",
"  ^ ^ ^ / ] ^ ^ ^ 0 _ ^ ^ ^ ^ ^ ^ ^ ^ ^ ^ ^ ^ ^ < l 9 x : 1 1 1 1 1 1 1 1 1 1 1 1 1 1 1 1 1 1 1 1 1 1 c c 1 1 1 1 : 2 ^ ^ 3 } ^ ^ ^ ^ ^ ^ ^ ^ ^ ^ 3 7 7 ] > ^ ^ ^ ! n 7 1   ",
"^ ^ ^ ^ ! ^ ^ ^ 3 6 b ^ ^ ^ ^ ^ ^ ^ ^ ^ ^ ^ ^ ^ 3 k { t : 1 1 1 p 1 1 1 1 1 1 1 1 1 1 1 1 z z 1 1 1 1 1 1 1 1 1 1 w f ^ ^ j ^ ^ ^ ^ ^ ^ ^ ^ ^ ^ ^ ^ ] 7 / ^ ^ ^ ^ ^ g 8 | : ",
"^ ^ ^ } [ ^ ^ ^ 0 3 ! ^ ^ ^ ^ ^ ^ ^ ^ ^ ^ ^ ^ ^ ^ 0 n t : 1 1 1 w 1 1 1 1 1 1 1 1 p p 1 1 z z 1 1 1 t 1 1 1 1 1 t B > ^ e / ^ ^ ^ ^ ^ ^ ^ ^ ^ ^ ^ ^ ] < 5 ^ ^ ^ ^ ^ } i | : ",
"^ ^ ^ f ^ ^ ^ [ 6 ^ 0 3 ^ ^ ^ ^ ^ ^ ^ ^ ^ ^ ^ ^ ^ e 9 t v : 1 1 u 1 w : 1 1 1 t 1 z t 1 1 p z : : 1 y 1 1 1 1 1 A B > ^ 6 3 ^ ^ ^ ^ ^ ^ ^ ^ ^ ^ ^ ^ h < ^ ^ ^ ^ ^ ^ h ~ | : ",
"^ ^ [ ] ^ ^ ^ 0 ^ ^ [ ] ^ ^ ^ ^ ^ ^ ^ ^ ^ ^ ^ ^ ^ 3 m t v x : A A z B w w t u t u w v A p w w w z A x A z : A A v B > 3 } ^ ^ ^ ^ ^ ^ ^ ^ ^ ^ ^ ^ ^ ^ ! ^ ^ ^ ^ ^ ^ 3 7 m 1 ",
"7 e e } / / e 6 / / e 6 / / / / / / / / / / / / / / m t v v v v v v v v v v v v v v v v v v v v v v v v v v v v v y } ] 6 / / / / / / / / / / / / / / / / / / / / / / 7 1 1 ",
"7 7 7 7 7 7 i d 7 7 { d 7 7 7 7 7 7 7 7 7 g ~ ~ ~ ~ c t x z z z z z z +@v 9 2 2 2 2 1 v v +@B 2 2 2 2 z z v i l z p | 7 7 7 7 7 7 7 7 7 7 7 7 7 7 7 7 7 7 i ~ ~ ~ ~ ~ c 1 1 ",
"    7 7 7 n 7 i 1 1 1 1 1 1 1 1 1 1 1 1 1 1 1 1 1 1 1     1 1 { } } ! j j < 7 ~ c 1 1 j } < 7 7 7 7 7   } } f 7 k ~ B 7 7 7 7 7 7 7 7 d 1 1 1 1 1 1 1 1 1 1 1 1 1 1 1 1     "};
