/* XPM */
static char * door5_xpm[] = {
"86 82 120 2",
"  	c #000000",
". 	c #8C8C8C",
"+ 	c #868686",
"@ 	c #7F7F7F",
"# 	c #808080",
"$ 	c #7E7E7E",
"% 	c #8A8A8A",
"& 	c #6F6F6F",
"* 	c #898989",
"= 	c #717171",
"- 	c #757575",
"; 	c #6C6C6C",
"> 	c #6A6A6A",
", 	c #6E6E6E",
"' 	c #747474",
") 	c #878787",
"! 	c #676767",
"~ 	c #5C5C5C",
"{ 	c #585858",
"] 	c #616161",
"^ 	c #828282",
"/ 	c #7D7D7D",
"( 	c #6B6B6B",
"_ 	c #7A7A7A",
": 	c #797979",
"< 	c #535353",
"[ 	c #545454",
"} 	c #5F5F5F",
"| 	c #707070",
"1 	c #7C7C7C",
"2 	c #7B7B7B",
"3 	c #656565",
"4 	c #5E5E5E",
"5 	c #686868",
"6 	c #737373",
"7 	c #727272",
"8 	c #6D6D6D",
"9 	c #646464",
"0 	c #565656",
"a 	c #626262",
"b 	c #696969",
"c 	c #787878",
"d 	c #595959",
"e 	c #636363",
"f 	c #555555",
"g 	c #666666",
"h 	c #575757",
"i 	c #5D5D5D",
"j 	c #5B5B5B",
"k 	c #858585",
"l 	c #818181",
"m 	c #767676",
"n 	c #6E6A67",
"o 	c #956658",
"p 	c #6D6868",
"q 	c #777777",
"r 	c #5A5A5A",
"s 	c #606060",
"t 	c #7D635F",
"u 	c #FF4100",
"v 	c #7D5F5F",
"w 	c #6A6969",
"x 	c #6C6363",
"y 	c #4D4D4D",
"z 	c #505050",
"A 	c #4A4A4A",
"B 	c #494949",
"C 	c #4B4B4B",
"D 	c #4F4F4F",
"E 	c #525252",
"F 	c #4C4C4C",
"G 	c #5A5D5E",
"H 	c #515151",
"I 	c #BE8659",
"J 	c #80726A",
"K 	c #A87F64",
"L 	c #7B726D",
"M 	c #CA8A51",
"N 	c #84746A",
"O 	c #595C5E",
"P 	c #5E6366",
"Q 	c #5F6467",
"R 	c #A27D64",
"S 	c #76716F",
"T 	c #5E6365",
"U 	c #5D6265",
"V 	c #4E4E4E",
"W 	c #5D5B59",
"X 	c #C88853",
"Y 	c #ED9635",
"Z 	c #ED9538",
"` 	c #ED9631",
" .	c #BA845B",
"..	c #E5933E",
"+.	c #ED9633",
"@.	c #E89437",
"#.	c #6F6763",
"$.	c #555B5E",
"%.	c #C78854",
"&.	c #9E7961",
"*.	c #6A6F71",
"=.	c #6A6D6E",
"-.	c #717576",
";.	c #6A6664",
">.	c #CE8B51",
",.	c #716762",
"'.	c #575758",
").	c #C68753",
"!.	c #897265",
"~.	c #4F5050",
"{.	c #69625F",
"].	c #E0903E",
"^.	c #5F6365",
"/.	c #484848",
"(.	c #636668",
"_.	c #505151",
":.	c #5C6062",
"<.	c #5D5C5C",
"[.	c #838383",
"}.	c #888888",
"  . + @ @ @ @ @ @ @ @ @ @ @ @ @ @ @ @ @ @ @ # # $ $ @ @ @ @ @ @ @ @ @ @ @ @ @ @ @ @ @ @ @ @ @ @ @ @ @ @ @ @ @ @ @ @ @ @ @ @ @ @ @ @ @ @ @ @ @ @ @ @ @ @ @ @ @ @ @ @ @ @ @ @ ",
"  % # @ @ @ @ @ @ @ @ @ @ @ @ @ @ @ $ $ $ $ & & * * @ @ @ @ @ @ @ @ @ @ @ @ @ @ @ @ @ @ @ @ @ @ @ @ @ @ @ @ @ @ @ @ @ @ @ @ @ @ @ @ @ @ @ @ @ @ @ @ @ @ @ @ @ @ @ @ @ @ @ @ ",
"  % @ @ @ @ @ @ @ @ @ @ @ @ = = - - ; > , ' ) ) @ @ @ @ @ @ @ @ @ @ @ @ @ @ @ @ @ @ @ @ @ @ @ @ @ @ @ @ @ @ @ @ @ @ @ @ @ @ @ @ @ @ @ @ @ @ @ @ @ @ @ @ @ @ @ @ @ @ @ @ @ @ ",
"  # @ @ @ @ @ @ @ @ @ $ ! ~ { ] & & = ^ / # @ @ @ @ @ @ @ @ @ @ @ @ @ @ @ @ @ @ @ @ @ @ @ @ @ @ @ @ @ @ @ @ @ @ @ @ @ @ @ @ @ @ @ @ @ @ @ @ @ @ @ @ @ @ @ @ @ @ @ @ @ @ @ $ ",
"  ( _ _ _ _ _ _ _ _ _ : < [ } | = = _ 1 _ _ _ $ @ 1 _ _ _ _ _ _ _ _ _ _ 2 @ @ @ @ / _ _ _ _ @ @ @ @ @ @ 2 _ _ _ _ _ _ _ _ _ _ _ _ 1 1 _ _ _ _ _ _ _ _ _ _ _ _ _ _ _ _ _ : 3 ",
"  ( = = = = = = = = = 4 [ 4 5 = - 1 6 = = = = 6 ' 7 = = = = = = = = = = = ' ' ' ' 7 = = = = 6 : @ @ - ' = = = = = = = = = = = = = 7 7 = = = = = = = = = = = = = = = = = 8 9 ",
"  ( = = = = = = = = ! [ 0 a | b c = = = = = = = = = = = = = = = = = = = = = = = = = = = = = = = = = = = = = = = = = = = = = = = = = = = = = = = = = = = = = = = = = = = , 9 ",
"  ( = = = = = = = | { [ ] ; b = = = = = = = = = = = = = = = = = = = = = = = = = = = = = = = = = = = = = = = = = = = = = = = = = = = = = = = = = = = = = = = = = = = = = , 9 ",
"  ( = = = = = = = | < d b > = = = = = = = = = = = = = = = = = = = = = = = = = = = = = = = = = = = = = = = = = = = = = = = = = = = = = = = = = = = = = = = = = = = = = = , 9 ",
"  ( = = = = = = = | { e & = = = = = = = = = = = = = = = = = = = = = = = = = = = = = = = = = = = = = = = = = = = = = = = = = = = = = = = = = = = = = = = = = = = = = = = ( d ",
"  ( = = = = | ( 7 d 3 | = = = = = = = = = = = = = = = = = = = = = = = = = = = = = = = = = = = = = = = = = 8 | = = = = = = = = = = = = = = = = = = = = = = = = = = = = = b f ",
"  ( = = = = ( > = e & = = = = = = = = = = = = = = = = = = = = = = = = = = = = = = = = = = = = = = = = = = = 8 = = = = = = = = = = = = & , = = = = = = = = = = = = = = | g f ",
"  ( = = | ( > > ( | = = | = | & & & > | = = = = = | , 8 ( | = = = | = & = | & ( | = = = = = = | = = = = = 5 b = & & & = = 8 & = = = & > = , = = = = | = = = & = | = | > ! f ",
"  ( & ; ( > > > b = & ; ( ; ( > > > | = = = = 8 ( ( > > > ( ; ; ; ( ; > ; ( > ( ; & = = = & ; ( ; , = & ; a ! ; > > > ; ; ; = | ; ( > ; ; , = | ; ( ( ; ; ; > ( ( ; ( > ! f ",
"  > > > > > > > = ( > > > > > > b , & & , > > > > > > > > > > > > > > > > > > > & & > > > > > > > > > > 3 < e > > > > > > > > > b 5 5 5 5 b > > > > > > > > > > > > > > g f ",
"  > 3 3 3 3 3 3 g 3 3 3 3 3 3 3 9 3 3 3 3 3 3 3 3 3 3 3 3 3 3 3 3 3 3 3 3 3 3 3 3 3 3 3 3 3 3 3 3 3 3 ] f [ [ 3 3 3 3 3 3 3 3 3 e e e e e e 3 3 3 3 3 3 3 3 3 3 3 3 3 3 e f ",
"  0 [ [ [ [ [ [ [ [ [ [ [ [ [ [ [ [ [ [ [ [ [ [ [ [ f { { { { { { { { { { { f 0 h 0 [ [ [ 0 h 0 f { { i e e e { { { { { f [ [ [ [ [ [ [ [ [ [ [ [ [ [ [ [ [ [ [ [ [ [ [ [ [ ",
"      ' ' ' ' ' ' ' ' ' ' ' ' ' ' ' ' ' ' ' ' ' ' ' = e e e e e e e e e e e h j ] ~ 4 [ 4 ~ ] j h e e e e e e e e e e e = ' ' ' ' ' ' ' ' ' ' ' ' ' ' ' ! b e a - ' - h     ",
"      g k ^ l @ @ @ @ @ @ @ 1 @ @ @ @ @ @ @ @ @ @ 1 { e e 9 3 3 3 3 3 3 3 3 h i ] i e h e 4 a i h 9 3 ! > > > 9 3 3 3 3 9 k ^ ^ ^ @ @ @ @ @ @ @ @ @ @ @ @ > m @ @ @ / h     ",
"      9 - m ' - ' - m m m 7 c m : c m m c @ m m | g { e 9 b > > > > > > > > d e g 3 > e > ! 5 e d b > > > > > > > > > > 3 ' _ _ _ m m m m m m c : m m m m - ; - m - ! f     ",
"      9 = ( > > = = = ( | ; 2 = = = > , = = = = 5 e { e > > > > > > > > > > d e 5 ! n o p ! 5 e d > > > > > > > > > > > 3 = | = = = = = = 8 | = 8 | ; = = = ; g | , e f     ",
"      9 = ( > > ; | , > ; q 6 | = = > > = = = , 5 e { e > > > > > > > 5 ~ r s e 5 ! t u v ! 5 e s r ~ 5 > > > > > > > > 3 = ; = = = = | ; 8 ( 8 8 > > 8 = | > 3 8 b e f     ",
"      9 = ( > > > | , > ; = , > = = > > ; ; > > 5 e { e > > > > b e { r ! & ( d 5 ! w x w ! 5 d ( & ! r { e b > > > > > 3 = ; ; = = = , > > > ( > > > > , | b ! 8 b e f     ",
"      9 = ( > > > ; ; > > ; > > , = > > ( ( > > 5 e { e > > > 5 r 9 8 8 ] i y z b ! g > g ! b z y i ] 8 8 9 r 5 > > > > 3 = ; > & = , > > > > > ; > > > > ; g | > b e f     ",
"      9 = ( > > > > > > > > > > > > > > > > > > 5 e { e > b } d 8 g [ < A B B B < 4 g 9 g 4 < B B B A < [ g 8 d } b > > 3 = ; > > > > > > > > g 8 > > > > > ! & > b e f     ",
"      9 & > > > > > > > > > > > > > > > > > > > 5 e { e b 4 5 ( d y B B B B B B B C D 4 D C B B B B B B B y d ( 5 4 b > 3 = ; > > > > > > > > g 8 > > > > b ; > > b e f     ",
"      e b b b b b b b b b b b b b b b b b b b b ! a { e s 5 s < A B B A C z [ D C B B B B B C D [ [ < C B B A < s 5 s > 3 8 b b b b b b b b 3 ; b b b b b 9 ; b b 5 a f     ",
"      e e e e e e e e e e e e e e e e e e e e e a j { i ! s y B B B D E [ [ [ [ [ z B B B z [ [ [ [ [ [ z z A B y s ! 4 i e e e e e e e e e e i 9 e e e 4 a 9 e e a ~ f     ",
"      f 0 { { { { { { h h { { { { { { h h f f f f [ [ b s y B B F [ [ [ [ [ [ [ [ [ [ < [ [ [ [ [ [ [ [ [ [ < A B y s b [ f h { { { { { { { h h { { { { { { h h h f [ [     ",
"      [ j g g g g g a j ~ 4 4 } ! s i j j 0 [ [ [ [ r ( E B B y [ [ [ [ [ [ [ [ [ [ [ G f [ [ [ [ [ [ [ [ [ D < A B E ( r d e g g g g g g g 9 e 3 ! ] 4 4 4 ~ j j [ [ [     ",
"      [ [ s 9 ! ! ! ! a e ! ! a i 4 ] ] [ [ [ [ [ f a d A B B H [ [ [ [ [ [ [ [ [ [ h I J < [ [ [ [ [ [ [ H [ ~ < A A d a f } e ! g ] e ! ! ! ! ! a ] ] ] ] d [ [ [ [ [     ",
"          8 ~ ~ ~ ~ ~ ~ ] s s s ] ] ~ ~ g } [ [ [ } d A B B z [ < H [ [ [ [ [ [ [ [ h K L < [ [ [ [ [ [ [ [ r [ [ < A A d } [ 0 ~ ~ e ~ ~ s s s s s ] ~ ~ 9 ~ j [ [ [       ",
"          / a 3 ( 9 > > , , ; ; , 8 > > 3 ; s [ { a H B B z [ < y i f [ [ [ [ [ [ [ h M N < [ [ [ [ [ [ [ [ [ [ [ [ < B H a r a 9 ; 9 > > 8 , ; ; , 8 > > 3 e 9 j [ [       ",
"          / g > 5 > b _ @ @ q c @ _ 7 > > ! ( j { d B B A E [ z ~ h [ [ [ [ [ O P P Q R S T U < [ [ [ [ [ [ [ [ [ [ [ y B d b 3 > ! > > c _ @ c q @ 2 ' > > 5 > ! ~ [       ",
"          $ ( b > > c c c | _ 2 = = m | > > 5 e [ V B B F [ [ [ f [ [ [ [ [ W X Y Z `  ...+.@.#.[ [ [ [ [ [ [ [ [ [ [ H B y g 8 5 > > ' 2 _ & 2 _ 7 = ' 6 > > b ( a <       ",
"          $ 5 > > _ / c 5 | & c m ; = q 6 > b 9 < C B B [ [ [ [ [ [ [ [ [ $.%.&.P *.P =.-.U ;.>.,.< [ [ [ [ [ [ [ [ [ [ F A > b b > q $ : b , 8 : q 8 = m ' > > b a <       ",
"          / 3 > ( / : ! 7 ' ( & _ g 5 = 5 ( > 3 E B B z [ [ [ [ [ [ [ [ '.).!.~.C < y d h A y {.].^.[ [ [ [ [ [ [ [ [ [ F /.b 3 > > _ _ b & m 8 8 2 b ! = 5 ( > g ] <       ",
"          $ ! > q ' ; > 2 = 3 3 = g 5 , m | > ! E B F [ [ [ [ [ [ [ [ H { (._.! D F C < V C d e :.<.z [ [ [ [ [ [ [ [ [ [ /.b ! > | - , 5 1 = 3 3 | 5 b ; 6 ' > 5 a <       ",
"          $ > > 6 1 5 > : = ! g 7 g 5 b q b > > E B F [ [ [ [ [ [ [ < D z j C < 4 d y { < s [ z < z E V [ [ [ [ [ [ [ [ [ /.> > > | / b 5 2 7 g ! = 5 b 5 : 5 > > a <       ",
"          $ b > , , 7 = ! - : c 7 g - ' > 5 > > E B [ [ [ [ [ [ [ [ E z F { f C B < F < [ C y D [ D E V [ [ [ [ [ [ [ [ [ /.- > > 8 & ' - ! 6 c : ' g q = ; ! > > a <       ",
"          @ - > > g & 2 ( 3 , 8 g ; 1 , g > > & E B [ [ [ [ [ [ [ [ E D C [ [ D C f F 0 [ V E D [ D E V [ [ [ [ [ [ [ [ [ /.- c > > g , 1 ; g 8 , 3 ( / & g > > m e <       ",
"          @ q > > ! | & $ > g g b l & , ! > > & E H [ [ [ [ [ [ [ [ E z 0 H f 0 f V A D V E 0 0 D 0 f f h [ [ [ [ [ [ [ [ /.- _ > > ! , & l b g g > $ & | ! > > q e <       ",
"          $ q 8 > > 5 _ c | > > ' ' : g > > & ; E H [ [ [ [ [ [ [ [ E d V F y y y F A D F F y y F y } D [ [ [ [ [ [ [ [ [ /.- m & > > g : ' ' > > | c _ 5 > > 8 c a <       ",
"          $ - ' > > ! ; q c > > c q > 5 > > - > E H [ [ [ [ [ [ [ [ E [ C E D [ F r F D ~ D { F z D { f 0 [ [ [ [ [ [ [ H /.- 6 - > > 5 > q c > > c q ; ! > > ' - a <       ",
"          $ | 1 > > > g & / ( ; 1 , g > > ( 2 ! E H [ [ [ [ [ [ [ [ E H C V H H A C A C C A f y C D [ f 0 [ [ [ [ [ [ [ F /.- = 2 ( > > g , 1 ; ( / & g > > > 1 = a <       ",
"          $ = = = > > g = & $ ^ | & ! > > 2 = ! E H [ [ [ [ [ [ [ [ < D V F [ 4 F z d f H F s [ C D D [ 0 [ [ [ [ [ [ [ F /.- = = 6 > > g & | ^ $ & = ! > > c 7 = a <       ",
"          $ = ! b > m / ! _ q ' : g ; & > 8 b ! E H [ [ [ [ [ [ [ [ [ < y y C V C r F y ~ V V y A D < ~ [ [ [ [ [ [ [ [ F /.- = b b > 7 @ g : ' q _ 5 b 7 > ; 5 = a <       ",
"          $ ( b b m $ 7 8 ( _ q b & 6 : | > 5 e E H [ [ [ [ [ [ [ [ [ [ < D V < [ [ C D < [ [ D z < i [ [ [ [ [ [ [ [ [ C /.- 8 5 > ' # 7 & b 2 q ( 8 7 : 7 > b ( a <       ",
"          $ g > q : : b | 5 1 , ! = > _ m & > 3 E H [ [ [ [ [ [ [ [ [ [ [ < y D C F C D C F F D < i [ [ [ [ [ [ [ [ [ [ E /.- g > 7 2 _ > = ! $ & g | b : - 7 > ! a <       ",
"          $ ! > ' 6 ; b ! [.' & g ! ( | 6 8 > ! E H [ [ [ [ [ [ [ [ [ [ [ [ < D E ~ H F H j H y ] [ [ [ [ [ [ [ [ [ [ [ [ /.- g > | - , 5 ! # 6 7 3 5 > | 7 & > ! a <       ",
"          @ ' > > | ; b | - : g ! b = - 8 5 > , E H [ [ [ [ [ [ [ [ [ [ [ [ V f ~ F j f y } y h 0 [ [ [ [ [ [ [ [ [ [ [ [ /.- q > > & , 5 , m _ 5 5 5 , q & ! > - e <       ",
"          @ q ( 5 ; : _ : _ > ! 6 _ : _ ( b ; , E H [ [ [ [ [ [ [ [ [ [ [ E E E [ V j h V r V E H [ [ [ [ [ [ D y { [ [ [ /.- c ; b ( _ : _ : ( ! 7 : _ : ; 5 ( q e <       ",
"          $ q 8 > b ; = 7 b 3 b ( 7 7 > b > | ; E H [ [ [ [ [ [ [ [ [ [ [ V f H [ V ~ h V j < z F [ [ [ [ [ [ y f 4 [ [ [ /.- - | > b > 7 7 ( 9 b b 7 = ; b > 8 c a <       ",
"          $ | : , > 5 3 5 ; g & b 9 3 b > & : ! E H [ [ [ [ [ [ [ [ [ [ < h y r [ V 0 H y r [ D ~ y [ [ [ [ [ { } [ [ [ [ /.- = : & > b 3 g ; g , > 9 3 5 > , : = a <       ",
"          $ = = > > > ( : _ ( , c c > > > 7 = ! E H [ [ [ [ [ [ [ [ [ [ < D C [ [ V } H C [ [ D E V [ [ [ [ [ [ [ [ [ [ [ /.- = = ( > > > : _ 8 ; : m ( > > = = = a <       ",
"          $ = 3 > > > | c & 3 3 | : , > > > , ! E H [ E D 0 [ [ [ [ [ [ y < i [ [ V E D F j [ [ F h < [ [ [ [ [ [ [ [ [ [ /.- = ! > > > , : | 3 3 & c | > > > , = a <       ",
"          $ ; 5 > > > 2 & 5 b b > , _ > > > 5 9 E H [ E 4 f [ [ [ [ [ D r A F F y V ~ V C z F F A [ D [ [ [ [ [ [ [ [ [ [ /.- , 5 > > > _ , > b b 5 & 2 > > > 5 8 a <       ",
"          $ b b > > 6 7 - 3 > > g c ' & > > b e E H [ [ [ [ [ [ [ [ [ H H A ] { C D E D C D i d C V H E [ [ [ [ [ [ [ [ [ /.- ( b > > & ' c g > > 3 - 7 6 > > b > a <       ",
"          / 3 > > ( c c 5 b > > 5 > c c > > > 3 E H [ [ [ [ [ [ [ [ E < C V 0 A B A ~ V A C C [ y D 0 y [ [ [ [ [ [ [ [ [ B i 3 > > > c c > 5 > > b 5 c c ( > > g ] <       ",
"          e ! > > & c & 3 > 6 | > 3 & : , > > g E H [ [ [ [ [ [ [ [ y < s y H H i 4 E y H { < 4 F [ F h E [ [ [ [ [ [ [ [ B E g > > , : & 3 > 7 | > 3 & c & > > ! ] <       ",
"          e > > b 1 | 5 5 $ _ m - 5 > , _ > > > E H [ [ [ [ [ [ [ [ C y h y j ~ ~ 0 j ~ ~ h r z C [ C z < [ [ [ [ [ [ [ [ B E > > > _ , > 5 2 : - q 5 5 | 1 b > > a <       ",
"          e > > 6 7 - 3 c c q : q 7 3 c ' | > > E H [ [ [ [ [ [ [ y ~ h f y i A A V z V D A C z F [ < V C [ [ [ [ [ [ [ [ B E > > | ' c 3 ' 2 : q m ' 3 - 7 6 > > a <       ",
"          e > > 6 : 5 > 2 - ! 5 ' 1 5 > 2 | > > E H [ [ [ [ [ [ < h z { [ V < < F h d h d D [ s y [ [ D z z [ [ [ [ [ [ [ B E > > | 2 > 5 1 ' 5 ! - 2 > 5 : 6 > > a <       ",
"          e > > ' & ( b b = 3 > = ! 5 8 | & > > E H [ [ [ [ [ [ E E F V D C D D D y D y D y F V C y D V < V 4 [ [ [ [ [ [ B E > > | 7 8 5 ! = 3 > = b b ( , = > > a <       ",
"          3 6 > 8 > ' m ! & ' : c g ! m 5 b > 8 E H [ [ [ [ [ j C D y H E F < < E z < z E z y H y z < H y C j [ [ [ [ [ [ B E - > ; ( m - 5 , = _ : 5 g ' b b > 6 j [       ",
"          3 q > > 3 = m q 8 l _ ! 3 m , g > > & E H [ [ [ [ [ ~ 4 j s s 0 s s s } < } ] s s } r 0 s 0 j 4 s s [ [ [ [ [ [ B E _ > > g , m : > ^ : b 9 ' = 3 > > q h [       ",
"          9 c ; > > g = : 2 c 5 b c & ! > > , 8 E H [ [ [ [ [ [ [ [ [ [ [ [ [ [ [ [ [ h [ [ [ [ [ [ [ [ [ [ [ [ [ [ [ [ [ B E q , > > ! & : q : > 5 m = g > > ; c 0 [       ",
"          9 q | > > > 3 ; & 5 5 & ( g > > > 7 > E H [ [ [ [ [ [ [ [ [ [ [ [ [ [ [ [ [ [ [ [ [ [ [ [ [ [ [ [ [ [ [ [ [ [ < B E - 7 > > > g ( & b ! & ; 3 > > > | q 0 [       ",
"          9 = m 7 > > > ! ! 5 5 ! ! > > b ' ' r H H [ [ [ [ [ [ [ [ [ [ [ [ [ [ [ [ [ [ [ [ [ [ [ [ [ [ [ [ [ [ [ [ [ [ C B E = - ' b > > ! ! 5 5 ! ! > > > 7 m 8 f [       ",
"        * 9 = = m 1 8 8 > > > > > > 8 , / ' ; { E A < [ [ [ [ [ [ [ [ [ [ [ [ [ [ [ [ [ [ [ [ [ [ < y 0 [ [ [ [ [ [ [ [ E A < = = ' / , 8 > > > > > > 8 8 1 m & a f [       ",
"      }.@ - 5 5 5 5 & | g g g g g g = ' 8 > ] f a f A E [ [ [ [ [ [ [ [ [ [ [ [ [ [ [ [ [ [ [ [ [ D [ 4 [ [ [ [ [ [ [ E B | = 5 5 5 5 & & g g g b ( ' q = b ( 5 0 f ~ E     ",
"      = c @ $ $ q : $ ( ! ! ! ; 8 8 8 8 3 { { 3 ( : E z [ [ [ [ [ [ [ [ [ [ [ [ [ [ [ [ [ [ [ [ [ z f ~ < [ [ [ [ [ [ D ' / @ $ $ $ $ $ $ 8 8 8 8 ; , 2 , > s { h 5 , h     ",
"    = = ' @ @ @ # c c # # # # # # # # # q q q q : - d /.[ [ [ [ [ [ [ [ [ [ [ [ [ [ [ [ [ [ [ [ [ [ r H D r [ [ [ [ [ H 6 , $ @ @ @ @ @ @ # # # # $ ( & : q q q q q | i <   ",
"  = = = = ! 7 7 7 = & ' 7 7 7 7 7 7 7 7 7 7 7 7 & r s F < [ [ [ [ [ [ [ [ [ [ [ [ [ [ [ [ [ [ [ [ [ [ < 4 [ [ [ [ [ F ~ = = 5 7 7 7 7 7 7 7 7 7 7 7 b e ; 2 7 7 7 | ~ a j [ ",
"  = = = , ( = = = = & ' = = = = = = = = = = = = | ] ~ [ C [ [ [ [ [ [ [ [ [ [ [ [ [ [ [ [ [ D [ [ [ [ [ [ [ [ [ [ E A 7 = & ( = = = = = = = = = = = 8 e a | = = = | e ~ s f ",
"  = = = ( | = = = 5 ; & = = = = = = = = = = = = = b d d F [ [ [ E z [ [ [ [ [ [ [ [ < [ [ [ C [ [ [ [ < [ [ [ [ [ D b = = ; , = = = = = = = = = = = = e 6 = = = = = ( { e f ",
"  = = | b = = = ( & ; & = = = = = = = = = = = = = = s [ A E [ [ E z < E [ [ [ H [ [ C [ [ [ C [ [ [ [ y [ [ [ [ [ /.( = = ! = = = = = = = = = = = = = e ; = = = = = = e ~ f ",
"  = = & > = = | b = = ! = = = = = = = = = = = = = = ] [ B B < < < < E z F < [ < [ < A D < [ C < F [ < y < [ < < F /.( = | 5 = = = = = = = = = = = = = , ; = = = = = = 9 ~ f ",
"  ( 7 3 7 = = ( 8 = 7 g = = = = = = = = = = = = = = ; [ B B A C B y A C B B V /.V B B B B F B B B F B B B D A B B /.3 7 g 7 = = = = = = = = = = = = = | & = = = = = = | j [ ",
"  e 9 e 9 9 9 d 3 9 3 d b 9 9 9 9 9 9 9 9 9 e e e e s [ B A A A A A A B B B C C C C C B B B B C C C C C A A B C A B 4 9 e 9 9 9 9 9 9 9 9 9 9 9 9 9 9 9 9 9 e e e e e a [ [ ",
"  e e e e e j a ~ ~ ~ 0 } ~ ~ ~ ~ ~ ~ ~ ~ ~ [ [ [ [ [ [   f [ [ h s } } 9 9 e s ~ i ~ <   3 e j 9 9 9 4 f a ( e i [ [ e e e e e e e e e 4 ~ ~ ~ ~ ~ ~ ~ ~ j < [ [ [ [ [ [ [ ",
"    e e e a j a [ [ [ [ [ [ [ [ [ [ [ [ [ [ [ [ [ [ [           9 > > b b b e a ] z [ e b > 9 9 9 e e e b > > ! e a h 5 e e e e e e e e d [ [ [ [ [ [ [ [ [ [ [ [ [ [ [ [   "};
