/* XPM */
static char * door3_xpm[] = {
"86 82 83 1",
" 	c #000000",
".	c #8C8C8C",
"+	c #868686",
"@	c #7F7F7F",
"#	c #808080",
"$	c #7E7E7E",
"%	c #8A8A8A",
"&	c #6F6F6F",
"*	c #898989",
"=	c #717171",
"-	c #757575",
";	c #6C6C6C",
">	c #6A6A6A",
",	c #6E6E6E",
"'	c #747474",
")	c #878787",
"!	c #676767",
"~	c #5C5C5C",
"{	c #585858",
"]	c #616161",
"^	c #828282",
"/	c #7D7D7D",
"(	c #6B6B6B",
"_	c #7A7A7A",
":	c #797979",
"<	c #535353",
"[	c #545454",
"}	c #5F5F5F",
"|	c #707070",
"1	c #7C7C7C",
"2	c #7B7B7B",
"3	c #656565",
"4	c #5E5E5E",
"5	c #686868",
"6	c #737373",
"7	c #727272",
"8	c #6D6D6D",
"9	c #646464",
"0	c #565656",
"a	c #626262",
"b	c #696969",
"c	c #787878",
"d	c #595959",
"e	c #636363",
"f	c #555555",
"g	c #666666",
"h	c #575757",
"i	c #5D5D5D",
"j	c #5B5B5B",
"k	c #858585",
"l	c #818181",
"m	c #767676",
"n	c #716D6B",
"o	c #9D7166",
"p	c #716B6B",
"q	c #777777",
"r	c #5A5A5A",
"s	c #606060",
"t	c #866F6C",
"u	c #FF3F00",
"v	c #866C6C",
"w	c #CC8853",
"x	c #827167",
"y	c #4D4D4D",
"z	c #505050",
"A	c #CB6951",
"B	c #856F6B",
"C	c #4A4A4A",
"D	c #494949",
"E	c #676868",
"F	c #CB804F",
"G	c #86736B",
"H	c #4B4B4B",
"I	c #4F4F4F",
"J	c #965B5C",
"K	c #675A5A",
"L	c #525252",
"M	c #4C4C4C",
"N	c #515151",
"O	c #4E4E4E",
"P	c #484848",
"Q	c #838383",
"R	c #888888",
" .+@@@@@@@@@@@@@@@@@@@##$$@@@@@@@@@@@@@@@@@@@@@@@@@@@@@@@@@@@@@@@@@@@@@@@@@@@@@@@@@@@@",
" %#@@@@@@@@@@@@@@@$$$$&&**@@@@@@@@@@@@@@@@@@@@@@@@@@@@@@@@@@@@@@@@@@@@@@@@@@@@@@@@@@@@",
" %@@@@@@@@@@@@==--;>,'))@@@@@@@@@@@@@@@@@@@@@@@@@@@@@@@@@@@@@@@@@@@@@@@@@@@@@@@@@@@@@@",
" #@@@@@@@@@$!~{]&&=^/#@@@@@@@@@@@@@@@@@@@@@@@@@@@@@@@@@@@@@@@@@@@@@@@@@@@@@@@@@@@@@@@$",
" (_________:<[}|==_1___$@1__________2@@@@/____@@@@@@2____________11_________________:3",
" (=========4[45=-16====6'7===========''''7====6:@@-'=============77=================89",
" (========![0a|bc===================================================================,9",
" (=======|{[];b=====================================================================,9",
" (=======|<db>======================================================================,9",
" (=======|{e&=======================================================================(d",
" (====|(7d3|=========================================8|=============================bf",
" (====(>=e&===========================================8============&,==============|gf",
" (==|(>>(|==|=|&&&>|=====|,8(|===|=&=|&(|======|=====5b=&&&==8&===&>=,====|===&=|=|>!f",
" (&;(>>>b=&;(;(>>>|====8((>>>(;;;(;>;(>(;&===&;(;,=&;a!;>>>;;;=|;(>;;,=|;((;;;>((;(>!f",
" >>>>>>>=(>>>>>>b,&&,>>>>>>>>>>>>>>>>>>>&&>>>>>>>>>>3<e>>>>>>>>>b5555b>>>>>>>>>>>>>>gf",
" >333333g333333393333333333333333333333333333333333]f[[333333333eeeeee33333333333333ef",
" 0[[[[[[[[[[[[[[[[[[[[[[[[f{{{{{{{{{{{f0h0[[[0h0f{{ieee{{{{{f[[[[[[[[[[[[[[[[[[[[[[[[[",
"   '''''''''''''''''''''''=eeeeeeeeeeehj]~4[4~]jheeeeeeeeeee='''''''''''''''!bea-'-h  ",
"   gk^l@@@@@@@1@@@@@@@@@@1{ee933333333hi]iehe4aih93!>>>933339k^^^@@@@@@@@@@@@>m@@@/h  ",
"   9-m'-'-mmm7cm:cmmc@mm|g{e9b>>>>>>>>deg3beb!5edb>>>>>>>>>>3'___mmmmmmc:mmmm-;-m-!f  ",
"   9=(>>===(|;2===>,====5e{e>>>>>>>>>>de5!nop!5ed>>>>>>>>>>>3=|======8|=8|;===;g|,ef  ",
"   9=(>>;|,>;q6|==>>===,5e{e>>>>>>>5~rse5gtuvg5esr~5>>>>>>>>3=;====|;8(88>>8=|>38bef  ",
"   9=(>>>|,>;=,>==>>;;>>5e{e>>>>be{r!&(d5!(wx!5d(&!r{eb>>>>>3=;;===,>>>(>>>>,|b!8bef  ",
"   9=(>>>;;>>;>>,=>>((>>5e{e>>>5r988]iyzb!!ABgbzyi]889r5>>>>3=;>&=,>>>>>;>>>>;g|>bef  ",
"   9=(>>>>>>>>>>>>>>>>>>5e{e>b}d8g[<CDDD<4EFG4<DDDC<[g8d}b>>3=;>>>>>>>>g8>>>>>!&>bef  ",
"   9&>>>>>>>>>>>>>>>>>>>5e{eb45(dyDDDDDDDHIJKHDDDDDDDyd(54b>3=;>>>>>>>>g8>>>>b;>>bef  ",
"   ebbbbbbbbbbbbbbbbbbbb!a{es5s<CDDCHz[IHDDCDDHI[[<HDDC<s5s>38bbbbbbbb3;bbbbb9;bb5af  ",
"   eeeeeeeeeeeeeeeeeeeeeaj{i!syDDDIL[[[[[zDDDz[[[[[[zzCDys!4ieeeeeeeeeei9eee4a9eea~f  ",
"   f0{{{{{{hh{{{{{{hhffff[[bsyDDM[[[[[[[[[[[[[[[[[[[[[<CDysb[fh{{{{{{{hh{{{{{{hhhf[[  ",
"   [jgggggaj~44}!sijj0[[[[r(LDDy[[[[[[[[[[[[[[[[[[[[[[I<CDL(rdeggggggg9e3!]444~jj[[[  ",
"   [[s9!!!!ae!!ai4]][[[[[fadCDDN[[[[[[[[[[[[[[[[[[[[[N[~<CCdaf}e!g]e!!!!!a]]]]d[[[[[  ",
"     8~~~~~~]sss]]~~g}[[[}dCDDz[<N[[[[[[[[[[[[[[[[[[[[r[[<CCd}[0~~e~~sssss]~~9~j[[[   ",
"     /a3(9>>,,;;,8>>3;s[{aNDDz[<yif[[[[[[[[[[[[[[[[[[[[[[[<DNara9;9>>8,;;,8>>3e9j[[   ",
"     /g>5>b_@@qc@_7>>!(j{dDDCL[z~h[[[[[NOOOOOOI[[[[[[[[[[[[yDdb3>!>>c_@cq@2'>>5>!~[   ",
"     $(b>>ccc|_2==m|>>5e[ODDM[[[f[[[[[Lh4df0id<I[[[[[[[[[[[NDyg85>>'2_&2_7='6>>b(a<   ",
"     $5>>_/c5|&cm;=q6>b9<HDD[[[[[[[[[Nh{I<M<fOIII[[[[[[[[[[[MC>bb>q$:b,8:q8=m'>>ba<   ",
"     /3>(/:!7'(&_g5=5(>3LDDz[[[[[[[[L{yyHNy0[CMHNO[[[[[[[[[[MPb3>>__b&m882b!=5(>g]<   ",
"     $!>q';>2=33=g5,m|>!LDM[[[[[[[[Nhhy4IMH<OH{dO<z[[[[[[[[[[Pb!>|-,51=33|5b;6'>5a<   ",
"     $>>615>:=!g7g5bqb>>LDM[[[[[[[<IzjH<4dy{<s[z<zLO[[[[[[[[[P>>>|/b527g!=5b5:5>>a<   ",
"     $b>,,7=!-:c7g-'>5>>LD[[[[[[[[LzM{fHD<M<[HyI[ILO[[[[[[[[[P->>8&'-!6c:'gq=;!>>a<   ",
"     @->>g&2(3,8g;1,g>>&LD[[[[[[[[LIH[[IHfM0[OLI[ILO[[[[[[[[[P-c>>g,1;g8,3(/&g>>me<   ",
"     @q>>!|&$>ggbl&,!>>&LN[[[[[[[[Lz0Nf0fOCIOL00I0ffh[[[[[[[[P-_>>!,&lbgg>$&|!>>qe<   ",
"     $q8>>5_c|>>'':g>>&;LN[[[[[[[[LdOMyyyMCIMMyyMy}I[[[[[[[[[P-m&>>g:''>>|c_5>>8ca<   ",
"     $-'>>!;qc>>cq>5>>->LN[[[[[[[[L[HLI[MrMI~I{MzI{f0[[[[[[[NP-6->>5>qc>>cq;!>>'-a<   ",
"     $|1>>>g&/(;1,g>>(2!LN[[[[[[[[LNHONNCHCHHCfyHI[f0[[[[[[[MP-=2(>>g,1;(/&g>>>1=a<   ",
"     $===>>g=&$^|&!>>2=!LN[[[[[[[[<IOM[4MzdfNMs[HII[0[[[[[[[MP-==6>>g&|^$&=!>>c7=a<   ",
"     $=!b>m/!_q':g;&>8b!LN[[[[[[[[[<yyHOHrMy~OOyCI<~[[[[[[[[MP-=bb>7@g:'q_5b7>;5=a<   ",
"     $(bbm$78(_qb&6:|>5eLN[[[[[[[[[[<IO<[[HI<[[Iz<i[[[[[[[[[HP-85>'#7&b2q(87:7>b(a<   ",
"     $g>q::b|51,!=>_m&>3LN[[[[[[[[[[[<yIHMHIHMMI<i[[[[[[[[[[LP-g>72_>=!$&g|b:-7>!a<   ",
"     $!>'6;b!Q'&g!(|68>!LN[[[[[[[[[[[[<IL~NMNjNy][[[[[[[[[[[[P-g>|-,5!#6735>|7&>!a<   ",
"     @'>>|;b|-:g!b=-85>,LN[[[[[[[[[[[[Of~Mjfy}yh0[[[[[[[[[[[[P-q>>&,5,m_555,q&!>-e<   ",
"     @q(5;:_:_>!6_:_(b;,LN[[[[[[[[[[[LLL[OjhOrOLN[[[[[[Iy{[[[P-c;b(_:_:(!7:_:;5(qe<   ",
"     $q8>b;=7b3b(77>b>|;LN[[[[[[[[[[[OfN[O~hOj<zM[[[[[[yf4[[[P--|>b>77(9bb7=;b>8ca<   ",
"     $|:,>535;g&b93b>&:!LN[[[[[[[[[[<hyr[O0Nyr[I~y[[[[[{}[[[[P-=:&>b3g;g,>935>,:=a<   ",
"     $==>>>(:_(,cc>>>7=!LN[[[[[[[[[[<IH[[O}NH[[ILO[[[[[[[[[[[P-==(>>>:_8;:m(>>===a<   ",
"     $=3>>>|c&33|:,>>>,!LN[LI0[[[[[[y<i[[OLIMj[[Mh<[[[[[[[[[[P-=!>>>,:|33&c|>>>,=a<   ",
"     $;5>>>2&5bb>,_>>>59LN[L4f[[[[[IrCMMyO~OHzMMC[I[[[[[[[[[[P-,5>>>_,>bb5&2>>>58a<   ",
"     $bb>>67-3>>gc'&>>beLN[[[[[[[[[NNC]{HILIHIidHONL[[[[[[[[[P-(b>>&'cg>>3-76>>b>a<   ",
"     /3>>(cc5b>>5>cc>>>3LN[[[[[[[[L<HO0CDC~OCHH[yI0y[[[[[[[[[Di3>>>cc>5>>b5cc(>>g]<   ",
"     e!>>&c&3>6|>3&:,>>gLN[[[[[[[[y<syNNi4LyN{<4M[MhL[[[[[[[[DLg>>,:&3>7|>3&c&>>!]<   ",
"     e>>b1|55$_m-5>,_>>>LN[[[[[[[[Hyhyj~~0j~~hrzH[Hz<[[[[[[[[DL>>>_,>52:-q55|1b>>a<   ",
"     e>>67-3ccq:q73c'|>>LN[[[[[[[y~hfyiCCOzOICHzM[<OH[[[[[[[[DL>>|'c3'2:qm'3-76>>a<   ",
"     e>>6:5>2-!5'15>2|>>LN[[[[[[<hz{[O<<MhdhdI[sy[[Izz[[[[[[[DL>>|2>51'5!-2>5:6>>a<   ",
"     e>>'&(bb=3>=!58|&>>LN[[[[[[LLMOIHIIIyIyIyMOHyIO<O4[[[[[[DL>>|785!=3>=bb(,=>>a<   ",
"     36>8>'m!&':cg!m5b>8LN[[[[[jHIyNLM<<Lz<zLzyNyz<NyHj[[[[[[DL->;(m-5,=_:5g'bb>6j[   ",
"     3q>>3=mq8l_!3m,g>>&LN[[[[[~4jss0sss}<}]ss}r0s0j4ss[[[[[[DL_>>g,m:>^:b9'=3>>qh[   ",
"     9c;>>g=:2c5bc&!>>,8LN[[[[[[[[[[[[[[[[[h[[[[[[[[[[[[[[[[[DLq,>>!&:q:>5m=g>>;c0[   ",
"     9q|>>>3;&55&(g>>>7>LN[[[[[[[[[[[[[[[[[[[[[[[[[[[[[[[[[[<DL-7>>>g(&b!&;3>>>|q0[   ",
"     9=m7>>>!!55!!>>b''rNN[[[[[[[[[[[[[[[[[[[[[[[[[[[[[[[[[[HDL=-'b>>!!55!!>>>7m8f[   ",
"    *9==m188>>>>>>8,/';{LC<[[[[[[[[[[[[[[[[[[[[[[<y0[[[[[[[[LC<=='/,8>>>>>>881m&af[   ",
"   R@-5555&|gggggg='8>]fafCL[[[[[[[[[[[[[[[[[[[[[I[4[[[[[[[LD|=5555&&gggb('q=b(50f~L  ",
"   =c@$$q:$(!!!;88883{{3(:Lz[[[[[[[[[[[[[[[[[[[[[zf~<[[[[[[I'/@$$$$$$8888;,2,>s{h5,h  ",
"  =='@@@#cc#########qqqq:-dP[[[[[[[[[[[[[[[[[[[[[[rNIr[[[[[N6,$@@@@@@####$(&:qqqqq|i< ",
" ====!777=&'777777777777&rsM<[[[[[[[[[[[[[[[[[[[[[[<4[[[[[M~==577777777777be;2777|~aj[",
" ===,(====&'============|]~[H[[[[[[[[[[[[[[[[[I[[[[[[[[[[LC7=&(===========8ea|===|e~sf",
" ===(|===5;&=============bddM[[[Lz[[[[[[[[<[[[H[[[[<[[[[[Ib==;,============e6=====({ef",
" ==|b===(&;&==============s[CL[[Lz<L[[[N[[H[[[H[[[[y[[[[[P(==!=============e;======e~f",
" ==&>==|b==!==============][DD<<<<LzM<[<[<CI<[H<M[<y<[<<MP(=|5=============,;======9~f",
" (737==(8=7g==============;[DDCHDyCHDDOPODDDDMDDDMDDDICDDP37g7=============|&======|j[",
" e9e999d393db999999999eeees[DCCCCCCDDDHHHHHDDDDHHHHHCCDHCD49e99999999999999999eeeeea[[",
" eeeeeja~~~0}~~~~~~~~~[[[[[[ f[[hs}}99es~i~< 3ej9994fa(ei[[eeeeeeeee4~~~~~~~~j<[[[[[[[",
"  eeeaja[[[[[[[[[[[[[[[[[[[     9>>bbbea]z[eb>999eeeb>>!eah5eeeeeeeed[[[[[[[[[[[[[[[[ "};
