/* XPM */
static char * door13_xpm[] = {
"86 82 139 2",
"  	c #000000",
". 	c #8C8C8C",
"+ 	c #868686",
"@ 	c #7F7F7F",
"# 	c #808080",
"$ 	c #7E7E7E",
"% 	c #8A8A8A",
"& 	c #6F6F6F",
"* 	c #898989",
"= 	c #717171",
"- 	c #757575",
"; 	c #6C6C6C",
"> 	c #6A6A6A",
", 	c #6E6E6E",
"' 	c #747474",
") 	c #878787",
"! 	c #676767",
"~ 	c #5C5C5C",
"{ 	c #585858",
"] 	c #616161",
"^ 	c #828282",
"/ 	c #7D7D7D",
"( 	c #6B6B6B",
"_ 	c #7A7A7A",
": 	c #797979",
"< 	c #535353",
"[ 	c #545454",
"} 	c #5F5F5F",
"| 	c #707070",
"1 	c #7C7C7C",
"2 	c #7B7B7B",
"3 	c #656565",
"4 	c #5E5E5E",
"5 	c #686868",
"6 	c #737373",
"7 	c #727272",
"8 	c #6D6D6D",
"9 	c #646464",
"0 	c #565656",
"a 	c #626262",
"b 	c #696969",
"c 	c #787878",
"d 	c #595959",
"e 	c #636363",
"f 	c #555555",
"g 	c #666666",
"h 	c #575757",
"i 	c #5D5D5D",
"j 	c #5B5B5B",
"k 	c #858585",
"l 	c #818181",
"m 	c #767676",
"n 	c #777777",
"o 	c #5A5A5A",
"p 	c #606060",
"q 	c #434245",
"r 	c #4C4C4D",
"s 	c #525152",
"t 	c #515151",
"u 	c #37353B",
"v 	c #35333A",
"w 	c #343239",
"x 	c #4F4F50",
"y 	c #575758",
"z 	c #424144",
"A 	c #333138",
"B 	c #3B3A3F",
"C 	c #454447",
"D 	c #515152",
"E 	c #36353B",
"F 	c #36343A",
"G 	c #414044",
"H 	c #413F43",
"I 	c #39373D",
"J 	c #333139",
"K 	c #3A383E",
"L 	c #39383D",
"M 	c #4E4E4F",
"N 	c #666667",
"O 	c #676768",
"P 	c #323037",
"Q 	c #737273",
"R 	c #838383",
"S 	c #5A5A5B",
"T 	c #444345",
"U 	c #454546",
"V 	c #3E3D40",
"W 	c #3D3C3F",
"X 	c #434244",
"Y 	c #35343A",
"Z 	c #3F3E41",
"` 	c #3E3D41",
" .	c #39373C",
"..	c #38373C",
"+.	c #424244",
"@.	c #474747",
"#.	c #3D3C40",
"$.	c #4A4A49",
"%.	c #484848",
"&.	c #494949",
"*.	c #3C3B3F",
"=.	c #353339",
"-.	c #38363C",
";.	c #484748",
">.	c #3A393D",
",.	c #424143",
"'.	c #4A4A4A",
").	c #505050",
"!.	c #4F4E4F",
"~.	c #464647",
"{.	c #3B3A3E",
"].	c #3B393E",
"^.	c #37363B",
"/.	c #444445",
"(.	c #504F50",
"_.	c #888888",
":.	c #515052",
"<.	c #49494B",
"[.	c #444446",
"}.	c #4D4D4E",
"|.	c #3F3F41",
"1.	c #4D4D4D",
"2.	c #4E4E4E",
"3.	c #494A49",
"4.	c #49484A",
"5.	c #4B4B4B",
"6.	c #515150",
"7.	c #525252",
"8.	c #403F42",
"9.	c #3A383D",
"0.	c #727172",
"a.	c #4B4B4C",
"b.	c #414043",
"c.	c #49494A",
"d.	c #4B4A4C",
"e.	c #4C4C4C",
"f.	c #3D3B40",
"g.	c #545355",
"h.	c #4F4F4F",
"  . + @ @ @ @ @ @ @ @ @ @ @ @ @ @ @ @ @ @ @ # # $ $ @ @ @ @ @ @ @ @ @ @ @ @ @ @ @ @ @ @ @ @ @ @ @ @ @ @ @ @ @ @ @ @ @ @ @ @ @ @ @ @ @ @ @ @ @ @ @ @ @ @ @ @ @ @ @ @ @ @ @ @ ",
"  % # @ @ @ @ @ @ @ @ @ @ @ @ @ @ @ $ $ $ $ & & * * @ @ @ @ @ @ @ @ @ @ @ @ @ @ @ @ @ @ @ @ @ @ @ @ @ @ @ @ @ @ @ @ @ @ @ @ @ @ @ @ @ @ @ @ @ @ @ @ @ @ @ @ @ @ @ @ @ @ @ @ ",
"  % @ @ @ @ @ @ @ @ @ @ @ @ = = - - ; > , ' ) ) @ @ @ @ @ @ @ @ @ @ @ @ @ @ @ @ @ @ @ @ @ @ @ @ @ @ @ @ @ @ @ @ @ @ @ @ @ @ @ @ @ @ @ @ @ @ @ @ @ @ @ @ @ @ @ @ @ @ @ @ @ @ ",
"  # @ @ @ @ @ @ @ @ @ $ ! ~ { ] & & = ^ / # @ @ @ @ @ @ @ @ @ @ @ @ @ @ @ @ @ @ @ @ @ @ @ @ @ @ @ @ @ @ @ @ @ @ @ @ @ @ @ @ @ @ @ @ @ @ @ @ @ @ @ @ @ @ @ @ @ @ @ @ @ @ @ $ ",
"  ( _ _ _ _ _ _ _ _ _ : < [ } | = = _ 1 _ _ _ $ @ 1 _ _ _ _ _ _ _ _ _ _ 2 @ @ @ @ / _ _ _ _ @ @ @ @ @ @ 2 _ _ _ _ _ _ _ _ _ _ _ _ 1 1 _ _ _ _ _ _ _ _ _ _ _ _ _ _ _ _ _ : 3 ",
"  ( = = = = = = = = = 4 [ 4 5 = - 1 6 = = = = 6 ' 7 = = = = = = = = = = = ' ' ' ' 7 = = = = 6 : @ @ - ' = = = = = = = = = = = = = 7 7 = = = = = = = = = = = = = = = = = 8 9 ",
"  ( = = = = = = = = ! [ 0 a | b c = = = = = = = = = = = = = = = = = = = = = = = = = = = = = = = = = = = = = = = = = = = = = = = = = = = = = = = = = = = = = = = = = = = , 9 ",
"  ( = = = = = = = | { [ ] ; b = = = = = = = = = = = = = = = = = = = = = = = = = = = = = = = = = = = = = = = = = = = = = = = = = = = = = = = = = = = = = = = = = = = = = , 9 ",
"  ( = = = = = = = | < d b > = = = = = = = = = = = = = = = = = = = = = = = = = = = = = = = = = = = = = = = = = = = = = = = = = = = = = = = = = = = = = = = = = = = = = = , 9 ",
"  ( = = = = = = = | { e & = = = = = = = = = = = = = = = = = = = = = = = = = = = = = = = = = = = = = = = = = = = = = = = = = = = = = = = = = = = = = = = = = = = = = = = ( d ",
"  ( = = = = | ( 7 d 3 | = = = = = = = = = = = = = = = = = = = = = = = = = = = = = = = = = = = = = = = = = 8 | = = = = = = = = = = = = = = = = = = = = = = = = = = = = = b f ",
"  ( = = = = ( > = e & = = = = = = = = = = = = = = = = = = = = = = = = = = = = = = = = = = = = = = = = = = = 8 = = = = = = = = = = = = & , = = = = = = = = = = = = = = | g f ",
"  ( = = | ( > > ( | = = | = | & & & > | = = = = = | , 8 ( | = = = | = & = | & ( | = = = = = = | = = = = = 5 b = & & & = = 8 & = = = & > = , = = = = | = = = & = | = | > ! f ",
"  ( & ; ( > > > b = & ; ( ; ( > > > | = = = = 8 ( ( > > > ( ; ; ; ( ; > ; ( > ( ; & = = = & ; ( ; , = & ; a ! ; > > > ; ; ; = | ; ( > ; ; , = | ; ( ( ; ; ; > ( ( ; ( > ! f ",
"  > > > > > > > = ( > > > > > > b , & & , > > > > > > > > > > > > > > > > > > > & & > > > > > > > > > > 3 < e > > > > > > > > > b 5 5 5 5 b > > > > > > > > > > > > > > g f ",
"  > 3 3 3 3 3 3 g 3 3 3 3 3 3 3 9 3 3 3 3 3 3 3 3 3 3 3 3 3 3 3 3 3 3 3 3 3 3 3 3 3 3 3 3 3 3 3 3 3 3 ] f [ [ 3 3 3 3 3 3 3 3 3 e e e e e e 3 3 3 3 3 3 3 3 3 3 3 3 3 3 e f ",
"  0 [ [ [ [ [ [ [ [ [ [ [ [ [ [ [ [ [ [ [ [ [ [ [ [ f { { { { { { { { { { { f 0 h 0 [ [ [ 0 h 0 f { { i e e e { { { { { f [ [ [ [ [ [ [ [ [ [ [ [ [ [ [ [ [ [ [ [ [ [ [ [ [ ",
"      ' ' ' ' ' ' ' ' ' ' ' ' ' ' ' ' ' ' ' ' ' ' ' = e e e e e e e e e e e h j ] ~ 4 [ 4 ~ ] j h e e e e e e e e e e e = ' ' ' ' ' ' ' ' ' ' ' ' ' ' ' ! b e a - ' - h     ",
"      g k ^ l @ @ @ @ @ @ @ 1 @ @ @ @ @ @ @ @ @ @ 1 { e e 9 3 3 3 3 3 3 3 3 h i ] i e h e 4 a i h 9 3 ! > > > 9 3 3 3 3 9 k ^ ^ ^ @ @ @ @ @ @ @ @ @ @ @ @ > m @ @ @ / h     ",
"      9 - m ' - ' - m m m 7 c m : c m m c @ m m | g { e 9 b > > > > > > > > d e g 3 > e > ! 5 e d b > > > > > > > > > > 3 ' _ _ _ m m m m m m c : m m m m - ; - m - ! f     ",
"      9 = ( > > = = = ( | ; 2 = = = > , = = = = 5 e { e > > > > > > > > > > d e 5 ! b 5 b ! 5 e d > > > > > > > > > > > 3 = | = = = = = = 8 | = 8 | ; = = = ; g | , e f     ",
"      9 = ( > > ; | , > ; n 6 | = = > > = = = , 5 e { e > > > > > > > 5 ~ o p e 5 ! 3 7 9 ! 5 e p o ~ 5 > > > > > > > > 3 = ; = = = = | ; 8 ( 8 8 > > 8 = | > 3 8 b e f     ",
"      9 = ( > > > | , > ; = , > = = > > ; ; > > 5 e { e > > > > b e { o ! & ( d 5 ! b 9 b ! 5 d ( & ! o { e b > > > > > 3 = ; ; = = = , > > > ( > > > > , | b ! 8 b e f     ",
"      9 = ( > > > ; ; > > ; > > , = > > ( ( > > 5 e { e > > > 5 o 9 8 8 ] i q r b ! g > g ! b r q i ] 8 8 9 o 5 > > > > 3 = ; > & = , > > > > > ; > > > > ; g | > b e f     ",
"      9 = ( > > > > > > > > > > > > > > > > > > 5 e { e > b } d 8 g s t u v w w x i g 9 g i x w w v u t s g 8 d } b > > 3 = ; > > > > > > > > g 8 > > > > > ! & > b e f     ",
"      9 & > > > > > > > > > > > > > > > > > > > 5 e { e b 4 5 ( y z w A w w w w A B C } C B A w w w w A w z y ( 5 4 b > 3 = ; > > > > > > > > g 8 > > > > b ; > > b e f     ",
"      e b b b b b b b b b b b b b b b b b b b b ! a { e p 5 } D E w w w w w w w w w w F w w w w w w w w w w E D } 5 p > 3 8 b b b b b b b b 3 ; b b b b b 9 ; b b 5 a f     ",
"      e e e e e e e e e e e e e e e e e e e e e a j { i ! p G A w w w w w w w w w w w w w w w w w w w w w w w A G p ! 4 i e e e e e e e e e e i 9 e e e 4 a 9 e e a ~ f     ",
"      f 0 { { { { { { h h { { { { { { h h f f f f [ [ b } H w w w w w w w w w w w w w w w w w w w w w w w w w w w H } b [ f h { { { { { { { h h { { { { { { h h h f [ [     ",
"      [ j g g g g g a j ~ 4 4 } ! p i j j 0 [ [ [ [ o ( x A w w w w w w w w w w w w w w w w w w w w w w w w w w w A x ( o d e g g g g g g g 9 e 3 ! ] 4 4 4 ~ j j [ [ [     ",
"      [ [ p 9 ! ! ! ! a e ! ! a i 4 ] ] [ [ [ [ [ f a { u w w w w w w w w w w w w w w w w w w w w w w w w w w w w w u { a f } e ! g ] e ! ! ! ! ! a ] ] ] ] d [ [ [ [ [     ",
"          8 ~ ~ ~ ~ ~ ~ ] p p p ] ] ~ ~ g } [ [ [ } h I w w w w w w w w w w w w w w w w w w w w w w w w w w w w w w w I h } [ 0 ~ ~ e ~ ~ p p p p p ] ~ ~ 9 ~ j [ [ [       ",
"          / a 3 ( 9 > > , , ; ; , 8 > > 3 ; p [ { a r J w w w w w w w w w w w w w w w w w w w w w w w w w w w w w w w J r a o a 9 ; 9 > > 8 , ; ; , 8 > > 3 e 9 j [ [       ",
"          / g > 5 > b _ @ @ n c @ _ 7 > > ! ( j { d w w w w w w w w w w w w w w w w w w w w w w w w w w w w w w w w w w w d b 3 > ! > > c _ @ c n @ 2 ' > > 5 > ! ~ [       ",
"          $ ( b > > c c c | _ 2 = = m | > > 5 e f z w w w w w w w w w w w w w w w w w w w w w w w w w w w w w w w w w w w G g 8 5 > > ' 2 _ & 2 _ 7 = ' 6 > > b ( a <       ",
"          $ 5 > > _ / c 5 | & c m ; = n 6 > b 9 D K w w w w w w w w w w w w w w w w w w w w w w w w w w w w w w w w w w w L b b b > n $ : b , 8 : n 8 = m ' > > b a <       ",
"          / 3 > ( / : ! 7 ' ( & _ g 5 = 5 ( > 3 M J w w w w w w w w w w w w w w w w w w w w w w w w w w w w w w w w w w w A N 3 > > _ _ b & m 8 8 2 b ! = 5 ( > g ] <       ",
"          $ ! > n ' ; > 2 = 3 3 = g 5 , m | > ! M J w w w w w w w w w w w w w w w w w w w w w w w w w w w w w w w w w w w A N ! > | - , 5 1 = 3 3 | 5 b ; 6 ' > 5 a <       ",
"          $ > > 6 1 5 > : = ! g 7 g 5 b n b > > M J w w w w w w w w w w w w w w w w w w w w w w w w w w w w w w w w w w w A O > > | / b 5 2 7 g ! = 5 b 5 : 5 > > a <       ",
"          $ b > , , 7 = ! - : c 7 g - ' > 5 > > M J w w w w w w w w w w w w w w w w w w w w w w w w w w w w w w w w w w w P 6 > > 8 & ' - ! 6 c : ' g n = ; ! > > a <       ",
"          @ - > > g & 2 ( 3 , 8 g ; 1 , g > > & M J w w w w w w w w w w w w w w w w w w w w w w w w w w w w w w w w w w w P Q c > > g , 1 ; g 8 , 3 ( / & g > > m e <       ",
"          @ n > > ! | & $ > g g b l & , ! > > & M J w w w w w w w w w w w w w w w w w w w w w w w w w w w w w w w w w w w P Q _ > > ! , & l b g g > $ & | ! > > n e <       ",
"          $ n 8 > > 5 _ c | > > ' ' : g > > & ; M J w w w w w w w w w w w w w w w w w w w w w w w w w w w w w w w w w w w P Q m & > > g : ' ' > > | c _ 5 > > 8 c a <       ",
"          $ - ' > > ! ; n c > > c n > 5 > > - > M J w w w w w w w w w w w w w w w w w w w w w w w w w w w w w w w w w w w P Q 6 - > > 5 > n c > > c n ; ! > > ' - a <       ",
"          $ | 1 > > > g & / ( ; 1 , g > > ( 2 ! M J w w w w w w w w w w w w w w w w w w w w w w w w w w w w w w w w w w w P Q = 2 ( > > g , 1 ; ( / & g > > > 1 = a <       ",
"          $ = = = > > g = & $ ^ | & ! > > 2 = ! M J w w w w w w w w w w w w w w w w w w w w w w w w w w w w w w w w w w w P Q = = 6 > > g & | ^ $ & = ! > > c 7 = a <       ",
"          $ = ! b > m / ! _ n ' : g ; & > 8 b ! M J w w w w w w w w w w w w w w w w w w w w w w w w w w w w w w w w w w w P Q = b b > 7 @ g : ' n _ 5 b 7 > ; 5 = a <       ",
"          $ ( b b m $ 7 8 ( _ n b & 6 : | > 5 e M J w w w w w w w w w w w w w w w w w w w w w w w w w w w w w w w w w w w P Q 8 5 > ' # 7 & b 2 n ( 8 7 : 7 > b ( a <       ",
"          $ g > n : : b | 5 1 , ! = > _ m & > 3 M J w w w w w w w w w w w w w w w w w w w w w w w w w w w w w w w w w w w P Q g > 7 2 _ > = ! $ & g | b : - 7 > ! a <       ",
"          $ ! > ' 6 ; b ! R ' & g ! ( | 6 8 > ! M J w w w w w w w w w w w w w w w w w w w w w w w w w w w w w w w w w w w P Q g > | - , 5 ! # 6 7 3 5 > | 7 & > ! a <       ",
"          @ ' > > | ; b | - : g ! b = - 8 5 > , M J w w w w w w w w w w w w w w w w w w w w w w w w w w w w w w w w w w w P Q n > > & , 5 , m _ 5 5 5 , n & ! > - e <       ",
"          @ n ( 5 ; : _ : _ > ! 6 _ : _ ( b ; , M J w w w w w w w w w w w w w w w w w w w w w w w w w w w w w w w w w w w P Q c ; b ( _ : _ : ( ! 7 : _ : ; 5 ( n e <       ",
"          $ n 8 > b ; = 7 b 3 b ( 7 7 > b > | ; M J w w w w w w w w w w w w w w w w w w w w w w w w w w w w w w w w w w w P Q - | > b > 7 7 ( 9 b b 7 = ; b > 8 c a <       ",
"          $ | : , > 5 3 5 ; g & b 9 3 b > & : ! M J w w w w w w w w w w w w w w w w w w w w w w w w w w w w w w w w w w w P Q = : & > b 3 g ; g , > 9 3 5 > , : = a <       ",
"          $ = = > > > ( : _ ( , c c > > > 7 = ! M J w w w w w w w w w w w w w w w w w w w w w w w w w w w w w w w w w w w P Q = = ( > > > : _ 8 ; : m ( > > = = = a <       ",
"          $ = 3 > > > | c & 3 3 | : , > > > , ! M J w w w w w w w w w w w w w w w w w w w w w w w w w w w w w w w w w w w P Q = ! > > > , : | 3 3 & c | > > > , = a <       ",
"          $ ; 5 > > > 2 & 5 b b > , _ > > > 5 9 M J w w w w w w w w w w w w w w w w w w w w w w w w w w w w w w w w w w w P Q , 5 > > > _ , > b b 5 & 2 > > > 5 8 a <       ",
"          $ b b > > 6 7 - 3 > > g c ' & > > b e M J w w w w w w w w w w w w w w w w w w w w w w w w w w w w w w w w w w w P 6 ( b > > & ' c g > > 3 - 7 6 > > b > a <       ",
"          / 3 > > ( c c 5 b > > 5 > c c > > > 3 M J w w w w w w w w w w w w w w w w w w w w w w w w w w w w w w w w w w w A S 3 > > > c c > 5 > > b 5 c c ( > > g ] <       ",
"          e ! > > & c & 3 > 6 | > 3 & : , > > g M J w w w w w w w w w w w w w w w w w w w w w w w w w w w w w w w w w w w J M g > > , : & 3 > 7 | > 3 & c & > > ! ] <       ",
"          e > > b 1 | 5 5 $ _ m - 5 > , _ > > > M J w w w w w w w w w w w w w w w w w w w w w w w w w w w w w w w w w w w J M > > > _ , > 5 2 : - n 5 5 | 1 b > > a <       ",
"          e > > 6 7 - 3 c c n : n 7 3 c ' | > > M J w w w w w w w w w w w w w w w w w w w w w w w w w w w w w w w w w w w J M > > | ' c 3 ' 2 : n m ' 3 - 7 6 > > a <       ",
"          e > > 6 : 5 > 2 - ! 5 ' 1 5 > 2 | > > M J w w w w w w w w w w w w w w w w w w w w w w w w w w w w w w w w w w w J M > > | 2 > 5 1 ' 5 ! - 2 > 5 : 6 > > a <       ",
"          e > > ' & ( b b = 3 > = ! 5 8 | & > > M J w w w w w w w w w w w w w w w J T U U U U V w w w w w w w w w w w w w J M > > | 7 8 5 ! = 3 > = b b ( , = > > a <       ",
"          3 6 > 8 > ' m ! & ' : c g ! m 5 b > 8 M J w w w w w w w w w w w w w W X X X X X X Y w w w w w w w w w w w w w w J M - > ; ( m - 5 , = _ : 5 g ' b b > 6 j [       ",
"          3 n > > 3 = m n 8 l _ ! 3 m , g > > & M J w w w w w w w Z U U U `  .I L L  .u L L  . ...w w w w w w w w w w w w J M _ > > g , m : > ^ : b 9 ' = 3 > > n h [       ",
"          9 c ; > > g = : 2 c 5 b c & ! > > , 8 M J w w w w w V X +.+.+.+.@.V #.V $.%.Z &.T #.#.*.w w w w w w w w w w w w J M n , > > ! & : n : > 5 m = g > > ; c 0 [       ",
"          9 n | > > > 3 ; & 5 5 & ( g > > > 7 > M J w w w w w =.v v v v v I ..-.;.&. .&.&.&.>.-.-.......=.w w w w w w w w J M - 7 > > > g ( & b ! & ; 3 > > > | n 0 [       ",
"          9 = m 7 > > > ! ! 5 5 ! ! > > b ' ' o M J w w w w w w w w ,.+.X '.$.$.&.X +.&.).t '.$.&.#.#.V v >.u w w w w w w J M = - ' b > > ! ! 5 5 ! ! > > > 7 m 8 f [       ",
"        * 9 = = m 1 8 8 > > > > > > 8 , / ' ; { !.v w w w w w w -.Y ....~... ...&.t {.B B L ].....-.-.^././.-.-.-.w w w w E (.= = ' / , 8 > > > > > > 8 8 1 m & a f [       ",
"      _.@ - 5 5 5 5 & | g g g g g g = ' 8 > ] f a :.w w w #.<.[.}.|.&.&.&.&.&.1.).z %.2.2.&.2.).).&.&.3.+.4.5.6.).A w w A 8 = 5 5 5 5 & & g g g b ( ' n = b ( 5 0 f ~ 7.    ",
"      = c @ $ $ n : $ ( ! ! ! ; 8 8 8 8 3 { { 3 ( : M F ^.-.B X *.&.&.&.&.&.'.5.%.8.< [ [ [ < 5.5.&.&.&.&.X F L 9.&.{.P 0./ @ $ $ $ $ $ $ 8 8 8 8 ; , 2 , > p { h 5 , h     ",
"    = = ' @ @ @ # c c # # # # # # # # # n n n n : - { a.).).7.b.&.&.'.).).).[ t Z c.[ [ [ [ [ [ [ ).).1.&.&.+.V }.).).d.7 , $ @ @ @ @ @ @ # # # # $ ( & : n n n n n | i <   ",
"  = = = = ! 7 7 7 = & ' 7 7 7 7 7 7 7 7 7 7 7 7 & o p q L L Z < < < 7.[ < 5.5.5.'.e.5.5.5.5.f.5.< 5.5.5.7.[ e.'.` L L g.= = 5 7 7 7 7 7 7 7 7 7 7 7 b e ; 2 7 7 7 | ~ a j [ ",
"  = = = , ( = = = = & ' = = = = = = = = = = = = | ] ~ [ &.&.h.2.2.h.h.7.[ [ [ [ 0 ~ [ [ [ [ ).0 f [ [ [ [ 7.2.2.h.2.&.7 = & ( = = = = = = = = = = = 8 e a | = = = | e ~ p f ",
"  = = = ( | = = = 5 ; & = = = = = = = = = = = = = b d d '.).1.< < [ [ [ [ [ [ [ p [ [ [ [ [ < h.f [ [ [ [ [ < '.'.e.> = = ; , = = = = = = = = = = = = e 6 = = = = = ( { e f ",
"  = = | b = = = ( & ; & = = = = = = = = = = = = = = p [ h.h.h.2.2.7.[ [ [ d i i ~ i i i f [ [ h.o i i i 0 7.2.h.h.%.( = = ! = = = = = = = = = = = = = e ; = = = = = = e ~ f ",
"  = = & > = = | b = = ! = = = = = = = = = = = = = = ] [ &.&.&.&.'.e.5.5.5.e.e.t f 1.e.e.5.5.e.[ 1.7.2.2.1.e.'.'.'.&.( = | 5 = = = = = = = = = = = = = , ; = = = = = = 9 ~ f ",
"  ( 7 3 7 = = ( 8 = 7 g = = = = = = = = = = = = = = ; [ h.h.2.2.i 9 ~ { [ [ [ d ~ { [ [ [ [ [ [ [ [ j ~ ~ i 0 [ [ [ ! 7 g 7 = = = = = = = = = = = = = | & = = = = = = | j [ ",
"  e 9 e 9 9 9 d 3 9 3 d b 9 9 9 9 9 9 9 9 9 e e e e p [ [ [ p ] a a p [ [ [ f 0 f f f j ] [ f ~ f f f f [ [ f a ] [ } 9 e 9 9 9 9 9 9 9 9 9 9 9 9 9 9 9 9 9 e e e e e a [ [ ",
"  e e e e e j a ~ ~ ~ 0 } ~ ~ ~ ~ ~ ~ ~ ~ ~ [ [ [ [ [ [   [ < < 0 } 4 } e e e p ~ ~ ~ 7.  9 a o 9 9 9 i f a > e i [ [ e e e e e e e e e 4 ~ ~ ~ ~ ~ ~ ~ ~ j < [ [ [ [ [ [ [ ",
"    e e e a j a [ [ [ [ [ [ [ [ [ [ [ [ [ [ [ [ [ [ [           9 > > b b b e a ] ).[ e b > 9 9 9 e e e b > > ! e a h 5 e e e e e e e e d [ [ [ [ [ [ [ [ [ [ [ [ [ [ [ [   "};
