/* XPM */
static char * Tile_xpm[] = {
"32 32 187 2",
"  	c #326169",
". 	c #326068",
"+ 	c #2B5158",
"@ 	c #274A50",
"# 	c #2A4F55",
"$ 	c #2A5057",
"% 	c #2A4E55",
"& 	c #2B5057",
"* 	c #274B51",
"= 	c #284D54",
"- 	c #2A4F56",
"; 	c #284C53",
"> 	c #294E55",
", 	c #21383C",
"' 	c #1E393E",
") 	c #224046",
"! 	c #203D42",
"~ 	c #203C41",
"{ 	c #25464C",
"] 	c #224147",
"^ 	c #22393D",
"/ 	c #25474D",
"( 	c #274A51",
"_ 	c #213F44",
": 	c #224045",
"< 	c #213E43",
"[ 	c #1F393F",
"} 	c #234147",
"| 	c #203B40",
"1 	c #25464D",
"2 	c #1F3B41",
"3 	c #26494F",
"4 	c #233C41",
"5 	c #1F393E",
"6 	c #24454B",
"7 	c #26484F",
"8 	c #243A3E",
"9 	c #443731",
"0 	c #20383C",
"a 	c #24383B",
"b 	c #2E3738",
"c 	c #1E383D",
"d 	c #20373C",
"e 	c #45342B",
"f 	c #28373A",
"g 	c #1F383C",
"h 	c #3F3631",
"i 	c #2C3739",
"j 	c #343736",
"k 	c #423631",
"l 	c #4A372E",
"m 	c #29373A",
"n 	c #1F383D",
"o 	c #3F3632",
"p 	c #2D3738",
"q 	c #2D3535",
"r 	c #3E3632",
"s 	c #4F372C",
"t 	c #653F2A",
"u 	c #563727",
"v 	c #543525",
"w 	c #5C3A28",
"x 	c #423630",
"y 	c #3C3633",
"z 	c #4E372B",
"A 	c #67402B",
"B 	c #583928",
"C 	c #47362E",
"D 	c #4E362A",
"E 	c #653E2A",
"F 	c #5D3A27",
"G 	c #543727",
"H 	c #613C28",
"I 	c #593827",
"J 	c #5D3A28",
"K 	c #433630",
"L 	c #593928",
"M 	c #653E29",
"N 	c #5E3A28",
"O 	c #5D3926",
"P 	c #6A412C",
"Q 	c #6C432D",
"R 	c #673F2A",
"S 	c #51311D",
"T 	c #6A422C",
"U 	c #69412C",
"V 	c #69412B",
"W 	c #6B432D",
"X 	c #643E2A",
"Y 	c #6B422C",
"Z 	c #5B3723",
"` 	c #613C27",
" .	c #6A412B",
"..	c #663F29",
"+.	c #52311E",
"@.	c #51301D",
"#.	c #68402B",
"$.	c #643D28",
"%.	c #593622",
"&.	c #5A3723",
"*.	c #613B26",
"=.	c #633D28",
"-.	c #643E28",
";.	c #53321F",
">.	c #50301D",
",.	c #54321F",
"'.	c #623C27",
").	c #5F3A25",
"!.	c #5A3722",
"~.	c #52321E",
"{.	c #663F2A",
"].	c #5B3823",
"^.	c #5A3622",
"/.	c #4E2F1C",
"(.	c #4C2D1B",
"_.	c #5D3924",
":.	c #5D3824",
"<.	c #5C3823",
"[.	c #603B26",
"}.	c #553320",
"|.	c #472A17",
"1.	c #402513",
"2.	c #68402A",
"3.	c #53321E",
"4.	c #432715",
"5.	c #492B19",
"6.	c #4A2B19",
"7.	c #4A2C19",
"8.	c #4F2F1D",
"9.	c #4E2E1C",
"0.	c #4F2F1C",
"a.	c #4C2C1A",
"b.	c #3B2110",
"c.	c #422514",
"d.	c #4D2D1B",
"e.	c #482A18",
"f.	c #462917",
"g.	c #4B2D1A",
"h.	c #4D2E1B",
"i.	c #442816",
"j.	c #3F2412",
"k.	c #422615",
"l.	c #442715",
"m.	c #4F301D",
"n.	c #3D2211",
"o.	c #3E2312",
"p.	c #432615",
"q.	c #3C2110",
"r.	c #4C2D1A",
"s.	c #3F2413",
"t.	c #4E2E1B",
"u.	c #412614",
"v.	c #402413",
"w.	c #452816",
"x.	c #3C2211",
"y.	c #412514",
"z.	c #462817",
"A.	c #4B2C1A",
"B.	c #452817",
"C.	c #381F0F",
"D.	c #472917",
"E.	c #3C2210",
"F.	c #422614",
"G.	c #492B18",
"H.	c #462916",
"I.	c #391F0F",
"J.	c #29170B",
"K.	c #371F0E",
"L.	c #3A200F",
"M.	c #2F1A0D",
"N.	c #39200F",
"O.	c #331C0D",
"P.	c #25150A",
"Q.	c #301B0D",
"R.	c #3B210F",
"S.	c #23140A",
"T.	c #301A0D",
"U.	c #351E0E",
"V.	c #341D0E",
"W.	c #3A2110",
"X.	c #26160A",
"Y.	c #2F1A0C",
"Z.	c #2C190C",
"`.	c #331C0E",
" +	c #371F0F",
".+	c #2B180B",
"++	c #321C0D",
"                                                                ",
". . . . . . . . . . . . . . . . . . . . . . . . . . . . . . . . ",
"+ + + + + + + + + + + + + + + + + + + + + + + + + + + + + + + + ",
"+ + + + + + + + + + + + + + + + + + + + + + + + + + + + + + + + ",
"+ + + + + + + + + + + + + + + + + + + + + + + + + + + + + + + + ",
"@ # + $ % + & * + + & + $ = + - $ + - ; + + & + > * + & + + + @ ",
", ' ) ! ~ { ] ^ / ( _ : < [ } | _ 1 _ 2 3 3 4 ] ~ 5 ] ~ 6 ; 7 8 ",
"9 0 a b c c d e f c g h i g j k 0 a b c c g l m c n o p n q r s ",
"t u v w x y z A B C D E F G H t u I J K y z A L C D M N G O E P ",
"Q R S P A E T Q Q U T Q Q Q Q Q V W Q A X P T V V V Y Q Q Q Q Q ",
"Q Q P Q Q Q Q T V Q Y Z Z Y Q Q `  .Q Q Q ..+.@.M #.V Q ..$.Q Q ",
"%.&...Q Q Q *.@.@.=. .S @.P Q Q Q #.%.-. .;.>.>.,.Y Q Q M '.R ).",
">.>.>.).M !.>.>.~.;.'...{.Q Q Q Q '.>.].^.>.!.>.>.Z T Q Q R S >.",
">.>.>.>.@.>.>.>./.(.>._.P V :.+.:.P $.<.>.>.>.>.>.>.+.:.[.}.^.>.",
">.>.>.>.` >.>.>.|.1.>.>.>.S 2.3.>.;.}.>./.4.5.>.>.>.>.>.>.>.>.>.",
">.6.7.>.>.>.>.>.>.8.>.>.>.>.;.>.>.9.0.>.a.b.c.d.4.0.>.>.(.9.>.>.",
">.e.e.>.>.>.>.>.>.>.>.>.>.>.>.>.>.f.(.>.>.g.9.h.i.0.>.>.h./.>.>.",
">.>.>.|.j.e.>./.k.l.0.>.5.e.>.>.>.>.>.>.>.>.>.>.>.>.>.i.5.>.>.>.",
"h.m.m.n.b.o.0.p.n.b.4.9.q.b.r.>.>.9.s.s./.>.t.u.p.h.0.v.f.>.0.h.",
"b.v.0.w.x.f.6.y.h.b.b.e.z.i.0.>.>.A.b.b.r.t.s.b.b.n.7.m./.w.x.b.",
"b.b.w.0.r.l.b.b.n.b.b.x.r.>.>.r.B.A.e.e.r.o.b.b.r.e.b.n.q.q.b.b.",
"o.r.b.b.b.b.b.C.b.b.b.b.n.D.w.q.v.E.F.F.q.b.q.b.G.w.b.b.b.7.n.b.",
"b.n.b.b.b.b.b.b.b.b.b.b.b.b.b.b.n.b.b.b.b.o.H.b.b.b.b.b.b.b.b.b.",
"b.b.b.b.F.7.b.b.b.b.b.b.4.b.b.b.I.J.K.b.b.b.b.b.b.b.b.b.b.b.b.b.",
"b.b.b.b.x.o.b.b.b.b.b.b.b.b.b.b.L.M.N.b.b.b.b.b.b.b.b.b.b.b.b.b.",
"b.b.b.b.b.b.b.b.b.O.P.J.C.b.b.b.b.b.b.b.b.b.b.b.b.b.b.b.b.b.b.b.",
"b.Q.M.b.b.b.b.b.R.P.S.S.T.b.b.b.b.b.b.b.b.b.b.b.U.V.b.b.b.b.b.b.",
"W.X.X.W.b.b.b.b.b.J.S.S.O.b.b.b.b.b.b.b.b.b.b.b.Y.Z.b.b.b.Y.L.b.",
"b.N.N.b.b.b.b.b.b.I.Q.`.b.b.b.b.b.b.b. +N.b.b.b.b.b.b.b.b.b.b.b.",
"b.b.b.b.b.b.b.b.b.b.b.b.b.b.b.b.b.b. +S..+b.b.b.b.b.b.b.b.b.b.b.",
"b.b.b.b.b.b.b.b.b.b.b.b.b.b.b.b.b.b.L.Z.++b.b.b.b.b.b.b.b.b.b.b.",
"b.b.b.b.b.b.b.b.b.b.b.b.b.b.b.b.b.b.b.b.b.b.b.b.b.b.b.b.b.b.b.b."};
