/* XPM */
static char * Tile_underground_xpm[] = {
"32 32 176 2",
"  	c #341019",
". 	c #271015",
"+ 	c #321017",
"@ 	c #741720",
"# 	c #52202C",
"$ 	c #852720",
"% 	c #451823",
"& 	c #2B0F16",
"* 	c #220D14",
"= 	c #150E13",
"- 	c #201013",
"; 	c #2D1314",
"> 	c #8D291C",
", 	c #2D0F15",
"' 	c #7E2C1E",
") 	c #9A501B",
"! 	c #852820",
"~ 	c #791D1F",
"{ 	c #391915",
"] 	c #902921",
"^ 	c #891D22",
"/ 	c #1F0E14",
"( 	c #200E14",
"_ 	c #1A0C13",
": 	c #361416",
"< 	c #9F2D1F",
"[ 	c #381316",
"} 	c #2C1614",
"| 	c #1E0F14",
"1 	c #BB5B1E",
"2 	c #B13321",
"3 	c #160E13",
"4 	c #861A23",
"5 	c #190D13",
"6 	c #862020",
"7 	c #160D13",
"8 	c #180D13",
"9 	c #210E14",
"0 	c #381716",
"a 	c #A02824",
"b 	c #982822",
"c 	c #170D13",
"d 	c #1F0F14",
"e 	c #791C1F",
"f 	c #9C291F",
"g 	c #401417",
"h 	c #8D2621",
"i 	c #340F17",
"j 	c #290E15",
"k 	c #280F15",
"l 	c #351216",
"m 	c #3F1317",
"n 	c #821C20",
"o 	c #210D14",
"p 	c #190C13",
"q 	c #731720",
"r 	c #731820",
"s 	c #741820",
"t 	c #2B0F15",
"u 	c #721820",
"v 	c #290F15",
"w 	c #220E14",
"x 	c #200F14",
"y 	c #7D1921",
"z 	c #2A0F15",
"A 	c #210F13",
"B 	c #270F15",
"C 	c #851A23",
"D 	c #331017",
"E 	c #230D14",
"F 	c #1D0F14",
"G 	c #84251D",
"H 	c #431219",
"I 	c #331216",
"J 	c #811C20",
"K 	c #261015",
"L 	c #7C1921",
"M 	c #3A1118",
"N 	c #3B1118",
"O 	c #6B171F",
"P 	c #7C1A21",
"Q 	c #3B1417",
"R 	c #291115",
"S 	c #8E261E",
"T 	c #3B1317",
"U 	c #350F17",
"V 	c #2B0E15",
"W 	c #240D14",
"X 	c #801C20",
"Y 	c #3C1317",
"Z 	c #A82D20",
"` 	c #351416",
" .	c #A12324",
"..	c #A82E20",
"+.	c #361716",
"@.	c #8C2021",
"#.	c #451219",
"$.	c #431319",
"%.	c #942623",
"&.	c #9F2824",
"*.	c #B92D23",
"=.	c #A42B20",
"-.	c #3C1118",
";.	c #461119",
">.	c #301514",
",.	c #93501A",
"'.	c #AD551D",
").	c #9D2024",
"!.	c #7E1921",
"~.	c #351017",
"{.	c #1B0C13",
"].	c #281313",
"^.	c #301117",
"/.	c #361116",
"(.	c #250F13",
"_.	c #2D1015",
":.	c #9B291F",
"<.	c #8D1F21",
"[.	c #361216",
"}.	c #90251E",
"|.	c #6C161F",
"1.	c #361316",
"2.	c #3A1316",
"3.	c #8A1C22",
"4.	c #230C14",
"5.	c #2C0D15",
"6.	c #69171F",
"7.	c #260E13",
"8.	c #8F1B24",
"9.	c #391716",
"0.	c #862720",
"a.	c #2A1115",
"b.	c #891C22",
"c.	c #9B501B",
"d.	c #3F1217",
"e.	c #751720",
"f.	c #871A23",
"g.	c #52141A",
"h.	c #4A1518",
"i.	c #93291E",
"j.	c #2A1015",
"k.	c #2D1514",
"l.	c #251513",
"m.	c #180C13",
"n.	c #912821",
"o.	c #4D1B18",
"p.	c #491319",
"q.	c #9C1E25",
"r.	c #9E2024",
"s.	c #A02C1F",
"t.	c #AB571B",
"u.	c #B43621",
"v.	c #9B1F25",
"w.	c #A52B20",
"x.	c #1D1014",
"y.	c #311017",
"z.	c #6A171F",
"A.	c #2E1514",
"B.	c #240F13",
"C.	c #8D2021",
"D.	c #3A1218",
"E.	c #311117",
"F.	c #86251D",
"G.	c #86241D",
"H.	c #2F1514",
"I.	c #7E2B1E",
"J.	c #881D22",
"K.	c #341216",
"L.	c #220F13",
"M.	c #2E0F15",
"N.	c #2C0E15",
"O.	c #A4511C",
"P.	c #221013",
"Q.	c #2D1614",
"R.	c #371716",
"S.	c #A12821",
"  . + @ # # $ %   & %   * % % % = - ; > , ' ) ! # # # ~ %   % % ",
"{ ] ^ # % % / (         _   & & - : < [ # # # }     % # |       ",
"1 2 # % % % # 3 4 < < < _ 5     : < 6 # % % % 7 8 _   % 3 7 9 0 ",
"a b % & %     < < 4 4 4 4 c d e f g # % % % = # # _     7 8 @ h ",
"4 i         ) ) # # j k # # # l m n % % %   | % % # 5 7 7 a # # ",
"% o p p p 4 < # % % q r % % % # s t   %   u k % % % # = @ % % % ",
"  p p 8 < < # % % % % v % % % % # w x     y z   % % % 4 a       ",
"8 _ _ 8 A 4 % % % %   8 % % % % % # B C C D E *       y # F = 3 ",
"# # # # # G   % %     d     % %     y H C # # k u y y # % # d ( ",
"% # # # & I J     = F K L         ( v y # # # L M N   % %   O # ",
"% & & &   L D 9 7 | K P Q J R 3 = / v # # % & #           E % % ",
"%       % r v _ 8 / u # # S T / / B y   % %   & v U V W E ,   % ",
"% % % % % v % # E # # % % X Y u # # L y   % %   7 c # # # J Z   ",
"`         @     @ % % % % # C # % % # B 9   % % . # # % % #  ...",
"I = 7 9 @ V i y U   % % %   L % % % % # 9 9         & % % % # ^ ",
"+.# # # # # # r v w       @.I % % % # & #   9 #.$.L           $ ",
"# % % # & & & | . +.%.&.*.=.% % % # &     -.;.4 y K F = c _ >.,.",
"% % % &       F | ! '.&.).@.  % %         y !.~.# # # # 5 {.].# ",
"            P K # # & # # K F           r + z # # # # # # {.E   ",
"k c 8 8 ( u ^.u % %   & & # = =       k / / # & # # # % % # /.n ",
"v 8 5 (._.# # # k E       % # 7 = / O 9 7 = %   & & & % %   :.<.",
"* # # [.}.% % % # |.          v B # # # # |   %           1.f 2.",
"# & % ^ 3.% % % & E W _ E 4.5.y 4 % % # & # 6.        3 | e , 7.",
"&   % % 8.    %   p _ E 9.0.# # 4 !.% &   # a.[.n r 9 8 # # * {.",
"  % %   4 b.    c c # # 0.c.% % # V w   % % # }.d.j * # % & % E ",
"e.    f.g.h.i.j.| % % % # k.l.% % # c 3       n , m.# % %   & V ",
"n.o.p.q.r.s.# # 6.% % % & # 7   % % 7 7 3 d y ~.t 9   % % %   9.",
"t.u.r.v.w.# % % % x.  %     y.y.    d 8 # # # s w ( z.      8 A.",
"# u.r.% % %       K ^.    u y 4 C L x # % % % 9 9 # # v , , B.# ",
"% # C.      9 / B u C C D.+ # # C E.# % % %   7 % %   + n F.# % ",
"%   G., E H.0 I.# # #.8.C # % % # d   % &   7 /     J.J.K.# & % ",
"  L., M.N.0.O.# & # # y D % % % % = P.    Q.+.R.y ^ S.Y % &   % "};
