/* XPM */
static char * Tile_underground_xpm[] = {
"32 32 4 1",
" 	c #242926",
".	c #232725",
"+	c #16171C",
"@	c #050913",
" ..+++++++++@@@@@@@@@@+++++++++.",
".....++++++++@@@@@@@@++++++++...",
"......++++++++@@@@@@++++++++....",
"......+++++++@@@@@@@@+++++++....",
"......+++++@@@@@@@@@@@@+++++....",
"..+....+++@@++@@@@@@++@@+++....+",
"..++...++@@+++@@@@@@+++@@++...++",
"...++..++@@++@@@@@@@@++@@++..++.",
"...+++++++@@@@@@@@@@@@@@+++++++.",
"....+++++++@@@@@@@@@@@@+++++++..",
"++++@++++++@@@@@@@@@@@@++++++@++",
"++++@@++++@@@@@@@@@@@@@@++++@@++",
"+++++@+++@@@@@@@@@@@@@@@@+++@+++",
"++++++@++@@@@@@@@@@@@@@@@++@++++",
"++++++@@@@@@@@@@@@@@@@@@@@@@++++",
"+++++@@@@@@@@@@@@@@@@@@@@@@@@+++",
"+++@@@@@@@@@@@@@@@@@@@@@@@@@@@@+",
"@@@@@@@@@@@@@@@@@@@@@@@@@@@@@@@@",
"@@@@@@@@@@++@@@@@@@@@@++@@@@@@@@",
"@@@@@@@@@@+++@@@@@@@@+++@@@@@@@@",
"@@@+++@@@@+++@@@@@@@@+++@@@@+++@",
"@@@++++@@@@++@@@@@@@@++@@@@++++@",
"@@+++++@@@@@@@@@@@@@@@@@@@@+++++",
"@@+++++@@@@@@@@@@@@@@@@@@@@+++++",
"@@@@++@@@@@@@@@@@@@@@@@@@@@@++@@",
"@@@@@@@@@@@@@@@@@@@@@@@@@@@@@@@@",
"@@@@@@@@@@@@@@@@@@@@@@@@@@@@@@@@",
"@@@@@@@@@@@@@@@@@@@@@@@@@@@@@@@@",
"@@@@@@++@@@@@@@@@@@@@@@@@@++@@@@",
"@@@@@@+++@@@@@@@@@@@@@@@@+++@@@@",
"@@@@@@+++@@@@@@@@@@@@@@@@+++@@@@",
"@@@@@@@++@@@@@@@@@@@@@@@@++@@@@@"};
