/* XPM */
static char * Tile_surface_xpm[] = {
"32 32 294 2",
"  	c #501E2A",
". 	c #511E2B",
"+ 	c #4E1D2A",
"@ 	c #4D1D29",
"# 	c #411A25",
"$ 	c #4A1C27",
"% 	c #491B26",
"& 	c #491B27",
"* 	c #401823",
"= 	c #4C1C28",
"- 	c #4E1D28",
"; 	c #4D1C28",
"> 	c #471A26",
", 	c #36151F",
"' 	c #32141F",
") 	c #3A1621",
"! 	c #401723",
"~ 	c #461925",
"{ 	c #4F1D29",
"] 	c #4C1C29",
"^ 	c #4B1C29",
"/ 	c #401924",
"( 	c #3C1820",
"_ 	c #461B23",
": 	c #431A25",
"< 	c #3B1720",
"[ 	c #3A171F",
"} 	c #421924",
"| 	c #381620",
"1 	c #371520",
"2 	c #3B1721",
"3 	c #481B27",
"4 	c #3E1822",
"5 	c #3F1923",
"6 	c #391620",
"7 	c #3E1722",
"8 	c #3C1621",
"9 	c #34141F",
"0 	c #3E1721",
"a 	c #421824",
"b 	c #451A24",
"c 	c #471B25",
"d 	c #3C1720",
"e 	c #461A24",
"f 	c #3A1720",
"g 	c #431A22",
"h 	c #421A22",
"i 	c #471B26",
"j 	c #451A23",
"k 	c #38161F",
"l 	c #32141E",
"m 	c #31141E",
"n 	c #3C1622",
"o 	c #411923",
"p 	c #421923",
"q 	c #35151F",
"r 	c #3C1521",
"s 	c #3D1621",
"t 	c #34141E",
"u 	c #39161F",
"v 	c #401722",
"w 	c #36151E",
"x 	c #3F1821",
"y 	c #38161E",
"z 	c #401822",
"A 	c #39171F",
"B 	c #441A23",
"C 	c #411722",
"D 	c #37151F",
"E 	c #301420",
"F 	c #3B1620",
"G 	c #33141E",
"H 	c #3D1721",
"I 	c #311520",
"J 	c #35141E",
"K 	c #3E1621",
"L 	c #37151E",
"M 	c #411721",
"N 	c #33151E",
"O 	c #431824",
"P 	c #3F1722",
"Q 	c #35151E",
"R 	c #421822",
"S 	c #37161F",
"T 	c #391724",
"U 	c #321521",
"V 	c #36141E",
"W 	c #361623",
"X 	c #160D13",
"Y 	c #29101A",
"Z 	c #3E1720",
"` 	c #39151F",
" .	c #2E131E",
"..	c #30131E",
"+.	c #3B1621",
"@.	c #3D1723",
"#.	c #33141F",
"$.	c #391520",
"%.	c #381724",
"&.	c #2B101B",
"*.	c #38151F",
"=.	c #2F141F",
"-.	c #240F19",
";.	c #251019",
">.	c #371623",
",.	c #2B131D",
"'.	c #241119",
").	c #32141D",
"!.	c #2F131D",
"~.	c #371521",
"{.	c #261019",
"].	c #3A1725",
"^.	c #2A101B",
"/.	c #3F1721",
"(.	c #30131D",
"_.	c #180E14",
":.	c #170D13",
"<.	c #1C0F15",
"[.	c #190E14",
"}.	c #1A0F15",
"|.	c #1E1016",
"1.	c #1A0E14",
"2.	c #1E0E15",
"3.	c #1D0F14",
"4.	c #2E1018",
"5.	c #1C0E15",
"6.	c #211118",
"7.	c #451C27",
"8.	c #1B0E14",
"9.	c #1C0E14",
"0.	c #291016",
"a.	c #150E13",
"b.	c #261015",
"c.	c #761921",
"d.	c #2F1018",
"e.	c #220F15",
"f.	c #221017",
"g.	c #280F16",
"h.	c #2A0F16",
"i.	c #311019",
"j.	c #6A171F",
"k.	c #2E1017",
"l.	c #200E14",
"m.	c #1E0F14",
"n.	c #7C1A21",
"o.	c #3B1417",
"p.	c #7B1C20",
"q.	c #271115",
"r.	c #160E13",
"s.	c #251219",
"t.	c #331019",
"u.	c #341019",
"v.	c #451823",
"w.	c #731820",
"x.	c #290F15",
"y.	c #1A0C13",
"z.	c #180D13",
"A.	c #1F0E14",
"B.	c #721820",
"C.	c #52202C",
"D.	c #8E261E",
"E.	c #3B1317",
"F.	c #1E0E14",
"G.	c #240F15",
"H.	c #6B171F",
"I.	c #431823",
"J.	c #270F15",
"K.	c #2E0F17",
"L.	c #190D14",
"M.	c #230D14",
"N.	c #801C20",
"O.	c #3C1317",
"P.	c #7C1921",
"Q.	c #7D1921",
"R.	c #4C1E2A",
"S.	c #481D28",
"T.	c #6F1A1E",
"U.	c #982A1F",
"V.	c #351416",
"W.	c #741720",
"X.	c #851A23",
"Y.	c #210E14",
"Z.	c #271015",
"`.	c #A12324",
" +	c #A82E20",
".+	c #331216",
"++	c #2B0E15",
"@+	c #340F17",
"#+	c #350F17",
"$+	c #2B0F16",
"%+	c #891D22",
"&+	c #361716",
"*+	c #220E14",
"=+	c #8C2021",
"-+	c #451219",
";+	c #431319",
">+	c #852720",
",+	c #942623",
"'+	c #9F2824",
")+	c #B92D23",
"!+	c #A42B20",
"~+	c #3C1118",
"{+	c #461119",
"]+	c #861A23",
"^+	c #301514",
"/+	c #93501A",
"(+	c #852820",
"_+	c #AD551D",
":+	c #9D2024",
"<+	c #7E1921",
"[+	c #351017",
"}+	c #190D13",
"|+	c #1B0C13",
"1+	c #281313",
"2+	c #321017",
"3+	c #2A0F15",
"4+	c #280F15",
"5+	c #301117",
"6+	c #361116",
"7+	c #821C20",
"8+	c #250F13",
"9+	c #2D1015",
"0+	c #9B291F",
"a+	c #8D1F21",
"b+	c #220D14",
"c+	c #361216",
"d+	c #90251E",
"e+	c #6C161F",
"f+	c #361316",
"g+	c #9C291F",
"h+	c #3A1316",
"i+	c #8A1C22",
"j+	c #240D14",
"k+	c #230C14",
"l+	c #2C0D15",
"m+	c #69171F",
"n+	c #791C1F",
"o+	c #2D0F15",
"p+	c #260E13",
"q+	c #8F1B24",
"r+	c #190C13",
"s+	c #391716",
"t+	c #862720",
"u+	c #2A1115",
"v+	c #891C22",
"w+	c #9B501B",
"x+	c #3F1217",
"y+	c #290E15",
"z+	c #751720",
"A+	c #871A23",
"B+	c #52141A",
"C+	c #4A1518",
"D+	c #93291E",
"E+	c #2A1015",
"F+	c #2D1514",
"G+	c #251513",
"H+	c #180C13",
"I+	c #912821",
"J+	c #4D1B18",
"K+	c #491319",
"L+	c #9C1E25",
"M+	c #9E2024",
"N+	c #A02C1F",
"O+	c #1F0F14",
"P+	c #2B0F15",
"Q+	c #AB571B",
"R+	c #B43621",
"S+	c #9B1F25",
"T+	c #A52B20",
"U+	c #1D1014",
"V+	c #311017",
"W+	c #741820",
"X+	c #2E1514",
"Y+	c #200F14",
"Z+	c #240F13",
"`+	c #8D2021",
" @	c #3A1218",
".@	c #311117",
"+@	c #86251D",
"@@	c #86241D",
"#@	c #2F1514",
"$@	c #381716",
"%@	c #7E2B1E",
"&@	c #881D22",
"*@	c #341216",
"=@	c #220F13",
"-@	c #2E0F15",
";@	c #2C0E15",
">@	c #A4511C",
",@	c #331017",
"'@	c #221013",
")@	c #2D1614",
"!@	c #371716",
"~@	c #A12821",
"  . .   + @ # $ % & * = - ; > , ' ) ! ~ ; { ] # @ @ # ^ / / @ + ",
"( _ _ : < [ } | 1 2 3 4 5 ~ 6 7 8 9 0 a b c d e f d g [ h i 5 # ",
"@ [ [ j g k l m n ! | o p q 9 r s t 0 k u u v w x y z 6 k k A B ",
"C D E j C , F G H 7 I I I v l J J K L M C 7 G m N w k O P Q Q R ",
"S T T U < C V P D E W X Y E h t Z k ` C v t  . ...0 Q +.@.#.$.t ",
"%.&.X &.%.*.v < W =.-.X X ;.>.D D C C u J  .,.'.W w t ).!.~.l t ",
"{.X X &.].U >.U %.;.X X X X {.>.*.R R *.>.^.;.X ;.E /.t ..(.F >.",
"X X X X &.&.{.&.&.X _.:.<.[.X ^.U %.%.U &.X X X X ^.I g /.D I {.",
"X }.|.|.}.X X X [.1.2.3.4.5.[.X &.{.{.&.X X X X X X &.{.{.^.^.X ",
"[.6.7.7.8.9.0.5.2.a.3.b.c.d.2.1._.X X X }.|.6.e.[.X X X X X X X ",
"f.g.h.h.i.j.k.l.X m.b.n.o.p.q.r.a._.1.6.s.F g.7.2.1._.X X X [.<.",
"v t.u.u.v.w.x.y.z.A.B.C.C.D.E.A.F.G.H.d.v I.u.h.J.K.8.L.L.8.2.F ",
"v.v.v.v.v.x.v.C.M.C.C.v.v.N.O.B.C.C.P.Q.u.v.v.u.X :.R.S.S.T.U.t.",
"V.u.u.u.u.W.u.u.W.v.v.v.v.C.X.C.v.v.C.J.Y.u.v.v.Z.C.C.v.v.C.`. +",
".+a.X Y.W.++@+Q.#+u.v.v.v.u.P.v.v.v.v.C.Y.Y.u.u.u.u.$+v.v.v.C.%+",
"&+C.C.C.C.C.C.w.x.*+u.u.u.=+.+v.v.v.C.$+C.u.Y.-+;+P.u.u.u.u.u.>+",
"C.v.v.C.$+$+$+m.Z.&+,+'+)+!+v.v.v.C.$+u.u.~+{+]+Q.b.3.a.:.y.^+/+",
"v.v.v.$+u.u.u.3.m.(+_+'+:+=+u.v.v.u.u.u.u.Q.<+[+C.C.C.C.}+|+1+C.",
"u.u.u.u.u.u.n.b.C.C.$+C.C.b.3.u.u.u.u.u.w.2+3+C.C.C.C.C.C.|+M.u.",
"4+:.z.z.l.B.5+B.v.v.u.$+$+C.a.a.u.u.u.4+A.A.C.$+C.C.C.v.v.C.6+7+",
"x.z.}+8+9+C.C.C.4+M.u.u.u.v.C.X a.A.H.Y.X a.v.u.$+$+$+v.v.u.0+a+",
"b+C.C.c+d+v.v.v.C.e+u.u.u.u.u.x.J.C.C.C.C.m.u.v.u.u.u.u.u.f+g+h+",
"C.$+v.%+i+v.v.v.$+M.j+y.M.k+l+Q.]+v.v.C.$+C.m+u.u.u.u.r.m.n+o+p+",
"$+u.v.v.q+u.u.v.u.r+y.M.s+t+C.C.]+<+v.$+u.C.u+c+7+w.Y.z.C.C.b+|+",
"u.v.v.u.]+v+u.u.:.:.C.C.t+w+v.v.C.++*+u.v.v.C.d+x+y+b+C.v.$+v.M.",
"z+u.u.A+B+C+D+E+m.v.v.v.C.F+G+v.v.C.:.r.u.u.u.7+o+H+C.v.v.u.$+++",
"I+J+K+L+M+N+C.C.m+v.v.v.$+C.X u.v.v.X X r.O+Q.[+P+Y.u.v.v.v.u.s+",
"Q+R+M+S+T+C.v.v.v.U+u.v.u.u.V+V+u.u.O+z.C.C.C.W+*+l.j.u.u.u.z.X+",
"C.R+M+v.v.v.u.u.u.b.5+u.u.B.Q.]+X.P.Y+C.v.v.v.Y.Y.C.C.x.o+o+Z+C.",
"v.C.`+u.u.u.Y.A.J.B.X.X. @2+C.C.X..@C.v.v.v.u.X v.v.u.2+7++@C.v.",
"v.u.@@o+M.#@$@%@C.C.-+q+X.C.v.v.C.O+u.v.$+u.X A.u.u.&@&@*@C.$+v.",
"u.=@o+-@;@t+>@C.$+C.C.Q.,@v.v.v.v.a.'@u.u.)@&+!@Q.%+~@O.v.$+u.v."};
