/* XPM */
static char * Tile_surface_xpm[] = {
"32 32 7 1",
" 	c #777A44",
".	c #979B58",
"+	c #3F5830",
"@	c #253C2E",
"#	c #232725",
"$	c #16171C",
"%	c #050913",
" ... +++++ .+   .  ............ ",
"  ..  +   ..  .........+++ . @..",
"     ..+++.      @ ...+++ .@ @  ",
"...  .........@ @@ ..@.....@ @@@",
".. ...   .@@++@@+@ . @@@  .@@++@",
"+    +++  @+++++++@  ++@   @++++",
"@ @@++++ @+++@+@@+@ @+++@@  @+++",
"+@+++++++++++@+@@@@ @+++++@@++++",
"+++++++@@+++@@@+@@@ @+@@+++++++@",
"++++++@@@++@@@@@++@@+@@@+++++#@@",
"@@+++@@@@+@@###@@@+++@@+++@+##@@",
"@@@++@@++@@@###@@@++++##++@@+##@",
"#@@@++++$$@@@##@@@+++####$@@@###",
"#@@@@@@$$#@@####@@@+##@@#$$$####",
"#@@@@@$$$######$$$@###@@@#$$####",
"##@@@@$$#######$$#@@###@@@######",
"#####$$$###$$$##$##@@###########",
"#####$$###$$#$$$####$$##%%##%$$$",
"$$########$###$$#####$$#%%%%$$$$",
"$$$$######$##$$$$#####$$$%$$$$$$",
"$$$###%%##$#$$$$$$###$$$$$$$$$$$",
"#$###%%%%#$$$$$$$$##$##$$$$$$$$$",
"#$###%$$$$$$$$%%$$##$###$$%%$$$$",
"$$$#$$$$$$$$$$%%$$$$$$##$%%$$$$$",
"$$%%$$$$##$$$$%%%$$$$$$$$%$$$$$$",
"$$%$$$$###$$$$%%%%$$$$$$%%%$$%%%",
"$%%$$$$##$$%$%%%%%$$$$$$%%%%%%%%",
"%%%%%$##$$%%%%%%%%%%$$$$%%%%%%%%",
"%%%%%%$$$$%%%%%%%%%%%%%%%%$$%%%%",
"%%%%%%%$$%%%%%%$$%%%%%%%%%$$$%%%",
"%%%%%%%%%%%%%%$$$%%%%%%%%%$$$%%%",
"%%%%%%%%%%%%%%$$%%%%%%%%%%%%%%%%"};
