/* XPM */
static char * Tile_underground_xpm[] = {
"32 32 33 1",
" 	c #3B2110",
".	c #331C0D",
"+	c #371F0F",
"@	c #361E0E",
"#	c #2D190C",
"$	c #331C0E",
"%	c #27160A",
"&	c #23140A",
"*	c #381F0F",
"=	c #29170B",
"-	c #24150A",
";	c #391F0F",
">	c #39200F",
",	c #321C0D",
"'	c #3A2010",
")	c #301B0D",
"!	c #24140A",
"~	c #28170B",
"{	c #3A200F",
"]	c #321B0D",
"^	c #28160B",
"/	c #351D0E",
"(	c #351E0E",
"_	c #2C180C",
":	c #341D0E",
"<	c #311B0D",
"[	c #2A180B",
"}	c #26160B",
"|	c #371E0E",
"1	c #27160B",
"2	c #2C190C",
"3	c #2B180B",
"4	c #25150A",
"                                ",
"                              .+",
"                              .+",
"                                ",
"      @#$                       ",
"      %&&*                      ",
"      =&-;                      ",
"      >,+                       ",
"                           '    ",
"                          )!~>  ",
"                         {!&&]  ",
"                         '^&&/  ",
"                          >,(   ",
"                                ",
"        {_=*                    ",
"        ;&&:                    ",
"         $<'                    ",
"                                ",
"                                ",
"                                ",
"                                ",
"                      +_[:      ",
"                     {}&&&|     ",
"                     *&&&&,     ",
"                     {1&&&|     ",
"  >*                  +23/      ",
" >44;                           ",
" {=={                           ",
"                                ",
"                                ",
"                                ",
"                                "};
