/* XPM */
static char * walk6_xpm[] = {
"36 47 29 1",
" 	c #000000",
".	c #862D42",
"+	c #6C7375",
"@	c #B4AEBE",
"#	c #8C8383",
"$	c #AFB9BD",
"%	c #E00000",
"&	c #5F0000",
"*	c #D6DFE3",
"=	c #587D8C",
"-	c #533C7D",
";	c #7E64AD",
">	c #142652",
",	c #374042",
"'	c #FFDAC1",
")	c #4462AE",
"!	c #243E80",
"~	c #3C4F55",
"{	c #6F8187",
"]	c #E29D7B",
"^	c #A55244",
"/	c #B1BEC2",
"(	c #202425",
"_	c #272C2E",
":	c #475155",
"<	c #000000",
"[	c #2D2D2D",
"}	c #101010",
"|	c #FFFFFF",
"                                    ",
"                                    ",
"                   __               ",
"                    :___            ",
"                     :::_____       ",
"                _____::::::::__     ",
"                 ::::_:::::::::_    ",
"                  ::::::::::::::_   ",
"                  _:=:::::_:::_::_  ",
"               ::::_==:=:_==:__::_  ",
"               _____::_::_::_  :==_ ",
"                 __:::_:: :_ ^ ::_  ",
"                 __::__:_   ^] :__  ",
"                  _::__:_ @# ^ _ _  ",
"                  _:___: ^|&&]      ",
"                _____]_: ]|%%' ^    ",
"                     ]_: ]''''']^   ",
"                 {{//// ]]''''']^   ",
"                  {{/// ^]]''']^    ",
"                ~~~{/// ^^^]']^     ",
"            ~~~~///~{//]^^~^^^      ",
"             ~///{////{]]^~{        ",
"            ^]~///{///{]]~{~~       ",
"           ^'']{/{~{//{]^{~{~       ",
"         ,,'']^{~~{///{^/~{~        ",
"    ^^ ,,(((]^  ~{////{/{ ~](, ^    ",
"   ^'']](      ~{{{{{~{~ ~^(((('^   ",
"              !!))){{~~)     (']^   ",
"  ,,(^](((((((>>!!)~~~)!>     ]^^   ",
"     ']^     --;>!!)~)!>      ^^    ",
"          >>>> -;;;-)!;             ",
"         >!!>>>>   -;;              ",
"         >)!!!!!!>> -- ->           ",
"         !))!!))!>-;; -;;>)         ",
"          !))))!!> -;;;;- !         ",
"            !))))!;- ;-  (          ",
"              (,,(-    (,,          ",
"                 (-; ((,,,          ",
"              ((,,(; ((,,,          ",
"               ((,,  (((            ",
"                ((((                ",
"               (((                  ",
"              ((                    ",
"              (((                   ",
"              ](]('                 ",
"                                    ",
"                                    "};
