/* XPM */
static char * coin8_xpm[] = {
"26 32 150 2",
"  	c #000000",
". 	c #FFA300",
"+ 	c #FFA301",
"@ 	c #FFA304",
"# 	c #FFA409",
"$ 	c #FFA302",
"% 	c #FFA200",
"& 	c #FFA700",
"* 	c #FFBB00",
"= 	c #FFC000",
"- 	c #FFB600",
"; 	c #FFA400",
"> 	c #FFA600",
", 	c #FFB800",
"' 	c #FFDC00",
") 	c #FFE700",
"! 	c #FFE600",
"~ 	c #FFD400",
"{ 	c #FFB100",
"] 	c #FFA500",
"^ 	c #FFBD00",
"/ 	c #FFDB00",
"( 	c #FFEA00",
"_ 	c #FFE500",
": 	c #FFD500",
"< 	c #FFB400",
"[ 	c #FFBC00",
"} 	c #FFD700",
"| 	c #FFEB00",
"1 	c #FFE900",
"2 	c #FFD100",
"3 	c #FFB700",
"4 	c #FFDE00",
"5 	c #FFDF00",
"6 	c #FFE800",
"7 	c #FFC400",
"8 	c #FFDD00",
"9 	c #FFBA00",
"0 	c #FFAE00",
"a 	c #FFBE00",
"b 	c #FFE100",
"c 	c #FFE400",
"d 	c #FFC300",
"e 	c #FFAC00",
"f 	c #FFA40F",
"g 	c #FFD900",
"h 	c #FFA000",
"i 	c #FFAA00",
"j 	c #FFC200",
"k 	c #FFC700",
"l 	c #FFC800",
"m 	c #FFA40D",
"n 	c #FFA900",
"o 	c #FFBF00",
"p 	c #FFA800",
"q 	c #FFEC00",
"r 	c #FFB300",
"s 	c #FFA100",
"t 	c #FFB900",
"u 	c #FFE300",
"v 	c #FFD800",
"w 	c #FFB200",
"x 	c #FFAE01",
"y 	c #FFE735",
"z 	c #FFE44A",
"A 	c #FFE228",
"B 	c #FFC500",
"C 	c #FFF19A",
"D 	c #FFF8CD",
"E 	c #FFEF7B",
"F 	c #FFC900",
"G 	c #FFF198",
"H 	c #FFF3C8",
"I 	c #FFDB76",
"J 	c #FFEC51",
"K 	c #FFE56E",
"L 	c #FFBE3A",
"M 	c #FFF199",
"N 	c #FFF4CD",
"O 	c #FFDE77",
"P 	c #FFB401",
"Q 	c #FFCD00",
"R 	c #FFE628",
"S 	c #FFF094",
"T 	c #FFF9DB",
"U 	c #FFFDF2",
"V 	c #FFF191",
"W 	c #FFCB00",
"X 	c #FFAF00",
"Y 	c #FFE937",
"Z 	c #FFEE82",
"` 	c #FFF9DF",
" .	c #FFFEFA",
"..	c #FFF9E4",
"+.	c #FFE782",
"@.	c #FFCF00",
"#.	c #FFAD00",
"$.	c #FFD301",
"%.	c #FFF090",
"&.	c #FFFAE2",
"*.	c #FFFADE",
"=.	c #FFE88A",
"-.	c #FFC23E",
";.	c #FFB000",
">.	c #FFC301",
",.	c #FFE617",
"'.	c #FFF197",
").	c #FFF9DA",
"!.	c #FFFADD",
"~.	c #FFE597",
"{.	c #FFC513",
"].	c #FFA101",
"^.	c #FFE93B",
"/.	c #FFEE86",
"(.	c #FFF9DD",
"_.	c #FFFAE5",
":.	c #FFE791",
"<.	c #FFC600",
"[.	c #FFA703",
"}.	c #FFCA00",
"|.	c #FFE711",
"1.	c #FFEA2B",
"2.	c #FFEA1A",
"3.	c #FFEF8B",
"4.	c #FFFAE3",
"5.	c #FFE989",
"6.	c #FFC239",
"7.	c #FFCE5F",
"8.	c #FFF0BC",
"9.	c #FFF9CE",
"0.	c #FFFFFB",
"a.	c #FFFBDF",
"b.	c #FFE79A",
"c.	c #FFC427",
"d.	c #FFAB00",
"e.	c #FFA201",
"f.	c #FFB469",
"g.	c #FFE2CF",
"h.	c #FFEEE3",
"i.	c #FFEDE2",
"j.	c #FFECDD",
"k.	c #FFE298",
"l.	c #FFA801",
"m.	c #FFA62C",
"n.	c #FFB05D",
"o.	c #FFB367",
"p.	c #FFB366",
"q.	c #FFB263",
"r.	c #FFAF3E",
"s.	c #FFA40E",
"                                                    ",
"                . . . . . . . . . +                 ",
"            @ + . . . . . . . . . . + #             ",
"            + . . . . . . . . . . . . $             ",
"          . . . % & * = = = = - ; % . . +           ",
"      @ + . . . > , ' ) ! ! ) ~ { ] . . . +         ",
"      + . . . ; ^ / ) ( ( ( ( _ : < % . . . $       ",
"    . . . % > [ } ( | | ( 1 1 ( ) 2 3 ] . . . +     ",
"@ . . . . & 3 / ( ) 4 / 5 6 1 1 6 5 7 ] % . . . +   ",
"+ . . . ; * ' ) ( 8 9 0 a b 1 ( c d e ] ] ; . . . f ",
"+ . % > ^ } 1 | g a & h i j ' | ! 2 k l l 3 ; . . m ",
"+ . % n ~ ( ) ' o ; . . . > 7 4 6 1 1 1 1 l ] . . m ",
"+ . % n ~ | b * & . . . . . p = c ( 6 ! ! k ; . . m ",
"+ . % n ~ q 5 r s . . . . . s t u ( v = a w ; . . m ",
"+ . % n ~ q 5 < % . . . . . % 9 u ( : t - x . . . m ",
"+ . % n ~ q 5 < % . . . . . % 9 u ( y z A B ; . . m ",
"+ . % n ~ q 5 < % . . . . . % 9 u ( C D E F ] . . m ",
"+ . % n ~ q 5 < % . . . . . % 9 u ( G H I 9 ; . . m ",
"+ . % n ~ q 5 < s . . . . . % 9 u ( J K L p . . . m ",
"+ . % n ~ q 5 r s . . . . . % t u ( M N O [ ; . . m ",
"+ . % i : q u F { . . . % . P Q R S T U V F ] . . m ",
"+ . % n Q c 6 ) W e ; % ] X 2 Y Z `  ...+.j ; . . m ",
"+ . . ; 0 F ! ( u @.#.s { $.c %.&. .*.=.-.i . . . m ",
"$ . . . % ;.W u q u W >.Q ,.'.). .!.~.{.i ].. . .   ",
"    . . . . e @.u 1 6 ) ^./.(. ._.:.<.[.. . . .     ",
"    + . . . ; #.}.|.1.2.3.4. .&.5.6.n . . . . $     ",
"      $ . . . % ;.7.8.9.*.0.a.b.c.d.e.. . .         ",
"          . . . s f.g.h.i.j.k.k l.% . . .           ",
"          + . . . m.n.o.p.q.r.n ; . . . $           ",
"            + . $ . s s s s s e.. . . s.            ",
"                . . . . . . . . . .                 ",
"                + . . . . . . . + $                 "};
