/* XPM */
static char * coin2_xpm[] = {
"26 32 190 2",
"  	c #000000",
". 	c #FFA301",
"+ 	c #FFA300",
"@ 	c #FFA40F",
"# 	c #FFA303",
"$ 	c #FFA200",
"% 	c #FFA400",
"& 	c #FFB500",
"* 	c #FFC000",
"= 	c #FFBB00",
"- 	c #FFA800",
"; 	c #FFA500",
"> 	c #FFAF00",
", 	c #FFD100",
"' 	c #FFE700",
") 	c #FFE600",
"! 	c #FFDE00",
"~ 	c #FFB900",
"{ 	c #FFA700",
"] 	c #FFA304",
"^ 	c #FFA305",
"/ 	c #FFB100",
"( 	c #FFD400",
"_ 	c #FFE400",
": 	c #FFEA00",
"< 	c #FFDC00",
"[ 	c #FFBE00",
"} 	c #FFB600",
"| 	c #FFCF00",
"1 	c #FFE900",
"2 	c #FFEB00",
"3 	c #FFD800",
"4 	c #FFBD00",
"5 	c #FFA600",
"6 	c #FFA100",
"7 	c #FFC100",
"8 	c #FFE500",
"9 	c #FFDD00",
"0 	c #FFE608",
"a 	c #FFEC5E",
"b 	c #FFE27F",
"c 	c #FFC077",
"d 	c #FFAB4E",
"e 	c #FFAB00",
"f 	c #FFE200",
"g 	c #FFD500",
"h 	c #FFB400",
"i 	c #FFDD1A",
"j 	c #FFF5B5",
"k 	c #FFFAEC",
"l 	c #FFF1E7",
"m 	c #FFCBA2",
"n 	c #FFA520",
"o 	c #FFA307",
"p 	c #FFC800",
"q 	c #FFC900",
"r 	c #FFC700",
"s 	c #FFD000",
"t 	c #FFD300",
"u 	c #FFB800",
"v 	c #FFA000",
"w 	c #FFB000",
"x 	c #FFCA00",
"y 	c #FFE21E",
"z 	c #FFF6C5",
"A 	c #FFFFFF",
"B 	c #FFEDE1",
"C 	c #FFCDA7",
"D 	c #FFAA43",
"E 	c #FFC400",
"F 	c #FFE800",
"G 	c #FFD700",
"H 	c #FFB700",
"I 	c #FFAE00",
"J 	c #FFEA1E",
"K 	c #FFF5C3",
"L 	c #FFFFFE",
"M 	c #FFEADD",
"N 	c #FFB05B",
"O 	c #FFC300",
"P 	c #FFD900",
"Q 	c #FFB300",
"R 	c #FFE91E",
"S 	c #FFBF00",
"T 	c #FFD600",
"U 	c #FFAA00",
"V 	c #FFCC00",
"W 	c #FFEA01",
"X 	c #FFF5C2",
"Y 	c #FFEBDF",
"Z 	c #FFB05C",
"` 	c #FFAD00",
" .	c #FFAC00",
"..	c #FFEA40",
"+.	c #FFEF90",
"@.	c #FFF9D9",
"#.	c #FFFEF1",
"$.	c #FFE5C1",
"%.	c #FFAE4D",
"&.	c #FFE100",
"*.	c #FFE300",
"=.	c #FFED6F",
"-.	c #FFFAE1",
";.	c #FFFFFC",
">.	c #FFFEFE",
",.	c #FFFAF6",
"'.	c #FFF4BD",
").	c #FFD84F",
"!.	c #FFAB1A",
"~.	c #FFC500",
"{.	c #FFED71",
"].	c #FFFBEA",
"^.	c #FFF6F1",
"/.	c #FFD4B1",
"(.	c #FFDA69",
"_.	c #FFA201",
":.	c #FFCE00",
"<.	c #FFD701",
"[.	c #FFEC6B",
"}.	c #FFF4BA",
"|.	c #FFFDF3",
"1.	c #FFF4EF",
"2.	c #FFD8BE",
"3.	c #FFAF55",
"4.	c #FFA900",
"5.	c #FFEA3A",
"6.	c #FFEC60",
"7.	c #FFEC62",
"8.	c #FFF4BC",
"9.	c #FFFDF5",
"0.	c #FFF8F4",
"a.	c #FFD6BA",
"b.	c #FFAC48",
"c.	c #FFAC16",
"d.	c #FFBA00",
"e.	c #FFE000",
"f.	c #FFF9DC",
"g.	c #FFFAE3",
"h.	c #FFFDF1",
"i.	c #FFF8F3",
"j.	c #FFD2B2",
"k.	c #FFB162",
"l.	c #FFE301",
"m.	c #FFEC5F",
"n.	c #FFF2AD",
"o.	c #FFF4B6",
"p.	c #FFF8D5",
"q.	c #FFFFFD",
"r.	c #FFF5EF",
"s.	c #FFD9BE",
"t.	c #FFB05E",
"u.	c #FFED00",
"v.	c #FFE80F",
"w.	c #FFEB4F",
"x.	c #FFF2AB",
"y.	c #FFFDF2",
"z.	c #FFFEFD",
"A.	c #FFD9BF",
"B.	c #FFAC49",
"C.	c #FFAC0A",
"D.	c #FFE02C",
"E.	c #FFF5B7",
"F.	c #FFFCEE",
"G.	c #FFD4B3",
"H.	c #FFB160",
"I.	c #FFAC08",
"J.	c #FFCD00",
"K.	c #FFE201",
"L.	c #FFC322",
"M.	c #FFE59B",
"N.	c #FFFADD",
"O.	c #FFF3C5",
"P.	c #FFD36B",
"Q.	c #FFEC00",
"R.	c #FFA602",
"S.	c #FFE68B",
"T.	c #FFF9E2",
"U.	c #FFFDF0",
"V.	c #FFF7CC",
"W.	c #FFEB56",
"X.	c #FFA412",
"Y.	c #FFA302",
"Z.	c #FFC03D",
"`.	c #FFE677",
" +	c #FFED81",
".+	c #FFEB6A",
"++	c #FFE91C",
"@+	c #FFEB01",
"#+	c #FFB200",
"$+	c #FFA409",
"                                                    ",
"                . + + + + + + + + +                 ",
"            @ . + + + + + + + + + + . #             ",
"            # + + + + + + + + + + + + +             ",
"          . + + $ % & * * * * = - $ + + +           ",
"        . + + + ; > , ' ) ) ' ! ~ { + + + + ]       ",
"      ^ + + + $ / ( _ : : : : ' < [ % + + + .       ",
"    . + + + % } | ) : 1 : : : 2 : 3 4 5 6 + + +     ",
"  . + + + $ % 7 ! ' : 8 9 < < ! 0 a b c d $ + . + ] ",
"  + + + % ; ; e * f : g h > > ~ i j k l m n o + + . ",
"  + + + & p q r s _ t u % v w x y z A A B C D $ + . ",
"  + + + E F 1 1 8 G H $ % I x ) J K L A A M N 6 + . ",
"  + + + O 8 ) 1 P Q ; + e | _ 1 R K L A A M N 6 + . ",
"  + + + w 4 S G T U v w V f W 1 1 X L A A Y Z 6 + . ",
"  + + + ` H ~ ( G  .I p ) : 1 ..+.@.A A #.$.%.6 + . ",
"  + + + 7 &.*.' T > x 8 1 1 F =.-.;.>.,.'.).!.$ + . ",
"  + + + ~.: 2 2 T > | 2 1 1 F {.].A ^./.(.g U _.+ . ",
"  + + + u :.s ! 9 O <.1 1 F [.}.|.1.2.3.x T U $ + . ",
"  + + + 4.I / | F 8 ' 5.6.7.8.9.0.a.b.c.| T U $ + . ",
"  + + + d.t g e.1 : 1 +.f.g.h.i.j.k. .:.l.T U $ + . ",
"  + + + ~.: 2 1 m.n.o.p.q.A r.s.t.` p _ u.G e $ + . ",
"  + + + S e.v.w.x.y.q.q.z.0.A.B.C.q ) 1 8 :.4.$ + . ",
"  + + + U 4 D.E.F.q.A A ,.G.H.I.J.K.1 ' x > ; + + . ",
"  + + + $ 4.L.M.N.;.A y.O.P.7 x K.Q.*.V / $ + + + . ",
"    + + + + R.O S.T.U.V.W.F ' F 1 _ , ` + + + + X.  ",
"    Y.+ + + + - Z.`. +.+++1 1 1 ' V I ; + + + .     ",
"        + + + _.U S O s F @+2 8 V #+$ + + + Y.      ",
"          + + + + + + & ( P P , > $ + + +           ",
"          Y.+ + + + + 5  .` ` e ; + + + .           ",
"              + + + + + $ $ $ $ + + + .             ",
"                + + + + + + + + + + $+              ",
"                Y.. + + + + + + + .                 "};
