/* XPM */
static char * coin_xpm[] = {
"32 32 170 2",
"  	c #000000",
". 	c #FFA301",
"+ 	c #FFA300",
"@ 	c #FFA302",
"# 	c #FFA306",
"$ 	c #FFA200",
"% 	c #FFA100",
"& 	c #FFB400",
"* 	c #FFC000",
"= 	c #FFBC00",
"- 	c #FFAA00",
"; 	c #FFA303",
"> 	c #FFA800",
", 	c #FFAC00",
"' 	c #FFB000",
") 	c #FFD000",
"! 	c #FFE600",
"~ 	c #FFE700",
"{ 	c #FFE000",
"] 	c #FFBD00",
"^ 	c #FFAB00",
"/ 	c #FFA500",
"( 	c #FFC100",
"_ 	c #FFD800",
": 	c #FFDA00",
"< 	c #FFE300",
"[ 	c #FFEA00",
"} 	c #FFE800",
"| 	c #FFDD00",
"1 	c #FFD900",
"2 	c #FFD100",
"3 	c #FFAF00",
"4 	c #FFA308",
"5 	c #FFBF00",
"6 	c #FFEB00",
"7 	c #FFE500",
"8 	c #FFCC00",
"9 	c #FFB300",
"0 	c #FFBB00",
"a 	c #FFDE00",
"b 	c #FFE900",
"c 	c #FFE100",
"d 	c #FFDC00",
"e 	c #FFCD00",
"f 	c #FFAE00",
"g 	c #FFC600",
"h 	c #FFB600",
"i 	c #FFE400",
"j 	c #FFC700",
"k 	c #FFBA00",
"l 	c #FFD500",
"m 	c #FFAD00",
"n 	c #FFC200",
"o 	c #FFA400",
"p 	c #FFA600",
"q 	c #FFB500",
"r 	c #FFE705",
"s 	c #FFC52E",
"t 	c #FFA733",
"u 	c #FFA411",
"v 	c #FFCF00",
"w 	c #FFB900",
"x 	c #FFD401",
"y 	c #FFE80B",
"z 	c #FFE4A3",
"A 	c #FFD3B2",
"B 	c #FFAC4D",
"C 	c #FFDB00",
"D 	c #FFC500",
"E 	c #FFE942",
"F 	c #FFF097",
"G 	c #FFFBE2",
"H 	c #FFECE1",
"I 	c #FFB263",
"J 	c #FFA403",
"K 	c #FFC625",
"L 	c #FFEE90",
"M 	c #FFFBE8",
"N 	c #FFFFFF",
"O 	c #FFECE0",
"P 	c #FFB262",
"Q 	c #FFA314",
"R 	c #FFD19B",
"S 	c #FFF9E2",
"T 	c #FFFFFB",
"U 	c #FFA201",
"V 	c #FFB700",
"W 	c #FFE2BD",
"X 	c #FFFEFF",
"Y 	c #FFFEEF",
"Z 	c #FFE7BE",
"` 	c #FFB050",
" .	c #FFB41F",
"..	c #FFDB5B",
"+.	c #FFF6CB",
"@.	c #FFFEFC",
"#.	c #FFFDF5",
"$.	c #FFF2BA",
"%.	c #FFD444",
"&.	c #FFAB15",
"*.	c #FFD700",
"=.	c #FFDA61",
"-.	c #FFF4CD",
";.	c #FFFEF4",
">.	c #FFFDF1",
",.	c #FFF2B3",
"'.	c #FFD260",
").	c #FFB200",
"!.	c #FFD400",
"~.	c #FFD873",
"{.	c #FFF5C3",
"].	c #FFFEF5",
"^.	c #FFFCED",
"/.	c #FFEC78",
"(.	c #FFD200",
"_.	c #FFB31F",
":.	c #FFDA60",
"<.	c #FFFEF9",
"[.	c #FFFEFB",
"}.	c #FFF8DE",
"|.	c #FFE372",
"1.	c #FFA40B",
"2.	c #FFB800",
"3.	c #FFA402",
"4.	c #FFA310",
"5.	c #FFFFFE",
"6.	c #FFF9D7",
"7.	c #FFE483",
"8.	c #FFBD37",
"9.	c #FFA900",
"0.	c #FFCE00",
"a.	c #FFD301",
"b.	c #FFC300",
"c.	c #FFC527",
"d.	c #FFD099",
"e.	c #FFE1BA",
"f.	c #FFF5CA",
"g.	c #FFFEFA",
"h.	c #FFE290",
"i.	c #FFA304",
"j.	c #FFE941",
"k.	c #FFEE8E",
"l.	c #FFFEFE",
"m.	c #FFFDF2",
"n.	c #FFFCEE",
"o.	c #FFF8DF",
"p.	c #FFE482",
"q.	c #FFA501",
"r.	c #FFE805",
"s.	c #FFE902",
"t.	c #FFFBE7",
"u.	c #FFED7C",
"v.	c #FFE375",
"w.	c #FFC630",
"x.	c #FFE5A3",
"y.	c #FFFBE1",
"z.	c #FFF2BB",
"A.	c #FFBE00",
"B.	c #FFA305",
"C.	c #FFA835",
"D.	c #FFD4B4",
"E.	c #FFEEE2",
"F.	c #FFEDE2",
"G.	c #FFEDE3",
"H.	c #FFA413",
"I.	c #FFAD51",
"J.	c #FFB367",
"K.	c #FFB153",
"L.	c #FFAC14",
"M.	c #FFA40C",
"                                                                ",
"                      . + + + + + + + + +                       ",
"                @ . . + + + + + + + + + + + + .                 ",
"                + + + + + + + + + + + + + + + + #               ",
"              + + + $ % + & * * * * = - % $ + + + .             ",
"          ; + + + + > , ' ) ! ! ! ~ { ] , ^ / + + + .           ",
"          + + + + / ( _ : < [ [ [ [ } | 1 2 3 $ + + + 4         ",
"        + + + $ > 5 1 [ 6 [ [ [ [ [ [ [ 6 7 8 9 $ + + + .       ",
"    @ + + + + > 0 a b b b c d d d d | ! b b ~ e f / + + + .     ",
"    . + + + / 5 a ~ b b 7 g 3 ' ' 3 h _ b b b i 2 f + + + +     ",
"    . + $ > * 1 [ b 6 c j f % $ $ % / k l b [ [ i e 9 + + +     ",
"  . + + % m 1 [ b b c 8 - $ + + + + + + k 1 ! [ b ~ n $ + . + @ ",
"  + + + + ' : 6 b 7 j ^ o + + + + + + + p q 1 b b r s t u + + . ",
"  + + + & v < [ c g f $ + + + + + + + + $ p w x } y z A B $ + + ",
"  + + + * ~ [ [ C 3 % + + + + + + + + + + + + D E F G H I % + . ",
"  + + + * ! [ [ d 3 $ + + + + + + + + + + + J K L M N O P % + . ",
"  + + + * ! [ [ d 3 $ + + + + + + + + + + + Q R S T N H I % + . ",
"  + + + ( ~ [ [ C 3 % + + + + + + + + + U / V W X N Y Z ` % + . ",
"  + + + ] { } [ | q / + + + + + + + + + /  ...+.@.#.$.%.&.$ + . ",
"  + + + - ] a [ 7 *.w + + + + + + + + + V =.-.;.>.,.'.)./ . + . ",
"  + + + % , : 6 [ b !.w p $ + + + U / V ~.{.].N ^./.( $ + + + . ",
"    + + $ , (.7 b b b _ & p + + + / _.:.{.<.N [.}.|.] + + + @ 1.",
"    + + + / ' e } b [ ! _ 2.+ 3.4.V ..-.].N 5.6.7.8.9.+ + +     ",
"    . + + + $ 9 0.i [ [ } a.b.c.d.e.f.].N g.6.h.( > U + + +     ",
"      i.+ + + + 3 (.i b b } j.k.S l.@.m.n.o.p.* q.+ + + +       ",
"        . + + + / 3 0.~ r.s.F t.T N #.,.u.v.8.> + + + + ;       ",
"          . + + + + & b.w.x.y.N N Y z.'.n A.9.U + + +           ",
"            B.+ + + + $ C.D.E.F.G.Z %.).$ + + + + +             ",
"              . + + + + H.I.J.J.J.K.L./ + + + + + ;             ",
"                . + + . + $ % % % % $ . + + + +                 ",
"                      + + + + + + + + + + @                     ",
"                      @ . + + + + + + + . M.                    "};
