/* XPM */
static char * coin3_xpm[] = {
"15 32 102 2",
"  	c #000000",
". 	c #FFA300",
"+ 	c #FFA303",
"@ 	c #FFA200",
"# 	c #FFA900",
"$ 	c #FFBA00",
"% 	c #FFC000",
"& 	c #FFBF00",
"* 	c #FFA800",
"= 	c #FFA201",
"- 	c #FFB000",
"; 	c #FFD904",
"> 	c #FFE952",
", 	c #FFEA71",
"' 	c #FFEA72",
") 	c #FFEC73",
"! 	c #FFDD65",
"~ 	c #FFB12E",
"{ 	c #FFA100",
"] 	c #FFB100",
"^ 	c #FFDD2B",
"/ 	c #FFF5B2",
"( 	c #FFFBE6",
"_ 	c #FFFBE9",
": 	c #FFFDEA",
"< 	c #FFEDD2",
"[ 	c #FFB86B",
"} 	c #FFB554",
"| 	c #FFE7AF",
"1 	c #FFFCE8",
"2 	c #FFFFFF",
"3 	c #FFF2EC",
"4 	c #FFBA7B",
"5 	c #FFA000",
"6 	c #FFB978",
"7 	c #FFF0E6",
"8 	c #FFFFF8",
"9 	c #FFFCED",
"0 	c #FFFDEF",
"a 	c #FFEED7",
"b 	c #FFB86E",
"c 	c #FFF1E7",
"d 	c #FFF9D7",
"e 	c #FFEF8B",
"f 	c #FFEE80",
"g 	c #FFF082",
"h 	c #FFE072",
"i 	c #FFB235",
"j 	c #FFBA7A",
"k 	c #FFFDEC",
"l 	c #FFF4BA",
"m 	c #FFEB5A",
"n 	c #FFEA00",
"o 	c #FFDB00",
"p 	c #FFB979",
"q 	c #FFF1E8",
"r 	c #FFF8D6",
"s 	c #FFED74",
"t 	c #FFDC00",
"u 	c #FFF1E6",
"v 	c #FFF9D3",
"w 	c #FFEC6E",
"x 	c #FFE72E",
"y 	c #FFE900",
"z 	c #FFBA7C",
"A 	c #FFF8C9",
"B 	c #FFE112",
"C 	c #FFC700",
"D 	c #FFD402",
"E 	c #FFB769",
"F 	c #FFEBCA",
"G 	c #FFF5AF",
"H 	c #FFE023",
"I 	c #FFC100",
"J 	c #FFD000",
"K 	c #FFB227",
"L 	c #FFDE55",
"M 	c #FFEC47",
"N 	c #FFE808",
"O 	c #FFE400",
"P 	c #FFE700",
"Q 	c #FFEB00",
"R 	c #FFEC00",
"S 	c #FFDE00",
"T 	c #FFDA00",
"U 	c #FFCD00",
"V 	c #FFE000",
"W 	c #FFD400",
"X 	c #FFE500",
"Y 	c #FFDF00",
"Z 	c #FFB500",
"` 	c #FFD700",
" .	c #FFC300",
"..	c #FFE800",
"+.	c #FFD800",
"@.	c #FFC400",
"#.	c #FFAE00",
"$.	c #FFA400",
"%.	c #FFA500",
"&.	c #FFAB00",
"*.	c #FFA301",
"=.	c #FFA306",
"                              ",
"      . . . . . . . . . .     ",
"  + . . . . . . . . . . . . + ",
"  . . . . . . . . . . . . . . ",
"  . . @ # $ % & & & $ * = . . ",
"  . . @ - ; > , ' ) ! ~ { . . ",
"  . . @ ] ^ / ( _ : < [ { . . ",
"  . . { } | 1 2 2 2 3 4 5 . . ",
"  . . 5 6 7 8 9 9 0 a b { . . ",
"  . . 5 4 c d e f g h i { . . ",
"  . . 5 j c k l m n o - = . . ",
"  . . 5 p q 8 r s n t ] @ . . ",
"  . . 5 j u v w x y o ] @ . . ",
"  . . 5 z q A B C D o ] @ . . ",
"  . . { E F G H I J o ] @ . . ",
"  . . { K L M N O P o ] @ . . ",
"  . . = - o Q n Q R t ] @ . . ",
"  . . @ ] o S J J S o ] @ . . ",
"  . . @ ] T U - - U T ] @ . . ",
"  . . @ ] o V W W V o ] @ . . ",
"  . . @ ] t R R R R t ] @ . . ",
"  . . @ ] o X Y Y X o ] @ . . ",
"  . . @ ] T J Z Z J T ] @ . . ",
"  . . @ ] o `  . .` o ] @ . . ",
"  . . @ ] o n ....n o ] @ . . ",
"  . . @ ] o n ....n o ] @ . . ",
"  . . { ] t +.@.@.+.t ] { . . ",
"  . . @ #.U & $.$.& U #.@ . . ",
"  . . . %.&.* . . * &.%.. . . ",
"  *.. . . @ @ . . @ @ . . . *.",
"    =.. . . . . . . . . . =.  ",
"      *.. . . . . . . . *.    "};
