/* XPM */
static char * coin6_xpm[] = {
"26 32 101 2",
"  	c #000000",
". 	c #FFA301",
"+ 	c #FFA300",
"@ 	c #FFA306",
"# 	c #FFA302",
"$ 	c #FFA303",
"% 	c #FFA200",
"& 	c #FFA313",
"* 	c #FFBB83",
"= 	c #FFCC9C",
"- 	c #FFC24A",
"; 	c #FFBF00",
"> 	c #FFC000",
", 	c #FFBE00",
"' 	c #FFAC00",
") 	c #FFA400",
"! 	c #FFAC1D",
"~ 	c #FFD9B2",
"{ 	c #FFF5D6",
"] 	c #FFEA6B",
"^ 	c #FFE600",
"/ 	c #FFE700",
"( 	c #FFE200",
"_ 	c #FFC100",
": 	c #FFA900",
"< 	c #FFA20A",
"[ 	c #FFAC0F",
"} 	c #FFCE11",
"| 	c #FFE66C",
"1 	c #FFEE81",
"2 	c #FFEB3B",
"3 	c #FFE900",
"4 	c #FFEA00",
"5 	c #FFE800",
"6 	c #FFDF00",
"7 	c #FFC600",
"8 	c #FFA700",
"9 	c #FFBA81",
"0 	c #FFD7AB",
"a 	c #FFE661",
"b 	c #FFEA02",
"c 	c #FFEB00",
"d 	c #FFDD00",
"e 	c #FFC300",
"f 	c #FFAB00",
"g 	c #FFA100",
"h 	c #FFD5A4",
"i 	c #FFF6D7",
"j 	c #FFEE7B",
"k 	c #FFE100",
"l 	c #FFDC00",
"m 	c #FFE500",
"n 	c #FFCD00",
"o 	c #FFE659",
"p 	c #FFED75",
"q 	c #FFEA3D",
"r 	c #FFC700",
"s 	c #FFAF00",
"t 	c #FFB400",
"u 	c #FFD400",
"v 	c #FFE000",
"w 	c #FFC400",
"x 	c #FFA600",
"y 	c #FFB000",
"z 	c #FFCA00",
"A 	c #FFEB02",
"B 	c #FFC800",
"C 	c #FFB800",
"D 	c #FFD200",
"E 	c #FFBD00",
"F 	c #FFB600",
"G 	c #FFD700",
"H 	c #FFDE00",
"I 	c #FFB200",
"J 	c #FFBB00",
"K 	c #FFA500",
"L 	c #FFB300",
"M 	c #FFD900",
"N 	c #FFEC00",
"O 	c #FFAD00",
"P 	c #FFBC00",
"Q 	c #FFD100",
"R 	c #FFC500",
"S 	c #FFAA00",
"T 	c #FFD600",
"U 	c #FFB700",
"V 	c #FFBA00",
"W 	c #FFE300",
"X 	c #FFD000",
"Y 	c #FFDA00",
"Z 	c #FFAE00",
"` 	c #FFB500",
" .	c #FFD500",
"..	c #FFB900",
"+.	c #FFDB00",
"@.	c #FFC200",
"#.	c #FFC900",
"$.	c #FFA305",
"%.	c #FFA800",
"&.	c #FFA40D",
"*.	c #FFA307",
"                                                    ",
"                . + + + + + + + + + @               ",
"              # + + + + + + + + + + + $             ",
"              + + + + % + + + + + + + +             ",
"          # + + + & * = - ; > , ' % + + +           ",
"        . + + + ) ! ~ { ] ^ / ( _ : ) + + + #       ",
"        + + + < [ } | 1 2 3 4 5 6 7 8 + + + +       ",
"    $ + + + % 9 0 a 4 3 3 b 4 4 c d e f g + + +     ",
"  . + + + ) ' h i j 3 3 3 k l d m 4 ( ; : + + + + # ",
"  + + + + f n o p q 3 3 m r s t u 3 5 v w x + + + + ",
"  + + + y z ( 4 3 3 A ( B s g ) C D 5 c l w f % + + ",
"  + + % E m 4 3 3 3 ( n f % + + + F G m c H I % + + ",
"  + + % J ( / / 3 5 z f ) + + + + K L M N H I % + + ",
"  + + + O P , Q 5 5 R + + + + + + g S T N H I % + + ",
"  + + + S F U n 5 5 R ) + + + + + % f T N H I % + + ",
"  + + % V H W m 3 5 R ) + + + + + % f T N H I % + + ",
"  + + % E / N 4 3 5 R ) + + + + + % f T N H I % + + ",
"  + + % L n X Y 5 5 R ) + + + + + % f T N H I % + + ",
"  + + + 8 Z s B / 5 R ) + + + + + % f T N H I % + + ",
"  + + % ` Q  .d 3 5 R + + + + + + % S T N H I % + + ",
"  + + % E / N c 4 3 u V x % + + % ' e H N 6 I % + + ",
"  + + % ..+.v 6 v / 3 Y ` x + ) : @.W 3 ^ T y % + + ",
"  + + + : I L I P H c ^ M ..+ 8 r v 5 3 D I x + + + ",
"  + + + % % g y #.( 4 4 3 u w r d N / Q U + % + + . ",
"    . + + + + J +./ 4 3 3 5 5 5 3 m G t + + + + #   ",
"    $.+ + + + %...l 5 / / 5 3 3 3 u I x + + + .     ",
"        + + + % 8 E w e R Y c 5 Q U ) % + + .       ",
"          . + + + + + + K @.M  .F % + + + #         ",
"          $ + + + + + + + : O ' x + + + . &.        ",
"              + + + + + + % % % + + + .             ",
"                + + + + + + + + + + .               ",
"                $ . + + + + + + + . *.              "};
