/* XPM */
static char * coin4_xpm[] = {
"26 32 109 2",
"  	c #000000",
". 	c #FF9C00",
"+ 	c #FFA300",
"@ 	c #FFA301",
"# 	c #FFFFFF",
"$ 	c #FFFAF7",
"% 	c #FFB05D",
"& 	c #FFA306",
"* 	c #FFA409",
"= 	c #FFFEFE",
"- 	c #FFD2B2",
"; 	c #FFA419",
"> 	c #FFA200",
", 	c #FFA302",
"' 	c #FEFFFF",
") 	c #FFEBDF",
"! 	c #FFCEA2",
"~ 	c #FFC34E",
"{ 	c #FFBF00",
"] 	c #FFC000",
"^ 	c #FFB600",
"/ 	c #FFA400",
"( 	c #FF9A00",
"_ 	c #FEE7D7",
": 	c #FEF5EF",
"< 	c #FFFCFB",
"[ 	c #FFFDF9",
"} 	c #FFF7DB",
"| 	c #FFEA72",
"1 	c #FFE600",
"2 	c #FFE700",
"3 	c #FFD400",
"4 	c #FFB100",
"5 	c #FFA500",
"6 	c #FFAE55",
"7 	c #FFC89C",
"8 	c #FFF1E9",
"9 	c #FFFADB",
"0 	c #FFEF89",
"a 	c #FFEB3E",
"b 	c #FFE900",
"c 	c #FFEA00",
"d 	c #FFE500",
"e 	c #FFD500",
"f 	c #FFB400",
"g 	c #FF9F00",
"h 	c #FFAD43",
"i 	c #FFE4AF",
"j 	c #FFF29B",
"k 	c #FFEB02",
"l 	c #FFD100",
"m 	c #FFB700",
"n 	c #FFA304",
"o 	c #FFA700",
"p 	c #FFB70A",
"q 	c #FFDC26",
"r 	c #FFEB20",
"s 	c #FFE702",
"t 	c #FFDE00",
"u 	c #FFDC00",
"v 	c #FFDD00",
"w 	c #FFE400",
"x 	c #FFE800",
"y 	c #FFDF00",
"z 	c #FFC400",
"A 	c #FFBB00",
"B 	c #FFDB00",
"C 	c #FFBA00",
"D 	c #FFAF00",
"E 	c #FFB300",
"F 	c #FFD200",
"G 	c #FFC300",
"H 	c #FFAC00",
"I 	c #FFA40F",
"J 	c #FFA600",
"K 	c #FFBD00",
"L 	c #FFD700",
"M 	c #FFEB00",
"N 	c #FFD900",
"O 	c #FFBE00",
"P 	c #FFA100",
"Q 	c #FFC700",
"R 	c #FFC800",
"S 	c #FFA40D",
"T 	c #FFA900",
"U 	c #FFD600",
"V 	c #FFE100",
"W 	c #FFEC00",
"X 	c #FFA800",
"Y 	c #FFD300",
"Z 	c #FFB200",
"` 	c #FFAE00",
" .	c #FFE200",
"..	c #FFC500",
"+.	c #FFC900",
"@.	c #FFE000",
"#.	c #FFCF00",
"$.	c #FFAA00",
"%.	c #FFE300",
"&.	c #FFAB00",
"*.	c #FFC100",
"=.	c #FFCA00",
"-.	c #FFCD00",
";.	c #FFCB00",
">.	c #FFAD00",
",.	c #FFB000",
"'.	c #FFC600",
").	c #FFD000",
"!.	c #FFA40E",
"                                                    ",
"                . + @ + + + + + + @                 ",
"            # $ % & + + + + + + + + @ *             ",
"            # = - ; > + + + + + + + + ,             ",
"          ' ' # ) ! ~ { ] ] ] ^ / > + + @           ",
"      + ( _ : < [ } | 1 1 1 2 3 4 5 + + + @         ",
"      + + 6 7 8 9 0 a b c c c d e f > + + + ,       ",
"    + + @ g h i j b c k c c c c 2 l m 5 + + + @     ",
"n + + + + o p q r s t u u v w c x y z 5 > + + + @   ",
"@ + + + / A B 1 c v C D D E F b w G H 5 5 / + + + I ",
"@ + > J K L b M N O o P P + ^ l w F Q R R m / + + S ",
"@ + > T 3 c 2 u { / + + + + > f U w b b b R 5 + + S ",
"@ + > T 3 M V A o + + + + + + 5 4 L b 1 1 Q / + + S ",
"@ + > T 3 W y E P + + + + + + > X Y N ] O Z / + + S ",
"@ + > T 3 W y f > + + + + + + > T 3 L C m ` + + + S ",
"@ + > T 3 W y f > + + + + + + > T 3 x  . .../ + + S ",
"@ + > T 3 W y f > + + + + + + > T 3 M M M +.5 + + S ",
"@ + > T 3 W y f > + + + + + + > T 3 @.l #.A / + + S ",
"@ + > T 3 W y f P + + + + + + > T 3 Y Z ` T + + + S ",
"@ + > T 3 W y E P + + + + + + > T 3  .e 3 K / + + S ",
"@ + > $.e W %.+.4 + + + + + > &.*.t W W M =.5 + + S ",
"@ + > T -.w x 2 ;.H / + + + X ] V  .y y y G / + + S ",
"@ + + / ` +.1 c %.#.>.> + J ..@.%.z E E E H + + + S ",
", + + + > ,.;.%.W %.;.z z '.u M 1 ).^ + P > + + +   ",
"    + + + + H #.%.b x 2 x x b c x y z J + + + +     ",
"    @ + + + / >.=.2 b b b b x x  .*.$./ + + + ,     ",
"      , + + + > 4 =.w M M x F z *.H > + + +         ",
"          + + + > ` #.N N e m + + + + + +           ",
"          @ + + + 5 &.>.>.H o + + + + + ,           ",
"            @ + + + > > > > + + + + + !.            ",
"                + + + + + + + + + +                 ",
"                @ + + + + + + + @ ,                 "};
