/* XPM */
static char * coin7_xpm[] = {
"15 32 49 1",
" 	c #000000",
".	c #FFA300",
"+	c #FFA303",
"@	c #FFA200",
"#	c #FFA900",
"$	c #FFBA00",
"%	c #FFC000",
"&	c #FFB000",
"*	c #FFD900",
"=	c #FFE700",
"-	c #FFE600",
";	c #FFB100",
">	c #FFDC00",
",	c #FFEB00",
"'	c #FFEA00",
")	c #FFDB00",
"!	c #FFE400",
"~	c #FFDA00",
"{	c #FFCF00",
"]	c #FFB200",
"^	c #FFC700",
"/	c #FFE900",
"(	c #FFD500",
"_	c #FFBF00",
":	c #FFD100",
"<	c #FFB800",
"[	c #FFE200",
"}	c #FFEC00",
"|	c #FFDE00",
"1	c #FFD000",
"2	c #FFCD00",
"3	c #FFE000",
"4	c #FFD400",
"5	c #FFE500",
"6	c #FFDF00",
"7	c #FFB500",
"8	c #FFD700",
"9	c #FFC300",
"0	c #FFE800",
"a	c #FFA100",
"b	c #FFD800",
"c	c #FFC400",
"d	c #FFAE00",
"e	c #FFA400",
"f	c #FFA500",
"g	c #FFAB00",
"h	c #FFA800",
"i	c #FFA301",
"j	c #FFA306",
"               ",
"   ..........  ",
" +............+",
" ..............",
" ..@#$%%%%$#@..",
" ..@&*=--=*&@..",
" ..@;>,'',>;@..",
" ..@;>,'',>;@..",
" ..@;)!>>!);@..",
" ..@;~{]]{~;@..",
" ..@;)*^^*);@..",
" ..@;>,//,>;@..",
" ..@;)/--/);@..",
" ..@;)(__();@..",
" ..@;):<<:);@..",
" ..@;)=[[=);@..",
" ..@;>},,}>;@..",
" ..@;)|11|);@..",
" ..@;~2&&2~;@..",
" ..@;)3443);@..",
" ..@;>}}}}>;@..",
" ..@;)5665);@..",
" ..@;~1771~;@..",
" ..@;)8998);@..",
" ..@;)'00');@..",
" ..@;)'00');@..",
" ..a;>bccb>;a..",
" ..@d2_ee_2d@..",
" ...fgh..hgf...",
" i...@@..@@...i",
"  j..........j ",
"   i........i  "};
