/* XPM */
static char * coin5_xpm[] = {
"32 32 129 2",
"  	c #000000",
". 	c #FFFFFF",
"+ 	c #FFEDE1",
"@ 	c #FFB365",
"# 	c #FFA100",
"$ 	c #FFA300",
"% 	c #FF6900",
"& 	c #FFBD82",
"* 	c #FFFBF9",
"= 	c #FFA301",
"- 	c #FF9800",
"; 	c #FFA734",
"> 	c #FFE3D1",
", 	c #FFB263",
"' 	c #FFA000",
") 	c #FFA200",
"! 	c #FFA306",
"~ 	c #FFF1E8",
"{ 	c #FFD5B7",
"] 	c #FFD7BB",
"^ 	c #FFDAC1",
"/ 	c #FFD2B2",
"( 	c #FFD0AF",
"_ 	c #FFCB96",
": 	c #FFC13A",
"< 	c #FFBF00",
"[ 	c #FFC000",
"} 	c #FFBC00",
"| 	c #FFAA00",
"1 	c #FF9400",
"2 	c #FFAA45",
"3 	c #FFEBDE",
"4 	c #FFF4ED",
"5 	c #FFD3B4",
"6 	c #FFCB9E",
"7 	c #FFF2E1",
"8 	c #FFFBEF",
"9 	c #FFF5CE",
"0 	c #FFE855",
"a 	c #FFE600",
"b 	c #FFE700",
"c 	c #FFE000",
"d 	c #FFBD00",
"e 	c #FFAC00",
"f 	c #FFAB00",
"g 	c #FFA500",
"h 	c #FFA30B",
"i 	c #FFB264",
"j 	c #FFBE84",
"k 	c #FFC089",
"l 	c #FFEED4",
"m 	c #FFF0A1",
"n 	c #FFF090",
"o 	c #FFEE7C",
"p 	c #FFEA2E",
"q 	c #FFE900",
"r 	c #FFEA00",
"s 	c #FFE800",
"t 	c #FFDD00",
"u 	c #FFD900",
"v 	c #FFD100",
"w 	c #FFAF00",
"x 	c #FFA308",
"y 	c #FFBE14",
"z 	c #FFE9CB",
"A 	c #FFFCE9",
"B 	c #FFED6A",
"C 	c #FFEA01",
"D 	c #FFEB00",
"E 	c #FFE500",
"F 	c #FFCC00",
"G 	c #FFB300",
"H 	c #FFA302",
"I 	c #FFA800",
"J 	c #FFBA00",
"K 	c #FFDE2C",
"L 	c #FFF5BE",
"M 	c #FFF8D5",
"N 	c #FFEC65",
"O 	c #FFE100",
"P 	c #FFDC00",
"Q 	c #FFCD00",
"R 	c #FFAE00",
"S 	c #FFDE00",
"T 	c #FFE711",
"U 	c #FFEC63",
"V 	c #FFED71",
"W 	c #FFE630",
"X 	c #FFC500",
"Y 	c #FFB000",
"Z 	c #FFB600",
"` 	c #FFD800",
" .	c #FFE400",
"..	c #FFC700",
"+.	c #FFAE01",
"@.	c #FFD500",
"#.	c #FFAD00",
"$.	c #FFC200",
"%.	c #FFDA00",
"&.	c #FFA400",
"*.	c #FFA600",
"=.	c #FFB500",
"-.	c #FFC400",
";.	c #FFB400",
">.	c #FFCF00",
",.	c #FFE300",
"'.	c #FFC600",
").	c #FFB900",
"!.	c #FFD400",
"~.	c #FFDB00",
"{.	c #FFD700",
"].	c #FFC100",
"^.	c #FFA900",
"/.	c #FFC900",
"(.	c #FFD200",
"_.	c #FFCA00",
":.	c #FFCE00",
"<.	c #FFB200",
"[.	c #FFDF00",
"}.	c #FFBE00",
"|.	c #FFA40B",
"1.	c #FFB800",
"2.	c #FFD300",
"3.	c #FFC800",
"4.	c #FFA304",
"5.	c #FFA303",
"6.	c #FFC300",
"7.	c #FFA305",
"8.	c #FFA40C",
"                                                                ",
"                    . + @ # $ $ $ $ $ $ $                       ",
"                % & * + @ # $ $ $ $ $ $ $ $ $ =                 ",
"                - ; > + , ' ) $ $ $ $ $ $ $ $ $ !               ",
"              . ~ { ] ^ / ( _ : < [ } | # ) $ $ $ =             ",
"          1 2 3 4 ~ 5 6 7 8 9 0 a b c d e f g $ $ $ =           ",
"          ) h i j k ^ l m n o p q r s t u v w ) $ $ $ x         ",
"        $ $ $ ' g y z A B q r r C r r r D E F G ) $ $ $ =       ",
"    H $ $ $ $ I J K L M N O P P P P t a q q b Q R g $ $ $ =     ",
"    = $ $ $ g < S T U V W X w Y Y w Z ` q q q  .v R $ $ $ $     ",
"    = $ ) I [ u r q r O ..+.# ) ) # g J @.q r r  .Q G $ $ $     ",
"  = $ $ # #.u r q q O F | ) $ $ $ $ $ $ J u a r q b $.$ $ $ $ H ",
"  $ $ $ $ Y %.D q E ..f &.$ $ $ $ $ $ $ *.=.u q q b -.g $ $ $ = ",
"  $ $ $ ;.>.,.r O '.R ) $ $ $ $ $ $ $ $ ) *.).!.s s %.$.I ) $ $ ",
"  $ $ $ [ b r r ~.w # $ $ $ $ $ $ $ $ $ $ $ $ X s q D {.e ) $ = ",
"  $ $ $ [ a r r P w ) $ $ $ $ $ $ $ $ $ $ $ &.X s q r {.e ) $ = ",
"  $ $ $ [ a r r P w ) $ $ $ $ $ $ $ $ $ $ $ &.X s q r {.e ) $ = ",
"  $ $ $ ].b r r ~.w # $ $ $ $ $ $ $ $ $ $ $ $ X s q D ` e ) $ = ",
"  $ $ $ d c s r t =.g $ $ $ $ $ $ $ $ $ $ &.^./.s q a (.f ) $ = ",
"  $ $ $ | d S r E {.).$ $ $ $ $ $ $ $ $ ) | _.c q s :.<.g $ $ = ",
"  $ $ $ # e %.D r q !.).*.) $ $ $ $ $ ) R X O D r s $.) $ $ $ = ",
"    $ $ ) e (.E q q q ` ;.*.$ $ $ $ &.| X  .q q b [.}.$ $ $ H |.",
"    $ $ $ g Y Q s q r a ` 1.$ &.&.$ | _.O q q r S } ^.$ $ $     ",
"    = $ $ $ ) G :. .r r s 2.-.-.-.-.3.c D q r %.].I ) $ $ $     ",
"      4.$ $ $ $ w (. .q q s s s s s s q r b S ].g $ $ $ $       ",
"        = $ $ $ g w :.b b q q q q q q s s [.} I $ $ $ $ 5.      ",
"          = $ $ $ $ ;.6.X ~.D r r D a :.6.}.^.) $ $ $           ",
"            7.$ $ $ $ $ *.-.u ` ` u (.<.) $ $ $ $ $             ",
"              = $ $ $ $ $ ^.#.#.#.#.e *.$ $ $ $ $ 5.            ",
"                = $ $ $ $ ) ) ) ) ) ) $ $ $ $ $                 ",
"                      $ $ $ $ $ $ $ $ $ $ H                     ",
"                      H = $ $ $ $ $ $ $ = 8.                    "};
