/* XPM */
static char * cristal5_xpm[] = {
"32 32 44 1",
" 	c #000000",
".	c #202020",
"+	c #101810",
"@	c #9461B4",
"#	c #8359AC",
"$	c #9C5DAC",
"%	c #9C59C5",
"&	c #101010",
"*	c #AC59BD",
"=	c #B461C5",
"-	c #C5B6DE",
";	c #DEB6DE",
">	c #E6C6E6",
",	c #410C73",
"'	c #9C6DBD",
")	c #730041",
"!	c #A44CA4",
"~	c #C548A4",
"{	c #B475C5",
"]	c #CD7DC5",
"^	c #AC48BD",
"/	c #C56DC5",
"(	c #7B005A",
"_	c #62046A",
":	c #AC34AC",
"<	c #B4187B",
"[	c #52004A",
"}	c #A4248B",
"|	c #940C7B",
"1	c #313031",
"2	c #D5A5CD",
"3	c #B4388B",
"4	c #AC349C",
"5	c #AC2073",
"6	c #940C62",
"7	c #AC0862",
"8	c #B4288B",
"9	c #943473",
"0	c #5A0031",
"a	c #831441",
"b	c #940041",
"c	c #AC089C",
"d	c #AC205A",
"e	c #AC184A",
"                                ",
"              ...+              ",
"            ..@@#@+             ",
"            +@$$$%@&            ",
"            +@$**%@&            ",
"           +=*%**%%@&           ",
"           +=**%%%%-&           ",
"           +=*****;>,&          ",
"           +'===*;;>)&          ",
"          +!~{==;;>])&          ",
"          +!^/=;>>/(_&          ",
"          +!^:>>>]<([&          ",
"           +!:}|||}(_&          ",
"           1!2}|||}(_&          ",
"           122}|||}()&          ",
"           12;}|||}()&          ",
"           12345675()&          ",
"           +!::8775)&           ",
"            +9:8775)&           ",
"            +9:575)0&           ",
"            +!3575a&            ",
"            +!355ba&            ",
"             &|c5ba&            ",
"             &65bba&            ",
"             +55bba&            ",
"             +d5b)&             ",
"             +edb(&             ",
"              &eb)&             ",
"              &e(&              ",
"              &&&               ",
"                &               ",
"                                "};
