/* XPM */
static char * cristal6_xpm[] = {
"32 32 51 1",
" 	c #000000",
".	c #292829",
"+	c #101810",
"@	c #A44CA4",
"#	c #8348AC",
"$	c #6A389C",
"%	c #202020",
"&	c #8B40AC",
"*	c #9C5DAC",
"=	c #BD50BD",
"-	c #9C44AC",
";	c #BDAEDE",
">	c #DEB6DE",
",	c #AC48BD",
"'	c #101010",
")	c #393C39",
"!	c #AC34AC",
"~	c #AC59BD",
"{	c #AC40AC",
"]	c #AC4CAC",
"^	c #D5A5CD",
"/	c #E6C6E6",
"(	c #B428A4",
"_	c #C548A4",
":	c #B461C5",
"<	c #A428A4",
"[	c #B45DAC",
"}	c #940C7B",
"|	c #830494",
"1	c #94189C",
"2	c #9C28A4",
"3	c #A4248B",
"4	c #5A0031",
"5	c #AC59A4",
"6	c #9428A4",
"7	c #94206A",
"8	c #7B0C62",
"9	c #940C62",
"0	c #AC0862",
"a	c #9C1C4A",
"b	c #AC349C",
"c	c #B44094",
"d	c #B4288B",
"e	c #AC1862",
"f	c #AC2073",
"g	c #730041",
"h	c #7B005A",
"i	c #AC044A",
"j	c #AC2C6A",
"k	c #AC205A",
"l	c #AC184A",
"                                ",
"              ..++              ",
"            ..@#$#+             ",
"            %@&&&&$+            ",
"            %@&&&&&+            ",
"           %*=-&&&&&+           ",
"           %*=--&&&&+           ",
"           %;=-----&+           ",
"          %;>=------,'          ",
"          );>!~----{]'          ",
"          )^/-(~{{==_'          ",
"          )^:-<[[=}|1'          ",
"          )~:-231|}14'          ",
"          %5:-6378}74'          ",
"          %[:-6379934'          ",
"           %5-237997'           ",
"           %5-237997'           ",
"           %5-2<3997'           ",
"           %5-2<390a'           ",
"            +-2<397'            ",
"            +-<<39a'            ",
"            +bcdefg'            ",
"            +bc3}fg'            ",
"             +793hg'            ",
"             +7ifg'             ",
"             +jkkg'             ",
"             +jkkg'             ",
"              +alg'             ",
"              +ll'              ",
"              +'g'              ",
"                '               ",
"                                "};
