/* XPM */
static char * cristal_xpm[] = {
"32 32 58 1",
" 	c #000000",
".	c #393C39",
"+	c #202020",
"@	c #101010",
"#	c #C5B6DE",
"$	c #AC79BD",
"%	c #9461B4",
"&	c #8B71D5",
"*	c #DEB6DE",
"=	c #B489D5",
"-	c #6224AC",
";	c #5224B4",
">	c #390073",
",	c #D5C2EE",
"'	c #39049C",
")	c #5218B4",
"!	c #5204B4",
"~	c #52006A",
"{	c #7B24A4",
"]	c #292829",
"^	c #8324A4",
"/	c #5A048B",
"(	c #73047B",
"_	c #CD91CD",
":	c #CD9DC5",
"<	c #B4047B",
"[	c #73009C",
"}	c #94189C",
"|	c #BD79D5",
"1	c #A4248B",
"2	c #8B24A4",
"3	c #52004A",
"4	c #CD7DC5",
"5	c #AC089C",
"6	c #830494",
"7	c #52045A",
"8	c #101810",
"9	c #BD50BD",
"0	c #B428A4",
"a	c #B4388B",
"b	c #C548A4",
"c	c #940C7B",
"d	c #C52C6A",
"e	c #B4149C",
"f	c #BD044A",
"g	c #AC0862",
"h	c #AC044A",
"i	c #730041",
"j	c #AC2073",
"k	c #C53073",
"l	c #AC205A",
"m	c #940041",
"n	c #5A0031",
"o	c #AC1862",
"p	c #9C1C4A",
"q	c #7B005A",
"r	c #AC184A",
"s	c #831441",
"                                ",
"              ..+@              ",
"            ..#$%&@             ",
"            .*=-;;>@            ",
"           .,==;'')@            ",
"           .$==;'!-~@           ",
"          .==={!!!!-@           ",
"          ]===^!!!/{(@          ",
"          ]=_:<{!/[[}@          ",
"          ]|:<<1[[(23@          ",
"          ]4:55<16(27@          ",
"          89905<<1617@          ",
"          8ab055c16}@           ",
"           8a055<<17@           ",
"           8a0555<07@           ",
"           8ade<5<07@           ",
"           8ad<<5<d7@           ",
"           8adfg<<d3@           ",
"           8adghhdi3@           ",
"           8adfhhji@            ",
"           8aklmmjn@            ",
"            8almomp@            ",
"            8lllqmp@            ",
"            8klpmm@             ",
"            8klpmm@             ",
"            8klomp@             ",
"             8rrm@              ",
"             8rrm@              ",
"              8rp@              ",
"              @s@               ",
"               @@               ",
"                                "};
