/* XPM */
static char * cristal16_xpm[] = {
"32 32 50 1",
" 	c #000000",
".	c #393C39",
"+	c #292829",
"@	c #101810",
"#	c #B489D5",
"$	c #9479BD",
"%	c #8348AC",
"&	c #6A389C",
"*	c #101010",
"=	c #8359AC",
"-	c #7B1494",
";	c #5218B4",
">	c #41187B",
",	c #7314AC",
"'	c #3104AC",
")	c #52045A",
"!	c #6224AC",
"~	c #39049C",
"{	c #AC79BD",
"]	c #94189C",
"^	c #5A048B",
"/	c #5204B4",
"(	c #CD9DC5",
"_	c #73009C",
":	c #313031",
"<	c #AC34AC",
"[	c #830494",
"}	c #C59DCD",
"|	c #AC40AC",
"1	c #9C44AC",
"2	c #B4187B",
"3	c #7B0C62",
"4	c #940C7B",
"5	c #B4149C",
"6	c #B4388B",
"7	c #B428A4",
"8	c #940C62",
"9	c #7B005A",
"0	c #730041",
"a	c #B44094",
"b	c #941441",
"c	c #730C41",
"d	c #62046A",
"e	c #942873",
"f	c #943473",
"g	c #9C1C4A",
"h	c #7B206A",
"i	c #AC1862",
"j	c #940041",
"k	c #831441",
"                                ",
"              .+@@              ",
"             +#$%&@*            ",
"            +$###=&*            ",
"            +$##-;>*            ",
"           +$###,';)*           ",
"           +$###!~',*           ",
"          +{####!~~,*           ",
"          @####]^//!*           ",
"          @((#(]_^/,*           ",
"          :(((]<[__-*           ",
"          :}|<]]<[[[*           ",
"          :1|<]]<2]]*           ",
"          @1|<]]<[[3*           ",
"          @<|<]]<[43*           ",
"          @1|<]5<443*           ",
"           @6626444]*           ",
"           @1676489*            ",
"           @6676830*            ",
"           @66ab390*            ",
"           @6163c0d*            ",
"            @ef0000*            ",
"            @e0090*             ",
"            @gh990*             ",
"            @ig9j9*             ",
"             @kjj9*             ",
"             @ig0*              ",
"             @2g0*              ",
"              @kk*              ",
"              @***              ",
"                                ",
"                                "};
