/* XPM */
static char * cristal15_xpm[] = {
"32 32 55 1",
" 	c #000000",
".	c #292829",
"+	c #101810",
"@	c #9479BD",
"#	c #AC59A4",
"$	c #73449C",
"%	c #B489D5",
"&	c #9461B4",
"*	c #8348AC",
"=	c #8B40AC",
"-	c #101010",
";	c #8324A4",
">	c #522CCD",
",	c #7B107B",
"'	c #52045A",
")	c #732CC5",
"!	c #391494",
"~	c #AC79BD",
"{	c #5218B4",
"]	c #52006A",
"^	c #390073",
"/	c #9428A4",
"(	c #73309C",
"_	c #CD9DC5",
":	c #7314AC",
"<	c #5A006A",
"[	c #410C73",
"}	c #CD7DC5",
"|	c #A4248B",
"1	c #CD91CD",
"2	c #B428A4",
"3	c #A428A4",
"4	c #8310AC",
"5	c #AC34AC",
"6	c #AC40AC",
"7	c #9C44AC",
"8	c #313031",
"9	c #94089C",
"0	c #94189C",
"a	c #940C7B",
"b	c #AC089C",
"c	c #52004A",
"d	c #AC349C",
"e	c #94206A",
"f	c #940C62",
"g	c #940041",
"h	c #5A0031",
"i	c #9C28A4",
"j	c #942873",
"k	c #7B0C62",
"l	c #7B005A",
"m	c #7B206A",
"n	c #943473",
"o	c #831441",
"p	c #9C1C4A",
"                                ",
"              .+++              ",
"             .@#$$++            ",
"            .@%%&*=-            ",
"           .@%%;>>,'-           ",
"           .@%%)!!)'-           ",
"          .~%%%){{)]^-          ",
"          .~%%/{{{(]'-          ",
"          +~%_/:{{)<[-          ",
"          +}_|/:::/'-           ",
"          +12324445'-           ",
"          +663|5443<-           ",
"           +73322222-           ",
"           8=3|2|990-           ",
"           87||2|9a0-           ",
"           8522|aa|'-           ",
"           8522|ba|c-           ",
"           +752|aa|c-           ",
"           +75defg0h-           ",
"            +ijkklm-            ",
"            +jekllm-            ",
"            +nelllm-            ",
"            +mllllo-            ",
"            +mlggge-            ",
"             -lggp-             ",
"             +pggp-             ",
"             +pggp-             ",
"             +pggp-             ",
"              +pp-              ",
"              +---              ",
"                                ",
"                                "};
