/* XPM */
static char * cristal3_xpm[] = {
"32 32 50 1",
" 	c #000000",
".	c #202020",
"+	c #101810",
"@	c #A475D5",
"#	c #8B71D5",
"$	c #8348AC",
"%	c #AC79BD",
"&	c #B489D5",
"*	c #41187B",
"=	c #101010",
"-	c #B475C5",
";	c #4A048B",
">	c #310094",
",	c #BD79D5",
"'	c #39049C",
")	c #5A048B",
"!	c #7314AC",
"~	c #52006A",
"{	c #E6C6E6",
"]	c #94189C",
"^	c #5A006A",
"/	c #313031",
"(	c #73047B",
"_	c #62046A",
":	c #CD91CD",
"<	c #830494",
"[	c #940041",
"}	c #B44094",
"|	c #AC349C",
"1	c #7B005A",
"2	c #7B107B",
"3	c #AC34AC",
"4	c #9C44AC",
"5	c #B4388B",
"6	c #940C62",
"7	c #C53073",
"8	c #A4248B",
"9	c #AC2073",
"0	c #94206A",
"a	c #9C1C4A",
"b	c #C548A4",
"c	c #831441",
"d	c #730C41",
"e	c #AC205A",
"f	c #730041",
"g	c #5A0031",
"h	c #AC044A",
"i	c #AC2C6A",
"j	c #AC1862",
"k	c #AC184A",
"                                ",
"               .++              ",
"            ...@#$+             ",
"            .@@%&*=             ",
"           .-%%%&;>=            ",
"           .-,,,&;''=           ",
"           .-,,,&)';=           ",
"          .-,,,,&!;;~=          ",
"          +&,,,,{]!)^=          ",
"          /,,,,{{]](_=          ",
"           .,:{{]<[]_=          ",
"           +}|{{]<112=          ",
"           +}|33]<1(2=          ",
"           +4|33][1<1=          ",
"           +}553]6[1=           ",
"           +}55786[1=           ",
"           +}5559[[1=           ",
"           +}5550[[a=           ",
"           +}555a[[a=           ",
"           +5b57a11c=           ",
"            +}77a1d=            ",
"            +|7eefd=            ",
"            +|9[ecg=            ",
"            +|9heff=            ",
"            +i9heff=            ",
"             +jhjf=             ",
"             +ikkf=             ",
"             +ikkd=             ",
"             =}aa=              ",
"              ==g=              ",
"                =               ",
"                                "};
