/* XPM */
static char * cristal22_xpm[] = {
"32 32 54 1",
" 	c #000000",
".	c #393C39",
"+	c #292829",
"@	c #101010",
"#	c #B489D5",
"$	c #310094",
"%	c #3104AC",
"&	c #202020",
"*	c #9C6DBD",
"=	c #8B71D5",
"-	c #835DCD",
";	c #A475D5",
">	c #5204B4",
",	c #39049C",
"'	c #101810",
")	c #945DCD",
"!	c #9C59C5",
"~	c #5A048B",
"{	c #B461C5",
"]	c #AC59BD",
"^	c #B475C5",
"/	c #7314AC",
"(	c #73009C",
"_	c #B4388B",
":	c #9C5DAC",
"<	c #C56DC5",
"[	c #73047B",
"}	c #94189C",
"|	c #830494",
"1	c #AC59A4",
"2	c #CD7DC5",
"3	c #B45DAC",
"4	c #7B107B",
"5	c #C548A4",
"6	c #62046A",
"7	c #A4248B",
"8	c #940C7B",
"9	c #94089C",
"0	c #7B0C62",
"a	c #B44094",
"b	c #B4187B",
"c	c #C53073",
"d	c #7B005A",
"e	c #AC2073",
"f	c #B4047B",
"g	c #940041",
"h	c #730041",
"i	c #943473",
"j	c #AC1862",
"k	c #7B206A",
"l	c #94206A",
"m	c #AC2C6A",
"n	c #C52C6A",
"o	c #9C1C4A",
"                                ",
"              .++@              ",
"              +#$%@@            ",
"             &*=%%%@            ",
"            &--=%%%%@           ",
"           &---;%%%%@           ",
"          &----;>%%,,@          ",
"          '*)))!;>>>~~@         ",
"          '*{!!]^/~((@          ",
"          '_^{:]<[}}|@          ",
"          '_<{1^|[[[}@          ",
"          '_2{3<|[[[4@          ",
"          '_5<^||[[[4@          ",
"          '_52<|||[6@           ",
"          '_55}(||[4@           ",
"           '_57||||4@           ",
"           '_5789804@           ",
"           '_ab88884@           ",
"           '_ac788d@            ",
"           '_acefgd@            ",
"            '_cbgdh@            ",
"            'iejgdk@            ",
"            'lebjdk@            ",
"            'menjh@             ",
"            'cncgh@             ",
"             'jcgh@             ",
"             'jcgd@             ",
"             'ccg@              ",
"             'gcg@              ",
"              @o@               ",
"               @                ",
"                                "};
