/* XPM */
static char * cristal4_xpm[] = {
"32 32 47 1",
" 	c #000000",
".	c #202020",
"+	c #101810",
"@	c #393C39",
"#	c #9461B4",
"$	c #A475D5",
"%	c #73309C",
"&	c #9C6DBD",
"*	c #AC79BD",
"=	c #391494",
"-	c #101010",
";	c #390073",
">	c #BD79D5",
",	c #5A048B",
"'	c #B461C5",
")	c #4A048B",
"!	c #52006A",
"~	c #B475C5",
"{	c #940041",
"]	c #7B1494",
"^	c #C56DC5",
"/	c #CD7DC5",
"(	c #830494",
"_	c #7B005A",
":	c #7B107B",
"<	c #73047B",
"[	c #9C44AC",
"}	c #62046A",
"|	c #AC349C",
"1	c #AC1083",
"2	c #B4149C",
"3	c #AC34AC",
"4	c #AC1862",
"5	c #B4187B",
"6	c #C53073",
"7	c #940C62",
"8	c #730041",
"9	c #B4288B",
"0	c #B4388B",
"a	c #94206A",
"b	c #9C1C4A",
"c	c #730C41",
"d	c #A4248B",
"e	c #5A0031",
"f	c #AC2073",
"g	c #AC205A",
"h	c #831441",
"                                ",
"               ..+              ",
"            @..#$%+             ",
"            .##&&*=-            ",
"            .#&&&*;-            ",
"            .#&&&>,;-           ",
"           .''&&&&>);-          ",
"           .''''''>,!-          ",
"           .'~'''>{]!-          ",
"           +~~~^^/(_:-          ",
"           +~~~^^/<_:-          ",
"           +[/////<_}-          ",
"           +[|1123__}-          ",
"           +[|453___}-          ",
"           +[|443_{__-          ",
"           +[|55|{{__-          ",
"           +[|556{{__-          ",
"           +[65567_8-           ",
"           +[6556_88-           ",
"            +9556_88-           ",
"            +0656_88-           ",
"            +055abc-            ",
"            +dd2bbc-            ",
"             +d4{be-            ",
"             +f4{be-            ",
"             +g4{b-             ",
"             +g4{b-             ",
"              +b{b-             ",
"              +6b-              ",
"              --h-              ",
"                -               ",
"                                "};
