/* XPM */
static char * cristal9_xpm[] = {
"32 32 54 1",
" 	c #000000",
".	c #292829",
"+	c #101010",
"@	c #202020",
"#	c #AC79BD",
"$	c #B489D5",
"%	c #62046A",
"&	c #52006A",
"*	c #CD91CD",
"=	c #CD9DC5",
"-	c #73047B",
";	c #5A006A",
">	c #4A048B",
",	c #A475D5",
"'	c #A44CA4",
")	c #AC59A4",
"!	c #830494",
"~	c #5A048B",
"{	c #BD50BD",
"]	c #8B40AC",
"^	c #AC48BD",
"/	c #73009C",
"(	c #9C44AC",
"_	c #9C48C5",
":	c #B475C5",
"<	c #9C59C5",
"[	c #94089C",
"}	c #AC59BD",
"|	c #7B1494",
"1	c #8B24A4",
"2	c #8310AC",
"3	c #94189C",
"4	c #393C39",
"5	c #7B0C62",
"6	c #5A0031",
"7	c #101810",
"8	c #B45DAC",
"9	c #7B207B",
"0	c #AC4CAC",
"a	c #AC40AC",
"b	c #94206A",
"c	c #7B107B",
"d	c #B44094",
"e	c #B4388B",
"f	c #941441",
"g	c #AC1862",
"h	c #AC34AC",
"i	c #B4187B",
"j	c #7B206A",
"k	c #730C41",
"l	c #AC2C6A",
"m	c #C53073",
"n	c #AC184A",
"o	c #730041",
"                                ",
"              ..++              ",
"            @.#$%&++            ",
"            @$*=-%;>+           ",
"           @,')'!--~~+          ",
"          @,{]]]^-//~+          ",
"          @,^](]_!//~+          ",
"          @:_(_(<[//-+          ",
"          @:}(__]}!|/!+         ",
"          @^((^_]}12!3+         ",
"          4^^^^^_}!13+          ",
"          4^^^^^_}516+          ",
"          7^^^^^^8596+          ",
"           7(^^085536+          ",
"           7(00a855b6+          ",
"           7{aaa}55c+           ",
"           7{dda}553+           ",
"            7eda8553+           ",
"            7eda}516+           ",
"            7'dd8516+           ",
"             +fgh59+            ",
"             +fie5j+            ",
"             +fiiek+            ",
"             7liim6+            ",
"             7liil+             ",
"              +nil+             ",
"              +nmo+             ",
"              +nmo+             ",
"              7llk+             ",
"               +++              ",
"                                ",
"                                "};
