/* XPM */
static char * cristal19_xpm[] = {
"32 32 58 1",
" 	c #000000",
".	c #393C39",
"+	c #101010",
"@	c #202020",
"#	c #835DCD",
"$	c #8B71D5",
"%	c #AC79BD",
"&	c #6A48CD",
"*	c #C5B6DE",
"=	c #BDAEDE",
"-	c #A475D5",
";	c #D5C2EE",
">	c #52045A",
",	c #9461B4",
"'	c #8348CD",
")	c #9C59C5",
"!	c #E6C6E6",
"~	c #945DCD",
"{	c #DEB6DE",
"]	c #9C48C5",
"^	c #B461C5",
"/	c #52006A",
"(	c #A4248B",
"_	c #AC48BD",
":	c #7B107B",
"<	c #BD79D5",
"[	c #8B24A4",
"}	c #C56DC5",
"|	c #BD50BD",
"1	c #7B0C62",
"2	c #73047B",
"3	c #94189C",
"4	c #9C44AC",
"5	c #101810",
"6	c #9C28A4",
"7	c #A428A4",
"8	c #AC34AC",
"9	c #52004A",
"0	c #B428A4",
"a	c #B4388B",
"b	c #AC40AC",
"c	c #940C7B",
"d	c #7B207B",
"e	c #B4288B",
"f	c #94206A",
"g	c #942873",
"h	c #AC2073",
"i	c #7B206A",
"j	c #B4187B",
"k	c #AC1862",
"l	c #943473",
"m	c #AC349C",
"n	c #AC044A",
"o	c #940041",
"p	c #B4047B",
"q	c #BD044A",
"r	c #5A0031",
"s	c #AC184A",
"                                ",
"              ..++              ",
"            @.####++            ",
"           @$%#&&*=+            ",
"          @$%#&&**=+            ",
"          @-;#&***;>+           ",
"          @*;,****')+           ",
"          .*!;***''~+           ",
"          .*!{{{]]]^/+          ",
"          .{((!]]]_^:+          ",
"          .<([(}}|}12+          ",
"          @3(([[(}112+          ",
"          @3(([[4111:+          ",
"          5[6([[4211:+          ",
"          5[7(((82239+          ",
"           560((a11:+           ",
"           57007b1cd+           ",
"           5e007b:f9+           ",
"            5(0(b:g9+           ",
"            5h((b:i+            ",
"            5j(f4i9+            ",
"            5khfli9+            ",
"            5mhfli9+            ",
"            5mnof9+             ",
"            5jpnh9+             ",
"             +nqhr+             ",
"             +qqk+              ",
"             5jqs+              ",
"              +qs+              ",
"               ++               ",
"                                ",
"                                "};
