/* XPM */
static char * cristal11_xpm[] = {
"32 32 54 1",
" 	c #000000",
".	c #202020",
"+	c #101010",
"@	c #8B71D5",
"#	c #A475D5",
"$	c #AC79BD",
"%	c #5A006A",
"&	c #9479BD",
"*	c #CD7DC5",
"=	c #A4248B",
"-	c #62046A",
";	c #8B24A4",
">	c #73047B",
",	c #94189C",
"'	c #52006A",
")	c #73009C",
"!	c #8324A4",
"~	c #7B24A4",
"{	c #7B1494",
"]	c #7314AC",
"^	c #BD79D5",
"/	c #8310AC",
"(	c #B475C5",
"_	c #9C28A4",
":	c #732CC5",
"<	c #730C41",
"[	c #B428A4",
"}	c #94089C",
"|	c #9428A4",
"1	c #52045A",
"2	c #101810",
"3	c #AC34AC",
"4	c #AC1083",
"5	c #940C7B",
"6	c #AC349C",
"7	c #C53073",
"8	c #AC089C",
"9	c #830494",
"0	c #B4288B",
"a	c #A428A4",
"b	c #C52C6A",
"c	c #940041",
"d	c #942873",
"e	c #7B207B",
"f	c #94206A",
"g	c #7B005A",
"h	c #940C62",
"i	c #7B0C62",
"j	c #AC2C6A",
"k	c #9C1C4A",
"l	c #AC0862",
"m	c #AC1862",
"n	c #AC044A",
"o	c #B44094",
"                                ",
"              ...+              ",
"             .@#$%+             ",
"            .&$$*=-+            ",
"            .@=;;>,'+           ",
"           .@&;)>)!%+           ",
"          .@&$;)))~-+           ",
"         .#$$$;{{]);-+          ",
"          .#$^;///]!>+          ",
"          .(^^_///]:<+          ",
"          .(^[}}///|1+          ",
"          .^*[/}}}/|1+          ",
"           2*[/}}}};+           ",
"           23[}}4}};+           ",
"           23[}4455!+           ",
"           267[555}!+           ",
"           267[859=1+           ",
"           2660559=1+           ",
"            2abc59=1+           ",
"            2d6=c5e+            ",
"            2d6fghe+            ",
"            2d6fihf+            ",
"            2j6khhh+            ",
"            2j6khlk+            ",
"             2jmcnk+            ",
"             2jmcc+             ",
"             2jmcc+             ",
"              2knc+             ",
"              2ok+              ",
"               +++              ",
"                                ",
"                                "};
