/* XPM */
static char * cristal23_xpm[] = {
"32 32 50 1",
" 	c #000000",
".	c #202020",
"+	c #101010",
"@	c #9479BD",
"#	c #8B71D5",
"$	c #310094",
"%	c #8359AC",
"&	c #9461B4",
"*	c #835DCD",
"=	c #3104AC",
"-	c #8348CD",
";	c #101810",
">	c #6A48CD",
",	c #39049C",
"'	c #4A048B",
")	c #945DCD",
"!	c #5204B4",
"~	c #9C59C5",
"{	c #9C48C5",
"]	c #B461C5",
"^	c #7B1494",
"/	c #7314AC",
"(	c #5A048B",
"_	c #AC349C",
":	c #C53073",
"<	c #9C5DAC",
"[	c #A44CA4",
"}	c #DEB6DE",
"|	c #73047B",
"1	c #62046A",
"2	c #7B107B",
"3	c #AC34AC",
"4	c #AC48BD",
"5	c #E6C6E6",
"6	c #5A006A",
"7	c #52045A",
"8	c #C56DC5",
"9	c #C548A4",
"0	c #7B0C62",
"a	c #AC2C6A",
"b	c #940041",
"c	c #7B005A",
"d	c #730041",
"e	c #942873",
"f	c #C52C6A",
"g	c #5A0031",
"h	c #B44094",
"i	c #AC1083",
"j	c #B4187B",
"k	c #9C1C4A",
"                                ",
"              ...+              ",
"             .@#@$++            ",
"             .%&*=$+            ",
"            .*--&==$+           ",
"            ;>-*&===,+          ",
"           ;---**&,,'+          ",
"           ;-***)&'!'+          ",
"           ;~))){]^/(+          ",
"          ;_:]{<[}|12+          ",
"          ;3_]4[}5116+          ",
"          ;__:]}}|17+           ",
"           ;__5}5|17+           ",
"           ;__35|||6+           ",
"           ;_:38|||6+           ",
"           ;::_9|001+           ",
"           ;:::90001+           ",
"           ;:::90001+           ",
"            ;a:9b0c+            ",
"            ;a_9bcd+            ",
"            ;e:fbcg+            ",
"            ;haabcg+            ",
"            ;haifcg+            ",
"            ;aiifcg+            ",
"            ;afjfd+             ",
"             ;ajfd+             ",
"             ;ajfd+             ",
"             ;afd+              ",
"             ;kfd+              ",
"              +k+               ",
"               ++               ",
"                                "};
