/* XPM */
static char * cristal12_xpm[] = {
"32 32 53 1",
" 	c #000000",
".	c #202020",
"+	c #101010",
"@	c #8B71D5",
"#	c #A475D5",
"$	c #AC79BD",
"%	c #B475C5",
"&	c #9461B4",
"*	c #9479BD",
"=	c #BD79D5",
"-	c #7B107B",
";	c #6224AC",
">	c #835DCD",
",	c #94189C",
"'	c #62046A",
")	c #5A048B",
"!	c #52006A",
"~	c #9C6DBD",
"{	c #D5C2EE",
"]	c #4A048B",
"^	c #73047B",
"/	c #73009C",
"(	c #8324A4",
"_	c #7314AC",
":	c #C5B6DE",
"<	c #8B24A4",
"[	c #7B1494",
"}	c #101810",
"|	c #E6C6E6",
"1	c #B461C5",
"2	c #C56DC5",
"3	c #7B207B",
"4	c #7B0C62",
"5	c #CD9DC5",
"6	c #CD7DC5",
"7	c #313031",
"8	c #B4388B",
"9	c #B428A4",
"0	c #A4248B",
"a	c #830494",
"b	c #AC2073",
"c	c #7B005A",
"d	c #9C1C4A",
"e	c #94206A",
"f	c #7B206A",
"g	c #730041",
"h	c #940041",
"i	c #AC1862",
"j	c #AC184A",
"k	c #C52C6A",
"l	c #AC205A",
"m	c #AC2C6A",
"n	c #941441",
"                                ",
"               ..+              ",
"              .@#$+             ",
"             .@$$%+             ",
"            .&*=--;+            ",
"            .>@,')!+            ",
"           .>~{,)))]+           ",
"          .&~{{,^//]+           ",
"          .&{{{(///)_+          ",
"          .:{{#</[[_;+          ",
"          }{|12<[[[/3+          ",
"          }{222<[[[43+          ",
"          }5666<[[443+          ",
"           7899<--44+           ",
"           78990-44'+           ",
"           }8990444-+           ",
"           }8990aa^-+           ",
"           }8b99,ca-+           ",
"           }800bdca-+           ",
"            }e00ec4-+           ",
"            }e0efgg+            ",
"            }ebefc4+            ",
"            }eb0e44+            ",
"            }dbbdhc+            ",
"             }ibdhc+            ",
"             }jkdc+             ",
"             }jldc+             ",
"              }jdg+             ",
"              }mnh+             ",
"               +++              ",
"                                ",
"                                "};
