/* XPM */
static char * cristal2_xpm[] = {
"32 32 52 1",
" 	c #000000",
".	c #292829",
"+	c #101810",
"@	c #AC79BD",
"#	c #8359AC",
"$	c #B489D5",
"%	c #5218B4",
"&	c #41187B",
"*	c #101010",
"=	c #39049C",
"-	c #4A048B",
";	c #CD91CD",
">	c #6224AC",
",	c #5204B4",
"'	c #B428A4",
")	c #8324A4",
"!	c #5A048B",
"~	c #5A006A",
"{	c #BD79D5",
"]	c #A4248B",
"^	c #B4047B",
"/	c #73047B",
"(	c #62046A",
"_	c #CD9DC5",
":	c #AC089C",
"<	c #940C7B",
"[	c #830494",
"}	c #BD50BD",
"|	c #C548A4",
"1	c #B4388B",
"2	c #94189C",
"3	c #9C44AC",
"4	c #AC0862",
"5	c #B44094",
"6	c #AC2073",
"7	c #940041",
"8	c #AC044A",
"9	c #9C1C4A",
"0	c #DEB6DE",
"a	c #AC205A",
"b	c #C53073",
"c	c #940C62",
"d	c #831441",
"e	c #D5A5CD",
"f	c #AC2C6A",
"g	c #AC1083",
"h	c #AC184A",
"i	c #730041",
"j	c #7B005A",
"k	c #941441",
"l	c #B4288B",
"m	c #C52C6A",
"                                ",
"              ..+               ",
"            ..@@#+              ",
"            .@$$%&*             ",
"           .@$$$%==*            ",
"           .@$$$%==*            ",
"          .$$$$$%=--*           ",
"          .$$$$;>,,-*           ",
"          .$$$;')!!~*           ",
"          .{;;;]^)/(*           ",
"          +$__':<][(*           ",
"          +}||':<<]/*           ",
"           +1|]:<<<2*           ",
"           +3|':4<<<*           ",
"           +5|':4:<2*           ",
"           +5|':4:^]*           ",
"           +556^447*            ",
"           +}5|64^7*            ",
"           +}5|6889*            ",
"           +}50a779*            ",
"           +}0ba7cd*            ",
"           +e0ba79d*            ",
"            +fgh9id*            ",
"            +fgbjjk*            ",
"            +lgm7j*             ",
"            +fmm7j*             ",
"             +fm7j*             ",
"             +fmj*              ",
"             *ffk*              ",
"              **i*              ",
"                *               ",
"                                "};
