/* XPM */
static char * cristal20_xpm[] = {
"32 32 56 1",
" 	c #000000",
".	c #393C39",
"+	c #292829",
"@	c #101810",
"#	c #101010",
"$	c #202020",
"%	c #9479BD",
"&	c #6A44BD",
"*	c #522CCD",
"=	c #8B71D5",
"-	c #6A48CD",
";	c #AC79BD",
">	c #6230BD",
",	c #A475D5",
"'	c #8348CD",
")	c #BD79D5",
"!	c #732CC5",
"~	c #9C48C5",
"{	c #73309C",
"]	c #9428A4",
"^	c #8B40AC",
"/	c #B475C5",
"(	c #CD7DC5",
"_	c #8B24A4",
":	c #AC48BD",
"<	c #AC34AC",
"[	c #9C44AC",
"}	c #A4248B",
"|	c #830494",
"1	c #C548A4",
"2	c #62046A",
"3	c #7B0C62",
"4	c #94089C",
"5	c #73047B",
"6	c #A428A4",
"7	c #AC1083",
"8	c #7B206A",
"9	c #B4149C",
"0	c #AC089C",
"a	c #730C41",
"b	c #AC2073",
"c	c #940C7B",
"d	c #AC349C",
"e	c #C52C6A",
"f	c #B4047B",
"g	c #B4187B",
"h	c #940041",
"i	c #94206A",
"j	c #7B005A",
"k	c #AC2C6A",
"l	c #AC044A",
"m	c #AC1862",
"n	c #831441",
"o	c #9C1C4A",
"p	c #BD044A",
"q	c #AC184A",
"                                ",
"              .+@#              ",
"            $.%&*&@#            ",
"           $=%-***&#            ",
"          $=;%-****@            ",
"          $=;;-***>&#           ",
"          $,;;'>>>**@           ",
"          $,;)'>!!!!@           ",
"          $,))~{{{{]^#          ",
"          $/)(_:~<<<[#          ",
"          @)(}|||1<12#          ",
"          @)(}||||132#          ",
"          @)}44|||_32#          ",
"          @(}44||_22#           ",
"           #4444|_22#           ",
"           #44444}53#           ",
"           @67744}38#           ",
"           @}99046a#            ",
"           @b000c6a#            ",
"           @deffc68#            ",
"            @gfhhi8#            ",
"            @gfhj8#             ",
"            @kghj8#             ",
"            @kglj8#             ",
"            @kmhhn#             ",
"            @kmlh#              ",
"             @oph#              ",
"             @qpl#              ",
"             #qpq#              ",
"              #q#               ",
"               #                ",
"                                "};
