/* XPM */
static char * cristal13_xpm[] = {
"32 32 56 1",
" 	c #000000",
".	c #202020",
"+	c #393C39",
"@	c #C5B6DE",
"#	c #9461B4",
"$	c #8359AC",
"%	c #9C6DBD",
"&	c #7B206A",
"*	c #101010",
"=	c #9C5DAC",
"-	c #8348CD",
";	c #7B107B",
">	c #52045A",
",	c #A475D5",
"'	c #6A48CD",
")	c #B461C5",
"!	c #5A006A",
"~	c #52006A",
"{	c #835DCD",
"]	c #5A048B",
"^	c #62046A",
"/	c #101810",
"(	c #8348AC",
"_	c #73047B",
":	c #4A048B",
"<	c #410C73",
"[	c #313031",
"}	c #AC59A4",
"|	c #9C48C5",
"1	c #945DCD",
"2	c #830494",
"3	c #7B0C62",
"4	c #AC34AC",
"5	c #9C44AC",
"6	c #C56DC5",
"7	c #BD50BD",
"8	c #AC48BD",
"9	c #B4388B",
"0	c #B4149C",
"a	c #B428A4",
"b	c #940C7B",
"c	c #730C41",
"d	c #C53073",
"e	c #AC40AC",
"f	c #B4187B",
"g	c #7B005A",
"h	c #AC1083",
"i	c #AC349C",
"j	c #AC1862",
"k	c #94189C",
"l	c #941441",
"m	c #730041",
"n	c #C52C6A",
"o	c #AC184A",
"p	c #AC0862",
"q	c #AC2C6A",
"                                ",
"            .+.                 ",
"           .@##..               ",
"           .$%%#&*              ",
"          .=-##;>*              ",
"         .,#'')!!~*             ",
"         .$-{')]^~*             ",
"         /({{#_]]]:*            ",
"         /({{#_]_]<*            ",
"        [}||1)2_3_]*            ",
"        /4)||)2333^*            ",
"        /5678)23;3;*            ",
"         /96662;;3*             ",
"         /940ab;3c*             ",
"         /9400d33c*             ",
"         /eaffd33^*             ",
"         /edffdgg^*             ",
"         /e9ffdgg^*             ",
"         /9ffhdggc*             ",
"         /ijkhig3^*             ",
"          *lhhimmc*             ",
"          *lllimmc*             ",
"          *lhhigm*              ",
"          *lhhigm*              ",
"           *lfngm*              ",
"           *longm*              ",
"           *lonm*               ",
"            *pnm*               ",
"            *qqm*               ",
"             ***                ",
"                                ",
"                                "};
