/* XPM */
static char * cristal21_xpm[] = {
"32 32 62 1",
" 	c #000000",
".	c #292829",
"+	c #101010",
"@	c #391494",
"#	c #3108C5",
"$	c #202020",
"%	c #8B71D5",
"&	c #522CCD",
"*	c #835DCD",
"=	c #9C6DBD",
"-	c #9461B4",
";	c #732CC5",
">	c #5218B4",
",	c #5204B4",
"'	c #7314AC",
")	c #5A048B",
"!	c #101810",
"~	c #CD9DC5",
"{	c #BD79D5",
"]	c #9428A4",
"^	c #313031",
"/	c #D5A5CD",
"(	c #B461C5",
"_	c #94189C",
":	c #830494",
"<	c #9C28A4",
"[	c #8310AC",
"}	c #B475C5",
"|	c #C56DC5",
"1	c #73009C",
"2	c #B428A4",
"3	c #AC34AC",
"4	c #73047B",
"5	c #8B24A4",
"6	c #52045A",
"7	c #B4388B",
"8	c #CD7DC5",
"9	c #8324A4",
"0	c #A4248B",
"a	c #E6C6E6",
"b	c #94089C",
"c	c #7B1494",
"d	c #940C7B",
"e	c #52004A",
"f	c #AC089C",
"g	c #AC1083",
"h	c #B4288B",
"i	c #C53073",
"j	c #B4047B",
"k	c #7B206A",
"l	c #B4187B",
"m	c #940041",
"n	c #7B005A",
"o	c #AC044A",
"p	c #730041",
"q	c #AC2C6A",
"r	c #5A0031",
"s	c #9C1C4A",
"t	c #C52C6A",
"u	c #AC184A",
"v	c #B44094",
"w	c #941441",
"                                ",
"               .+               ",
"             ..@#++             ",
"            $%%&##@+            ",
"           $*==&##@+            ",
"          $-===&##@@+           ",
"          $-===;@@>,+           ",
"          $-===;>>>')+          ",
"         !~{===];''''+          ",
"         ^/{(=(_:<[[]+          ",
"          ^}|(|_1:232+          ",
"          !}||_::4456+          ",
"          !78|_::4496+          ",
"          !780::::496+          ",
"          !7a0b::::c+           ",
"           !70bbb:06+           ",
"           !72bbbd0e+           ",
"           !72fgdd0e+           ",
"           !7hfffd5+            ",
"           !7ihjd:k+            ",
"            !/ljmnk+            ",
"            !~lomp+             ",
"            ^~lomp+             ",
"            ^qilmr+             ",
"            !qismp+             ",
"             !tsm+              ",
"             !tum+              ",
"             !tum+              ",
"             +vum+              ",
"              +w+               ",
"               +                ",
"                                "};
