/* XPM */
static char * cristal10_xpm[] = {
"32 32 59 1",
" 	c #000000",
".	c #292829",
"+	c #101010",
"@	c #AC79BD",
"#	c #B489D5",
"$	c #52045A",
"%	c #52006A",
"&	c #393C39",
"*	c #9479BD",
"=	c #CD91CD",
"-	c #CD9DC5",
";	c #73047B",
">	c #5A048B",
",	c #C5B6DE",
"'	c #9C44AC",
")	c #8B40AC",
"!	c #830494",
"~	c #8324A4",
"{	c #7B24A4",
"]	c #8B71D5",
"^	c #A475D5",
"/	c #BD79D5",
"(	c #8B24A4",
"_	c #9428A4",
":	c #AC34AC",
"<	c #73009C",
"[	c #202020",
"}	c #94189C",
"|	c #B475C5",
"1	c #B4388B",
"2	c #9C28A4",
"3	c #7B1494",
"4	c #A428A4",
"5	c #7B206A",
"6	c #C56DC5",
"7	c #AC40AC",
"8	c #62046A",
"9	c #101810",
"0	c #CD7DC5",
"a	c #B428A4",
"b	c #B44094",
"c	c #A4248B",
"d	c #AC349C",
"e	c #B4288B",
"f	c #6224AC",
"g	c #942873",
"h	c #7B0C62",
"i	c #94206A",
"j	c #940041",
"k	c #940C7B",
"l	c #940C62",
"m	c #7B107B",
"n	c #9C1C4A",
"o	c #AC0862",
"p	c #AC044A",
"q	c #C52C6A",
"r	c #AC205A",
"s	c #AC1862",
"t	c #AC184A",
"                                ",
"              ..+++             ",
"             .@@#$%+            ",
"            &*#=-;>%+           ",
"           &,#'')!;>>+          ",
"          &,*'~{{);>>+          ",
"          &]@'~~~)!;>+          ",
"         &^@/)(__{:<>+          ",
"          [^/'___~'};+          ",
"          [|1__22_);3+          ",
"          [|:2244_';5+          ",
"          [6744:42'85+          ",
"          9074::42'85+          ",
"          9ab4::42'85+          ",
"           91a4442'$+           ",
"           91aa4c'8$+           ",
"           9d1ccc:85+           ",
"           9e1ccc:8f+           ",
"            9dccc785+           ",
"            9g1c4(h5+           ",
"            9gijkc8+            ",
"            9gill4m+            ",
"             9nlooi+            ",
"             9noooi+            ",
"             9npooi+            ",
"             9qrps+             ",
"              9tpt+             ",
"              9tpt+             ",
"              9tj+              ",
"               +++              ",
"                                ",
"                                "};
