/* XPM */
static char * cristal14_xpm[] = {
"32 32 62 1",
" 	c #000000",
".	c #292829",
"+	c #202020",
"@	c #9479BD",
"#	c #9461B4",
"$	c #8359AC",
"%	c #D5C2EE",
"&	c #A475D5",
"*	c #730C41",
"=	c #101010",
"-	c #C5B6DE",
";	c #DEB6DE",
">	c #945DCD",
",	c #5A006A",
"'	c #52045A",
")	c #BDAEDE",
"!	c #6A44BD",
"~	c #52006A",
"{	c #393C39",
"]	c #9C48C5",
"^	c #5A048B",
"/	c #390073",
"(	c #9C59C5",
"_	c #8B40AC",
":	c #8348CD",
"<	c #62046A",
"[	c #410C73",
"}	c #AC4CAC",
"|	c #73047B",
"1	c #101810",
"2	c #9428A4",
"3	c #BD50BD",
"4	c #9C44AC",
"5	c #7B0C62",
"6	c #AC34AC",
"7	c #AC59BD",
"8	c #AC40AC",
"9	c #9C28A4",
"0	c #B428A4",
"a	c #AC089C",
"b	c #AC349C",
"c	c #B4388B",
"d	c #7B005A",
"e	c #730041",
"f	c #B4288B",
"g	c #AC0862",
"h	c #B4047B",
"i	c #AC2073",
"j	c #942873",
"k	c #940C7B",
"l	c #940041",
"m	c #A4248B",
"n	c #52004A",
"o	c #94206A",
"p	c #940C62",
"q	c #5A0031",
"r	c #AC044A",
"s	c #BD044A",
"t	c #C52C6A",
"u	c #AC1862",
"v	c #AC205A",
"w	c #AC184A",
"                                ",
"              .++               ",
"             .@#$+++            ",
"            .@%&$$*=            ",
"            .-;-->,'=           ",
"           .-%-)!>~'=           ",
"           {-;)!!],^/=          ",
"           {-;!!!(,^~=          ",
"           {)__::(<<[=          ",
"           .}____(<|,=          ",
"           1234443|5,=          ",
"           166788355,=          ",
"           19633335<=           ",
"           1960aa05<=           ",
"           1960aa05<=           ",
"           1660aa05<=           ",
"           1bc0aa0d<=           ",
"            1b0aa0e<=           ",
"            1faghie<=           ",
"            1jkklmen=           ",
"            1oplloqn=           ",
"            1olllon=            ",
"            1ollliq=            ",
"             =lrriq=            ",
"             =lsstq=            ",
"             =rssu=             ",
"              =lsu=             ",
"              =lve=             ",
"              =wwe=             ",
"               ===              ",
"                                ",
"                                "};
