/* XPM */
static char * cristal17_xpm[] = {
"32 32 57 1",
" 	c #000000",
".	c #202020",
"+	c #101810",
"@	c #9479BD",
"#	c #8B71D5",
"$	c #A475D5",
"%	c #73449C",
"&	c #B489D5",
"*	c #7B107B",
"=	c #41187B",
"-	c #101010",
";	c #D5C2EE",
">	c #5A048B",
",	c #310094",
"'	c #39049C",
")	c #BD79D5",
"!	c #AC79BD",
"~	c #73047B",
"{	c #4A048B",
"]	c #8B40AC",
"^	c #E6C6E6",
"/	c #CD91CD",
"(	c #AC40AC",
"_	c #94089C",
":	c #A4248B",
"<	c #73009C",
"[	c #9C44AC",
"}	c #AC34AC",
"|	c #B428A4",
"1	c #A428A4",
"2	c #830494",
"3	c #94189C",
"4	c #9C28A4",
"5	c #7B005A",
"6	c #8B24A4",
"7	c #AC089C",
"8	c #7B0C62",
"9	c #B4149C",
"0	c #C53073",
"a	c #730041",
"b	c #B4388B",
"c	c #B44094",
"d	c #B4187B",
"e	c #62046A",
"f	c #AC349C",
"g	c #730C41",
"h	c #5A0031",
"i	c #942873",
"j	c #943473",
"k	c #94206A",
"l	c #9C1C4A",
"m	c #7B206A",
"n	c #AC1862",
"o	c #AC2073",
"p	c #831441",
"q	c #C52C6A",
"r	c #AC184A",
"                                ",
"             ...+++             ",
"             .@#$%+             ",
"            .#@@&*=-            ",
"            .#@@;>,-            ",
"           .@@@;;>,-            ",
"           .#@;;;>,-            ",
"           .$;;;&>''-           ",
"          +);;;!&~{'-           ",
"          +]^^))/~>{-           ",
"          +](///_:<>-           ",
"          +[}(|__1233-          ",
"          +[[[4___:25-          ",
"          +[[[6___|~~-          ",
"          +[([:__:~~-           ",
"          +(((:_7|85-           ",
"          +(((|77|85-           ",
"           +((|9088a-           ",
"           +bc}d08ae-           ",
"           +b(f:fgh-            ",
"           +b[ifgah-            ",
"            +jiiaah-            ",
"            +jkkaaa-            ",
"            +lkmaa-             ",
"            +nomaa-             ",
"             +np5a-             ",
"             +dlaa-             ",
"             +dqg-              ",
"              +rp-              ",
"              ++-               ",
"                                ",
"                                "};
