/* XPM */
static char * cristal18_xpm[] = {
"32 32 56 1",
" 	c #000000",
".	c #292829",
"+	c #202020",
"@	c #101810",
"#	c #8B71D5",
"$	c #835DCD",
"%	c #7B107B",
"&	c #A475D5",
"*	c #9479BD",
"=	c #410C73",
"-	c #101010",
";	c #52006A",
">	c #62046A",
",	c #390073",
"'	c #AC79BD",
")	c #B489D5",
"!	c #9C6DBD",
"~	c #73047B",
"{	c #4A048B",
"]	c #A428A4",
"^	c #BD79D5",
"/	c #5A048B",
"(	c #9428A4",
"_	c #AC34AC",
":	c #B461C5",
"<	c #830494",
"[	c #7B1494",
"}	c #CD7DC5",
"|	c #C56DC5",
"1	c #94089C",
"2	c #9C28A4",
"3	c #940C7B",
"4	c #943473",
"5	c #8B24A4",
"6	c #7B0C62",
"7	c #D5A5CD",
"8	c #8324A4",
"9	c #A4248B",
"0	c #B4388B",
"a	c #DEB6DE",
"b	c #AC349C",
"c	c #730041",
"d	c #313031",
"e	c #CD9DC5",
"f	c #5A0031",
"g	c #B4288B",
"h	c #942873",
"i	c #7B206A",
"j	c #730C41",
"k	c #AC2C6A",
"l	c #AC0862",
"m	c #941441",
"n	c #AC1083",
"o	c #C52C6A",
"p	c #AC184A",
"q	c #B4187B",
"                                ",
"              .+@@@             ",
"            ++#$#%@             ",
"           +&####*=-            ",
"           +&*###*;-            ",
"           +#####*>,-           ",
"          +&'####*>,-           ",
"          +)'!!!!'~{-           ",
"          +]^&!!!!^/{-          ",
"          +(_^:::^<[{-          ",
"          +(__}|}1[%>-          ",
"          @2](2}3<[<%-          ",
"          @(_24_56<5>-          ",
"          @(__(786<5>-          ",
"          @___775<<9>-          ",
"          @_0aaa539>-           ",
"          @baaa_939c-           ",
"           dea_02]6>-           ",
"           deb_02]6f-           ",
"           dgbbh%hf-            ",
"            @h4ihjf-            ",
"            @h4iiff-            ",
"            @k4iiff-            ",
"            @lmhff-             ",
"             -mkcf-             ",
"             -nocc-             ",
"             -pocc-             ",
"             -qoc-              ",
"              -oj-              ",
"              ---               ",
"                                ",
"                                "};
