/* XPM */
static char * cristal24_xpm[] = {
"32 32 52 1",
" 	c #000000",
".	c #292829",
"+	c #393C39",
"@	c #101010",
"#	c #AC79BD",
"$	c #C5B6DE",
"%	c #310094",
"&	c #8348CD",
"*	c #6A48CD",
"=	c #6230BD",
"-	c #39049C",
";	c #390073",
">	c #D5C2EE",
",	c #73309C",
"'	c #4A048B",
")	c #AC48BD",
"!	c #52006A",
"~	c #E6C6E6",
"{	c #B4149C",
"]	c #9C48C5",
"^	c #9428A4",
"/	c #62046A",
"(	c #943473",
"_	c #A44CA4",
":	c #730C41",
"<	c #101810",
"[	c #B428A4",
"}	c #AC1083",
"|	c #AC34AC",
"1	c #AC4CAC",
"2	c #5A006A",
"3	c #52045A",
"4	c #B4187B",
"5	c #9C28A4",
"6	c #313031",
"7	c #C548A4",
"8	c #AC349C",
"9	c #C53073",
"0	c #7B005A",
"a	c #7B0C62",
"b	c #C52C6A",
"c	c #AC2C6A",
"d	c #B4288B",
"e	c #730041",
"f	c #5A0031",
"g	c #941441",
"h	c #AC1862",
"i	c #9C1C4A",
"j	c #940041",
"k	c #AC044A",
"l	c #BD044A",
"m	c #AC184A",
"                                ",
"             ...+@              ",
"             .#$$%@             ",
"            .#&&*%%@            ",
"            .#&==*%%@           ",
"           .#&===&-%;@          ",
"           .>&===,&''@          ",
"          .>),,,,,&'!@          ",
"          +~{],,,,^)/@          ",
"          +~{{]^^(_/:@          ",
"          <[{})|((123@          ",
"          <[44})5(123@          ",
"          6[44}}1_/23@          ",
"           6[4}}71/3@           ",
"           684{}{7/2@           ",
"           <944{90a2@           ",
"           <94{{90a2@           ",
"           <84{{90a/@           ",
"           <94}}b00/@           ",
"           <c}}}d0ef@           ",
"            <cg}b0e@            ",
"            <cg}h4e@            ",
"            <ccij4e@            ",
"            <chjk4e@            ",
"            <chkkh@             ",
"             <iklh@             ",
"             <chlh@             ",
"             <chm@              ",
"              <mm@              ",
"              @e@               ",
"               @@               ",
"                                "};
