/* XPM */
static char * cristal8_xpm[] = {
"32 32 52 1",
" 	c #000000",
".	c #292829",
"+	c #393C39",
"@	c #101010",
"#	c #DEB6DE",
"$	c #E6C6E6",
"%	c #5A006A",
"&	c #52006A",
"*	c #101810",
"=	c #AC59A4",
"-	c #830494",
";	c #73047B",
">	c #62046A",
",	c #5A048B",
"'	c #202020",
")	c #9C5DAC",
"!	c #A44CA4",
"~	c #B461C5",
"{	c #94189C",
"]	c #73009C",
"^	c #AC48BD",
"/	c #8B24A4",
"(	c #9C48C5",
"_	c #9C59C5",
":	c #A4248B",
"<	c #AC59BD",
"[	c #8310AC",
"}	c #94089C",
"|	c #9428A4",
"1	c #B45DAC",
"2	c #94206A",
"3	c #7B005A",
"4	c #7B0C62",
"5	c #730041",
"6	c #AC4CAC",
"7	c #313031",
"8	c #D5A5CD",
"9	c #730C41",
"0	c #BD50BD",
"a	c #7B206A",
"b	c #B4288B",
"c	c #A428A4",
"d	c #B4388B",
"e	c #B428A4",
"f	c #9C28A4",
"g	c #AC2073",
"h	c #C52C6A",
"i	c #831441",
"j	c #AC205A",
"k	c #9C1C4A",
"l	c #AC184A",
"m	c #941441",
"                                ",
"              .+@@              ",
"             .#$%&@@            ",
"            *=$-;;>,@           ",
"           ')!~{;]],@           ",
"           ')!!^/]]],@          ",
"           *(^((/]]]]@          ",
"          '_((((:]]]]@          ",
"          '<^^((:-[-]@          ",
"          *(^<^(:/}}-@          ",
"          *^<<<(|}::{@          ",
"          *!<1<#|-233@          ",
"          *!11##|4235@          ",
"          *61$##/4:35@          ",
"          @1####/4:45@          ",
"           78##^/4:9@           ",
"           78#0^/4:9@           ",
"           7800^/|35@           ",
"            *!0/-|35@           ",
"            *!0/-|3a@           ",
"            *2bc||5@            ",
"            @dbeff3@            ",
"             *gbc4a@            ",
"             *ghb2i@            ",
"             *jhgki@            ",
"             *jhgi@             ",
"              *jhi@             ",
"              *jhi@             ",
"              *llm@             ",
"               *@@              ",
"                                ",
"                                "};
