/* XPM */
static char * cristal7_xpm[] = {
"32 32 51 1",
" 	c #000000",
".	c #292829",
"+	c #101810",
"@	c #BD79D5",
"#	c #73309C",
"$	c #6224AC",
"%	c #202020",
"&	c #9C6DBD",
"*	c #B4388B",
"=	c #7B24A4",
"-	c #7B1494",
";	c #A44CA4",
">	c #AC34AC",
",	c #8324A4",
"'	c #7314AC",
")	c #9C5DAC",
"!	c #B461C5",
"~	c #8B24A4",
"{	c #AC59BD",
"]	c #9C44AC",
"^	c #B45DAC",
"/	c #9C28A4",
"(	c #A4248B",
"_	c #94189C",
":	c #B428A4",
"<	c #AC40AC",
"[	c #94089C",
"}	c #940041",
"|	c #7B005A",
"1	c #101010",
"2	c #7B107B",
"3	c #AC59A4",
"4	c #9428A4",
"5	c #94206A",
"6	c #7B0C62",
"7	c #940C7B",
"8	c #A428A4",
"9	c #940C62",
"0	c #943473",
"a	c #8310AC",
"b	c #AC349C",
"c	c #B4288B",
"d	c #831441",
"e	c #5A0031",
"f	c #C53073",
"g	c #AC2073",
"h	c #9C1C4A",
"i	c #AC2C6A",
"j	c #AC1862",
"k	c #AC184A",
"l	c #730C41",
"                                ",
"            ..++                ",
"           .@#$#++              ",
"          %&*==--+              ",
"          %;>,,,='+             ",
"         %)!*~,,=,'+            ",
"         %)!{]~,,,=+            ",
"         %)!^>~~~~,+            ",
"        %{!!!>~~~~,+            ",
"        %{!!!>~/~(_+            ",
"        %{!!!:</(*>+            ",
"        %{!!!/[**}|1            ",
"        %{!!!//}||21            ",
"        %3!!!45|661             ",
"        %^!!46(|661             ",
"         %3!~7/}661             ",
"         %3!~789961             ",
"         %3!~[89961             ",
"         %3!([8961              ",
"          %0/a8}61              ",
"          +b*88}|1              ",
"          +b*:c}d1              ",
"          +b*:97d1              ",
"           +b595e1              ",
"           +fg}he1              ",
"           +ifjh1               ",
"           +ifkh1               ",
"            +ikh1               ",
"            +ikh1               ",
"             +l1                ",
"              1                 ",
"                                "};
