/* XPM */
static char * lava2_xpm[] = {
"32 32 305 2",
"  	c #000000",
". 	c #FF6D32",
"+ 	c #FF9BA0",
"@ 	c #FF9DA3",
"# 	c #FF8D8B",
"$ 	c #FF796C",
"% 	c #FF7E76",
"& 	c #FF6D34",
"* 	c #FF6E5A",
"= 	c #FF6E5B",
"- 	c #FF786C",
"; 	c #FF8D8D",
"> 	c #FF8076",
", 	c #FF7F77",
"' 	c #FF606B",
") 	c #FF4147",
"! 	c #FF6349",
"~ 	c #FF552B",
"{ 	c #FF7049",
"] 	c #FFA481",
"^ 	c #FF6B59",
"/ 	c #FF6C58",
"( 	c #FF9BA3",
"_ 	c #FF6D58",
": 	c #FF654A",
"< 	c #FF867E",
"[ 	c #FF7C78",
"} 	c #FF6739",
"| 	c #E26600",
"1 	c #FF683D",
"2 	c #FF8580",
"3 	c #FF654B",
"4 	c #FF7627",
"5 	c #FFA94B",
"6 	c #FFC777",
"7 	c #FF9C9E",
"8 	c #FF6C56",
"9 	c #FF5525",
"0 	c #FF8075",
"a 	c #FF5F68",
"b 	c #FF941C",
"c 	c #F2A700",
"d 	c #FF5E67",
"e 	c #FF7E77",
"f 	c #FF8B4C",
"g 	c #FFB12A",
"h 	c #FFC34D",
"i 	c #FFC881",
"j 	c #FFAF80",
"k 	c #FF8C4D",
"l 	c #FF8959",
"m 	c #FFACA3",
"n 	c #FFA581",
"o 	c #FF704B",
"p 	c #FF542B",
"q 	c #FF634C",
"r 	c #FF766C",
"s 	c #FF8489",
"t 	c #FF6A3F",
"u 	c #FF883C",
"v 	c #FFBB73",
"w 	c #FFCD75",
"x 	c #FFC646",
"y 	c #F3AF00",
"z 	c #E78700",
"A 	c #FF693D",
"B 	c #FF7E78",
"C 	c #FFAE81",
"D 	c #FFBC49",
"E 	c #FFC12A",
"F 	c #FFC249",
"G 	c #FFB12C",
"H 	c #FFB059",
"I 	c #FFC2A0",
"J 	c #FFC576",
"K 	c #FFA94A",
"L 	c #FF7729",
"M 	c #FF664C",
"N 	c #FF8680",
"O 	c #FF8188",
"P 	c #FF5B5E",
"Q 	c #FF951D",
"R 	c #FFBA73",
"S 	c #FFDBBF",
"T 	c #FFE0BF",
"U 	c #F7BB00",
"V 	c #F3AD00",
"W 	c #FFD2A2",
"X 	c #FFD1A3",
"Y 	c #FFBF7E",
"Z 	c #FFAD44",
"` 	c #ECA900",
" .	c #F5AA00",
"..	c #F5AB00",
"+.	c #FFA544",
"@.	c #FFA27E",
"#.	c #ED9D00",
"$.	c #F58900",
"%.	c #FF8D4D",
"&.	c #FFAF81",
"*.	c #FF9879",
"=.	c #FF4333",
"-.	c #DA5B00",
";.	c #EF9500",
">.	c #FFB876",
",.	c #FFCEBF",
"'.	c #FFCDBF",
").	c #F9AD00",
"!.	c #F9AB00",
"~.	c #EF9400",
"{.	c #DA5A00",
"].	c #FF4235",
"^.	c #FF997A",
"/.	c #FFB932",
"(.	c #FFC459",
"_.	c #FFC45B",
":.	c #FF750C",
"<.	c #D66D00",
"[.	c #ED7500",
"}.	c #ED7600",
"|.	c #D66E00",
"1.	c #FF550C",
"2.	c #FF6444",
"3.	c #FF6342",
"4.	c #FF550B",
"5.	c #D67E00",
"6.	c #EC9D00",
"7.	c #FFB22E",
"8.	c #FFBD4D",
"9.	c #FFA442",
"0.	c #FF4602",
"a.	c #CE3E00",
"b.	c #EA6900",
"c.	c #FF8146",
"d.	c #FF8C76",
"e.	c #FF8B75",
"f.	c #FF8046",
"g.	c #F97C00",
"h.	c #F87B00",
"i.	c #FF4703",
"j.	c #FFA240",
"k.	c #D9A800",
"l.	c #F9AC00",
"m.	c #EC9700",
"n.	c #D56200",
"o.	c #D53700",
"p.	c #EC4600",
"q.	c #EC4800",
"r.	c #D53600",
"s.	c #D03200",
"t.	c #DF3C00",
"u.	c #E84500",
"v.	c #E84400",
"w.	c #E74200",
"x.	c #E84100",
"y.	c #DF4C00",
"z.	c #CF5F00",
"A.	c #D37D00",
"B.	c #E69A00",
"C.	c #D2A500",
"D.	c #DA8500",
"E.	c #F97B00",
"F.	c #FA7A00",
"G.	c #F56F00",
"H.	c #EC5500",
"I.	c #EC4500",
"J.	c #F44A00",
"K.	c #F44B00",
"L.	c #F54B00",
"M.	c #F54A00",
"N.	c #EC5600",
"O.	c #F47000",
"P.	c #F87C00",
"Q.	c #F57000",
"R.	c #EC5700",
"S.	c #E03E00",
"T.	c #CF2D00",
"U.	c #C62100",
"V.	c #C61E00",
"W.	c #C61F00",
"X.	c #C61D00",
"Y.	c #C62200",
"Z.	c #D06000",
"`.	c #E09300",
" +	c #E79A00",
".+	c #E47E00",
"++	c #C67900",
"@+	c #D26600",
"#+	c #F04500",
"$+	c #F14300",
"%+	c #F24800",
"&+	c #F64D00",
"*+	c #F85000",
"=+	c #F64E00",
"-+	c #F14500",
";+	c #E43B00",
">+	c #CB2100",
",+	c #BB0000",
"'+	c #BE3600",
")+	c #C45B00",
"!+	c #C66800",
"~+	c #C66900",
"{+	c #D58800",
"]+	c #EDAF00",
"^+	c #F1A800",
"/+	c #E26A00",
"(+	c #BD5400",
"_+	c #C55900",
":+	c #E12200",
"<+	c #E21E00",
"[+	c #E12300",
"}+	c #E12700",
"|+	c #E83600",
"1+	c #F95100",
"2+	c #F34800",
"3+	c #E73300",
"4+	c #E12100",
"5+	c #E12400",
"6+	c #DD2200",
"7+	c #D31000",
"8+	c #CD0000",
"9+	c #CE0000",
"0+	c #D55900",
"a+	c #E19200",
"b+	c #E7A700",
"c+	c #E8A800",
"d+	c #ECB000",
"e+	c #F4BB00",
"f+	c #F1A700",
"g+	c #E16700",
"h+	c #BD5200",
"i+	c #D80000",
"j+	c #D90000",
"k+	c #DA0D00",
"l+	c #DF2100",
"m+	c #E73600",
"n+	c #F85100",
"o+	c #EA3B00",
"p+	c #DE2000",
"q+	c #DE5900",
"r+	c #EA9200",
"s+	c #F2AF00",
"t+	c #F6BB00",
"u+	c #EB9100",
"v+	c #D70000",
"w+	c #DA0E00",
"x+	c #DB3300",
"y+	c #DF5B00",
"z+	c #E88900",
"A+	c #F3B000",
"B+	c #E88800",
"C+	c #E05800",
"D+	c #DA3200",
"E+	c #C55B00",
"F+	c #E12800",
"G+	c #E22500",
"H+	c #EC3E00",
"I+	c #E53100",
"J+	c #DF2200",
"K+	c #DA1100",
"L+	c #DA0500",
"M+	c #E86400",
"N+	c #F39700",
"O+	c #F09600",
"P+	c #E15E00",
"Q+	c #DC0800",
"R+	c #DF1C00",
"S+	c #DE1D00",
"T+	c #EA3800",
"U+	c #F25600",
"V+	c #F66F00",
"W+	c #F06A00",
"X+	c #E13E00",
"Y+	c #E01700",
"Z+	c #EA3900",
"`+	c #F34900",
" @	c #DA1000",
".@	c #E12900",
"+@	c #E01D00",
"@@	c #E83700",
"#@	c #EB3B00",
"$@	c #DA0F00",
"%@	c #D50000",
"&@	c #D10000",
"*@	c #EB3900",
"=@	c #C30000",
"-@	c #C40000",
";@	c #E53200",
">@	c #ED3D00",
",@	c #ED3F00",
"'@	c #DC2200",
")@	c #BC0000",
"!@	c #D00000",
"~@	c #EC3F00",
"{@	c #E62F00",
"]@	c #E63200",
"^@	c #CB2200",
"/@	c #DB1200",
"(@	c #D31200",
"_@	c #DB0600",
":@	c #E02200",
"<@	c #CC2200",
"[@	c #BE5300",
"}@	c #DA0000",
"|@	c #A56E00",
"        . .                                                     ",
"  + @ # $ %                                                     ",
"& * = - ;       > ,         , ,             ' ) ) '             ",
". ! ~ { ]     + ^ / +     ( _ : <         [ } | | 1 [           ",
"  2 3 4 5 6   7 / 8 7     + 8 9 ! 0     a 1 b c c b 1 d         ",
"    e f g h i j k l m     n o p q r s [ t u v w x y z A B       ",
"      C D E F D G H I   J K L M N O P } Q R S T w U V b 1 '     ",
"  W X Y Z `  ...` +.@.@.+.#.$.%.&.*.=.-.;.>.,.'.>.).!.~.{.].^.  ",
"/.(._.Z :.<.[.}.|.1.2.3.4.5.6.7.8.9.0.a.b.c.d.e.f.g.h.b.a.i.j./.",
"k.).l.m.n.o.p.q.r.r.q.p.r.n.m.).).m.n.s.t.u.u.v.w.x.w.y.z.A.B.C.",
"D.E.F.G.H.I.J.K.I.I.L.M.I.N.O.P.E.Q.R.S.T.U.V.W.U.X.Y.Z.`. +.+++",
"@+#+$+#+#+%+&+*+*+*+*+*+*+=+%+#+#+-+#+;+>+,+,+'+)+!+~+{+]+^+/+(+",
"_+:+<+[+}+|+%+*+1+*+*+*+*+2+3+:+4+5+}+6+7+8+9+0+a+b+c+d+e+f+g+h+",
"(+i+j+k+l+m+2+*+1+n+*+=+%+o+p+i+i+i+i+i+i+i+i+q+r+s+t+t+s+u+q+(+",
"(+v+j+p+o+%+&+*+*+*+*+%+m+l+w+i+i+i+i+i+i+i+i+x+y+z+A+y B+C+D+(+",
"E+F+G+|+%+&+%+#+#+#+#+H+I+F+F+J+K+i+i+i+i+i+i+L+J+M+N+O+P+Q+R+E+",
"@+#+$+2+=+%+m+F+}+}+F+I+H+#+#+o+l+i+i+i+i+i+i+S+T+U+V+W+X+Y+Z+@+",
"@+#+$+`+=+#+F+i+i+ @J+|+`+=+2+o+l+K+l+.@.@l+K+l+o+#+#+o+l++@o+@+",
"E+F+G+@@%+#+F+v+v+p+o+%+=+`+|+l+ @l+o+#+#+o+l+K+l+}+5+R+k+Q+J+E+",
"(+i+j+l+o+o+l+v+i+l+o+#+#+o+l+i+i+l+o+-+-+#@l+i+i+i+i+i+i+j+i+(+",
"(+i+j+ @l+l+K+i+i+K+J+.@F+l+$@i+i+K+J+.@.@J+K+i+i+i+i+i+i+j+i+(+",
"(+ @+@.@.@.@.@J+ @i+i+i+i+i+i+i+i+%@&@9+9+9+9+&@%@%@&@&@%@j+i+(+",
"(+l+*@#+#+#+#+o+l+i+v+i+i+i+i+i+i+&@=@,+,+,+,+-@&@&@-@=@&@j+i+(+",
"E+;@>@#+#+#+#+,@;@'@7+9+9+&@%@i+i+&@=@,+,+,+)@-@&@&@-@=@!@j+i+(+",
"@+~@{@.@F+F+.@]@~@;+^@,+,+=@&@i+i+%@&@9+9+9+9+&@%@%@&@&@%@j+i+(+",
"@+o++@i+i+i+i+J+o+;+^@,+,+=@&@i+i+i+i+/@J+'@(@9+9+&@%@/@J++@/@(+",
"E+J+_@i+i+i+i+ @J+'@(@9+9+&@%@i+i+i+i+:@#@;+<@,+,+=@&@J+#@*@J+(+",
"(+i+j+i+i+i+i+i+i+i+i+i+i+i+i+i+i+i+i+J+o+;+^@,+,+=@&@J+o+*@J+(+",
"(+i+j+i+i+i+i+i+i+i+i+i+i+i+i+i+i+i+i+/@J+'@(@9+9+&@%@/@J++@/@(+",
"[@j+}@j+j+j+j+j+j+j+j+j+j+j+j+j+j+j+j+j+j+j+j+j+j+j+j+j+j+}@j+[@",
"(+i+j+i+i+i+i+i+i+i+i+i+i+i+i+i+i+i+i+i+i+i+i+i+i+i+i+i+i+j+i+(+",
"|@(+[@(+(+(+(+(+(+(+(+(+(+(+(+(+(+(+(+(+(+(+(+(+(+(+(+(+(+[@(+|@"};
