/* XPM */
static char * lava1_xpm[] = {
"32 32 284 2",
"  	c #000000",
". 	c #FF4717",
"+ 	c #BD5400",
"@ 	c #BE5200",
"# 	c #FF6D32",
"$ 	c #BE7B00",
"% 	c #FF8796",
"& 	c #FF7F88",
"* 	c #FF716D",
"= 	c #FF6236",
"- 	c #E26700",
"; 	c #E16700",
"> 	c #FF683D",
", 	c #FF7C78",
"' 	c #FF7F74",
") 	c #FF606B",
"! 	c #FF7F8A",
"~ 	c #FFBEC8",
"{ 	c #FFCAC0",
"] 	c #FFB473",
"^ 	c #F2A700",
"/ 	c #F1A600",
"( 	c #FF9522",
"_ 	c #FF693F",
": 	c #FF3E51",
"< 	c #FF7C76",
"[ 	c #FF693D",
"} 	c #FF9370",
"| 	c #FFD1BF",
"1 	c #FFE0C0",
"2 	c #FFCD75",
"3 	c #F8C100",
"4 	c #F8C000",
"5 	c #F3AF00",
"6 	c #E78700",
"7 	c #FF693E",
"8 	c #FF7E78",
"9 	c #FF3E4F",
"0 	c #FF3542",
"a 	c #FF6376",
"b 	c #FF673B",
"c 	c #FF941C",
"d 	c #FFB341",
"e 	c #FFC774",
"f 	c #FFC646",
"g 	c #F7BB00",
"h 	c #F3AE00",
"i 	c #FF9520",
"j 	c #FF373D",
"k 	c #FF232E",
"l 	c #FF3A4B",
"m 	c #FF6779",
"n 	c #FF5259",
"o 	c #FF3F44",
"p 	c #FF4146",
"q 	c #FF5F68",
"r 	c #FF3B4C",
"s 	c #FF3D50",
"t 	c #FF3642",
"u 	c #DA5A00",
"v 	c #EF9400",
"w 	c #F9AC00",
"x 	c #F9AD00",
"y 	c #EF9500",
"z 	c #F1000A",
"A 	c #FF0C1B",
"B 	c #FF374D",
"C 	c #FF8088",
"D 	c #FF736D",
"E 	c #FF6536",
"F 	c #FF6B3F",
"G 	c #FF657A",
"H 	c #FF3245",
"I 	c #FF2B41",
"J 	c #FF2630",
"K 	c #CE3E00",
"L 	c #EB6900",
"M 	c #F87B00",
"N 	c #F97B00",
"O 	c #F87A00",
"P 	c #F97C00",
"Q 	c #F87C00",
"R 	c #EB6A00",
"S 	c #FF1219",
"T 	c #FF4D62",
"U 	c #FF616A",
"V 	c #FF808A",
"W 	c #FFBDC7",
"X 	c #FFCABF",
"Y 	c #FFB471",
"Z 	c #FF951D",
"` 	c #FF6739",
" .	c #FF535A",
"..	c #FF667B",
"+.	c #FF2F3D",
"@.	c #DC3600",
"#.	c #FFA878",
"$.	c #FF6F2F",
"%.	c #D06200",
"&.	c #E04E00",
"*.	c #E84500",
"=.	c #E84400",
"-.	c #E74400",
";.	c #CF6100",
">.	c #FF6D2D",
",.	c #FFD2A2",
"'.	c #FFD1A3",
").	c #FFA77B",
"!.	c #FF783F",
"~.	c #FF886E",
"{.	c #FFBEC1",
"].	c #FFCCC2",
"^.	c #FFB470",
"/.	c #E69800",
"(.	c #E37B00",
"_.	c #FF7841",
":.	c #FFA97D",
"<.	c #FFA879",
"[.	c #FF6E2E",
"}.	c #AD7A00",
"|.	c #FFB932",
"1.	c #FFBC49",
"2.	c #FFAE24",
"3.	c #E09300",
"4.	c #D05E00",
"5.	c #C62200",
"6.	c #C61D00",
"7.	c #FFBC4A",
"8.	c #FFC45A",
"9.	c #FFC259",
"0.	c #FFBB49",
"a.	c #FFAD24",
"b.	c #FF9C3A",
"c.	c #FF8366",
"d.	c #FF6561",
"e.	c #FF5522",
"f.	c #D37D00",
"g.	c #E79900",
"h.	c #FFAD27",
"i.	c #FFBC4C",
"j.	c #FFBC4B",
"k.	c #FFAD21",
"l.	c #CBA400",
"m.	c #D9A800",
"n.	c #F7AC00",
"o.	c #F4A900",
"p.	c #E49200",
"q.	c #CB5A00",
"r.	c #BE1100",
"s.	c #C31C00",
"t.	c #C62800",
"u.	c #C62300",
"v.	c #D56200",
"w.	c #ED9700",
"x.	c #F8AC00",
"y.	c #EC9700",
"z.	c #C63D00",
"A.	c #C65A00",
"B.	c #D58600",
"C.	c #ECAF00",
"D.	c #F8BB00",
"E.	c #F8B100",
"F.	c #F9AB00",
"G.	c #F8AB00",
"H.	c #DA8500",
"I.	c #F37700",
"J.	c #E96E00",
"K.	c #DC5B00",
"L.	c #D33500",
"M.	c #D52000",
"N.	c #E13900",
"O.	c #EC5700",
"P.	c #F47100",
"Q.	c #F46F00",
"R.	c #EC5500",
"S.	c #E76700",
"T.	c #E79400",
"U.	c #F4BB00",
"V.	c #F9B200",
"W.	c #F99200",
"X.	c #FA7B00",
"Y.	c #DA8600",
"Z.	c #D26600",
"`.	c #EA3B00",
" +	c #E01D00",
".+	c #D80000",
"++	c #E12800",
"@+	c #F04500",
"#+	c #F85000",
"$+	c #F85100",
"%+	c #F64E00",
"&+	c #F24800",
"*+	c #F64D00",
"=+	c #F84E00",
"-+	c #F8C200",
";+	c #F8B200",
">+	c #F89200",
",+	c #F97200",
"'+	c #F85D00",
")+	c #D96B00",
"!+	c #C55900",
"~+	c #DF1A00",
"{+	c #DB0000",
"]+	c #D70000",
"^+	c #F14500",
"/+	c #F95000",
"(+	c #F95100",
"_+	c #F34800",
":+	c #E83600",
"<+	c #E12700",
"[+	c #E12300",
"}+	c #E12200",
"|+	c #E73200",
"1+	c #F24500",
"2+	c #F84C00",
"3+	c #F99900",
"4+	c #F86F00",
"5+	c #D96A00",
"6+	c #D90000",
"7+	c #DF2100",
"8+	c #DE2000",
"9+	c #DA0D00",
"0+	c #E73600",
"a+	c #F84F00",
"b+	c #F87200",
"c+	c #F89B00",
"d+	c #F99A00",
"e+	c #F87100",
"f+	c #DA0F00",
"g+	c #DA0E00",
"h+	c #F85E00",
"i+	c #C55B00",
"j+	c #DF2200",
"k+	c #DC0800",
"l+	c #E12900",
"m+	c #E83700",
"n+	c #F04400",
"o+	c #F94F00",
"p+	c #D96C00",
"q+	c #E12600",
"r+	c #E12400",
"s+	c #F94D00",
"t+	c #DA1100",
"u+	c #F14300",
"v+	c #EA3A00",
"w+	c #E22400",
"x+	c #EB3B00",
"y+	c #DA1000",
"z+	c #D50000",
"A+	c #D10000",
"B+	c #CE0000",
"C+	c #D00000",
"D+	c #D20000",
"E+	c #D60000",
"F+	c #C30000",
"G+	c #BB0000",
"H+	c #BC0000",
"I+	c #C50000",
"J+	c #E53200",
"K+	c #ED3F00",
"L+	c #C40000",
"M+	c #DB1200",
"N+	c #D41200",
"O+	c #CB2200",
"P+	c #C42200",
"Q+	c #BE1200",
"R+	c #B80000",
"S+	c #B30000",
"T+	c #B90000",
"U+	c #C70000",
"V+	c #B45400",
"W+	c #EB3900",
"X+	c #EC3F00",
"Y+	c #E63200",
"Z+	c #DC2200",
"`+	c #E43B00",
" @	c #E23B00",
".@	c #D52200",
"+@	c #B40000",
"@@	c #A45400",
"#@	c #CF0000",
"$@	c #BE5300",
"%@	c #DA0000",
"&@	c #A56E00",
"            . + @ @ + .                                     # $ ",
"          % & * = - ; > ,                                   ' # ",
"        ) ! ~ { ] ^ / ( _ )             : :                     ",
"      < [ } | 1 2 3 4 5 6 7 8           9 0 a                   ",
"    ) b c d e 2 f 3 3 g h i > j k l       m n o p q     r s     ",
"    t u v w x w w w w x w y u z A B       % C D E F , G H I     ",
"    J K L M N O O M M P Q R K S T       U V W X Y Z `  ...  +.@.",
"  #.$.%.&.*.=.-.-.-.-.=.-.&.;.>.#.,.'.).!.~.{.].^./.(._.:.<.[.}.",
"|.1.2.3.4.5.6.5.5.5.5.6.5.4.3.2.7.8.9.0.a.b.c.d.e.f.g.h.i.j.k.l.",
"m.n.o.p.q.r.s.t.t.t.t.u.t.v.w.x.x x.x.x x.y.v.z.A.B.C.D.E.F.G.m.",
"H.I.J.K.L.M.N.-.*.-.-.-.-.O.P.P N N N N P Q.R.S.T.C.U.V.W.X.N Y.",
"Z.`. +.+.+++@+#+$+#+#+%+&+@+@+@+@+@+@+&+*+=+#+M x.3 -+;+>+,+'+)+",
"!+~+{+]+.+++^+/+(+(+/+_+:+<+[+}+}+}+}+|+1+2+/+N w 3 3 D.E.3+4+5+",
"+ .+6+.+.+7+`.&+%+*+&+`.8+.+]+.+.+9+7+0+_+a+(+b+c+x.x.x.x.d+e+)+",
"+ .+6+.+.+f+7+0+&+&+0+7+g+.+.+]+.+8+`.&+*+a+#+'+e+M M M Q ,+h+)+",
"i+j+k+.+.+.+.+l+@+_+m+l+++l+l+++l+:+_+%+_+@+n+n+n+n+@+&+%+o+$+p+",
"Z.`. +.+.+.+.+<+@+*+&+@+@+@+@+@+@+_+%+&+0+++<+q+r+}+}+|+1+s+#+)+",
"Z.`. +.+.+.+.+7+`.@+@+@+@+@+@+@+@+@+@+`.7+t+7+l+l+7+t+7+`.u+@+Z.",
"i+j+k+.+.+.+.+t+7+++l+l+l+l+l+l+l+l+++8+f+8+v+@+@+v+8+f+8+w+++i+",
"+ .+6+.+.+.+.+.+.+.+.+.+.+.+.+.+.+.+.+.+.+7+`.^+^+x+7+.+.+6+.++ ",
"+ .+6+.+.+.+.+.+.+.+.+.+.+.+.+.+.+.+.+.+.+t+j+l+l+j+t+.+.+6+.++ ",
"+ .+6+y+j+j+y+.+.+z+A+B+B+A+z+.+.+.+.+.+.+.+.+z+C+B+B+B+B+D+E++ ",
"+ .+6+j+`.`.j+.+.+A+F+G+G+F+A+.+.+.+.+.+.+.+.+A+F+G+G+G+H+I+A++ ",
"+ y+ +J+K+K+J+j+y+A+L+H+H+L+A+M+j+j+M+.+.+.+.+N+O+P+Q+R+S+T+U+V+",
"+ j+W+X+Y+Y+X+`.j+z+C+B+B+C+z+j+`.`.j+.+.+.+.+Z+`+ @.@U+R++@R+@@",
"+ j+W+`.j+j+`.`.j+z+C+B+B+C+z+j+`.`.j+.+.+.+.+j+`.`.j+A+F+H+G+@@",
"+ M+ +j+y+y+j+j+M+A+L+H+H+L+A+M+j+j+M+.+.+.+.+M+j+j+M+E+A+#@B+V+",
"+ .+6+.+.+.+.+.+.+A+F+G+G+F+A+.+.+.+.+.+.+.+.+.+.+.+.+.+.+6+.++ ",
"+ .+6+.+.+.+.+.+.+z+A+B+B+A+z+.+.+.+.+.+.+.+.+.+.+.+.+.+.+6+.++ ",
"$@6+%@6+6+6+6+6+6+6+6+6+6+6+6+6+6+6+6+6+6+6+6+6+6+6+6+6+6+%@6+$@",
"+ .+6+.+.+.+.+.+.+.+.+.+.+.+.+.+.+.+.+.+.+.+.+.+.+.+.+.+.+6+.++ ",
"&@+ $@+ + + + + + + + + + + + + + + + + + + + + + + + + + $@+ &@"};
