/* XPM */
static char * lava3_xpm[] = {
"32 32 245 2",
"  	c #000000",
". 	c #FF606B",
"+ 	c #FF414A",
"@ 	c #FF4147",
"# 	c #FF7C76",
"$ 	c #FF6739",
"% 	c #FF6233",
"& 	c #FF706B",
"* 	c #FF716D",
"= 	c #FF6338",
"- 	c #E26700",
"; 	c #E16700",
"> 	c #FF683D",
", 	c #FF7C78",
"' 	c #DC3600",
") 	c #FF3C4C",
"! 	c #FF3B4C",
"~ 	c #FF5F68",
"{ 	c #FF941C",
"] 	c #FFB371",
"^ 	c #FFCABF",
"/ 	c #FFC9BF",
"( 	c #F2A700",
"_ 	c #F1A600",
": 	c #DA3600",
"< 	c #FF2D3C",
"[ 	c #FF374D",
"} 	c #FF3245",
"| 	c #FF677C",
"1 	c #FF6B3F",
"2 	c #FF8737",
"3 	c #FFBA73",
"4 	c #FFD7A5",
"5 	c #FFE4CC",
"6 	c #FFDFC0",
"7 	c #FFCC74",
"8 	c #F8C100",
"9 	c #F8C000",
"0 	c #F3AE00",
"a 	c #E78700",
"b 	c #FF7E78",
"c 	c #FF3040",
"d 	c #FF667B",
"e 	c #FF5259",
"f 	c #FF951D",
"g 	c #FFBA72",
"h 	c #FFDBBF",
"i 	c #FFD8A5",
"j 	c #FFCD75",
"k 	c #FFC642",
"l 	c #F7BB00",
"m 	c #FF9522",
"n 	c #FF4717",
"o 	c #FF8477",
"p 	c #FF612F",
"q 	c #FF6E2D",
"r 	c #FFA877",
"s 	c #FFC5A3",
"t 	c #FFACA3",
"u 	c #FF7677",
"v 	c #FF342E",
"w 	c #FFA9A3",
"x 	c #FFD4A3",
"y 	c #FFD1A3",
"z 	c #FF9879",
"A 	c #FF4333",
"B 	c #DA5A00",
"C 	c #EF9500",
"D 	c #FFBD75",
"E 	c #FFDCBF",
"F 	c #FFE0C0",
"G 	c #F9BC00",
"H 	c #F8B200",
"I 	c #DA5B00",
"J 	c #B45400",
"K 	c #FF6E33",
"L 	c #FF7F49",
"M 	c #FF9922",
"N 	c #FFAD20",
"O 	c #FFBB47",
"P 	c #FFB158",
"Q 	c #FF8858",
"R 	c #FF6047",
"S 	c #FF4420",
"T 	c #FFC459",
"U 	c #FFA443",
"V 	c #FF4600",
"W 	c #CE3B00",
"X 	c #EA6900",
"Y 	c #FF9746",
"Z 	c #FFBE76",
"` 	c #FFC542",
" .	c #F9B200",
"..	c #F89200",
"+.	c #EB6A00",
"@.	c #CE3C00",
"#.	c #A55200",
"$.	c #D96C00",
"%.	c #F87200",
"&.	c #F99A00",
"*.	c #F8AC00",
"=.	c #F89B00",
"-.	c #F87100",
";.	c #F64D00",
">.	c #F24600",
",.	c #F89A00",
"'.	c #F9AC00",
").	c #EC9700",
"!.	c #D56200",
"~.	c #D02E00",
"{.	c #DF3C00",
"].	c #EC6C00",
"^.	c #F49900",
"/.	c #F8AD00",
"(.	c #E03C00",
"_.	c #CF2E00",
":.	c #AD5B00",
"<.	c #DA6A00",
"[.	c #F95D00",
"}.	c #FA7100",
"|.	c #F97C00",
"1.	c #F97B00",
"2.	c #F97100",
"3.	c #F95C00",
"4.	c #F34600",
"5.	c #E83400",
"6.	c #F57000",
"7.	c #EC5700",
"8.	c #DF3D00",
"9.	c #CF2D00",
"0.	c #D54700",
"a.	c #EC6B00",
"b.	c #F87A00",
"c.	c #F87B00",
"d.	c #D12B00",
"e.	c #CB6600",
"f.	c #D26600",
"g.	c #F04400",
"h.	c #F14300",
"i.	c #F04500",
"j.	c #F34800",
"k.	c #F64E00",
"l.	c #F24800",
"m.	c #E73600",
"n.	c #F85000",
"o.	c #F14500",
"p.	c #E33B00",
"q.	c #CB2100",
"r.	c #E53E00",
"s.	c #D23100",
"t.	c #D63300",
"u.	c #EC4800",
"v.	c #D96B00",
"w.	c #C55B00",
"x.	c #E12600",
"y.	c #E22000",
"z.	c #E12100",
"A.	c #E12200",
"B.	c #E73300",
"C.	c #F24700",
"D.	c #F84E00",
"E.	c #F24500",
"F.	c #E73200",
"G.	c #E12400",
"H.	c #DC2200",
"I.	c #D31000",
"J.	c #D30C00",
"K.	c #DC1C00",
"L.	c #E12300",
"M.	c #E22E00",
"N.	c #E63E00",
"O.	c #ED4600",
"P.	c #F44E00",
"Q.	c #DA6C00",
"R.	c #E12800",
"S.	c #E22500",
"T.	c #DF2100",
"U.	c #DA1000",
"V.	c #DE2000",
"W.	c #EA3A00",
"X.	c #F95100",
"Y.	c #E12700",
"Z.	c #D80000",
"`.	c #D70000",
" +	c #DF2200",
".+	c #DB1200",
"++	c #DA1100",
"@+	c #F94F00",
"#+	c #DA0D00",
"$+	c #EA3B00",
"%+	c #FA4F00",
"&+	c #F44700",
"*+	c #EC3F00",
"=+	c #E53100",
"-+	c #E83600",
";+	c #EC3E00",
">+	c #DE2100",
",+	c #F85100",
"'+	c #E93400",
")+	c #E53200",
"!+	c #ED3F00",
"~+	c #F34900",
"{+	c #E83300",
"]+	c #E01C00",
"^+	c #E12900",
"/+	c #E01D00",
"(+	c #DB0500",
"_+	c #DA0F00",
":+	c #BD5400",
"<+	c #D90000",
"[+	c #EB3800",
"}+	c #E63200",
"|+	c #EE3D00",
"1+	c #DB1000",
"2+	c #D50000",
"3+	c #D10000",
"4+	c #D60000",
"5+	c #D20000",
"6+	c #E62F00",
"7+	c #D00000",
"8+	c #C30000",
"9+	c #C50000",
"0+	c #E83B00",
"a+	c #D91D00",
"b+	c #E43B00",
"c+	c #E13B00",
"d+	c #D52200",
"e+	c #D82200",
"f+	c #C61000",
"g+	c #C00000",
"h+	c #C90000",
"i+	c #CE0000",
"j+	c #C60000",
"k+	c #B80000",
"l+	c #BC0000",
"m+	c #C70600",
"n+	c #CB2200",
"o+	c #C32200",
"p+	c #BE1200",
"q+	c #CA0000",
"r+	c #BB0000",
"s+	c #B30000",
"t+	c #BE5300",
"u+	c #DA0000",
"v+	c #A56E00",
"                                                                ",
"                                                                ",
"                                        . + @ + + @ + .         ",
"                                      # $ % & * = - ; > ,       ",
"' )                         ) !     ~ $ { ] ^ / ] ( _ { > .     ",
": <                         [ } | , 1 2 3 4 5 6 7 8 9 0 a 1 b   ",
"    c )         ) )           d e $ f g h 5 i j k 8 8 l 0 m > n ",
"  o p q r s t u v v u w s x y z A B C D E F j 8 9 8 8 G H C I J ",
"K L M N O P Q R S S R Q P T T U V W X Y Z 7 ` 9 9 8 9  ...+.@.#.",
"$.%.&.*.*.=.-.;.>.>.;.-.,.'.*.).!.~.{.].^.*./.*.*./.*.^.].(._.:.",
"<.[.}.|.1.2.3.4.5.5.4.3.2.1.1.6.7.8.9.0.a.b.c.c.c.c.c.].0.d.8.e.",
"f.g.h.g.i.j.k.l.m.m.l.n.n.;.l.o.i.p.q.q.p.i.i.g.g.i.g.r.s.t.u.v.",
"w.x.y.z.A.B.C.;.l.l.;.n.D.E.F.G.x.H.I.J.K.A.L.A.A.A.A.M.N.O.P.Q.",
"w.R.S.T.U.V.W.l.;.n.n.X.n.i.Y.Z.`.U. + +.+++ +R.R.Y.R.m.l.@+n.v.",
"f.i.h.W.V.#+V.m.j.n.n.n.n.i.Y.`.`.T.$+$+T.V.W.g.i.g.g.l.;.%+n.v.",
"$.k.&+*+=+R.R.-+j.;.j.j.;.j.-+R.Y.=+;+W.>+V.$+l.k.,+,+;.l.&+;.$.",
"$.l.'+)+;+i.i.l.;.l.m.m.l.;.l.i.i.!+)+ +U.U. +-+~+X.X.l.m.{+l.v.",
"f.$+]+>+$+i.i.i.i.$+T.T.$+i.i.j.k.j.-+^+R.T.++T.$+i.i.$+T./+$+f.",
"w.>+(+U. +^+^+^+R.>+_+_+>+Y.^+-+j.;.l.i.i.$+>+_+V.R.R.>+_+(+>+w.",
":+U./+ +.+.+ + +U.Z.Z.Z.Z.Z.Z.T.$+i.i.i.i.$+T.Z.Z.Z.Z.Z.Z.<+Z.:+",
":+T.[+$+T.T.W.$+T.Z.Z.Z.Z.Z.Z._+T.R.^+^+^+ +++Z.Z.Z.Z.Z.Z.<+Z.:+",
"w.}+|+$+ + +$+!+}+ +1+Z.Z.Z.Z.Z.Z.Z.Z.Z.Z.2+3+3+4+Z.Z.4+3+5+2+:+",
"f.!+6+ +U.U. +}+!+$+ +Z.Z.Z.Z.Z.Z.Z.Z.Z.Z.7+8+8+3+Z.Z.3+8+9+3+:+",
"f.0+a+3+2+Z.Z.H.b+c+d+3+2+Z.Z.Z.Z.Z.Z.1+ +e+f+g+h+i+i+j+k+l+i+:+",
"w.e+m+8+3+Z.Z.I.n+o+p+8+3+Z.Z.Z.Z.Z.Z. +$+0+e+q+g+l+r+k+s+l+i+:+",
":+3+9+8+3+Z.Z.3+8+r+r+8+3+Z.Z.Z.Z.U. +)+!+!+)+e+f+l+r+r+l+9+3+:+",
":+2+5+3+2+Z.Z.2+7+i+i+3+2+Z.Z.Z.Z. +$+*+}+}+!+0+e+i+i+i+i+5+4+:+",
":+Z.<+Z.Z.Z.Z.Z.Z.Z.Z.Z.Z.Z.Z.Z.Z. +$+$+ + +$+$+ +Z.Z.Z.Z.<+Z.:+",
":+Z.<+Z.Z.Z.Z.Z.Z.Z.Z.Z.Z.Z.Z.Z.Z..+ + +U.U. + +.+Z.Z.Z.Z.<+Z.:+",
"t+<+u+<+<+<+<+<+<+<+<+<+<+<+<+<+<+<+<+<+<+<+<+<+<+<+<+<+<+u+<+t+",
":+Z.<+Z.Z.Z.Z.Z.Z.Z.Z.Z.Z.Z.Z.Z.Z.Z.Z.Z.Z.Z.Z.Z.Z.Z.Z.Z.Z.<+Z.:+",
"v+:+t+:+:+:+:+:+:+:+:+:+:+:+:+:+:+:+:+:+:+:+:+:+:+:+:+:+:+t+:+v+"};
