/* XPM */
static char * lava4_xpm[] = {
"32 32 292 2",
"  	c #000000",
". 	c #FF6D32",
"+ 	c #FF8075",
"@ 	c #FF9DA3",
"# 	c #FF9BA0",
"$ 	c #FF7F77",
"% 	c #FF6E5B",
"& 	c #FF6C59",
"* 	c #FF6D34",
"= 	c #FF8076",
"- 	c #FF9CA2",
"; 	c #FF6C58",
"> 	c #FF552E",
", 	c #FF654B",
"' 	c #FF6E33",
") 	c #FF5E67",
"! 	c #FF4147",
"~ 	c #FF3F44",
"{ 	c #FF6C56",
"] 	c #FF857F",
"^ 	c #FF8996",
"/ 	c #FF8088",
"( 	c #FF746D",
"_ 	c #FF6436",
": 	c #E26800",
"< 	c #E16900",
"[ 	c #FF693E",
"} 	c #FF7E79",
"| 	c #FF94A1",
"1 	c #FFACA0",
"2 	c #FF8958",
"3 	c #FF8959",
"4 	c #FF9380",
"5 	c #FF824B",
"6 	c #FF844D",
"7 	c #DC3600",
"8 	c #FF3B4C",
"9 	c #FF5F68",
"0 	c #FF7F88",
"a 	c #FFBDC7",
"b 	c #FFC9BF",
"c 	c #FFB471",
"d 	c #F2A700",
"e 	c #F1A600",
"f 	c #FF9520",
"g 	c #FF683D",
"h 	c #FF373F",
"i 	c #FF232E",
"j 	c #FF3938",
"k 	c #FF6051",
"l 	c #FFC29E",
"m 	c #FFB056",
"n 	c #FFB058",
"o 	c #FF7E76",
"p 	c #FF9E29",
"q 	c #FF9F2E",
"r 	c #FF834D",
"s 	c #AD7A00",
"t 	c #FF702E",
"u 	c #FFA879",
"v 	c #FF9877",
"w 	c #FF4434",
"x 	c #FF636B",
"y 	c #FFB9BF",
"z 	c #FFCDBF",
"A 	c #FFB976",
"B 	c #F9AD00",
"C 	c #F9AB00",
"D 	c #EF9600",
"E 	c #DA5C00",
"F 	c #CC3700",
"G 	c #C85900",
"H 	c #D35F00",
"I 	c #E65100",
"J 	c #FF6948",
"K 	c #FFA380",
"L 	c #FFC3A2",
"M 	c #FFA3A1",
"N 	c #FF9F7C",
"O 	c #FFA84B",
"P 	c #FFA94C",
"Q 	c #FF9E7C",
"R 	c #FF777B",
"S 	c #FF5747",
"T 	c #F06B00",
"U 	c #F19500",
"V 	c #D26600",
"W 	c #CBA400",
"X 	c #FFAE21",
"Y 	c #FFBB49",
"Z 	c #FFA340",
"` 	c #FF4600",
" .	c #FF2A27",
"..	c #FF7770",
"+.	c #FF8C75",
"@.	c #FF8246",
"#.	c #F97D00",
"$.	c #F87C00",
"%.	c #EA6A00",
"&.	c #CE3E00",
"*.	c #C95900",
"=.	c #DE9000",
"-.	c #E79100",
";.	c #E46000",
">.	c #FF601C",
",.	c #FFA547",
"'.	c #FFAC54",
").	c #FF744C",
"!.	c #FF573F",
"~.	c #FF6E27",
"{.	c #FF7028",
"].	c #FF3739",
"^.	c #FF2017",
"/.	c #E23F00",
"(.	c #E25C00",
"_.	c #E25B00",
":.	c #C65900",
"<.	c #D9A800",
"[.	c #F9AC00",
"}.	c #EC9700",
"|.	c #D56200",
"1.	c #D03100",
"2.	c #DF3C00",
"3.	c #E74400",
"4.	c #E84500",
"5.	c #DC3800",
"6.	c #C82100",
"7.	c #CE5E00",
"8.	c #EA9600",
"9.	c #F29600",
"0.	c #E86400",
"a.	c #E66200",
"b.	c #EC9300",
"c.	c #EA9200",
"d.	c #DF5B00",
"e.	c #DE2100",
"f.	c #EA3800",
"g.	c #EC3E00",
"h.	c #E52E00",
"i.	c #E12300",
"j.	c #E12200",
"k.	c #DE1C00",
"l.	c #DA0C00",
"m.	c #DB0500",
"n.	c #C55B00",
"o.	c #DA8600",
"p.	c #F97C00",
"q.	c #FA7B00",
"r.	c #F57000",
"s.	c #EC5700",
"t.	c #E03D00",
"u.	c #CF2A00",
"v.	c #C61F00",
"w.	c #C62000",
"x.	c #C62300",
"y.	c #C62200",
"z.	c #C81900",
"A.	c #CC0E00",
"B.	c #DA4200",
"C.	c #EF6C00",
"D.	c #F77100",
"E.	c #F35800",
"F.	c #ED5000",
"G.	c #E65F00",
"H.	c #E05900",
"I.	c #DB3300",
"J.	c #DB0000",
"K.	c #DF1800",
"L.	c #E52D00",
"M.	c #ED3B00",
"N.	c #F14300",
"O.	c #F04400",
"P.	c #EA3900",
"Q.	c #DE1B00",
"R.	c #E01600",
"S.	c #F04500",
"T.	c #F14500",
"U.	c #E63E00",
"V.	c #D23100",
"W.	c #C62800",
"X.	c #C62700",
"Y.	c #CB2100",
"Z.	c #D41100",
"`.	c #DF2100",
" +	c #EA3B00",
".+	c #DA1100",
"++	c #E12600",
"@+	c #E12800",
"#+	c #E74A00",
"$+	c #F26D00",
"%+	c #E93400",
"&+	c #F24700",
"*+	c #D96B00",
"=+	c #C55900",
"-+	c #E21E00",
";+	c #E12400",
">+	c #E12700",
",+	c #E33100",
"'+	c #E63F00",
")+	c #E74500",
"!+	c #E43B00",
"~+	c #DC2100",
"{+	c #DB0D00",
"]+	c #DF1C00",
"^+	c #DF1F00",
"/+	c #DA0500",
"(+	c #EA3A00",
"_+	c #F04300",
":+	c #F26C00",
"<+	c #F69900",
"[+	c #F8AD00",
"}+	c #F44700",
"|+	c #F64C00",
"1+	c #D96C00",
"2+	c #BD5400",
"3+	c #D80000",
"4+	c #D90000",
"5+	c #DA0D00",
"6+	c #E73600",
"7+	c #F34800",
"8+	c #F85000",
"9+	c #D70000",
"0+	c #F84E00",
"a+	c #F87100",
"b+	c #F89A00",
"c+	c #F8AC00",
"d+	c #F34600",
"e+	c #F64B00",
"f+	c #DE2000",
"g+	c #F24800",
"h+	c #F74E00",
"i+	c #F95000",
"j+	c #F95100",
"k+	c #F85E00",
"l+	c #F87300",
"m+	c #E22500",
"n+	c #E83600",
"o+	c #F64D00",
"p+	c #F85100",
"q+	c #E12900",
"r+	c #DF2200",
"s+	c #DA1000",
"t+	c #F64E00",
"u+	c #E73300",
"v+	c #E83200",
"w+	c #F24500",
"x+	c #F04200",
"y+	c #E22400",
"z+	c #E53200",
"A+	c #E01C00",
"B+	c #DA0F00",
"C+	c #E53100",
"D+	c #DB0700",
"E+	c #ED3F00",
"F+	c #E63200",
"G+	c #E22900",
"H+	c #E01D00",
"I+	c #EB3800",
"J+	c #D60000",
"K+	c #D10000",
"L+	c #CE0000",
"M+	c #D50000",
"N+	c #D52100",
"O+	c #E23B00",
"P+	c #EB4500",
"Q+	c #EF4500",
"R+	c #EB3900",
"S+	c #C30000",
"T+	c #BB0000",
"U+	c #BE1000",
"V+	c #C32200",
"W+	c #CE2900",
"X+	c #DB2900",
"Y+	c #DB1100",
"Z+	c #C70000",
"`+	c #B80000",
" @	c #B20000",
".@	c #DB1200",
"+@	c #D82200",
"@@	c #C61000",
"#@	c #CF0000",
"$@	c #B45400",
"%@	c #D00000",
"&@	c #E83B00",
"*@	c #B70000",
"=@	c #BC0000",
"-@	c #A45400",
";@	c #C60000",
">@	c #C40000",
",@	c #BE5300",
"'@	c #DA0000",
")@	c #A56E00",
"                                            . .                 ",
"                                            + +           @ #   ",
"                                $ $                     $ % & * ",
"                                = +                   - ; > , ' ",
"            ) ! ~ ~ ! )                     + +       # { , ]   ",
"          ^ / ( _ : < [ }       |         1 2 3 1     4 5 6 4   ",
"7 8     9 0 a b c d e f g h i j k +       l m n l   o 5 p q r ' ",
"s t u v w x y z A B C D E F G H I J K L M N O P Q R S T U U T V ",
"W X Y Z `  ...+.@.#.$.%.&.*.=.-.;.>.,.'.).!.~.{.!.].^./.(._./.:.",
"<.B [.}.|.1.2.3.4.4.3.5.6.7.8.9.0.a.b.c.d.e.f.g.h.i.j.k.l.m.e.n.",
"o.p.q.r.s.t.u.v.w.x.y.z.A.B.C.D.E.F.G.H.I.J.K.L.M.N.O.P.Q.R.P.V ",
"V S.N.T.S.U.V.W.X.W.W.Y.Z.`. +S.S. +`..+e.++@+#+$+$.$.$+#+%+&+*+",
"=+j.-+;+>+,+'+3.)+4.3.!+~+{+]+;+>+^+/+k.(+_+S.:+<+[+[+<+:+}+|+1+",
"2+3+4+5+`.6+7+8+8+8+8+S.>+3+9+3+3+3+3+>+S.0+8+a+b+c+c+<+:+d+e+*+",
"2+9+4+f+ +g+h+i+j+j+i+T.@+3+9+3+3+9+3+@+S.8+j+k+l+$.$.$+#+%+&+*+",
"n.@+m+n+7+o+7+g+o+j+p+7+n+q+@+r+.+s+r+6+g+8+8+o+g+g+o+S.@+m+S.1+",
"V S.N.7+t+g+6+6+g+8+8+o+g+S.S. +`.`. +g+t+8+8+&+u+v+w+x+++y+O.*+",
"V S.N.S.S.(+f+f+(+S.S.S.S.S.S. +`.`. +g+t+j+p+g+n+z+g.(+e.A+ +V ",
"n.q+m+q+@+e.B+B+e.@+@+@+@+q+q+r+.+s+r+6+g+8+8+o+g+g.C+`.s+D+`.n.",
"2+3+4+.+r+q+q+q+q+r+.+3+3+3+3+3+3+3+3+`. +S.S.S.S.E+F+G+@+H+.+2+",
"2+9+4+f+ +S.S.S.S. +f+3+9+3+3+3+3+3+3+B+`.@+@+>+@+C+g.S.S.I+e.2+",
"2+3+4+`. +S.T.S.S. +`.J+K+L+L+K+M+3+3+3+3+3+3+M+K+N+O+P+Q+R+`.2+",
"2+3+4+.+r+q+q+q+q+r+.+K+S+T+T+S+K+3+3+3+3+3+3+K+S+U+V+W+X+H+Y+2+",
"2+3+4+M+K+K+J+3+3+J+K+Z+`+ @`+S+K+s+r+r+.@.@r++@@@`+ @`+Z+#@L+$@",
"2+3+4+K+S+S+%@3+3+K+S+`+ @`+Z+%@J+r+ + +r+r+ +&@+@Z+*@ @`+=@=@-@",
"2+3+4+L+T+`+;@K+J+K+>@T+T+S+K+s+r+F+E+ +r+r+ +E+F++@@@=@T+=@=@-@",
"2+3+4+L+T+ @`+>@K+M+K+L+L+K+J+r+ +E+F+r+s+s+r+F+E+&@+@L+L+#@L+$@",
"2+3+4+K+S+T+T+S+K+3+3+3+3+3+3+r+ + +r+3+3+3+3+r+ + +r+3+3+4+3+2+",
"2+3+4+J+K+L+L+K+M+3+3+3+3+3+3+.@r+r+s+3+3+3+3+s+r+r+.@3+3+4+3+2+",
",@4+'@4+4+4+4+4+4+4+4+4+4+4+4+4+4+4+4+4+4+4+4+4+4+4+4+4+4+'@4+,@",
"2+3+4+3+3+3+3+3+3+3+3+3+3+3+3+3+3+3+3+3+3+3+3+3+3+3+3+3+3+4+3+2+",
")@2+,@2+2+2+2+2+2+2+2+2+2+2+2+2+2+2+2+2+2+2+2+2+2+2+2+2+2+,@2+)@"};
